<?xml version="1.0" encoding="utf-8" standalone="no"?>
<!DOCTYPE svg PUBLIC "-//W3C//DTD SVG 1.1//EN"
  "http://www.w3.org/Graphics/SVG/1.1/DTD/svg11.dtd">
<!-- Created with matplotlib (http://matplotlib.org/) -->
<svg height="1440pt" version="1.1" viewBox="0 0 1440 1440" width="1440pt" xmlns="http://www.w3.org/2000/svg" xmlns:xlink="http://www.w3.org/1999/xlink">
 <defs>
  <style type="text/css">
*{stroke-linecap:butt;stroke-linejoin:round;}
  </style>
 </defs>
 <g id="figure_1">
  <g id="patch_1">
   <path d="M 0 1440 
L 1440 1440 
L 1440 0 
L 0 0 
z
" style="fill:#ffffff;"/>
  </g>
  <g id="axes_1">
   <g id="patch_2">
    <path d="M 180 1281.6 
L 1296 1281.6 
L 1296 172.8 
L 180 172.8 
z
" style="fill:#ffffff;"/>
   </g>
   <g id="PathCollection_1">
    <defs>
     <path d="M 0 3 
C 0.795609 3 1.55874 2.683901 2.12132 2.12132 
C 2.683901 1.55874 3 0.795609 3 0 
C 3 -0.795609 2.683901 -1.55874 2.12132 -2.12132 
C 1.55874 -2.683901 0.795609 -3 0 -3 
C -0.795609 -3 -1.55874 -2.683901 -2.12132 -2.12132 
C -2.683901 -1.55874 -3 -0.795609 -3 0 
C -3 0.795609 -2.683901 1.55874 -2.12132 2.12132 
C -1.55874 2.683901 -0.795609 3 0 3 
z
" id="mf82efa8a19" style="stroke:#1f77b4;"/>
    </defs>
    <g clip-path="url(#p94047d48ce)">
     <use style="fill:#1f77b4;stroke:#1f77b4;" x="291.694909" xlink:href="#mf82efa8a19" y="1162.913023"/>
     <use style="fill:#1f77b4;stroke:#1f77b4;" x="344.286468" xlink:href="#mf82efa8a19" y="1085.54537"/>
     <use style="fill:#1f77b4;stroke:#1f77b4;" x="257.577439" xlink:href="#mf82efa8a19" y="1199.474339"/>
     <use style="fill:#1f77b4;stroke:#1f77b4;" x="276.349497" xlink:href="#mf82efa8a19" y="1136.138812"/>
     <use style="fill:#1f77b4;stroke:#1f77b4;" x="337.135207" xlink:href="#mf82efa8a19" y="1107.149699"/>
     <use style="fill:#1f77b4;stroke:#1f77b4;" x="333.410593" xlink:href="#mf82efa8a19" y="1114.903756"/>
     <use style="fill:#1f77b4;stroke:#1f77b4;" x="316.277366" xlink:href="#mf82efa8a19" y="1031.429948"/>
     <use style="fill:#1f77b4;stroke:#1f77b4;" x="321.789795" xlink:href="#mf82efa8a19" y="1146.84189"/>
     <use style="fill:#1f77b4;stroke:#1f77b4;" x="269.347221" xlink:href="#mf82efa8a19" y="1162.419292"/>
     <use style="fill:#1f77b4;stroke:#1f77b4;" x="352.033666" xlink:href="#mf82efa8a19" y="1154.776705"/>
     <use style="fill:#1f77b4;stroke:#1f77b4;" x="293.929678" xlink:href="#mf82efa8a19" y="1154.639997"/>
     <use style="fill:#1f77b4;stroke:#1f77b4;" x="491.185269" xlink:href="#mf82efa8a19" y="1121.179143"/>
     <use style="fill:#1f77b4;stroke:#1f77b4;" x="321.93878" xlink:href="#mf82efa8a19" y="1155.895235"/>
     <use style="fill:#1f77b4;stroke:#1f77b4;" x="447.979739" xlink:href="#mf82efa8a19" y="1076.256229"/>
     <use style="fill:#1f77b4;stroke:#1f77b4;" x="372.29557" xlink:href="#mf82efa8a19" y="979.235527"/>
     <use style="fill:#1f77b4;stroke:#1f77b4;" x="343.690529" xlink:href="#mf82efa8a19" y="1067.360474"/>
     <use style="fill:#1f77b4;stroke:#1f77b4;" x="280.968019" xlink:href="#mf82efa8a19" y="1103.332073"/>
     <use style="fill:#1f77b4;stroke:#1f77b4;" x="468.837581" xlink:href="#mf82efa8a19" y="1076.026451"/>
     <use style="fill:#1f77b4;stroke:#1f77b4;" x="722.111377" xlink:href="#mf82efa8a19" y="1002.159047"/>
     <use style="fill:#1f77b4;stroke:#1f77b4;" x="377.956984" xlink:href="#mf82efa8a19" y="1076.200223"/>
     <use style="fill:#1f77b4;stroke:#1f77b4;" x="395.835134" xlink:href="#mf82efa8a19" y="1132.739572"/>
     <use style="fill:#1f77b4;stroke:#1f77b4;" x="284.543649" xlink:href="#mf82efa8a19" y="1162.575394"/>
     <use style="fill:#1f77b4;stroke:#1f77b4;" x="380.936676" xlink:href="#mf82efa8a19" y="987.641363"/>
     <use style="fill:#1f77b4;stroke:#1f77b4;" x="266.218545" xlink:href="#mf82efa8a19" y="1233.232908"/>
     <use style="fill:#1f77b4;stroke:#1f77b4;" x="309.573059" xlink:href="#mf82efa8a19" y="1162.243686"/>
     <use style="fill:#1f77b4;stroke:#1f77b4;" x="359.63188" xlink:href="#mf82efa8a19" y="1144.981611"/>
     <use style="fill:#1f77b4;stroke:#1f77b4;" x="287.970294" xlink:href="#mf82efa8a19" y="1149.792356"/>
     <use style="fill:#1f77b4;stroke:#1f77b4;" x="301.080938" xlink:href="#mf82efa8a19" y="1164.509593"/>
     <use style="fill:#1f77b4;stroke:#1f77b4;" x="305.69946" xlink:href="#mf82efa8a19" y="1163.314202"/>
     <use style="fill:#1f77b4;stroke:#1f77b4;" x="266.218545" xlink:href="#mf82efa8a19" y="1200.222524"/>
     <use style="fill:#1f77b4;stroke:#1f77b4;" x="259.216269" xlink:href="#mf82efa8a19" y="1090.857358"/>
     <use style="fill:#1f77b4;stroke:#1f77b4;" x="279.925127" xlink:href="#mf82efa8a19" y="1179.115967"/>
     <use style="fill:#1f77b4;stroke:#1f77b4;" x="355.311327" xlink:href="#mf82efa8a19" y="1101.93221"/>
     <use style="fill:#1f77b4;stroke:#1f77b4;" x="375.126277" xlink:href="#mf82efa8a19" y="1126.444513"/>
     <use style="fill:#1f77b4;stroke:#1f77b4;" x="491.185269" xlink:href="#mf82efa8a19" y="1032.8942"/>
     <use style="fill:#1f77b4;stroke:#1f77b4;" x="374.083385" xlink:href="#mf82efa8a19" y="1098.71418"/>
     <use style="fill:#1f77b4;stroke:#1f77b4;" x="289.311156" xlink:href="#mf82efa8a19" y="1161.407978"/>
     <use style="fill:#1f77b4;stroke:#1f77b4;" x="355.162342" xlink:href="#mf82efa8a19" y="1117.089529"/>
     <use style="fill:#1f77b4;stroke:#1f77b4;" x="271.433005" xlink:href="#mf82efa8a19" y="1106.435702"/>
     <use style="fill:#1f77b4;stroke:#1f77b4;" x="310.317982" xlink:href="#mf82efa8a19" y="1126.046107"/>
     <use style="fill:#1f77b4;stroke:#1f77b4;" x="421.162514" xlink:href="#mf82efa8a19" y="1039.453391"/>
     <use style="fill:#1f77b4;stroke:#1f77b4;" x="309.573059" xlink:href="#mf82efa8a19" y="1102.22877"/>
     <use style="fill:#1f77b4;stroke:#1f77b4;" x="419.672668" xlink:href="#mf82efa8a19" y="1115.513971"/>
     <use style="fill:#1f77b4;stroke:#1f77b4;" x="433.081281" xlink:href="#mf82efa8a19" y="1108.518461"/>
     <use style="fill:#1f77b4;stroke:#1f77b4;" x="409.243747" xlink:href="#mf82efa8a19" y="1011.819345"/>
     <use style="fill:#1f77b4;stroke:#1f77b4;" x="395.835134" xlink:href="#mf82efa8a19" y="1065.215166"/>
     <use style="fill:#1f77b4;stroke:#1f77b4;" x="403.284363" xlink:href="#mf82efa8a19" y="991.613971"/>
     <use style="fill:#1f77b4;stroke:#1f77b4;" x="283.053803" xlink:href="#mf82efa8a19" y="1102.778979"/>
     <use style="fill:#1f77b4;stroke:#1f77b4;" x="262.49393" xlink:href="#mf82efa8a19" y="1183.437185"/>
     <use style="fill:#1f77b4;stroke:#1f77b4;" x="301.676876" xlink:href="#mf82efa8a19" y="1150.616538"/>
     <use style="fill:#1f77b4;stroke:#1f77b4;" x="335.794346" xlink:href="#mf82efa8a19" y="1154.553383"/>
     <use style="fill:#1f77b4;stroke:#1f77b4;" x="321.789795" xlink:href="#mf82efa8a19" y="1152.225774"/>
     <use style="fill:#1f77b4;stroke:#1f77b4;" x="250.277194" xlink:href="#mf82efa8a19" y="1210.804136"/>
     <use style="fill:#1f77b4;stroke:#1f77b4;" x="311.807828" xlink:href="#mf82efa8a19" y="1069.234201"/>
     <use style="fill:#1f77b4;stroke:#1f77b4;" x="339.667945" xlink:href="#mf82efa8a19" y="1151.075663"/>
     <use style="fill:#1f77b4;stroke:#1f77b4;" x="388.385905" xlink:href="#mf82efa8a19" y="1122.908302"/>
     <use style="fill:#1f77b4;stroke:#1f77b4;" x="425.632051" xlink:href="#mf82efa8a19" y="926.703635"/>
     <use style="fill:#1f77b4;stroke:#1f77b4;" x="276.200512" xlink:href="#mf82efa8a19" y="1147.674806"/>
     <use style="fill:#1f77b4;stroke:#1f77b4;" x="335.794346" xlink:href="#mf82efa8a19" y="1151.05546"/>
     <use style="fill:#1f77b4;stroke:#1f77b4;" x="382.426521" xlink:href="#mf82efa8a19" y="1099.668278"/>
     <use style="fill:#1f77b4;stroke:#1f77b4;" x="349.947882" xlink:href="#mf82efa8a19" y="1089.950387"/>
     <use style="fill:#1f77b4;stroke:#1f77b4;" x="328.494102" xlink:href="#mf82efa8a19" y="1113.138584"/>
     <use style="fill:#1f77b4;stroke:#1f77b4;" x="283.053803" xlink:href="#mf82efa8a19" y="1135.684347"/>
     <use style="fill:#1f77b4;stroke:#1f77b4;" x="340.263884" xlink:href="#mf82efa8a19" y="1108.774997"/>
     <use style="fill:#1f77b4;stroke:#1f77b4;" x="301.676876" xlink:href="#mf82efa8a19" y="1071.573287"/>
     <use style="fill:#1f77b4;stroke:#1f77b4;" x="256.385562" xlink:href="#mf82efa8a19" y="1177.325471"/>
     <use style="fill:#1f77b4;stroke:#1f77b4;" x="349.798897" xlink:href="#mf82efa8a19" y="1088.083378"/>
     <use style="fill:#1f77b4;stroke:#1f77b4;" x="330.72887" xlink:href="#mf82efa8a19" y="1096.494607"/>
     <use style="fill:#1f77b4;stroke:#1f77b4;" x="319.406042" xlink:href="#mf82efa8a19" y="1130.289085"/>
     <use style="fill:#1f77b4;stroke:#1f77b4;" x="296.760385" xlink:href="#mf82efa8a19" y="1106.570828"/>
     <use style="fill:#1f77b4;stroke:#1f77b4;" x="349.798897" xlink:href="#mf82efa8a19" y="1087.152063"/>
     <use style="fill:#1f77b4;stroke:#1f77b4;" x="280.819034" xlink:href="#mf82efa8a19" y="1165.184246"/>
     <use style="fill:#1f77b4;stroke:#1f77b4;" x="433.081281" xlink:href="#mf82efa8a19" y="1118.226586"/>
     <use style="fill:#1f77b4;stroke:#1f77b4;" x="294.227647" xlink:href="#mf82efa8a19" y="1098.536288"/>
     <use style="fill:#1f77b4;stroke:#1f77b4;" x="397.32498" xlink:href="#mf82efa8a19" y="1030.156483"/>
     <use style="fill:#1f77b4;stroke:#1f77b4;" x="495.654806" xlink:href="#mf82efa8a19" y="942.584895"/>
     <use style="fill:#1f77b4;stroke:#1f77b4;" x="789.15444" xlink:href="#mf82efa8a19" y="758.034905"/>
     <use style="fill:#1f77b4;stroke:#1f77b4;" x="262.642915" xlink:href="#mf82efa8a19" y="1172.125252"/>
     <use style="fill:#1f77b4;stroke:#1f77b4;" x="275.604574" xlink:href="#mf82efa8a19" y="1184.202282"/>
     <use style="fill:#1f77b4;stroke:#1f77b4;" x="273.518789" xlink:href="#mf82efa8a19" y="1169.527879"/>
     <use style="fill:#1f77b4;stroke:#1f77b4;" x="315.532443" xlink:href="#mf82efa8a19" y="1021.005767"/>
     <use style="fill:#1f77b4;stroke:#1f77b4;" x="309.722044" xlink:href="#mf82efa8a19" y="1146.118763"/>
     <use style="fill:#1f77b4;stroke:#1f77b4;" x="324.173549" xlink:href="#mf82efa8a19" y="1045.351594"/>
     <use style="fill:#1f77b4;stroke:#1f77b4;" x="403.284363" xlink:href="#mf82efa8a19" y="1022.832885"/>
     <use style="fill:#1f77b4;stroke:#1f77b4;" x="449.469585" xlink:href="#mf82efa8a19" y="981.521405"/>
     <use style="fill:#1f77b4;stroke:#1f77b4;" x="285.437556" xlink:href="#mf82efa8a19" y="1223.182953"/>
     <use style="fill:#1f77b4;stroke:#1f77b4;" x="282.457865" xlink:href="#mf82efa8a19" y="1168.657797"/>
     <use style="fill:#1f77b4;stroke:#1f77b4;" x="227.482553" xlink:href="#mf82efa8a19" y="1200.676814"/>
     <use style="fill:#1f77b4;stroke:#1f77b4;" x="336.092315" xlink:href="#mf82efa8a19" y="1116.263258"/>
     <use style="fill:#1f77b4;stroke:#1f77b4;" x="280.37208" xlink:href="#mf82efa8a19" y="1123.777481"/>
     <use style="fill:#1f77b4;stroke:#1f77b4;" x="298.5482" xlink:href="#mf82efa8a19" y="1049.705164"/>
     <use style="fill:#1f77b4;stroke:#1f77b4;" x="267.708391" xlink:href="#mf82efa8a19" y="1109.080637"/>
     <use style="fill:#1f77b4;stroke:#1f77b4;" x="471.817273" xlink:href="#mf82efa8a19" y="1028.27775"/>
     <use style="fill:#1f77b4;stroke:#1f77b4;" x="416.692976" xlink:href="#mf82efa8a19" y="1041.705432"/>
     <use style="fill:#1f77b4;stroke:#1f77b4;" x="407.753901" xlink:href="#mf82efa8a19" y="1164.683649"/>
     <use style="fill:#1f77b4;stroke:#1f77b4;" x="374.679323" xlink:href="#mf82efa8a19" y="1155.555076"/>
     <use style="fill:#1f77b4;stroke:#1f77b4;" x="397.32498" xlink:href="#mf82efa8a19" y="1120.057175"/>
     <use style="fill:#1f77b4;stroke:#1f77b4;" x="337.135207" xlink:href="#mf82efa8a19" y="1106.119743"/>
     <use style="fill:#1f77b4;stroke:#1f77b4;" x="268.602298" xlink:href="#mf82efa8a19" y="1198.793053"/>
     <use style="fill:#1f77b4;stroke:#1f77b4;" x="453.939123" xlink:href="#mf82efa8a19" y="1104.469499"/>
     <use style="fill:#1f77b4;stroke:#1f77b4;" x="403.284363" xlink:href="#mf82efa8a19" y="1126.256739"/>
     <use style="fill:#1f77b4;stroke:#1f77b4;" x="340.710838" xlink:href="#mf82efa8a19" y="1117.439992"/>
     <use style="fill:#1f77b4;stroke:#1f77b4;" x="300.484999" xlink:href="#mf82efa8a19" y="1124.253107"/>
     <use style="fill:#1f77b4;stroke:#1f77b4;" x="295.419524" xlink:href="#mf82efa8a19" y="1137.791884"/>
     <use style="fill:#1f77b4;stroke:#1f77b4;" x="375.275261" xlink:href="#mf82efa8a19" y="1077.577099"/>
     <use style="fill:#1f77b4;stroke:#1f77b4;" x="433.081281" xlink:href="#mf82efa8a19" y="1095.891021"/>
     <use style="fill:#1f77b4;stroke:#1f77b4;" x="237.166551" xlink:href="#mf82efa8a19" y="1136.930985"/>
     <use style="fill:#1f77b4;stroke:#1f77b4;" x="232.250059" xlink:href="#mf82efa8a19" y="1202.270815"/>
     <use style="fill:#1f77b4;stroke:#1f77b4;" x="303.017737" xlink:href="#mf82efa8a19" y="1132.018065"/>
     <use style="fill:#1f77b4;stroke:#1f77b4;" x="283.053803" xlink:href="#mf82efa8a19" y="1155.466155"/>
     <use style="fill:#1f77b4;stroke:#1f77b4;" x="428.611743" xlink:href="#mf82efa8a19" y="1063.881711"/>
     <use style="fill:#1f77b4;stroke:#1f77b4;" x="300.336015" xlink:href="#mf82efa8a19" y="1173.670346"/>
     <use style="fill:#1f77b4;stroke:#1f77b4;" x="375.126277" xlink:href="#mf82efa8a19" y="1052.745089"/>
     <use style="fill:#1f77b4;stroke:#1f77b4;" x="263.834791" xlink:href="#mf82efa8a19" y="1220.339656"/>
     <use style="fill:#1f77b4;stroke:#1f77b4;" x="328.643086" xlink:href="#mf82efa8a19" y="1099.711157"/>
     <use style="fill:#1f77b4;stroke:#1f77b4;" x="430.101589" xlink:href="#mf82efa8a19" y="1053.522211"/>
     <use style="fill:#1f77b4;stroke:#1f77b4;" x="288.566233" xlink:href="#mf82efa8a19" y="1156.173188"/>
     <use style="fill:#1f77b4;stroke:#1f77b4;" x="383.916367" xlink:href="#mf82efa8a19" y="1125.135788"/>
     <use style="fill:#1f77b4;stroke:#1f77b4;" x="352.927574" xlink:href="#mf82efa8a19" y="1154.280287"/>
     <use style="fill:#1f77b4;stroke:#1f77b4;" x="380.936676" xlink:href="#mf82efa8a19" y="1107.57067"/>
     <use style="fill:#1f77b4;stroke:#1f77b4;" x="310.317982" xlink:href="#mf82efa8a19" y="1112.330633"/>
     <use style="fill:#1f77b4;stroke:#1f77b4;" x="246.105626" xlink:href="#mf82efa8a19" y="1176.444214"/>
     <use style="fill:#1f77b4;stroke:#1f77b4;" x="343.39256" xlink:href="#mf82efa8a19" y="1166.786188"/>
     <use style="fill:#1f77b4;stroke:#1f77b4;" x="334.3045" xlink:href="#mf82efa8a19" y="1070.205375"/>
     <use style="fill:#1f77b4;stroke:#1f77b4;" x="262.49393" xlink:href="#mf82efa8a19" y="1182.896683"/>
     <use style="fill:#1f77b4;stroke:#1f77b4;" x="446.489893" xlink:href="#mf82efa8a19" y="1058.110377"/>
     <use style="fill:#1f77b4;stroke:#1f77b4;" x="532.900953" xlink:href="#mf82efa8a19" y="835.765322"/>
     <use style="fill:#1f77b4;stroke:#1f77b4;" x="245.360703" xlink:href="#mf82efa8a19" y="1113.090477"/>
     <use style="fill:#1f77b4;stroke:#1f77b4;" x="368.71994" xlink:href="#mf82efa8a19" y="1102.587907"/>
     <use style="fill:#1f77b4;stroke:#1f77b4;" x="326.557302" xlink:href="#mf82efa8a19" y="1176.768719"/>
     <use style="fill:#1f77b4;stroke:#1f77b4;" x="232.250059" xlink:href="#mf82efa8a19" y="1188.396097"/>
     <use style="fill:#1f77b4;stroke:#1f77b4;" x="382.426521" xlink:href="#mf82efa8a19" y="1068.761452"/>
     <use style="fill:#1f77b4;stroke:#1f77b4;" x="935.159334" xlink:href="#mf82efa8a19" y="664.34064"/>
     <use style="fill:#1f77b4;stroke:#1f77b4;" x="299.591092" xlink:href="#mf82efa8a19" y="1133.944127"/>
     <use style="fill:#1f77b4;stroke:#1f77b4;" x="363.20751" xlink:href="#mf82efa8a19" y="1066.869315"/>
     <use style="fill:#1f77b4;stroke:#1f77b4;" x="394.345288" xlink:href="#mf82efa8a19" y="1073.337119"/>
     <use style="fill:#1f77b4;stroke:#1f77b4;" x="291.247955" xlink:href="#mf82efa8a19" y="1165.139444"/>
     <use style="fill:#1f77b4;stroke:#1f77b4;" x="386.896059" xlink:href="#mf82efa8a19" y="1037.273809"/>
     <use style="fill:#1f77b4;stroke:#1f77b4;" x="324.024564" xlink:href="#mf82efa8a19" y="1100.734704"/>
     <use style="fill:#1f77b4;stroke:#1f77b4;" x="357.099142" xlink:href="#mf82efa8a19" y="1090.388453"/>
     <use style="fill:#1f77b4;stroke:#1f77b4;" x="374.232369" xlink:href="#mf82efa8a19" y="1113.647617"/>
     <use style="fill:#1f77b4;stroke:#1f77b4;" x="317.916196" xlink:href="#mf82efa8a19" y="1111.754974"/>
     <use style="fill:#1f77b4;stroke:#1f77b4;" x="340.263884" xlink:href="#mf82efa8a19" y="1088.233097"/>
     <use style="fill:#1f77b4;stroke:#1f77b4;" x="361.27071" xlink:href="#mf82efa8a19" y="1064.681642"/>
     <use style="fill:#1f77b4;stroke:#1f77b4;" x="287.82131" xlink:href="#mf82efa8a19" y="1093.711061"/>
     <use style="fill:#1f77b4;stroke:#1f77b4;" x="271.433005" xlink:href="#mf82efa8a19" y="1149.6784"/>
     <use style="fill:#1f77b4;stroke:#1f77b4;" x="360.525787" xlink:href="#mf82efa8a19" y="1150.396386"/>
     <use style="fill:#1f77b4;stroke:#1f77b4;" x="415.20313" xlink:href="#mf82efa8a19" y="995.39754"/>
     <use style="fill:#1f77b4;stroke:#1f77b4;" x="274.859651" xlink:href="#mf82efa8a19" y="1090.658063"/>
     <use style="fill:#1f77b4;stroke:#1f77b4;" x="352.331635" xlink:href="#mf82efa8a19" y="1092.021431"/>
     <use style="fill:#1f77b4;stroke:#1f77b4;" x="340.114899" xlink:href="#mf82efa8a19" y="1098.232108"/>
     <use style="fill:#1f77b4;stroke:#1f77b4;" x="263.387838" xlink:href="#mf82efa8a19" y="1277.311253"/>
     <use style="fill:#1f77b4;stroke:#1f77b4;" x="245.360703" xlink:href="#mf82efa8a19" y="1190.946892"/>
     <use style="fill:#1f77b4;stroke:#1f77b4;" x="473.307119" xlink:href="#mf82efa8a19" y="1124.670326"/>
     <use style="fill:#1f77b4;stroke:#1f77b4;" x="344.435452" xlink:href="#mf82efa8a19" y="1113.913329"/>
     <use style="fill:#1f77b4;stroke:#1f77b4;" x="535.880645" xlink:href="#mf82efa8a19" y="1025.418166"/>
     <use style="fill:#1f77b4;stroke:#1f77b4;" x="492.675115" xlink:href="#mf82efa8a19" y="902.345205"/>
     <use style="fill:#1f77b4;stroke:#1f77b4;" x="361.717664" xlink:href="#mf82efa8a19" y="1116.07411"/>
     <use style="fill:#1f77b4;stroke:#1f77b4;" x="372.593539" xlink:href="#mf82efa8a19" y="1112.89555"/>
     <use style="fill:#1f77b4;stroke:#1f77b4;" x="400.304672" xlink:href="#mf82efa8a19" y="1162.225578"/>
     <use style="fill:#1f77b4;stroke:#1f77b4;" x="447.979739" xlink:href="#mf82efa8a19" y="987.732401"/>
     <use style="fill:#1f77b4;stroke:#1f77b4;" x="365.740248" xlink:href="#mf82efa8a19" y="1039.413404"/>
     <use style="fill:#1f77b4;stroke:#1f77b4;" x="262.642915" xlink:href="#mf82efa8a19" y="1147.245338"/>
     <use style="fill:#1f77b4;stroke:#1f77b4;" x="296.760385" xlink:href="#mf82efa8a19" y="1107.73268"/>
     <use style="fill:#1f77b4;stroke:#1f77b4;" x="309.871028" xlink:href="#mf82efa8a19" y="1089.449396"/>
     <use style="fill:#1f77b4;stroke:#1f77b4;" x="373.189477" xlink:href="#mf82efa8a19" y="1053.394977"/>
     <use style="fill:#1f77b4;stroke:#1f77b4;" x="289.311156" xlink:href="#mf82efa8a19" y="1140.030697"/>
     <use style="fill:#1f77b4;stroke:#1f77b4;" x="319.257057" xlink:href="#mf82efa8a19" y="1119.03541"/>
     <use style="fill:#1f77b4;stroke:#1f77b4;" x="325.51441" xlink:href="#mf82efa8a19" y="1152.117042"/>
     <use style="fill:#1f77b4;stroke:#1f77b4;" x="323.279641" xlink:href="#mf82efa8a19" y="1095.73632"/>
     <use style="fill:#1f77b4;stroke:#1f77b4;" x="250.873132" xlink:href="#mf82efa8a19" y="1139.996155"/>
     <use style="fill:#1f77b4;stroke:#1f77b4;" x="415.20313" xlink:href="#mf82efa8a19" y="882.728947"/>
     <use style="fill:#1f77b4;stroke:#1f77b4;" x="413.713284" xlink:href="#mf82efa8a19" y="1086.922843"/>
     <use style="fill:#1f77b4;stroke:#1f77b4;" x="251.469071" xlink:href="#mf82efa8a19" y="1169.909059"/>
     <use style="fill:#1f77b4;stroke:#1f77b4;" x="272.475897" xlink:href="#mf82efa8a19" y="1135.634884"/>
     <use style="fill:#1f77b4;stroke:#1f77b4;" x="348.160067" xlink:href="#mf82efa8a19" y="1047.696361"/>
     <use style="fill:#1f77b4;stroke:#1f77b4;" x="304.358599" xlink:href="#mf82efa8a19" y="1065.789687"/>
     <use style="fill:#1f77b4;stroke:#1f77b4;" x="308.530167" xlink:href="#mf82efa8a19" y="1135.809975"/>
     <use style="fill:#1f77b4;stroke:#1f77b4;" x="245.360703" xlink:href="#mf82efa8a19" y="1213.938175"/>
     <use style="fill:#1f77b4;stroke:#1f77b4;" x="310.615951" xlink:href="#mf82efa8a19" y="1092.691045"/>
     <use style="fill:#1f77b4;stroke:#1f77b4;" x="296.760385" xlink:href="#mf82efa8a19" y="1132.75669"/>
     <use style="fill:#1f77b4;stroke:#1f77b4;" x="298.101246" xlink:href="#mf82efa8a19" y="1188.18517"/>
     <use style="fill:#1f77b4;stroke:#1f77b4;" x="296.760385" xlink:href="#mf82efa8a19" y="1158.921032"/>
     <use style="fill:#1f77b4;stroke:#1f77b4;" x="296.462416" xlink:href="#mf82efa8a19" y="1172.999235"/>
     <use style="fill:#1f77b4;stroke:#1f77b4;" x="315.830412" xlink:href="#mf82efa8a19" y="1141.515476"/>
     <use style="fill:#1f77b4;stroke:#1f77b4;" x="232.250059" xlink:href="#mf82efa8a19" y="1203.680058"/>
     <use style="fill:#1f77b4;stroke:#1f77b4;" x="380.936676" xlink:href="#mf82efa8a19" y="1164.509259"/>
     <use style="fill:#1f77b4;stroke:#1f77b4;" x="321.789795" xlink:href="#mf82efa8a19" y="1161.725492"/>
     <use style="fill:#1f77b4;stroke:#1f77b4;" x="277.243404" xlink:href="#mf82efa8a19" y="1146.461179"/>
     <use style="fill:#1f77b4;stroke:#1f77b4;" x="412.223439" xlink:href="#mf82efa8a19" y="940.014302"/>
     <use style="fill:#1f77b4;stroke:#1f77b4;" x="296.760385" xlink:href="#mf82efa8a19" y="1136.988741"/>
     <use style="fill:#1f77b4;stroke:#1f77b4;" x="421.162514" xlink:href="#mf82efa8a19" y="1065.183914"/>
     <use style="fill:#1f77b4;stroke:#1f77b4;" x="326.557302" xlink:href="#mf82efa8a19" y="1136.363523"/>
     <use style="fill:#1f77b4;stroke:#1f77b4;" x="433.081281" xlink:href="#mf82efa8a19" y="1074.914069"/>
     <use style="fill:#1f77b4;stroke:#1f77b4;" x="757.867677" xlink:href="#mf82efa8a19" y="718.215994"/>
     <use style="fill:#1f77b4;stroke:#1f77b4;" x="339.072007" xlink:href="#mf82efa8a19" y="1067.296905"/>
     <use style="fill:#1f77b4;stroke:#1f77b4;" x="347.266159" xlink:href="#mf82efa8a19" y="1115.222765"/>
     <use style="fill:#1f77b4;stroke:#1f77b4;" x="341.306776" xlink:href="#mf82efa8a19" y="1105.56921"/>
     <use style="fill:#1f77b4;stroke:#1f77b4;" x="283.053803" xlink:href="#mf82efa8a19" y="1175.823705"/>
     <use style="fill:#1f77b4;stroke:#1f77b4;" x="362.164618" xlink:href="#mf82efa8a19" y="1123.489018"/>
     <use style="fill:#1f77b4;stroke:#1f77b4;" x="266.218545" xlink:href="#mf82efa8a19" y="1207.764383"/>
     <use style="fill:#1f77b4;stroke:#1f77b4;" x="335.943331" xlink:href="#mf82efa8a19" y="1086.300418"/>
     <use style="fill:#1f77b4;stroke:#1f77b4;" x="278.286296" xlink:href="#mf82efa8a19" y="1076.57475"/>
     <use style="fill:#1f77b4;stroke:#1f77b4;" x="283.202788" xlink:href="#mf82efa8a19" y="1165.972184"/>
     <use style="fill:#1f77b4;stroke:#1f77b4;" x="434.571126" xlink:href="#mf82efa8a19" y="1093.08352"/>
     <use style="fill:#1f77b4;stroke:#1f77b4;" x="356.950157" xlink:href="#mf82efa8a19" y="1109.789339"/>
     <use style="fill:#1f77b4;stroke:#1f77b4;" x="276.79645" xlink:href="#mf82efa8a19" y="1113.956409"/>
     <use style="fill:#1f77b4;stroke:#1f77b4;" x="421.162514" xlink:href="#mf82efa8a19" y="1156.934306"/>
     <use style="fill:#1f77b4;stroke:#1f77b4;" x="403.284363" xlink:href="#mf82efa8a19" y="1009.642642"/>
     <use style="fill:#1f77b4;stroke:#1f77b4;" x="433.081281" xlink:href="#mf82efa8a19" y="1091.615657"/>
     <use style="fill:#1f77b4;stroke:#1f77b4;" x="270.241129" xlink:href="#mf82efa8a19" y="1189.204144"/>
     <use style="fill:#1f77b4;stroke:#1f77b4;" x="306.891337" xlink:href="#mf82efa8a19" y="1067.154388"/>
     <use style="fill:#1f77b4;stroke:#1f77b4;" x="356.801173" xlink:href="#mf82efa8a19" y="1110.404069"/>
     <use style="fill:#1f77b4;stroke:#1f77b4;" x="418.182822" xlink:href="#mf82efa8a19" y="1107.447378"/>
     <use style="fill:#1f77b4;stroke:#1f77b4;" x="287.82131" xlink:href="#mf82efa8a19" y="1103.742081"/>
     <use style="fill:#1f77b4;stroke:#1f77b4;" x="281.861926" xlink:href="#mf82efa8a19" y="1173.191446"/>
     <use style="fill:#1f77b4;stroke:#1f77b4;" x="385.406213" xlink:href="#mf82efa8a19" y="1145.743888"/>
     <use style="fill:#1f77b4;stroke:#1f77b4;" x="286.629433" xlink:href="#mf82efa8a19" y="1147.806413"/>
     <use style="fill:#1f77b4;stroke:#1f77b4;" x="275.604574" xlink:href="#mf82efa8a19" y="1184.202282"/>
     <use style="fill:#1f77b4;stroke:#1f77b4;" x="279.627157" xlink:href="#mf82efa8a19" y="1080.378228"/>
     <use style="fill:#1f77b4;stroke:#1f77b4;" x="364.995325" xlink:href="#mf82efa8a19" y="1129.318695"/>
     <use style="fill:#1f77b4;stroke:#1f77b4;" x="328.941055" xlink:href="#mf82efa8a19" y="1133.730056"/>
     <use style="fill:#1f77b4;stroke:#1f77b4;" x="400.304672" xlink:href="#mf82efa8a19" y="1085.521226"/>
     <use style="fill:#1f77b4;stroke:#1f77b4;" x="541.840028" xlink:href="#mf82efa8a19" y="1025.824541"/>
     <use style="fill:#1f77b4;stroke:#1f77b4;" x="344.137483" xlink:href="#mf82efa8a19" y="1152.770138"/>
     <use style="fill:#1f77b4;stroke:#1f77b4;" x="638.680009" xlink:href="#mf82efa8a19" y="884.73431"/>
     <use style="fill:#1f77b4;stroke:#1f77b4;" x="518.002494" xlink:href="#mf82efa8a19" y="855.518551"/>
     <use style="fill:#1f77b4;stroke:#1f77b4;" x="283.053803" xlink:href="#mf82efa8a19" y="1159.644104"/>
     <use style="fill:#1f77b4;stroke:#1f77b4;" x="323.428626" xlink:href="#mf82efa8a19" y="1145.385284"/>
     <use style="fill:#1f77b4;stroke:#1f77b4;" x="428.611743" xlink:href="#mf82efa8a19" y="1077.825596"/>
     <use style="fill:#1f77b4;stroke:#1f77b4;" x="321.789795" xlink:href="#mf82efa8a19" y="1130.412305"/>
     <use style="fill:#1f77b4;stroke:#1f77b4;" x="348.309051" xlink:href="#mf82efa8a19" y="1131.904907"/>
     <use style="fill:#1f77b4;stroke:#1f77b4;" x="227.482553" xlink:href="#mf82efa8a19" y="1096.708208"/>
     <use style="fill:#1f77b4;stroke:#1f77b4;" x="341.75373" xlink:href="#mf82efa8a19" y="964.843901"/>
     <use style="fill:#1f77b4;stroke:#1f77b4;" x="301.676876" xlink:href="#mf82efa8a19" y="1097.813971"/>
     <use style="fill:#1f77b4;stroke:#1f77b4;" x="314.042597" xlink:href="#mf82efa8a19" y="1158.327585"/>
     <use style="fill:#1f77b4;stroke:#1f77b4;" x="1198.86205" xlink:href="#mf82efa8a19" y="752.765457"/>
     <use style="fill:#1f77b4;stroke:#1f77b4;" x="382.426521" xlink:href="#mf82efa8a19" y="1154.840099"/>
     <use style="fill:#1f77b4;stroke:#1f77b4;" x="314.191581" xlink:href="#mf82efa8a19" y="1161.767102"/>
    </g>
   </g>
   <g id="matplotlib.axis_1">
    <g id="xtick_1">
     <g id="line2d_1">
      <defs>
       <path d="M 0 0 
L 0 3.5 
" id="mbf42a91345" style="stroke:#000000;stroke-width:0.8;"/>
      </defs>
      <g>
       <use style="stroke:#000000;stroke-width:0.8;" x="227.482553" xlink:href="#mbf42a91345" y="1281.6"/>
      </g>
     </g>
     <g id="text_1">
      <!-- 0 -->
      <defs>
       <path d="M 31.78125 66.40625 
Q 24.171875 66.40625 20.328125 58.90625 
Q 16.5 51.421875 16.5 36.375 
Q 16.5 21.390625 20.328125 13.890625 
Q 24.171875 6.390625 31.78125 6.390625 
Q 39.453125 6.390625 43.28125 13.890625 
Q 47.125 21.390625 47.125 36.375 
Q 47.125 51.421875 43.28125 58.90625 
Q 39.453125 66.40625 31.78125 66.40625 
z
M 31.78125 74.21875 
Q 44.046875 74.21875 50.515625 64.515625 
Q 56.984375 54.828125 56.984375 36.375 
Q 56.984375 17.96875 50.515625 8.265625 
Q 44.046875 -1.421875 31.78125 -1.421875 
Q 19.53125 -1.421875 13.0625 8.265625 
Q 6.59375 17.96875 6.59375 36.375 
Q 6.59375 54.828125 13.0625 64.515625 
Q 19.53125 74.21875 31.78125 74.21875 
z
" id="DejaVuSans-30"/>
      </defs>
      <g transform="translate(224.301303 1296.198437)scale(0.1 -0.1)">
       <use xlink:href="#DejaVuSans-30"/>
      </g>
     </g>
    </g>
    <g id="xtick_2">
     <g id="line2d_2">
      <g>
       <use style="stroke:#000000;stroke-width:0.8;" x="376.467138" xlink:href="#mbf42a91345" y="1281.6"/>
      </g>
     </g>
     <g id="text_2">
      <!-- 100 -->
      <defs>
       <path d="M 12.40625 8.296875 
L 28.515625 8.296875 
L 28.515625 63.921875 
L 10.984375 60.40625 
L 10.984375 69.390625 
L 28.421875 72.90625 
L 38.28125 72.90625 
L 38.28125 8.296875 
L 54.390625 8.296875 
L 54.390625 0 
L 12.40625 0 
z
" id="DejaVuSans-31"/>
      </defs>
      <g transform="translate(366.923388 1296.198437)scale(0.1 -0.1)">
       <use xlink:href="#DejaVuSans-31"/>
       <use x="63.623047" xlink:href="#DejaVuSans-30"/>
       <use x="127.246094" xlink:href="#DejaVuSans-30"/>
      </g>
     </g>
    </g>
    <g id="xtick_3">
     <g id="line2d_3">
      <g>
       <use style="stroke:#000000;stroke-width:0.8;" x="525.451724" xlink:href="#mbf42a91345" y="1281.6"/>
      </g>
     </g>
     <g id="text_3">
      <!-- 200 -->
      <defs>
       <path d="M 19.1875 8.296875 
L 53.609375 8.296875 
L 53.609375 0 
L 7.328125 0 
L 7.328125 8.296875 
Q 12.9375 14.109375 22.625 23.890625 
Q 32.328125 33.6875 34.8125 36.53125 
Q 39.546875 41.84375 41.421875 45.53125 
Q 43.3125 49.21875 43.3125 52.78125 
Q 43.3125 58.59375 39.234375 62.25 
Q 35.15625 65.921875 28.609375 65.921875 
Q 23.96875 65.921875 18.8125 64.3125 
Q 13.671875 62.703125 7.8125 59.421875 
L 7.8125 69.390625 
Q 13.765625 71.78125 18.9375 73 
Q 24.125 74.21875 28.421875 74.21875 
Q 39.75 74.21875 46.484375 68.546875 
Q 53.21875 62.890625 53.21875 53.421875 
Q 53.21875 48.921875 51.53125 44.890625 
Q 49.859375 40.875 45.40625 35.40625 
Q 44.1875 33.984375 37.640625 27.21875 
Q 31.109375 20.453125 19.1875 8.296875 
z
" id="DejaVuSans-32"/>
      </defs>
      <g transform="translate(515.907974 1296.198437)scale(0.1 -0.1)">
       <use xlink:href="#DejaVuSans-32"/>
       <use x="63.623047" xlink:href="#DejaVuSans-30"/>
       <use x="127.246094" xlink:href="#DejaVuSans-30"/>
      </g>
     </g>
    </g>
    <g id="xtick_4">
     <g id="line2d_4">
      <g>
       <use style="stroke:#000000;stroke-width:0.8;" x="674.436309" xlink:href="#mbf42a91345" y="1281.6"/>
      </g>
     </g>
     <g id="text_4">
      <!-- 300 -->
      <defs>
       <path d="M 40.578125 39.3125 
Q 47.65625 37.796875 51.625 33 
Q 55.609375 28.21875 55.609375 21.1875 
Q 55.609375 10.40625 48.1875 4.484375 
Q 40.765625 -1.421875 27.09375 -1.421875 
Q 22.515625 -1.421875 17.65625 -0.515625 
Q 12.796875 0.390625 7.625 2.203125 
L 7.625 11.71875 
Q 11.71875 9.328125 16.59375 8.109375 
Q 21.484375 6.890625 26.8125 6.890625 
Q 36.078125 6.890625 40.9375 10.546875 
Q 45.796875 14.203125 45.796875 21.1875 
Q 45.796875 27.640625 41.28125 31.265625 
Q 36.765625 34.90625 28.71875 34.90625 
L 20.21875 34.90625 
L 20.21875 43.015625 
L 29.109375 43.015625 
Q 36.375 43.015625 40.234375 45.921875 
Q 44.09375 48.828125 44.09375 54.296875 
Q 44.09375 59.90625 40.109375 62.90625 
Q 36.140625 65.921875 28.71875 65.921875 
Q 24.65625 65.921875 20.015625 65.03125 
Q 15.375 64.15625 9.8125 62.3125 
L 9.8125 71.09375 
Q 15.4375 72.65625 20.34375 73.4375 
Q 25.25 74.21875 29.59375 74.21875 
Q 40.828125 74.21875 47.359375 69.109375 
Q 53.90625 64.015625 53.90625 55.328125 
Q 53.90625 49.265625 50.4375 45.09375 
Q 46.96875 40.921875 40.578125 39.3125 
z
" id="DejaVuSans-33"/>
      </defs>
      <g transform="translate(664.892559 1296.198437)scale(0.1 -0.1)">
       <use xlink:href="#DejaVuSans-33"/>
       <use x="63.623047" xlink:href="#DejaVuSans-30"/>
       <use x="127.246094" xlink:href="#DejaVuSans-30"/>
      </g>
     </g>
    </g>
    <g id="xtick_5">
     <g id="line2d_5">
      <g>
       <use style="stroke:#000000;stroke-width:0.8;" x="823.420895" xlink:href="#mbf42a91345" y="1281.6"/>
      </g>
     </g>
     <g id="text_5">
      <!-- 400 -->
      <defs>
       <path d="M 37.796875 64.3125 
L 12.890625 25.390625 
L 37.796875 25.390625 
z
M 35.203125 72.90625 
L 47.609375 72.90625 
L 47.609375 25.390625 
L 58.015625 25.390625 
L 58.015625 17.1875 
L 47.609375 17.1875 
L 47.609375 0 
L 37.796875 0 
L 37.796875 17.1875 
L 4.890625 17.1875 
L 4.890625 26.703125 
z
" id="DejaVuSans-34"/>
      </defs>
      <g transform="translate(813.877145 1296.198437)scale(0.1 -0.1)">
       <use xlink:href="#DejaVuSans-34"/>
       <use x="63.623047" xlink:href="#DejaVuSans-30"/>
       <use x="127.246094" xlink:href="#DejaVuSans-30"/>
      </g>
     </g>
    </g>
    <g id="xtick_6">
     <g id="line2d_6">
      <g>
       <use style="stroke:#000000;stroke-width:0.8;" x="972.40548" xlink:href="#mbf42a91345" y="1281.6"/>
      </g>
     </g>
     <g id="text_6">
      <!-- 500 -->
      <defs>
       <path d="M 10.796875 72.90625 
L 49.515625 72.90625 
L 49.515625 64.59375 
L 19.828125 64.59375 
L 19.828125 46.734375 
Q 21.96875 47.46875 24.109375 47.828125 
Q 26.265625 48.1875 28.421875 48.1875 
Q 40.625 48.1875 47.75 41.5 
Q 54.890625 34.8125 54.890625 23.390625 
Q 54.890625 11.625 47.5625 5.09375 
Q 40.234375 -1.421875 26.90625 -1.421875 
Q 22.3125 -1.421875 17.546875 -0.640625 
Q 12.796875 0.140625 7.71875 1.703125 
L 7.71875 11.625 
Q 12.109375 9.234375 16.796875 8.0625 
Q 21.484375 6.890625 26.703125 6.890625 
Q 35.15625 6.890625 40.078125 11.328125 
Q 45.015625 15.765625 45.015625 23.390625 
Q 45.015625 31 40.078125 35.4375 
Q 35.15625 39.890625 26.703125 39.890625 
Q 22.75 39.890625 18.8125 39.015625 
Q 14.890625 38.140625 10.796875 36.28125 
z
" id="DejaVuSans-35"/>
      </defs>
      <g transform="translate(962.86173 1296.198437)scale(0.1 -0.1)">
       <use xlink:href="#DejaVuSans-35"/>
       <use x="63.623047" xlink:href="#DejaVuSans-30"/>
       <use x="127.246094" xlink:href="#DejaVuSans-30"/>
      </g>
     </g>
    </g>
    <g id="xtick_7">
     <g id="line2d_7">
      <g>
       <use style="stroke:#000000;stroke-width:0.8;" x="1121.390066" xlink:href="#mbf42a91345" y="1281.6"/>
      </g>
     </g>
     <g id="text_7">
      <!-- 600 -->
      <defs>
       <path d="M 33.015625 40.375 
Q 26.375 40.375 22.484375 35.828125 
Q 18.609375 31.296875 18.609375 23.390625 
Q 18.609375 15.53125 22.484375 10.953125 
Q 26.375 6.390625 33.015625 6.390625 
Q 39.65625 6.390625 43.53125 10.953125 
Q 47.40625 15.53125 47.40625 23.390625 
Q 47.40625 31.296875 43.53125 35.828125 
Q 39.65625 40.375 33.015625 40.375 
z
M 52.59375 71.296875 
L 52.59375 62.3125 
Q 48.875 64.0625 45.09375 64.984375 
Q 41.3125 65.921875 37.59375 65.921875 
Q 27.828125 65.921875 22.671875 59.328125 
Q 17.53125 52.734375 16.796875 39.40625 
Q 19.671875 43.65625 24.015625 45.921875 
Q 28.375 48.1875 33.59375 48.1875 
Q 44.578125 48.1875 50.953125 41.515625 
Q 57.328125 34.859375 57.328125 23.390625 
Q 57.328125 12.15625 50.6875 5.359375 
Q 44.046875 -1.421875 33.015625 -1.421875 
Q 20.359375 -1.421875 13.671875 8.265625 
Q 6.984375 17.96875 6.984375 36.375 
Q 6.984375 53.65625 15.1875 63.9375 
Q 23.390625 74.21875 37.203125 74.21875 
Q 40.921875 74.21875 44.703125 73.484375 
Q 48.484375 72.75 52.59375 71.296875 
z
" id="DejaVuSans-36"/>
      </defs>
      <g transform="translate(1111.846316 1296.198437)scale(0.1 -0.1)">
       <use xlink:href="#DejaVuSans-36"/>
       <use x="63.623047" xlink:href="#DejaVuSans-30"/>
       <use x="127.246094" xlink:href="#DejaVuSans-30"/>
      </g>
     </g>
    </g>
    <g id="xtick_8">
     <g id="line2d_8">
      <g>
       <use style="stroke:#000000;stroke-width:0.8;" x="1270.374651" xlink:href="#mbf42a91345" y="1281.6"/>
      </g>
     </g>
     <g id="text_8">
      <!-- 700 -->
      <defs>
       <path d="M 8.203125 72.90625 
L 55.078125 72.90625 
L 55.078125 68.703125 
L 28.609375 0 
L 18.3125 0 
L 43.21875 64.59375 
L 8.203125 64.59375 
z
" id="DejaVuSans-37"/>
      </defs>
      <g transform="translate(1260.830901 1296.198437)scale(0.1 -0.1)">
       <use xlink:href="#DejaVuSans-37"/>
       <use x="63.623047" xlink:href="#DejaVuSans-30"/>
       <use x="127.246094" xlink:href="#DejaVuSans-30"/>
      </g>
     </g>
    </g>
    <g id="text_9">
     <!-- Y Test -->
     <defs>
      <path d="M -0.203125 72.90625 
L 10.40625 72.90625 
L 30.609375 42.921875 
L 50.6875 72.90625 
L 61.28125 72.90625 
L 35.5 34.71875 
L 35.5 0 
L 25.59375 0 
L 25.59375 34.71875 
z
" id="DejaVuSans-59"/>
      <path id="DejaVuSans-20"/>
      <path d="M -0.296875 72.90625 
L 61.375 72.90625 
L 61.375 64.59375 
L 35.5 64.59375 
L 35.5 0 
L 25.59375 0 
L 25.59375 64.59375 
L -0.296875 64.59375 
z
" id="DejaVuSans-54"/>
      <path d="M 56.203125 29.59375 
L 56.203125 25.203125 
L 14.890625 25.203125 
Q 15.484375 15.921875 20.484375 11.0625 
Q 25.484375 6.203125 34.421875 6.203125 
Q 39.59375 6.203125 44.453125 7.46875 
Q 49.3125 8.734375 54.109375 11.28125 
L 54.109375 2.78125 
Q 49.265625 0.734375 44.1875 -0.34375 
Q 39.109375 -1.421875 33.890625 -1.421875 
Q 20.796875 -1.421875 13.15625 6.1875 
Q 5.515625 13.8125 5.515625 26.8125 
Q 5.515625 40.234375 12.765625 48.109375 
Q 20.015625 56 32.328125 56 
Q 43.359375 56 49.78125 48.890625 
Q 56.203125 41.796875 56.203125 29.59375 
z
M 47.21875 32.234375 
Q 47.125 39.59375 43.09375 43.984375 
Q 39.0625 48.390625 32.421875 48.390625 
Q 24.90625 48.390625 20.390625 44.140625 
Q 15.875 39.890625 15.1875 32.171875 
z
" id="DejaVuSans-65"/>
      <path d="M 44.28125 53.078125 
L 44.28125 44.578125 
Q 40.484375 46.53125 36.375 47.5 
Q 32.28125 48.484375 27.875 48.484375 
Q 21.1875 48.484375 17.84375 46.4375 
Q 14.5 44.390625 14.5 40.28125 
Q 14.5 37.15625 16.890625 35.375 
Q 19.28125 33.59375 26.515625 31.984375 
L 29.59375 31.296875 
Q 39.15625 29.25 43.1875 25.515625 
Q 47.21875 21.78125 47.21875 15.09375 
Q 47.21875 7.46875 41.1875 3.015625 
Q 35.15625 -1.421875 24.609375 -1.421875 
Q 20.21875 -1.421875 15.453125 -0.5625 
Q 10.6875 0.296875 5.421875 2 
L 5.421875 11.28125 
Q 10.40625 8.6875 15.234375 7.390625 
Q 20.0625 6.109375 24.8125 6.109375 
Q 31.15625 6.109375 34.5625 8.28125 
Q 37.984375 10.453125 37.984375 14.40625 
Q 37.984375 18.0625 35.515625 20.015625 
Q 33.0625 21.96875 24.703125 23.78125 
L 21.578125 24.515625 
Q 13.234375 26.265625 9.515625 29.90625 
Q 5.8125 33.546875 5.8125 39.890625 
Q 5.8125 47.609375 11.28125 51.796875 
Q 16.75 56 26.8125 56 
Q 31.78125 56 36.171875 55.265625 
Q 40.578125 54.546875 44.28125 53.078125 
z
" id="DejaVuSans-73"/>
      <path d="M 18.3125 70.21875 
L 18.3125 54.6875 
L 36.8125 54.6875 
L 36.8125 47.703125 
L 18.3125 47.703125 
L 18.3125 18.015625 
Q 18.3125 11.328125 20.140625 9.421875 
Q 21.96875 7.515625 27.59375 7.515625 
L 36.8125 7.515625 
L 36.8125 0 
L 27.59375 0 
Q 17.1875 0 13.234375 3.875 
Q 9.28125 7.765625 9.28125 18.015625 
L 9.28125 47.703125 
L 2.6875 47.703125 
L 2.6875 54.6875 
L 9.28125 54.6875 
L 9.28125 70.21875 
z
" id="DejaVuSans-74"/>
     </defs>
     <g transform="translate(722.675 1309.876563)scale(0.1 -0.1)">
      <use xlink:href="#DejaVuSans-59"/>
      <use x="61.083984" xlink:href="#DejaVuSans-20"/>
      <use x="92.871094" xlink:href="#DejaVuSans-54"/>
      <use x="153.689453" xlink:href="#DejaVuSans-65"/>
      <use x="215.212891" xlink:href="#DejaVuSans-73"/>
      <use x="267.3125" xlink:href="#DejaVuSans-74"/>
     </g>
    </g>
   </g>
   <g id="matplotlib.axis_2">
    <g id="ytick_1">
     <g id="line2d_9">
      <defs>
       <path d="M 0 0 
L -3.5 0 
" id="m704e44ad87" style="stroke:#000000;stroke-width:0.8;"/>
      </defs>
      <g>
       <use style="stroke:#000000;stroke-width:0.8;" x="180" xlink:href="#m704e44ad87" y="1234.423787"/>
      </g>
     </g>
     <g id="text_10">
      <!-- 0 -->
      <g transform="translate(166.6375 1238.223005)scale(0.1 -0.1)">
       <use xlink:href="#DejaVuSans-30"/>
      </g>
     </g>
    </g>
    <g id="ytick_2">
     <g id="line2d_10">
      <g>
       <use style="stroke:#000000;stroke-width:0.8;" x="180" xlink:href="#m704e44ad87" y="1086.400392"/>
      </g>
     </g>
     <g id="text_11">
      <!-- 100 -->
      <g transform="translate(153.9125 1090.199611)scale(0.1 -0.1)">
       <use xlink:href="#DejaVuSans-31"/>
       <use x="63.623047" xlink:href="#DejaVuSans-30"/>
       <use x="127.246094" xlink:href="#DejaVuSans-30"/>
      </g>
     </g>
    </g>
    <g id="ytick_3">
     <g id="line2d_11">
      <g>
       <use style="stroke:#000000;stroke-width:0.8;" x="180" xlink:href="#m704e44ad87" y="938.376997"/>
      </g>
     </g>
     <g id="text_12">
      <!-- 200 -->
      <g transform="translate(153.9125 942.176216)scale(0.1 -0.1)">
       <use xlink:href="#DejaVuSans-32"/>
       <use x="63.623047" xlink:href="#DejaVuSans-30"/>
       <use x="127.246094" xlink:href="#DejaVuSans-30"/>
      </g>
     </g>
    </g>
    <g id="ytick_4">
     <g id="line2d_12">
      <g>
       <use style="stroke:#000000;stroke-width:0.8;" x="180" xlink:href="#m704e44ad87" y="790.353603"/>
      </g>
     </g>
     <g id="text_13">
      <!-- 300 -->
      <g transform="translate(153.9125 794.152821)scale(0.1 -0.1)">
       <use xlink:href="#DejaVuSans-33"/>
       <use x="63.623047" xlink:href="#DejaVuSans-30"/>
       <use x="127.246094" xlink:href="#DejaVuSans-30"/>
      </g>
     </g>
    </g>
    <g id="ytick_5">
     <g id="line2d_13">
      <g>
       <use style="stroke:#000000;stroke-width:0.8;" x="180" xlink:href="#m704e44ad87" y="642.330208"/>
      </g>
     </g>
     <g id="text_14">
      <!-- 400 -->
      <g transform="translate(153.9125 646.129427)scale(0.1 -0.1)">
       <use xlink:href="#DejaVuSans-34"/>
       <use x="63.623047" xlink:href="#DejaVuSans-30"/>
       <use x="127.246094" xlink:href="#DejaVuSans-30"/>
      </g>
     </g>
    </g>
    <g id="ytick_6">
     <g id="line2d_14">
      <g>
       <use style="stroke:#000000;stroke-width:0.8;" x="180" xlink:href="#m704e44ad87" y="494.306813"/>
      </g>
     </g>
     <g id="text_15">
      <!-- 500 -->
      <g transform="translate(153.9125 498.106032)scale(0.1 -0.1)">
       <use xlink:href="#DejaVuSans-35"/>
       <use x="63.623047" xlink:href="#DejaVuSans-30"/>
       <use x="127.246094" xlink:href="#DejaVuSans-30"/>
      </g>
     </g>
    </g>
    <g id="ytick_7">
     <g id="line2d_15">
      <g>
       <use style="stroke:#000000;stroke-width:0.8;" x="180" xlink:href="#m704e44ad87" y="346.283419"/>
      </g>
     </g>
     <g id="text_16">
      <!-- 600 -->
      <g transform="translate(153.9125 350.082637)scale(0.1 -0.1)">
       <use xlink:href="#DejaVuSans-36"/>
       <use x="63.623047" xlink:href="#DejaVuSans-30"/>
       <use x="127.246094" xlink:href="#DejaVuSans-30"/>
      </g>
     </g>
    </g>
    <g id="ytick_8">
     <g id="line2d_16">
      <g>
       <use style="stroke:#000000;stroke-width:0.8;" x="180" xlink:href="#m704e44ad87" y="198.260024"/>
      </g>
     </g>
     <g id="text_17">
      <!-- 700 -->
      <g transform="translate(153.9125 202.059243)scale(0.1 -0.1)">
       <use xlink:href="#DejaVuSans-37"/>
       <use x="63.623047" xlink:href="#DejaVuSans-30"/>
       <use x="127.246094" xlink:href="#DejaVuSans-30"/>
      </g>
     </g>
    </g>
    <g id="text_18">
     <!-- Y Predicted -->
     <defs>
      <path d="M 19.671875 64.796875 
L 19.671875 37.40625 
L 32.078125 37.40625 
Q 38.96875 37.40625 42.71875 40.96875 
Q 46.484375 44.53125 46.484375 51.125 
Q 46.484375 57.671875 42.71875 61.234375 
Q 38.96875 64.796875 32.078125 64.796875 
z
M 9.8125 72.90625 
L 32.078125 72.90625 
Q 44.34375 72.90625 50.609375 67.359375 
Q 56.890625 61.8125 56.890625 51.125 
Q 56.890625 40.328125 50.609375 34.8125 
Q 44.34375 29.296875 32.078125 29.296875 
L 19.671875 29.296875 
L 19.671875 0 
L 9.8125 0 
z
" id="DejaVuSans-50"/>
      <path d="M 41.109375 46.296875 
Q 39.59375 47.171875 37.8125 47.578125 
Q 36.03125 48 33.890625 48 
Q 26.265625 48 22.1875 43.046875 
Q 18.109375 38.09375 18.109375 28.8125 
L 18.109375 0 
L 9.078125 0 
L 9.078125 54.6875 
L 18.109375 54.6875 
L 18.109375 46.1875 
Q 20.953125 51.171875 25.484375 53.578125 
Q 30.03125 56 36.53125 56 
Q 37.453125 56 38.578125 55.875 
Q 39.703125 55.765625 41.0625 55.515625 
z
" id="DejaVuSans-72"/>
      <path d="M 45.40625 46.390625 
L 45.40625 75.984375 
L 54.390625 75.984375 
L 54.390625 0 
L 45.40625 0 
L 45.40625 8.203125 
Q 42.578125 3.328125 38.25 0.953125 
Q 33.9375 -1.421875 27.875 -1.421875 
Q 17.96875 -1.421875 11.734375 6.484375 
Q 5.515625 14.40625 5.515625 27.296875 
Q 5.515625 40.1875 11.734375 48.09375 
Q 17.96875 56 27.875 56 
Q 33.9375 56 38.25 53.625 
Q 42.578125 51.265625 45.40625 46.390625 
z
M 14.796875 27.296875 
Q 14.796875 17.390625 18.875 11.75 
Q 22.953125 6.109375 30.078125 6.109375 
Q 37.203125 6.109375 41.296875 11.75 
Q 45.40625 17.390625 45.40625 27.296875 
Q 45.40625 37.203125 41.296875 42.84375 
Q 37.203125 48.484375 30.078125 48.484375 
Q 22.953125 48.484375 18.875 42.84375 
Q 14.796875 37.203125 14.796875 27.296875 
z
" id="DejaVuSans-64"/>
      <path d="M 9.421875 54.6875 
L 18.40625 54.6875 
L 18.40625 0 
L 9.421875 0 
z
M 9.421875 75.984375 
L 18.40625 75.984375 
L 18.40625 64.59375 
L 9.421875 64.59375 
z
" id="DejaVuSans-69"/>
      <path d="M 48.78125 52.59375 
L 48.78125 44.1875 
Q 44.96875 46.296875 41.140625 47.34375 
Q 37.3125 48.390625 33.40625 48.390625 
Q 24.65625 48.390625 19.8125 42.84375 
Q 14.984375 37.3125 14.984375 27.296875 
Q 14.984375 17.28125 19.8125 11.734375 
Q 24.65625 6.203125 33.40625 6.203125 
Q 37.3125 6.203125 41.140625 7.25 
Q 44.96875 8.296875 48.78125 10.40625 
L 48.78125 2.09375 
Q 45.015625 0.34375 40.984375 -0.53125 
Q 36.96875 -1.421875 32.421875 -1.421875 
Q 20.0625 -1.421875 12.78125 6.34375 
Q 5.515625 14.109375 5.515625 27.296875 
Q 5.515625 40.671875 12.859375 48.328125 
Q 20.21875 56 33.015625 56 
Q 37.15625 56 41.109375 55.140625 
Q 45.0625 54.296875 48.78125 52.59375 
z
" id="DejaVuSans-63"/>
     </defs>
     <g transform="translate(147.832812 755.510937)rotate(-90)scale(0.1 -0.1)">
      <use xlink:href="#DejaVuSans-59"/>
      <use x="61.083984" xlink:href="#DejaVuSans-20"/>
      <use x="92.871094" xlink:href="#DejaVuSans-50"/>
      <use x="153.158203" xlink:href="#DejaVuSans-72"/>
      <use x="194.240234" xlink:href="#DejaVuSans-65"/>
      <use x="255.763672" xlink:href="#DejaVuSans-64"/>
      <use x="319.240234" xlink:href="#DejaVuSans-69"/>
      <use x="347.023438" xlink:href="#DejaVuSans-63"/>
      <use x="402.003906" xlink:href="#DejaVuSans-74"/>
      <use x="441.212891" xlink:href="#DejaVuSans-65"/>
      <use x="502.736328" xlink:href="#DejaVuSans-64"/>
     </g>
    </g>
   </g>
   <g id="line2d_17">
    <path clip-path="url(#p94047d48ce)" d="M 180 1281.6 
L 1296 172.8 
" style="fill:none;stroke:#1f77b4;stroke-dasharray:5.55,2.4;stroke-dashoffset:0;stroke-width:1.5;"/>
   </g>
   <g id="patch_3">
    <path d="M 180 1281.6 
L 180 172.8 
" style="fill:none;stroke:#000000;stroke-linecap:square;stroke-linejoin:miter;stroke-width:0.8;"/>
   </g>
   <g id="patch_4">
    <path d="M 1296 1281.6 
L 1296 172.8 
" style="fill:none;stroke:#000000;stroke-linecap:square;stroke-linejoin:miter;stroke-width:0.8;"/>
   </g>
   <g id="patch_5">
    <path d="M 180 1281.6 
L 1296 1281.6 
" style="fill:none;stroke:#000000;stroke-linecap:square;stroke-linejoin:miter;stroke-width:0.8;"/>
   </g>
   <g id="patch_6">
    <path d="M 180 172.8 
L 1296 172.8 
" style="fill:none;stroke:#000000;stroke-linecap:square;stroke-linejoin:miter;stroke-width:0.8;"/>
   </g>
  </g>
 </g>
 <defs>
  <clipPath id="p94047d48ce">
   <rect height="1108.8" width="1116" x="180" y="172.8"/>
  </clipPath>
 </defs>
</svg>
