<?xml version="1.0" encoding="utf-8" standalone="no"?>
<!DOCTYPE svg PUBLIC "-//W3C//DTD SVG 1.1//EN"
  "http://www.w3.org/Graphics/SVG/1.1/DTD/svg11.dtd">
<!-- Created with matplotlib (http://matplotlib.org/) -->
<svg height="1440pt" version="1.1" viewBox="0 0 1440 1440" width="1440pt" xmlns="http://www.w3.org/2000/svg" xmlns:xlink="http://www.w3.org/1999/xlink">
 <defs>
  <style type="text/css">
*{stroke-linecap:butt;stroke-linejoin:round;}
  </style>
 </defs>
 <g id="figure_1">
  <g id="patch_1">
   <path d="M 0 1440 
L 1440 1440 
L 1440 0 
L 0 0 
z
" style="fill:#ffffff;"/>
  </g>
  <g id="axes_1">
   <g id="patch_2">
    <path d="M 180 1281.6 
L 1296 1281.6 
L 1296 172.8 
L 180 172.8 
z
" style="fill:#ffffff;"/>
   </g>
   <g id="PathCollection_1">
    <defs>
     <path d="M 0 3 
C 0.795609 3 1.55874 2.683901 2.12132 2.12132 
C 2.683901 1.55874 3 0.795609 3 0 
C 3 -0.795609 2.683901 -1.55874 2.12132 -2.12132 
C 1.55874 -2.683901 0.795609 -3 0 -3 
C -0.795609 -3 -1.55874 -2.683901 -2.12132 -2.12132 
C -2.683901 -1.55874 -3 -0.795609 -3 0 
C -3 0.795609 -2.683901 1.55874 -2.12132 2.12132 
C -1.55874 2.683901 -0.795609 3 0 3 
z
" id="m798b311715" style="stroke:#1f77b4;"/>
    </defs>
    <g clip-path="url(#pc63441a6b4)">
     <use style="fill:#1f77b4;stroke:#1f77b4;" x="803.034965" xlink:href="#m798b311715" y="586.534366"/>
     <use style="fill:#1f77b4;stroke:#1f77b4;" x="990.335664" xlink:href="#m798b311715" y="500.665367"/>
     <use style="fill:#1f77b4;stroke:#1f77b4;" x="1000.741259" xlink:href="#m798b311715" y="549.037867"/>
     <use style="fill:#1f77b4;stroke:#1f77b4;" x="803.034965" xlink:href="#m798b311715" y="617.839307"/>
     <use style="fill:#1f77b4;stroke:#1f77b4;" x="855.062937" xlink:href="#m798b311715" y="604.72859"/>
     <use style="fill:#1f77b4;stroke:#1f77b4;" x="912.293706" xlink:href="#m798b311715" y="562.735033"/>
     <use style="fill:#1f77b4;stroke:#1f77b4;" x="953.916084" xlink:href="#m798b311715" y="610.636959"/>
     <use style="fill:#1f77b4;stroke:#1f77b4;" x="927.902098" xlink:href="#m798b311715" y="519.081976"/>
     <use style="fill:#1f77b4;stroke:#1f77b4;" x="933.104895" xlink:href="#m798b311715" y="551.222552"/>
     <use style="fill:#1f77b4;stroke:#1f77b4;" x="1063.174825" xlink:href="#m798b311715" y="529.87101"/>
     <use style="fill:#1f77b4;stroke:#1f77b4;" x="943.51049" xlink:href="#m798b311715" y="545.829457"/>
     <use style="fill:#1f77b4;stroke:#1f77b4;" x="1011.146853" xlink:href="#m798b311715" y="590.005768"/>
     <use style="fill:#1f77b4;stroke:#1f77b4;" x="631.342657" xlink:href="#m798b311715" y="613.48815"/>
     <use style="fill:#1f77b4;stroke:#1f77b4;" x="735.398601" xlink:href="#m798b311715" y="566.220629"/>
     <use style="fill:#1f77b4;stroke:#1f77b4;" x="829.048951" xlink:href="#m798b311715" y="541.385379"/>
     <use style="fill:#1f77b4;stroke:#1f77b4;" x="974.727273" xlink:href="#m798b311715" y="520.478938"/>
     <use style="fill:#1f77b4;stroke:#1f77b4;" x="912.293706" xlink:href="#m798b311715" y="542.98643"/>
     <use style="fill:#1f77b4;stroke:#1f77b4;" x="953.916084" xlink:href="#m798b311715" y="557.370704"/>
     <use style="fill:#1f77b4;stroke:#1f77b4;" x="808.237762" xlink:href="#m798b311715" y="566.017177"/>
     <use style="fill:#1f77b4;stroke:#1f77b4;" x="938.307692" xlink:href="#m798b311715" y="591.94437"/>
     <use style="fill:#1f77b4;stroke:#1f77b4;" x="974.727273" xlink:href="#m798b311715" y="559.014409"/>
     <use style="fill:#1f77b4;stroke:#1f77b4;" x="636.545455" xlink:href="#m798b311715" y="607.956217"/>
     <use style="fill:#1f77b4;stroke:#1f77b4;" x="870.671329" xlink:href="#m798b311715" y="543.478674"/>
     <use style="fill:#1f77b4;stroke:#1f77b4;" x="912.293706" xlink:href="#m798b311715" y="562.002542"/>
     <use style="fill:#1f77b4;stroke:#1f77b4;" x="782.223776" xlink:href="#m798b311715" y="565.008483"/>
     <use style="fill:#1f77b4;stroke:#1f77b4;" x="1182.839161" xlink:href="#m798b311715" y="556.611529"/>
     <use style="fill:#1f77b4;stroke:#1f77b4;" x="953.916084" xlink:href="#m798b311715" y="532.669984"/>
     <use style="fill:#1f77b4;stroke:#1f77b4;" x="1021.552448" xlink:href="#m798b311715" y="549.030827"/>
     <use style="fill:#1f77b4;stroke:#1f77b4;" x="803.034965" xlink:href="#m798b311715" y="572.561096"/>
     <use style="fill:#1f77b4;stroke:#1f77b4;" x="943.51049" xlink:href="#m798b311715" y="577.085364"/>
     <use style="fill:#1f77b4;stroke:#1f77b4;" x="844.657343" xlink:href="#m798b311715" y="531.800718"/>
     <use style="fill:#1f77b4;stroke:#1f77b4;" x="839.454545" xlink:href="#m798b311715" y="574.944514"/>
     <use style="fill:#1f77b4;stroke:#1f77b4;" x="891.482517" xlink:href="#m798b311715" y="563.292671"/>
     <use style="fill:#1f77b4;stroke:#1f77b4;" x="735.398601" xlink:href="#m798b311715" y="600.821549"/>
     <use style="fill:#1f77b4;stroke:#1f77b4;" x="922.699301" xlink:href="#m798b311715" y="520.527431"/>
     <use style="fill:#1f77b4;stroke:#1f77b4;" x="803.034965" xlink:href="#m798b311715" y="607.479733"/>
     <use style="fill:#1f77b4;stroke:#1f77b4;" x="1047.566434" xlink:href="#m798b311715" y="541.821534"/>
     <use style="fill:#1f77b4;stroke:#1f77b4;" x="870.671329" xlink:href="#m798b311715" y="534.748409"/>
     <use style="fill:#1f77b4;stroke:#1f77b4;" x="907.090909" xlink:href="#m798b311715" y="601.325259"/>
     <use style="fill:#1f77b4;stroke:#1f77b4;" x="943.51049" xlink:href="#m798b311715" y="562.042647"/>
     <use style="fill:#1f77b4;stroke:#1f77b4;" x="631.342657" xlink:href="#m798b311715" y="609.406269"/>
     <use style="fill:#1f77b4;stroke:#1f77b4;" x="855.062937" xlink:href="#m798b311715" y="551.785951"/>
     <use style="fill:#1f77b4;stroke:#1f77b4;" x="1130.811189" xlink:href="#m798b311715" y="533.541636"/>
     <use style="fill:#1f77b4;stroke:#1f77b4;" x="990.335664" xlink:href="#m798b311715" y="546.657879"/>
     <use style="fill:#1f77b4;stroke:#1f77b4;" x="813.440559" xlink:href="#m798b311715" y="559.128834"/>
     <use style="fill:#1f77b4;stroke:#1f77b4;" x="875.874126" xlink:href="#m798b311715" y="569.66025"/>
     <use style="fill:#1f77b4;stroke:#1f77b4;" x="1011.146853" xlink:href="#m798b311715" y="537.264128"/>
     <use style="fill:#1f77b4;stroke:#1f77b4;" x="974.727273" xlink:href="#m798b311715" y="554.673053"/>
     <use style="fill:#1f77b4;stroke:#1f77b4;" x="1005.944056" xlink:href="#m798b311715" y="519.722909"/>
     <use style="fill:#1f77b4;stroke:#1f77b4;" x="855.062937" xlink:href="#m798b311715" y="616.467051"/>
     <use style="fill:#1f77b4;stroke:#1f77b4;" x="1000.741259" xlink:href="#m798b311715" y="545.868374"/>
     <use style="fill:#1f77b4;stroke:#1f77b4;" x="979.93007" xlink:href="#m798b311715" y="518.385647"/>
     <use style="fill:#1f77b4;stroke:#1f77b4;" x="1021.552448" xlink:href="#m798b311715" y="503.292606"/>
     <use style="fill:#1f77b4;stroke:#1f77b4;" x="844.657343" xlink:href="#m798b311715" y="573.835703"/>
     <use style="fill:#1f77b4;stroke:#1f77b4;" x="1068.377622" xlink:href="#m798b311715" y="494.365955"/>
     <use style="fill:#1f77b4;stroke:#1f77b4;" x="714.587413" xlink:href="#m798b311715" y="614.92693"/>
     <use style="fill:#1f77b4;stroke:#1f77b4;" x="938.307692" xlink:href="#m798b311715" y="531.956468"/>
     <use style="fill:#1f77b4;stroke:#1f77b4;" x="1068.377622" xlink:href="#m798b311715" y="514.315756"/>
     <use style="fill:#1f77b4;stroke:#1f77b4;" x="730.195804" xlink:href="#m798b311715" y="572.231172"/>
     <use style="fill:#1f77b4;stroke:#1f77b4;" x="896.685315" xlink:href="#m798b311715" y="546.205131"/>
     <use style="fill:#1f77b4;stroke:#1f77b4;" x="870.671329" xlink:href="#m798b311715" y="517.922978"/>
     <use style="fill:#1f77b4;stroke:#1f77b4;" x="979.93007" xlink:href="#m798b311715" y="562.005996"/>
     <use style="fill:#1f77b4;stroke:#1f77b4;" x="714.587413" xlink:href="#m798b311715" y="573.306682"/>
     <use style="fill:#1f77b4;stroke:#1f77b4;" x="995.538462" xlink:href="#m798b311715" y="541.480365"/>
     <use style="fill:#1f77b4;stroke:#1f77b4;" x="844.657343" xlink:href="#m798b311715" y="586.371803"/>
     <use style="fill:#1f77b4;stroke:#1f77b4;" x="735.398601" xlink:href="#m798b311715" y="540.401921"/>
     <use style="fill:#1f77b4;stroke:#1f77b4;" x="886.27972" xlink:href="#m798b311715" y="549.446279"/>
     <use style="fill:#1f77b4;stroke:#1f77b4;" x="808.237762" xlink:href="#m798b311715" y="558.403845"/>
     <use style="fill:#1f77b4;stroke:#1f77b4;" x="855.062937" xlink:href="#m798b311715" y="585.186129"/>
     <use style="fill:#1f77b4;stroke:#1f77b4;" x="865.468531" xlink:href="#m798b311715" y="572.533293"/>
     <use style="fill:#1f77b4;stroke:#1f77b4;" x="948.713287" xlink:href="#m798b311715" y="538.786347"/>
     <use style="fill:#1f77b4;stroke:#1f77b4;" x="948.713287" xlink:href="#m798b311715" y="497.403915"/>
     <use style="fill:#1f77b4;stroke:#1f77b4;" x="969.524476" xlink:href="#m798b311715" y="546.518181"/>
     <use style="fill:#1f77b4;stroke:#1f77b4;" x="761.412587" xlink:href="#m798b311715" y="600.882635"/>
     <use style="fill:#1f77b4;stroke:#1f77b4;" x="959.118881" xlink:href="#m798b311715" y="590.305543"/>
     <use style="fill:#1f77b4;stroke:#1f77b4;" x="1005.944056" xlink:href="#m798b311715" y="500.938207"/>
     <use style="fill:#1f77b4;stroke:#1f77b4;" x="813.440559" xlink:href="#m798b311715" y="554.382088"/>
     <use style="fill:#1f77b4;stroke:#1f77b4;" x="953.916084" xlink:href="#m798b311715" y="551.557246"/>
     <use style="fill:#1f77b4;stroke:#1f77b4;" x="943.51049" xlink:href="#m798b311715" y="587.883031"/>
     <use style="fill:#1f77b4;stroke:#1f77b4;" x="849.86014" xlink:href="#m798b311715" y="652.320766"/>
     <use style="fill:#1f77b4;stroke:#1f77b4;" x="959.118881" xlink:href="#m798b311715" y="503.920565"/>
     <use style="fill:#1f77b4;stroke:#1f77b4;" x="1162.027972" xlink:href="#m798b311715" y="520.072054"/>
     <use style="fill:#1f77b4;stroke:#1f77b4;" x="855.062937" xlink:href="#m798b311715" y="571.182915"/>
     <use style="fill:#1f77b4;stroke:#1f77b4;" x="777.020979" xlink:href="#m798b311715" y="590.577817"/>
     <use style="fill:#1f77b4;stroke:#1f77b4;" x="922.699301" xlink:href="#m798b311715" y="508.872155"/>
     <use style="fill:#1f77b4;stroke:#1f77b4;" x="901.888112" xlink:href="#m798b311715" y="536.361132"/>
     <use style="fill:#1f77b4;stroke:#1f77b4;" x="974.727273" xlink:href="#m798b311715" y="541.091237"/>
     <use style="fill:#1f77b4;stroke:#1f77b4;" x="1037.160839" xlink:href="#m798b311715" y="549.042064"/>
     <use style="fill:#1f77b4;stroke:#1f77b4;" x="917.496503" xlink:href="#m798b311715" y="536.495568"/>
     <use style="fill:#1f77b4;stroke:#1f77b4;" x="938.307692" xlink:href="#m798b311715" y="547.251947"/>
     <use style="fill:#1f77b4;stroke:#1f77b4;" x="922.699301" xlink:href="#m798b311715" y="536.283396"/>
     <use style="fill:#1f77b4;stroke:#1f77b4;" x="979.93007" xlink:href="#m798b311715" y="528.177756"/>
     <use style="fill:#1f77b4;stroke:#1f77b4;" x="1026.755245" xlink:href="#m798b311715" y="521.867535"/>
     <use style="fill:#1f77b4;stroke:#1f77b4;" x="823.846154" xlink:href="#m798b311715" y="587.821946"/>
     <use style="fill:#1f77b4;stroke:#1f77b4;" x="657.356643" xlink:href="#m798b311715" y="623.180786"/>
     <use style="fill:#1f77b4;stroke:#1f77b4;" x="1011.146853" xlink:href="#m798b311715" y="549.055261"/>
     <use style="fill:#1f77b4;stroke:#1f77b4;" x="803.034965" xlink:href="#m798b311715" y="562.067081"/>
     <use style="fill:#1f77b4;stroke:#1f77b4;" x="870.671329" xlink:href="#m798b311715" y="563.342166"/>
     <use style="fill:#1f77b4;stroke:#1f77b4;" x="1057.972028" xlink:href="#m798b311715" y="505.017644"/>
     <use style="fill:#1f77b4;stroke:#1f77b4;" x="761.412587" xlink:href="#m798b311715" y="604.072082"/>
     <use style="fill:#1f77b4;stroke:#1f77b4;" x="969.524476" xlink:href="#m798b311715" y="526.855775"/>
     <use style="fill:#1f77b4;stroke:#1f77b4;" x="974.727273" xlink:href="#m798b311715" y="544.008607"/>
     <use style="fill:#1f77b4;stroke:#1f77b4;" x="891.482517" xlink:href="#m798b311715" y="575.888962"/>
     <use style="fill:#1f77b4;stroke:#1f77b4;" x="974.727273" xlink:href="#m798b311715" y="541.091237"/>
     <use style="fill:#1f77b4;stroke:#1f77b4;" x="823.846154" xlink:href="#m798b311715" y="592.96783"/>
     <use style="fill:#1f77b4;stroke:#1f77b4;" x="777.020979" xlink:href="#m798b311715" y="594.637758"/>
     <use style="fill:#1f77b4;stroke:#1f77b4;" x="927.902098" xlink:href="#m798b311715" y="577.635099"/>
     <use style="fill:#1f77b4;stroke:#1f77b4;" x="922.699301" xlink:href="#m798b311715" y="570.575616"/>
     <use style="fill:#1f77b4;stroke:#1f77b4;" x="959.118881" xlink:href="#m798b311715" y="568.66487"/>
     <use style="fill:#1f77b4;stroke:#1f77b4;" x="927.902098" xlink:href="#m798b311715" y="541.943508"/>
     <use style="fill:#1f77b4;stroke:#1f77b4;" x="1011.146853" xlink:href="#m798b311715" y="546.282989"/>
     <use style="fill:#1f77b4;stroke:#1f77b4;" x="777.020979" xlink:href="#m798b311715" y="513.412155"/>
     <use style="fill:#1f77b4;stroke:#1f77b4;" x="953.916084" xlink:href="#m798b311715" y="541.468148"/>
     <use style="fill:#1f77b4;stroke:#1f77b4;" x="1104.797203" xlink:href="#m798b311715" y="527.266395"/>
     <use style="fill:#1f77b4;stroke:#1f77b4;" x="558.503497" xlink:href="#m798b311715" y="627.395012"/>
     <use style="fill:#1f77b4;stroke:#1f77b4;" x="891.482517" xlink:href="#m798b311715" y="572.40723"/>
     <use style="fill:#1f77b4;stroke:#1f77b4;" x="933.104895" xlink:href="#m798b311715" y="534.393096"/>
     <use style="fill:#1f77b4;stroke:#1f77b4;" x="719.79021" xlink:href="#m798b311715" y="575.005599"/>
     <use style="fill:#1f77b4;stroke:#1f77b4;" x="693.776224" xlink:href="#m798b311715" y="581.871311"/>
     <use style="fill:#1f77b4;stroke:#1f77b4;" x="901.888112" xlink:href="#m798b311715" y="549.104129"/>
     <use style="fill:#1f77b4;stroke:#1f77b4;" x="865.468531" xlink:href="#m798b311715" y="553.754255"/>
     <use style="fill:#1f77b4;stroke:#1f77b4;" x="990.335664" xlink:href="#m798b311715" y="592.33044"/>
     <use style="fill:#1f77b4;stroke:#1f77b4;" x="1031.958042" xlink:href="#m798b311715" y="535.423423"/>
     <use style="fill:#1f77b4;stroke:#1f77b4;" x="891.482517" xlink:href="#m798b311715" y="575.464299"/>
     <use style="fill:#1f77b4;stroke:#1f77b4;" x="907.090909" xlink:href="#m798b311715" y="553.709114"/>
     <use style="fill:#1f77b4;stroke:#1f77b4;" x="1011.146853" xlink:href="#m798b311715" y="562.329409"/>
     <use style="fill:#1f77b4;stroke:#1f77b4;" x="875.874126" xlink:href="#m798b311715" y="587.944117"/>
     <use style="fill:#1f77b4;stroke:#1f77b4;" x="693.776224" xlink:href="#m798b311715" y="613.593856"/>
     <use style="fill:#1f77b4;stroke:#1f77b4;" x="969.524476" xlink:href="#m798b311715" y="559.908882"/>
     <use style="fill:#1f77b4;stroke:#1f77b4;" x="829.048951" xlink:href="#m798b311715" y="600.98778"/>
     <use style="fill:#1f77b4;stroke:#1f77b4;" x="1203.65035" xlink:href="#m798b311715" y="533.281891"/>
     <use style="fill:#1f77b4;stroke:#1f77b4;" x="943.51049" xlink:href="#m798b311715" y="575.41186"/>
     <use style="fill:#1f77b4;stroke:#1f77b4;" x="1016.34965" xlink:href="#m798b311715" y="526.540338"/>
     <use style="fill:#1f77b4;stroke:#1f77b4;" x="1094.391608" xlink:href="#m798b311715" y="542.926371"/>
     <use style="fill:#1f77b4;stroke:#1f77b4;" x="823.846154" xlink:href="#m798b311715" y="497.074163"/>
     <use style="fill:#1f77b4;stroke:#1f77b4;" x="917.496503" xlink:href="#m798b311715" y="538.135768"/>
     <use style="fill:#1f77b4;stroke:#1f77b4;" x="667.762238" xlink:href="#m798b311715" y="600.85646"/>
     <use style="fill:#1f77b4;stroke:#1f77b4;" x="953.916084" xlink:href="#m798b311715" y="544.887889"/>
     <use style="fill:#1f77b4;stroke:#1f77b4;" x="615.734266" xlink:href="#m798b311715" y="736.120056"/>
     <use style="fill:#1f77b4;stroke:#1f77b4;" x="1245.272727" xlink:href="#m798b311715" y="461.164401"/>
     <use style="fill:#1f77b4;stroke:#1f77b4;" x="1151.622378" xlink:href="#m798b311715" y="451.712424"/>
     <use style="fill:#1f77b4;stroke:#1f77b4;" x="870.671329" xlink:href="#m798b311715" y="540.301759"/>
     <use style="fill:#1f77b4;stroke:#1f77b4;" x="1011.146853" xlink:href="#m798b311715" y="535.747532"/>
     <use style="fill:#1f77b4;stroke:#1f77b4;" x="974.727273" xlink:href="#m798b311715" y="622.472833"/>
     <use style="fill:#1f77b4;stroke:#1f77b4;" x="870.671329" xlink:href="#m798b311715" y="562.03043"/>
     <use style="fill:#1f77b4;stroke:#1f77b4;" x="927.902098" xlink:href="#m798b311715" y="550.196358"/>
     <use style="fill:#1f77b4;stroke:#1f77b4;" x="865.468531" xlink:href="#m798b311715" y="545.267897"/>
     <use style="fill:#1f77b4;stroke:#1f77b4;" x="896.685315" xlink:href="#m798b311715" y="565.795119"/>
     <use style="fill:#1f77b4;stroke:#1f77b4;" x="1104.797203" xlink:href="#m798b311715" y="557.560225"/>
     <use style="fill:#1f77b4;stroke:#1f77b4;" x="891.482517" xlink:href="#m798b311715" y="573.843836"/>
     <use style="fill:#1f77b4;stroke:#1f77b4;" x="1016.34965" xlink:href="#m798b311715" y="529.413963"/>
     <use style="fill:#1f77b4;stroke:#1f77b4;" x="818.643357" xlink:href="#m798b311715" y="522.154998"/>
     <use style="fill:#1f77b4;stroke:#1f77b4;" x="756.20979" xlink:href="#m798b311715" y="600.834513"/>
     <use style="fill:#1f77b4;stroke:#1f77b4;" x="875.874126" xlink:href="#m798b311715" y="553.307822"/>
     <use style="fill:#1f77b4;stroke:#1f77b4;" x="979.93007" xlink:href="#m798b311715" y="535.62534"/>
     <use style="fill:#1f77b4;stroke:#1f77b4;" x="912.293706" xlink:href="#m798b311715" y="555.834425"/>
     <use style="fill:#1f77b4;stroke:#1f77b4;" x="896.685315" xlink:href="#m798b311715" y="562.306287"/>
     <use style="fill:#1f77b4;stroke:#1f77b4;" x="917.496503" xlink:href="#m798b311715" y="554.411807"/>
     <use style="fill:#1f77b4;stroke:#1f77b4;" x="1016.34965" xlink:href="#m798b311715" y="596.553899"/>
     <use style="fill:#1f77b4;stroke:#1f77b4;" x="855.062937" xlink:href="#m798b311715" y="556.93725"/>
     <use style="fill:#1f77b4;stroke:#1f77b4;" x="990.335664" xlink:href="#m798b311715" y="561.974655"/>
     <use style="fill:#1f77b4;stroke:#1f77b4;" x="849.86014" xlink:href="#m798b311715" y="567.821242"/>
     <use style="fill:#1f77b4;stroke:#1f77b4;" x="933.104895" xlink:href="#m798b311715" y="574.522077"/>
     <use style="fill:#1f77b4;stroke:#1f77b4;" x="1011.146853" xlink:href="#m798b311715" y="507.940759"/>
     <use style="fill:#1f77b4;stroke:#1f77b4;" x="979.93007" xlink:href="#m798b311715" y="561.235894"/>
     <use style="fill:#1f77b4;stroke:#1f77b4;" x="969.524476" xlink:href="#m798b311715" y="547.449231"/>
     <use style="fill:#1f77b4;stroke:#1f77b4;" x="803.034965" xlink:href="#m798b311715" y="552.776151"/>
     <use style="fill:#1f77b4;stroke:#1f77b4;" x="787.426573" xlink:href="#m798b311715" y="580.090418"/>
     <use style="fill:#1f77b4;stroke:#1f77b4;" x="745.804196" xlink:href="#m798b311715" y="573.087109"/>
     <use style="fill:#1f77b4;stroke:#1f77b4;" x="1063.174825" xlink:href="#m798b311715" y="539.423935"/>
     <use style="fill:#1f77b4;stroke:#1f77b4;" x="714.587413" xlink:href="#m798b311715" y="768.832644"/>
     <use style="fill:#1f77b4;stroke:#1f77b4;" x="938.307692" xlink:href="#m798b311715" y="555.148547"/>
     <use style="fill:#1f77b4;stroke:#1f77b4;" x="1000.741259" xlink:href="#m798b311715" y="647.146582"/>
     <use style="fill:#1f77b4;stroke:#1f77b4;" x="886.27972" xlink:href="#m798b311715" y="562.054864"/>
     <use style="fill:#1f77b4;stroke:#1f77b4;" x="870.671329" xlink:href="#m798b311715" y="504.929114"/>
     <use style="fill:#1f77b4;stroke:#1f77b4;" x="875.874126" xlink:href="#m798b311715" y="541.5048"/>
     <use style="fill:#1f77b4;stroke:#1f77b4;" x="907.090909" xlink:href="#m798b311715" y="582.902044"/>
     <use style="fill:#1f77b4;stroke:#1f77b4;" x="990.335664" xlink:href="#m798b311715" y="527.155155"/>
     <use style="fill:#1f77b4;stroke:#1f77b4;" x="839.454545" xlink:href="#m798b311715" y="607.745133"/>
     <use style="fill:#1f77b4;stroke:#1f77b4;" x="839.454545" xlink:href="#m798b311715" y="587.916229"/>
     <use style="fill:#1f77b4;stroke:#1f77b4;" x="927.902098" xlink:href="#m798b311715" y="555.918414"/>
     <use style="fill:#1f77b4;stroke:#1f77b4;" x="1016.34965" xlink:href="#m798b311715" y="533.720184"/>
     <use style="fill:#1f77b4;stroke:#1f77b4;" x="797.832168" xlink:href="#m798b311715" y="575.005599"/>
     <use style="fill:#1f77b4;stroke:#1f77b4;" x="1125.608392" xlink:href="#m798b311715" y="524.051873"/>
     <use style="fill:#1f77b4;stroke:#1f77b4;" x="1031.958042" xlink:href="#m798b311715" y="532.10421"/>
     <use style="fill:#1f77b4;stroke:#1f77b4;" x="974.727273" xlink:href="#m798b311715" y="559.261351"/>
     <use style="fill:#1f77b4;stroke:#1f77b4;" x="953.916084" xlink:href="#m798b311715" y="563.075023"/>
     <use style="fill:#1f77b4;stroke:#1f77b4;" x="1011.146853" xlink:href="#m798b311715" y="546.150267"/>
     <use style="fill:#1f77b4;stroke:#1f77b4;" x="891.482517" xlink:href="#m798b311715" y="553.062742"/>
     <use style="fill:#1f77b4;stroke:#1f77b4;" x="735.398601" xlink:href="#m798b311715" y="614.243042"/>
     <use style="fill:#1f77b4;stroke:#1f77b4;" x="698.979021" xlink:href="#m798b311715" y="547.647733"/>
     <use style="fill:#1f77b4;stroke:#1f77b4;" x="959.118881" xlink:href="#m798b311715" y="562.975066"/>
     <use style="fill:#1f77b4;stroke:#1f77b4;" x="990.335664" xlink:href="#m798b311715" y="562.929698"/>
     <use style="fill:#1f77b4;stroke:#1f77b4;" x="777.020979" xlink:href="#m798b311715" y="586.39755"/>
     <use style="fill:#1f77b4;stroke:#1f77b4;" x="730.195804" xlink:href="#m798b311715" y="574.371393"/>
     <use style="fill:#1f77b4;stroke:#1f77b4;" x="230.727273" xlink:href="#m798b311715" y="875.901668"/>
     <use style="fill:#1f77b4;stroke:#1f77b4;" x="839.454545" xlink:href="#m798b311715" y="595.089118"/>
     <use style="fill:#1f77b4;stroke:#1f77b4;" x="834.251748" xlink:href="#m798b311715" y="548.242989"/>
     <use style="fill:#1f77b4;stroke:#1f77b4;" x="881.076923" xlink:href="#m798b311715" y="580.745245"/>
     <use style="fill:#1f77b4;stroke:#1f77b4;" x="886.27972" xlink:href="#m798b311715" y="549.043791"/>
     <use style="fill:#1f77b4;stroke:#1f77b4;" x="797.832168" xlink:href="#m798b311715" y="557.624271"/>
     <use style="fill:#1f77b4;stroke:#1f77b4;" x="891.482517" xlink:href="#m798b311715" y="517.839392"/>
     <use style="fill:#1f77b4;stroke:#1f77b4;" x="1057.972028" xlink:href="#m798b311715" y="550.363057"/>
     <use style="fill:#1f77b4;stroke:#1f77b4;" x="1188.041958" xlink:href="#m798b311715" y="515.54698"/>
     <use style="fill:#1f77b4;stroke:#1f77b4;" x="1068.377622" xlink:href="#m798b311715" y="516.015722"/>
     <use style="fill:#1f77b4;stroke:#1f77b4;" x="1078.783217" xlink:href="#m798b311715" y="597.430629"/>
     <use style="fill:#1f77b4;stroke:#1f77b4;" x="1037.160839" xlink:href="#m798b311715" y="595.942412"/>
     <use style="fill:#1f77b4;stroke:#1f77b4;" x="922.699301" xlink:href="#m798b311715" y="535.456165"/>
     <use style="fill:#1f77b4;stroke:#1f77b4;" x="730.195804" xlink:href="#m798b311715" y="593.078442"/>
     <use style="fill:#1f77b4;stroke:#1f77b4;" x="1094.391608" xlink:href="#m798b311715" y="538.70184"/>
     <use style="fill:#1f77b4;stroke:#1f77b4;" x="927.902098" xlink:href="#m798b311715" y="534.225787"/>
     <use style="fill:#1f77b4;stroke:#1f77b4;" x="1000.741259" xlink:href="#m798b311715" y="550.981844"/>
     <use style="fill:#1f77b4;stroke:#1f77b4;" x="797.832168" xlink:href="#m798b311715" y="647.91156"/>
     <use style="fill:#1f77b4;stroke:#1f77b4;" x="922.699301" xlink:href="#m798b311715" y="562.28406"/>
     <use style="fill:#1f77b4;stroke:#1f77b4;" x="927.902098" xlink:href="#m798b311715" y="551.761516"/>
     <use style="fill:#1f77b4;stroke:#1f77b4;" x="808.237762" xlink:href="#m798b311715" y="587.944117"/>
     <use style="fill:#1f77b4;stroke:#1f77b4;" x="964.321678" xlink:href="#m798b311715" y="549.055261"/>
     <use style="fill:#1f77b4;stroke:#1f77b4;" x="943.51049" xlink:href="#m798b311715" y="605.353324"/>
     <use style="fill:#1f77b4;stroke:#1f77b4;" x="875.874126" xlink:href="#m798b311715" y="572.39714"/>
     <use style="fill:#1f77b4;stroke:#1f77b4;" x="1099.594406" xlink:href="#m798b311715" y="555.38147"/>
     <use style="fill:#1f77b4;stroke:#1f77b4;" x="1000.741259" xlink:href="#m798b311715" y="635.924392"/>
     <use style="fill:#1f77b4;stroke:#1f77b4;" x="917.496503" xlink:href="#m798b311715" y="600.178124"/>
     <use style="fill:#1f77b4;stroke:#1f77b4;" x="792.629371" xlink:href="#m798b311715" y="526.787763"/>
     <use style="fill:#1f77b4;stroke:#1f77b4;" x="844.657343" xlink:href="#m798b311715" y="539.523869"/>
     <use style="fill:#1f77b4;stroke:#1f77b4;" x="761.412587" xlink:href="#m798b311715" y="604.5036"/>
     <use style="fill:#1f77b4;stroke:#1f77b4;" x="964.321678" xlink:href="#m798b311715" y="570.678421"/>
     <use style="fill:#1f77b4;stroke:#1f77b4;" x="891.482517" xlink:href="#m798b311715" y="600.845983"/>
     <use style="fill:#1f77b4;stroke:#1f77b4;" x="771.818182" xlink:href="#m798b311715" y="580.870183"/>
     <use style="fill:#1f77b4;stroke:#1f77b4;" x="849.86014" xlink:href="#m798b311715" y="534.565553"/>
     <use style="fill:#1f77b4;stroke:#1f77b4;" x="751.006993" xlink:href="#m798b311715" y="531.691559"/>
     <use style="fill:#1f77b4;stroke:#1f77b4;" x="626.13986" xlink:href="#m798b311715" y="630.630754"/>
     <use style="fill:#1f77b4;stroke:#1f77b4;" x="907.090909" xlink:href="#m798b311715" y="545.311559"/>
     <use style="fill:#1f77b4;stroke:#1f77b4;" x="933.104895" xlink:href="#m798b311715" y="562.314802"/>
     <use style="fill:#1f77b4;stroke:#1f77b4;" x="891.482517" xlink:href="#m798b311715" y="575.69816"/>
     <use style="fill:#1f77b4;stroke:#1f77b4;" x="1026.755245" xlink:href="#m798b311715" y="545.900391"/>
     <use style="fill:#1f77b4;stroke:#1f77b4;" x="907.090909" xlink:href="#m798b311715" y="568.540735"/>
     <use style="fill:#1f77b4;stroke:#1f77b4;" x="953.916084" xlink:href="#m798b311715" y="520.682863"/>
     <use style="fill:#1f77b4;stroke:#1f77b4;" x="620.937063" xlink:href="#m798b311715" y="588.354482"/>
     <use style="fill:#1f77b4;stroke:#1f77b4;" x="818.643357" xlink:href="#m798b311715" y="587.883031"/>
    </g>
   </g>
   <g id="matplotlib.axis_1">
    <g id="xtick_1">
     <g id="line2d_1">
      <defs>
       <path d="M 0 0 
L 0 3.5 
" id="m397b519473" style="stroke:#000000;stroke-width:0.8;"/>
      </defs>
      <g>
       <use style="stroke:#000000;stroke-width:0.8;" x="272.34965" xlink:href="#m397b519473" y="1281.6"/>
      </g>
     </g>
     <g id="text_1">
      <!-- −10.0 -->
      <defs>
       <path d="M 10.59375 35.5 
L 73.1875 35.5 
L 73.1875 27.203125 
L 10.59375 27.203125 
z
" id="DejaVuSans-2212"/>
       <path d="M 12.40625 8.296875 
L 28.515625 8.296875 
L 28.515625 63.921875 
L 10.984375 60.40625 
L 10.984375 69.390625 
L 28.421875 72.90625 
L 38.28125 72.90625 
L 38.28125 8.296875 
L 54.390625 8.296875 
L 54.390625 0 
L 12.40625 0 
z
" id="DejaVuSans-31"/>
       <path d="M 31.78125 66.40625 
Q 24.171875 66.40625 20.328125 58.90625 
Q 16.5 51.421875 16.5 36.375 
Q 16.5 21.390625 20.328125 13.890625 
Q 24.171875 6.390625 31.78125 6.390625 
Q 39.453125 6.390625 43.28125 13.890625 
Q 47.125 21.390625 47.125 36.375 
Q 47.125 51.421875 43.28125 58.90625 
Q 39.453125 66.40625 31.78125 66.40625 
z
M 31.78125 74.21875 
Q 44.046875 74.21875 50.515625 64.515625 
Q 56.984375 54.828125 56.984375 36.375 
Q 56.984375 17.96875 50.515625 8.265625 
Q 44.046875 -1.421875 31.78125 -1.421875 
Q 19.53125 -1.421875 13.0625 8.265625 
Q 6.59375 17.96875 6.59375 36.375 
Q 6.59375 54.828125 13.0625 64.515625 
Q 19.53125 74.21875 31.78125 74.21875 
z
" id="DejaVuSans-30"/>
       <path d="M 10.6875 12.40625 
L 21 12.40625 
L 21 0 
L 10.6875 0 
z
" id="DejaVuSans-2e"/>
      </defs>
      <g transform="translate(226.381682 1311.395313)scale(0.3 -0.3)">
       <use xlink:href="#DejaVuSans-2212"/>
       <use x="83.789062" xlink:href="#DejaVuSans-31"/>
       <use x="147.412109" xlink:href="#DejaVuSans-30"/>
       <use x="211.035156" xlink:href="#DejaVuSans-2e"/>
       <use x="242.822266" xlink:href="#DejaVuSans-30"/>
      </g>
     </g>
    </g>
    <g id="xtick_2">
     <g id="line2d_2">
      <g>
       <use style="stroke:#000000;stroke-width:0.8;" x="402.41958" xlink:href="#m397b519473" y="1281.6"/>
      </g>
     </g>
     <g id="text_2">
      <!-- −7.5 -->
      <defs>
       <path d="M 8.203125 72.90625 
L 55.078125 72.90625 
L 55.078125 68.703125 
L 28.609375 0 
L 18.3125 0 
L 43.21875 64.59375 
L 8.203125 64.59375 
z
" id="DejaVuSans-37"/>
       <path d="M 10.796875 72.90625 
L 49.515625 72.90625 
L 49.515625 64.59375 
L 19.828125 64.59375 
L 19.828125 46.734375 
Q 21.96875 47.46875 24.109375 47.828125 
Q 26.265625 48.1875 28.421875 48.1875 
Q 40.625 48.1875 47.75 41.5 
Q 54.890625 34.8125 54.890625 23.390625 
Q 54.890625 11.625 47.5625 5.09375 
Q 40.234375 -1.421875 26.90625 -1.421875 
Q 22.3125 -1.421875 17.546875 -0.640625 
Q 12.796875 0.140625 7.71875 1.703125 
L 7.71875 11.625 
Q 12.109375 9.234375 16.796875 8.0625 
Q 21.484375 6.890625 26.703125 6.890625 
Q 35.15625 6.890625 40.078125 11.328125 
Q 45.015625 15.765625 45.015625 23.390625 
Q 45.015625 31 40.078125 35.4375 
Q 35.15625 39.890625 26.703125 39.890625 
Q 22.75 39.890625 18.8125 39.015625 
Q 14.890625 38.140625 10.796875 36.28125 
z
" id="DejaVuSans-35"/>
      </defs>
      <g transform="translate(365.995362 1311.395313)scale(0.3 -0.3)">
       <use xlink:href="#DejaVuSans-2212"/>
       <use x="83.789062" xlink:href="#DejaVuSans-37"/>
       <use x="147.412109" xlink:href="#DejaVuSans-2e"/>
       <use x="179.199219" xlink:href="#DejaVuSans-35"/>
      </g>
     </g>
    </g>
    <g id="xtick_3">
     <g id="line2d_3">
      <g>
       <use style="stroke:#000000;stroke-width:0.8;" x="532.48951" xlink:href="#m397b519473" y="1281.6"/>
      </g>
     </g>
     <g id="text_3">
      <!-- −5.0 -->
      <g transform="translate(496.065292 1311.395313)scale(0.3 -0.3)">
       <use xlink:href="#DejaVuSans-2212"/>
       <use x="83.789062" xlink:href="#DejaVuSans-35"/>
       <use x="147.412109" xlink:href="#DejaVuSans-2e"/>
       <use x="179.199219" xlink:href="#DejaVuSans-30"/>
      </g>
     </g>
    </g>
    <g id="xtick_4">
     <g id="line2d_4">
      <g>
       <use style="stroke:#000000;stroke-width:0.8;" x="662.559441" xlink:href="#m397b519473" y="1281.6"/>
      </g>
     </g>
     <g id="text_4">
      <!-- −2.5 -->
      <defs>
       <path d="M 19.1875 8.296875 
L 53.609375 8.296875 
L 53.609375 0 
L 7.328125 0 
L 7.328125 8.296875 
Q 12.9375 14.109375 22.625 23.890625 
Q 32.328125 33.6875 34.8125 36.53125 
Q 39.546875 41.84375 41.421875 45.53125 
Q 43.3125 49.21875 43.3125 52.78125 
Q 43.3125 58.59375 39.234375 62.25 
Q 35.15625 65.921875 28.609375 65.921875 
Q 23.96875 65.921875 18.8125 64.3125 
Q 13.671875 62.703125 7.8125 59.421875 
L 7.8125 69.390625 
Q 13.765625 71.78125 18.9375 73 
Q 24.125 74.21875 28.421875 74.21875 
Q 39.75 74.21875 46.484375 68.546875 
Q 53.21875 62.890625 53.21875 53.421875 
Q 53.21875 48.921875 51.53125 44.890625 
Q 49.859375 40.875 45.40625 35.40625 
Q 44.1875 33.984375 37.640625 27.21875 
Q 31.109375 20.453125 19.1875 8.296875 
z
" id="DejaVuSans-32"/>
      </defs>
      <g transform="translate(626.135222 1311.395313)scale(0.3 -0.3)">
       <use xlink:href="#DejaVuSans-2212"/>
       <use x="83.789062" xlink:href="#DejaVuSans-32"/>
       <use x="147.412109" xlink:href="#DejaVuSans-2e"/>
       <use x="179.199219" xlink:href="#DejaVuSans-35"/>
      </g>
     </g>
    </g>
    <g id="xtick_5">
     <g id="line2d_5">
      <g>
       <use style="stroke:#000000;stroke-width:0.8;" x="792.629371" xlink:href="#m397b519473" y="1281.6"/>
      </g>
     </g>
     <g id="text_5">
      <!-- 0.0 -->
      <g transform="translate(768.774683 1311.395313)scale(0.3 -0.3)">
       <use xlink:href="#DejaVuSans-30"/>
       <use x="63.623047" xlink:href="#DejaVuSans-2e"/>
       <use x="95.410156" xlink:href="#DejaVuSans-30"/>
      </g>
     </g>
    </g>
    <g id="xtick_6">
     <g id="line2d_6">
      <g>
       <use style="stroke:#000000;stroke-width:0.8;" x="922.699301" xlink:href="#m397b519473" y="1281.6"/>
      </g>
     </g>
     <g id="text_6">
      <!-- 2.5 -->
      <g transform="translate(898.844613 1311.395313)scale(0.3 -0.3)">
       <use xlink:href="#DejaVuSans-32"/>
       <use x="63.623047" xlink:href="#DejaVuSans-2e"/>
       <use x="95.410156" xlink:href="#DejaVuSans-35"/>
      </g>
     </g>
    </g>
    <g id="xtick_7">
     <g id="line2d_7">
      <g>
       <use style="stroke:#000000;stroke-width:0.8;" x="1052.769231" xlink:href="#m397b519473" y="1281.6"/>
      </g>
     </g>
     <g id="text_7">
      <!-- 5.0 -->
      <g transform="translate(1028.914543 1311.395313)scale(0.3 -0.3)">
       <use xlink:href="#DejaVuSans-35"/>
       <use x="63.623047" xlink:href="#DejaVuSans-2e"/>
       <use x="95.410156" xlink:href="#DejaVuSans-30"/>
      </g>
     </g>
    </g>
    <g id="xtick_8">
     <g id="line2d_8">
      <g>
       <use style="stroke:#000000;stroke-width:0.8;" x="1182.839161" xlink:href="#m397b519473" y="1281.6"/>
      </g>
     </g>
     <g id="text_8">
      <!-- 7.5 -->
      <g transform="translate(1158.984473 1311.395313)scale(0.3 -0.3)">
       <use xlink:href="#DejaVuSans-37"/>
       <use x="63.623047" xlink:href="#DejaVuSans-2e"/>
       <use x="95.410156" xlink:href="#DejaVuSans-35"/>
      </g>
     </g>
    </g>
    <g id="text_9">
     <!-- Y Test -->
     <defs>
      <path d="M -0.203125 72.90625 
L 10.40625 72.90625 
L 30.609375 42.921875 
L 50.6875 72.90625 
L 61.28125 72.90625 
L 35.5 34.71875 
L 35.5 0 
L 25.59375 0 
L 25.59375 34.71875 
z
" id="DejaVuSans-59"/>
      <path id="DejaVuSans-20"/>
      <path d="M -0.296875 72.90625 
L 61.375 72.90625 
L 61.375 64.59375 
L 35.5 64.59375 
L 35.5 0 
L 25.59375 0 
L 25.59375 64.59375 
L -0.296875 64.59375 
z
" id="DejaVuSans-54"/>
      <path d="M 56.203125 29.59375 
L 56.203125 25.203125 
L 14.890625 25.203125 
Q 15.484375 15.921875 20.484375 11.0625 
Q 25.484375 6.203125 34.421875 6.203125 
Q 39.59375 6.203125 44.453125 7.46875 
Q 49.3125 8.734375 54.109375 11.28125 
L 54.109375 2.78125 
Q 49.265625 0.734375 44.1875 -0.34375 
Q 39.109375 -1.421875 33.890625 -1.421875 
Q 20.796875 -1.421875 13.15625 6.1875 
Q 5.515625 13.8125 5.515625 26.8125 
Q 5.515625 40.234375 12.765625 48.109375 
Q 20.015625 56 32.328125 56 
Q 43.359375 56 49.78125 48.890625 
Q 56.203125 41.796875 56.203125 29.59375 
z
M 47.21875 32.234375 
Q 47.125 39.59375 43.09375 43.984375 
Q 39.0625 48.390625 32.421875 48.390625 
Q 24.90625 48.390625 20.390625 44.140625 
Q 15.875 39.890625 15.1875 32.171875 
z
" id="DejaVuSans-65"/>
      <path d="M 44.28125 53.078125 
L 44.28125 44.578125 
Q 40.484375 46.53125 36.375 47.5 
Q 32.28125 48.484375 27.875 48.484375 
Q 21.1875 48.484375 17.84375 46.4375 
Q 14.5 44.390625 14.5 40.28125 
Q 14.5 37.15625 16.890625 35.375 
Q 19.28125 33.59375 26.515625 31.984375 
L 29.59375 31.296875 
Q 39.15625 29.25 43.1875 25.515625 
Q 47.21875 21.78125 47.21875 15.09375 
Q 47.21875 7.46875 41.1875 3.015625 
Q 35.15625 -1.421875 24.609375 -1.421875 
Q 20.21875 -1.421875 15.453125 -0.5625 
Q 10.6875 0.296875 5.421875 2 
L 5.421875 11.28125 
Q 10.40625 8.6875 15.234375 7.390625 
Q 20.0625 6.109375 24.8125 6.109375 
Q 31.15625 6.109375 34.5625 8.28125 
Q 37.984375 10.453125 37.984375 14.40625 
Q 37.984375 18.0625 35.515625 20.015625 
Q 33.0625 21.96875 24.703125 23.78125 
L 21.578125 24.515625 
Q 13.234375 26.265625 9.515625 29.90625 
Q 5.8125 33.546875 5.8125 39.890625 
Q 5.8125 47.609375 11.28125 51.796875 
Q 16.75 56 26.8125 56 
Q 31.78125 56 36.171875 55.265625 
Q 40.578125 54.546875 44.28125 53.078125 
z
" id="DejaVuSans-73"/>
      <path d="M 18.3125 70.21875 
L 18.3125 54.6875 
L 36.8125 54.6875 
L 36.8125 47.703125 
L 18.3125 47.703125 
L 18.3125 18.015625 
Q 18.3125 11.328125 20.140625 9.421875 
Q 21.96875 7.515625 27.59375 7.515625 
L 36.8125 7.515625 
L 36.8125 0 
L 27.59375 0 
Q 17.1875 0 13.234375 3.875 
Q 9.28125 7.765625 9.28125 18.015625 
L 9.28125 47.703125 
L 2.6875 47.703125 
L 2.6875 54.6875 
L 9.28125 54.6875 
L 9.28125 70.21875 
z
" id="DejaVuSans-74"/>
     </defs>
     <g transform="translate(692.025 1344.429688)scale(0.3 -0.3)">
      <use xlink:href="#DejaVuSans-59"/>
      <use x="61.083984" xlink:href="#DejaVuSans-20"/>
      <use x="92.871094" xlink:href="#DejaVuSans-54"/>
      <use x="153.689453" xlink:href="#DejaVuSans-65"/>
      <use x="215.212891" xlink:href="#DejaVuSans-73"/>
      <use x="267.3125" xlink:href="#DejaVuSans-74"/>
     </g>
    </g>
   </g>
   <g id="matplotlib.axis_2">
    <g id="ytick_1">
     <g id="line2d_9">
      <defs>
       <path d="M 0 0 
L -3.5 0 
" id="m5780d99dae" style="stroke:#000000;stroke-width:0.8;"/>
      </defs>
      <g>
       <use style="stroke:#000000;stroke-width:0.8;" x="180" xlink:href="#m5780d99dae" y="1189.846154"/>
      </g>
     </g>
     <g id="text_10">
      <!-- −10.0 -->
      <g transform="translate(81.064063 1201.24381)scale(0.3 -0.3)">
       <use xlink:href="#DejaVuSans-2212"/>
       <use x="83.789062" xlink:href="#DejaVuSans-31"/>
       <use x="147.412109" xlink:href="#DejaVuSans-30"/>
       <use x="211.035156" xlink:href="#DejaVuSans-2e"/>
       <use x="242.822266" xlink:href="#DejaVuSans-30"/>
      </g>
     </g>
    </g>
    <g id="ytick_2">
     <g id="line2d_10">
      <g>
       <use style="stroke:#000000;stroke-width:0.8;" x="180" xlink:href="#m5780d99dae" y="1060.615385"/>
      </g>
     </g>
     <g id="text_11">
      <!-- −7.5 -->
      <g transform="translate(100.151562 1072.013041)scale(0.3 -0.3)">
       <use xlink:href="#DejaVuSans-2212"/>
       <use x="83.789062" xlink:href="#DejaVuSans-37"/>
       <use x="147.412109" xlink:href="#DejaVuSans-2e"/>
       <use x="179.199219" xlink:href="#DejaVuSans-35"/>
      </g>
     </g>
    </g>
    <g id="ytick_3">
     <g id="line2d_11">
      <g>
       <use style="stroke:#000000;stroke-width:0.8;" x="180" xlink:href="#m5780d99dae" y="931.384615"/>
      </g>
     </g>
     <g id="text_12">
      <!-- −5.0 -->
      <g transform="translate(100.151562 942.782272)scale(0.3 -0.3)">
       <use xlink:href="#DejaVuSans-2212"/>
       <use x="83.789062" xlink:href="#DejaVuSans-35"/>
       <use x="147.412109" xlink:href="#DejaVuSans-2e"/>
       <use x="179.199219" xlink:href="#DejaVuSans-30"/>
      </g>
     </g>
    </g>
    <g id="ytick_4">
     <g id="line2d_12">
      <g>
       <use style="stroke:#000000;stroke-width:0.8;" x="180" xlink:href="#m5780d99dae" y="802.153846"/>
      </g>
     </g>
     <g id="text_13">
      <!-- −2.5 -->
      <g transform="translate(100.151562 813.551502)scale(0.3 -0.3)">
       <use xlink:href="#DejaVuSans-2212"/>
       <use x="83.789062" xlink:href="#DejaVuSans-32"/>
       <use x="147.412109" xlink:href="#DejaVuSans-2e"/>
       <use x="179.199219" xlink:href="#DejaVuSans-35"/>
      </g>
     </g>
    </g>
    <g id="ytick_5">
     <g id="line2d_13">
      <g>
       <use style="stroke:#000000;stroke-width:0.8;" x="180" xlink:href="#m5780d99dae" y="672.923077"/>
      </g>
     </g>
     <g id="text_14">
      <!-- 0.0 -->
      <g transform="translate(125.290625 684.320733)scale(0.3 -0.3)">
       <use xlink:href="#DejaVuSans-30"/>
       <use x="63.623047" xlink:href="#DejaVuSans-2e"/>
       <use x="95.410156" xlink:href="#DejaVuSans-30"/>
      </g>
     </g>
    </g>
    <g id="ytick_6">
     <g id="line2d_14">
      <g>
       <use style="stroke:#000000;stroke-width:0.8;" x="180" xlink:href="#m5780d99dae" y="543.692308"/>
      </g>
     </g>
     <g id="text_15">
      <!-- 2.5 -->
      <g transform="translate(125.290625 555.089964)scale(0.3 -0.3)">
       <use xlink:href="#DejaVuSans-32"/>
       <use x="63.623047" xlink:href="#DejaVuSans-2e"/>
       <use x="95.410156" xlink:href="#DejaVuSans-35"/>
      </g>
     </g>
    </g>
    <g id="ytick_7">
     <g id="line2d_15">
      <g>
       <use style="stroke:#000000;stroke-width:0.8;" x="180" xlink:href="#m5780d99dae" y="414.461538"/>
      </g>
     </g>
     <g id="text_16">
      <!-- 5.0 -->
      <g transform="translate(125.290625 425.859195)scale(0.3 -0.3)">
       <use xlink:href="#DejaVuSans-35"/>
       <use x="63.623047" xlink:href="#DejaVuSans-2e"/>
       <use x="95.410156" xlink:href="#DejaVuSans-30"/>
      </g>
     </g>
    </g>
    <g id="ytick_8">
     <g id="line2d_16">
      <g>
       <use style="stroke:#000000;stroke-width:0.8;" x="180" xlink:href="#m5780d99dae" y="285.230769"/>
      </g>
     </g>
     <g id="text_17">
      <!-- 7.5 -->
      <g transform="translate(125.290625 296.628425)scale(0.3 -0.3)">
       <use xlink:href="#DejaVuSans-37"/>
       <use x="63.623047" xlink:href="#DejaVuSans-2e"/>
       <use x="95.410156" xlink:href="#DejaVuSans-35"/>
      </g>
     </g>
    </g>
    <g id="text_18">
     <!-- Y Predicted -->
     <defs>
      <path d="M 19.671875 64.796875 
L 19.671875 37.40625 
L 32.078125 37.40625 
Q 38.96875 37.40625 42.71875 40.96875 
Q 46.484375 44.53125 46.484375 51.125 
Q 46.484375 57.671875 42.71875 61.234375 
Q 38.96875 64.796875 32.078125 64.796875 
z
M 9.8125 72.90625 
L 32.078125 72.90625 
Q 44.34375 72.90625 50.609375 67.359375 
Q 56.890625 61.8125 56.890625 51.125 
Q 56.890625 40.328125 50.609375 34.8125 
Q 44.34375 29.296875 32.078125 29.296875 
L 19.671875 29.296875 
L 19.671875 0 
L 9.8125 0 
z
" id="DejaVuSans-50"/>
      <path d="M 41.109375 46.296875 
Q 39.59375 47.171875 37.8125 47.578125 
Q 36.03125 48 33.890625 48 
Q 26.265625 48 22.1875 43.046875 
Q 18.109375 38.09375 18.109375 28.8125 
L 18.109375 0 
L 9.078125 0 
L 9.078125 54.6875 
L 18.109375 54.6875 
L 18.109375 46.1875 
Q 20.953125 51.171875 25.484375 53.578125 
Q 30.03125 56 36.53125 56 
Q 37.453125 56 38.578125 55.875 
Q 39.703125 55.765625 41.0625 55.515625 
z
" id="DejaVuSans-72"/>
      <path d="M 45.40625 46.390625 
L 45.40625 75.984375 
L 54.390625 75.984375 
L 54.390625 0 
L 45.40625 0 
L 45.40625 8.203125 
Q 42.578125 3.328125 38.25 0.953125 
Q 33.9375 -1.421875 27.875 -1.421875 
Q 17.96875 -1.421875 11.734375 6.484375 
Q 5.515625 14.40625 5.515625 27.296875 
Q 5.515625 40.1875 11.734375 48.09375 
Q 17.96875 56 27.875 56 
Q 33.9375 56 38.25 53.625 
Q 42.578125 51.265625 45.40625 46.390625 
z
M 14.796875 27.296875 
Q 14.796875 17.390625 18.875 11.75 
Q 22.953125 6.109375 30.078125 6.109375 
Q 37.203125 6.109375 41.296875 11.75 
Q 45.40625 17.390625 45.40625 27.296875 
Q 45.40625 37.203125 41.296875 42.84375 
Q 37.203125 48.484375 30.078125 48.484375 
Q 22.953125 48.484375 18.875 42.84375 
Q 14.796875 37.203125 14.796875 27.296875 
z
" id="DejaVuSans-64"/>
      <path d="M 9.421875 54.6875 
L 18.40625 54.6875 
L 18.40625 0 
L 9.421875 0 
z
M 9.421875 75.984375 
L 18.40625 75.984375 
L 18.40625 64.59375 
L 9.421875 64.59375 
z
" id="DejaVuSans-69"/>
      <path d="M 48.78125 52.59375 
L 48.78125 44.1875 
Q 44.96875 46.296875 41.140625 47.34375 
Q 37.3125 48.390625 33.40625 48.390625 
Q 24.65625 48.390625 19.8125 42.84375 
Q 14.984375 37.3125 14.984375 27.296875 
Q 14.984375 17.28125 19.8125 11.734375 
Q 24.65625 6.203125 33.40625 6.203125 
Q 37.3125 6.203125 41.140625 7.25 
Q 44.96875 8.296875 48.78125 10.40625 
L 48.78125 2.09375 
Q 45.015625 0.34375 40.984375 -0.53125 
Q 36.96875 -1.421875 32.421875 -1.421875 
Q 20.0625 -1.421875 12.78125 6.34375 
Q 5.515625 14.109375 5.515625 27.296875 
Q 5.515625 40.671875 12.859375 48.328125 
Q 20.21875 56 33.015625 56 
Q 37.15625 56 41.109375 55.140625 
Q 45.0625 54.296875 48.78125 52.59375 
z
" id="DejaVuSans-63"/>
     </defs>
     <g transform="translate(70.825 812.132812)rotate(-90)scale(0.3 -0.3)">
      <use xlink:href="#DejaVuSans-59"/>
      <use x="61.083984" xlink:href="#DejaVuSans-20"/>
      <use x="92.871094" xlink:href="#DejaVuSans-50"/>
      <use x="153.158203" xlink:href="#DejaVuSans-72"/>
      <use x="194.240234" xlink:href="#DejaVuSans-65"/>
      <use x="255.763672" xlink:href="#DejaVuSans-64"/>
      <use x="319.240234" xlink:href="#DejaVuSans-69"/>
      <use x="347.023438" xlink:href="#DejaVuSans-63"/>
      <use x="402.003906" xlink:href="#DejaVuSans-74"/>
      <use x="441.212891" xlink:href="#DejaVuSans-65"/>
      <use x="502.736328" xlink:href="#DejaVuSans-64"/>
     </g>
    </g>
   </g>
   <g id="line2d_17">
    <path clip-path="url(#pc63441a6b4)" d="M 180 1281.6 
L 1296 172.8 
" style="fill:none;stroke:#1f77b4;stroke-dasharray:5.55,2.4;stroke-dashoffset:0;stroke-width:1.5;"/>
   </g>
   <g id="patch_3">
    <path d="M 180 1281.6 
L 180 172.8 
" style="fill:none;stroke:#000000;stroke-linecap:square;stroke-linejoin:miter;stroke-width:0.8;"/>
   </g>
   <g id="patch_4">
    <path d="M 1296 1281.6 
L 1296 172.8 
" style="fill:none;stroke:#000000;stroke-linecap:square;stroke-linejoin:miter;stroke-width:0.8;"/>
   </g>
   <g id="patch_5">
    <path d="M 180 1281.6 
L 1296 1281.6 
" style="fill:none;stroke:#000000;stroke-linecap:square;stroke-linejoin:miter;stroke-width:0.8;"/>
   </g>
   <g id="patch_6">
    <path d="M 180 172.8 
L 1296 172.8 
" style="fill:none;stroke:#000000;stroke-linecap:square;stroke-linejoin:miter;stroke-width:0.8;"/>
   </g>
   <g id="text_19">
    <!-- Lasso_xLogP -->
    <defs>
     <path d="M 9.8125 72.90625 
L 19.671875 72.90625 
L 19.671875 8.296875 
L 55.171875 8.296875 
L 55.171875 0 
L 9.8125 0 
z
" id="DejaVuSans-4c"/>
     <path d="M 34.28125 27.484375 
Q 23.390625 27.484375 19.1875 25 
Q 14.984375 22.515625 14.984375 16.5 
Q 14.984375 11.71875 18.140625 8.90625 
Q 21.296875 6.109375 26.703125 6.109375 
Q 34.1875 6.109375 38.703125 11.40625 
Q 43.21875 16.703125 43.21875 25.484375 
L 43.21875 27.484375 
z
M 52.203125 31.203125 
L 52.203125 0 
L 43.21875 0 
L 43.21875 8.296875 
Q 40.140625 3.328125 35.546875 0.953125 
Q 30.953125 -1.421875 24.3125 -1.421875 
Q 15.921875 -1.421875 10.953125 3.296875 
Q 6 8.015625 6 15.921875 
Q 6 25.140625 12.171875 29.828125 
Q 18.359375 34.515625 30.609375 34.515625 
L 43.21875 34.515625 
L 43.21875 35.40625 
Q 43.21875 41.609375 39.140625 45 
Q 35.0625 48.390625 27.6875 48.390625 
Q 23 48.390625 18.546875 47.265625 
Q 14.109375 46.140625 10.015625 43.890625 
L 10.015625 52.203125 
Q 14.9375 54.109375 19.578125 55.046875 
Q 24.21875 56 28.609375 56 
Q 40.484375 56 46.34375 49.84375 
Q 52.203125 43.703125 52.203125 31.203125 
z
" id="DejaVuSans-61"/>
     <path d="M 30.609375 48.390625 
Q 23.390625 48.390625 19.1875 42.75 
Q 14.984375 37.109375 14.984375 27.296875 
Q 14.984375 17.484375 19.15625 11.84375 
Q 23.34375 6.203125 30.609375 6.203125 
Q 37.796875 6.203125 41.984375 11.859375 
Q 46.1875 17.53125 46.1875 27.296875 
Q 46.1875 37.015625 41.984375 42.703125 
Q 37.796875 48.390625 30.609375 48.390625 
z
M 30.609375 56 
Q 42.328125 56 49.015625 48.375 
Q 55.71875 40.765625 55.71875 27.296875 
Q 55.71875 13.875 49.015625 6.21875 
Q 42.328125 -1.421875 30.609375 -1.421875 
Q 18.84375 -1.421875 12.171875 6.21875 
Q 5.515625 13.875 5.515625 27.296875 
Q 5.515625 40.765625 12.171875 48.375 
Q 18.84375 56 30.609375 56 
z
" id="DejaVuSans-6f"/>
     <path d="M 50.984375 -16.609375 
L 50.984375 -23.578125 
L -0.984375 -23.578125 
L -0.984375 -16.609375 
z
" id="DejaVuSans-5f"/>
     <path d="M 54.890625 54.6875 
L 35.109375 28.078125 
L 55.90625 0 
L 45.3125 0 
L 29.390625 21.484375 
L 13.484375 0 
L 2.875 0 
L 24.125 28.609375 
L 4.6875 54.6875 
L 15.28125 54.6875 
L 29.78125 35.203125 
L 44.28125 54.6875 
z
" id="DejaVuSans-78"/>
     <path d="M 45.40625 27.984375 
Q 45.40625 37.75 41.375 43.109375 
Q 37.359375 48.484375 30.078125 48.484375 
Q 22.859375 48.484375 18.828125 43.109375 
Q 14.796875 37.75 14.796875 27.984375 
Q 14.796875 18.265625 18.828125 12.890625 
Q 22.859375 7.515625 30.078125 7.515625 
Q 37.359375 7.515625 41.375 12.890625 
Q 45.40625 18.265625 45.40625 27.984375 
z
M 54.390625 6.78125 
Q 54.390625 -7.171875 48.1875 -13.984375 
Q 42 -20.796875 29.203125 -20.796875 
Q 24.46875 -20.796875 20.265625 -20.09375 
Q 16.0625 -19.390625 12.109375 -17.921875 
L 12.109375 -9.1875 
Q 16.0625 -11.328125 19.921875 -12.34375 
Q 23.78125 -13.375 27.78125 -13.375 
Q 36.625 -13.375 41.015625 -8.765625 
Q 45.40625 -4.15625 45.40625 5.171875 
L 45.40625 9.625 
Q 42.625 4.78125 38.28125 2.390625 
Q 33.9375 0 27.875 0 
Q 17.828125 0 11.671875 7.65625 
Q 5.515625 15.328125 5.515625 27.984375 
Q 5.515625 40.671875 11.671875 48.328125 
Q 17.828125 56 27.875 56 
Q 33.9375 56 38.28125 53.609375 
Q 42.625 51.21875 45.40625 46.390625 
L 45.40625 54.6875 
L 54.390625 54.6875 
z
" id="DejaVuSans-67"/>
    </defs>
    <g transform="translate(624.197813 166.8)scale(0.36 -0.36)">
     <use xlink:href="#DejaVuSans-4c"/>
     <use x="55.712891" xlink:href="#DejaVuSans-61"/>
     <use x="116.992188" xlink:href="#DejaVuSans-73"/>
     <use x="169.091797" xlink:href="#DejaVuSans-73"/>
     <use x="221.191406" xlink:href="#DejaVuSans-6f"/>
     <use x="282.373047" xlink:href="#DejaVuSans-5f"/>
     <use x="332.373047" xlink:href="#DejaVuSans-78"/>
     <use x="391.552734" xlink:href="#DejaVuSans-4c"/>
     <use x="447.25" xlink:href="#DejaVuSans-6f"/>
     <use x="508.431641" xlink:href="#DejaVuSans-67"/>
     <use x="571.908203" xlink:href="#DejaVuSans-50"/>
    </g>
   </g>
  </g>
 </g>
 <defs>
  <clipPath id="pc63441a6b4">
   <rect height="1108.8" width="1116" x="180" y="172.8"/>
  </clipPath>
 </defs>
</svg>
