<?xml version="1.0" encoding="utf-8" standalone="no"?>
<!DOCTYPE svg PUBLIC "-//W3C//DTD SVG 1.1//EN"
  "http://www.w3.org/Graphics/SVG/1.1/DTD/svg11.dtd">
<!-- Created with matplotlib (http://matplotlib.org/) -->
<svg height="1440pt" version="1.1" viewBox="0 0 1440 1440" width="1440pt" xmlns="http://www.w3.org/2000/svg" xmlns:xlink="http://www.w3.org/1999/xlink">
 <defs>
  <style type="text/css">
*{stroke-linecap:butt;stroke-linejoin:round;}
  </style>
 </defs>
 <g id="figure_1">
  <g id="patch_1">
   <path d="M 0 1440 
L 1440 1440 
L 1440 0 
L 0 0 
z
" style="fill:#ffffff;"/>
  </g>
  <g id="axes_1">
   <g id="patch_2">
    <path d="M 180 1281.6 
L 1296 1281.6 
L 1296 172.8 
L 180 172.8 
z
" style="fill:#ffffff;"/>
   </g>
   <g id="PathCollection_1">
    <defs>
     <path d="M 0 3 
C 0.795609 3 1.55874 2.683901 2.12132 2.12132 
C 2.683901 1.55874 3 0.795609 3 0 
C 3 -0.795609 2.683901 -1.55874 2.12132 -2.12132 
C 1.55874 -2.683901 0.795609 -3 0 -3 
C -0.795609 -3 -1.55874 -2.683901 -2.12132 -2.12132 
C -2.683901 -1.55874 -3 -0.795609 -3 0 
C -3 0.795609 -2.683901 1.55874 -2.12132 2.12132 
C -1.55874 2.683901 -0.795609 3 0 3 
z
" id="mceb8688036" style="stroke:#1f77b4;"/>
    </defs>
    <g clip-path="url(#p0e17cc90f3)">
     <use style="fill:#1f77b4;stroke:#1f77b4;" x="274.997658" xlink:href="#mceb8688036" y="1183.499552"/>
     <use style="fill:#1f77b4;stroke:#1f77b4;" x="328.463587" xlink:href="#mceb8688036" y="1111.843389"/>
     <use style="fill:#1f77b4;stroke:#1f77b4;" x="240.312962" xlink:href="#mceb8688036" y="1228.616771"/>
     <use style="fill:#1f77b4;stroke:#1f77b4;" x="259.397118" xlink:href="#mceb8688036" y="1161.289394"/>
     <use style="fill:#1f77b4;stroke:#1f77b4;" x="321.193433" xlink:href="#mceb8688036" y="1133.556995"/>
     <use style="fill:#1f77b4;stroke:#1f77b4;" x="317.406894" xlink:href="#mceb8688036" y="1127.498105"/>
     <use style="fill:#1f77b4;stroke:#1f77b4;" x="299.988815" xlink:href="#mceb8688036" y="1039.571187"/>
     <use style="fill:#1f77b4;stroke:#1f77b4;" x="305.592893" xlink:href="#mceb8688036" y="1161.987412"/>
     <use style="fill:#1f77b4;stroke:#1f77b4;" x="252.278425" xlink:href="#mceb8688036" y="1185.958341"/>
     <use style="fill:#1f77b4;stroke:#1f77b4;" x="336.339588" xlink:href="#mceb8688036" y="1150.813308"/>
     <use style="fill:#1f77b4;stroke:#1f77b4;" x="277.269582" xlink:href="#mceb8688036" y="1177.005703"/>
     <use style="fill:#1f77b4;stroke:#1f77b4;" x="477.80468" xlink:href="#mceb8688036" y="1107.324286"/>
     <use style="fill:#1f77b4;stroke:#1f77b4;" x="305.744354" xlink:href="#mceb8688036" y="1160.480948"/>
     <use style="fill:#1f77b4;stroke:#1f77b4;" x="433.88083" xlink:href="#mceb8688036" y="1064.689395"/>
     <use style="fill:#1f77b4;stroke:#1f77b4;" x="356.93836" xlink:href="#mceb8688036" y="1036.797259"/>
     <use style="fill:#1f77b4;stroke:#1f77b4;" x="327.857741" xlink:href="#mceb8688036" y="1119.327507"/>
     <use style="fill:#1f77b4;stroke:#1f77b4;" x="264.092426" xlink:href="#mceb8688036" y="1130.684443"/>
     <use style="fill:#1f77b4;stroke:#1f77b4;" x="455.085447" xlink:href="#mceb8688036" y="1061.153304"/>
     <use style="fill:#1f77b4;stroke:#1f77b4;" x="712.570091" xlink:href="#mceb8688036" y="932.162276"/>
     <use style="fill:#1f77b4;stroke:#1f77b4;" x="362.693899" xlink:href="#mceb8688036" y="1102.614935"/>
     <use style="fill:#1f77b4;stroke:#1f77b4;" x="380.869285" xlink:href="#mceb8688036" y="1123.157758"/>
     <use style="fill:#1f77b4;stroke:#1f77b4;" x="267.727504" xlink:href="#mceb8688036" y="1179.700967"/>
     <use style="fill:#1f77b4;stroke:#1f77b4;" x="365.72313" xlink:href="#mceb8688036" y="1019.512907"/>
     <use style="fill:#1f77b4;stroke:#1f77b4;" x="249.097733" xlink:href="#mceb8688036" y="1250.126181"/>
     <use style="fill:#1f77b4;stroke:#1f77b4;" x="293.173045" xlink:href="#mceb8688036" y="1177.352531"/>
     <use style="fill:#1f77b4;stroke:#1f77b4;" x="344.064127" xlink:href="#mceb8688036" y="1150.924853"/>
     <use style="fill:#1f77b4;stroke:#1f77b4;" x="271.21112" xlink:href="#mceb8688036" y="1193.146317"/>
     <use style="fill:#1f77b4;stroke:#1f77b4;" x="284.539736" xlink:href="#mceb8688036" y="1186.389749"/>
     <use style="fill:#1f77b4;stroke:#1f77b4;" x="289.235045" xlink:href="#mceb8688036" y="1166.5951"/>
     <use style="fill:#1f77b4;stroke:#1f77b4;" x="249.097733" xlink:href="#mceb8688036" y="1211.836826"/>
     <use style="fill:#1f77b4;stroke:#1f77b4;" x="241.979039" xlink:href="#mceb8688036" y="1141.461585"/>
     <use style="fill:#1f77b4;stroke:#1f77b4;" x="263.032196" xlink:href="#mceb8688036" y="1192.584181"/>
     <use style="fill:#1f77b4;stroke:#1f77b4;" x="339.671742" xlink:href="#mceb8688036" y="1122.26375"/>
     <use style="fill:#1f77b4;stroke:#1f77b4;" x="359.816129" xlink:href="#mceb8688036" y="1118.125254"/>
     <use style="fill:#1f77b4;stroke:#1f77b4;" x="477.80468" xlink:href="#mceb8688036" y="1028.225205"/>
     <use style="fill:#1f77b4;stroke:#1f77b4;" x="358.755898" xlink:href="#mceb8688036" y="1134.086467"/>
     <use style="fill:#1f77b4;stroke:#1f77b4;" x="272.574274" xlink:href="#mceb8688036" y="1192.00454"/>
     <use style="fill:#1f77b4;stroke:#1f77b4;" x="339.520281" xlink:href="#mceb8688036" y="1151.366833"/>
     <use style="fill:#1f77b4;stroke:#1f77b4;" x="254.398887" xlink:href="#mceb8688036" y="1135.978108"/>
     <use style="fill:#1f77b4;stroke:#1f77b4;" x="293.930353" xlink:href="#mceb8688036" y="1143.050415"/>
     <use style="fill:#1f77b4;stroke:#1f77b4;" x="406.61775" xlink:href="#mceb8688036" y="1064.5064"/>
     <use style="fill:#1f77b4;stroke:#1f77b4;" x="293.173045" xlink:href="#mceb8688036" y="1126.941693"/>
     <use style="fill:#1f77b4;stroke:#1f77b4;" x="405.103134" xlink:href="#mceb8688036" y="1099.956414"/>
     <use style="fill:#1f77b4;stroke:#1f77b4;" x="418.734674" xlink:href="#mceb8688036" y="1110.810586"/>
     <use style="fill:#1f77b4;stroke:#1f77b4;" x="394.500825" xlink:href="#mceb8688036" y="1045.279008"/>
     <use style="fill:#1f77b4;stroke:#1f77b4;" x="380.869285" xlink:href="#mceb8688036" y="1080.080724"/>
     <use style="fill:#1f77b4;stroke:#1f77b4;" x="388.442363" xlink:href="#mceb8688036" y="986.40678"/>
     <use style="fill:#1f77b4;stroke:#1f77b4;" x="266.212888" xlink:href="#mceb8688036" y="1140.701066"/>
     <use style="fill:#1f77b4;stroke:#1f77b4;" x="245.311194" xlink:href="#mceb8688036" y="1239.589825"/>
     <use style="fill:#1f77b4;stroke:#1f77b4;" x="285.145583" xlink:href="#mceb8688036" y="1157.08017"/>
     <use style="fill:#1f77b4;stroke:#1f77b4;" x="319.830279" xlink:href="#mceb8688036" y="1152.467777"/>
     <use style="fill:#1f77b4;stroke:#1f77b4;" x="305.592893" xlink:href="#mceb8688036" y="1164.930369"/>
     <use style="fill:#1f77b4;stroke:#1f77b4;" x="232.891346" xlink:href="#mceb8688036" y="1243.338346"/>
     <use style="fill:#1f77b4;stroke:#1f77b4;" x="295.444968" xlink:href="#mceb8688036" y="1093.983786"/>
     <use style="fill:#1f77b4;stroke:#1f77b4;" x="323.768279" xlink:href="#mceb8688036" y="1171.387142"/>
     <use style="fill:#1f77b4;stroke:#1f77b4;" x="373.296208" xlink:href="#mceb8688036" y="1127.50298"/>
     <use style="fill:#1f77b4;stroke:#1f77b4;" x="411.161596" xlink:href="#mceb8688036" y="992.21431"/>
     <use style="fill:#1f77b4;stroke:#1f77b4;" x="259.245657" xlink:href="#mceb8688036" y="1171.808979"/>
     <use style="fill:#1f77b4;stroke:#1f77b4;" x="319.830279" xlink:href="#mceb8688036" y="1155.037484"/>
     <use style="fill:#1f77b4;stroke:#1f77b4;" x="367.237745" xlink:href="#mceb8688036" y="1115.922603"/>
     <use style="fill:#1f77b4;stroke:#1f77b4;" x="334.219126" xlink:href="#mceb8688036" y="1118.667741"/>
     <use style="fill:#1f77b4;stroke:#1f77b4;" x="312.408662" xlink:href="#mceb8688036" y="1131.894123"/>
     <use style="fill:#1f77b4;stroke:#1f77b4;" x="266.212888" xlink:href="#mceb8688036" y="1173.45181"/>
     <use style="fill:#1f77b4;stroke:#1f77b4;" x="324.374125" xlink:href="#mceb8688036" y="1117.660714"/>
     <use style="fill:#1f77b4;stroke:#1f77b4;" x="285.145583" xlink:href="#mceb8688036" y="1109.247058"/>
     <use style="fill:#1f77b4;stroke:#1f77b4;" x="239.10127" xlink:href="#mceb8688036" y="1194.838474"/>
     <use style="fill:#1f77b4;stroke:#1f77b4;" x="334.067665" xlink:href="#mceb8688036" y="1120.330738"/>
     <use style="fill:#1f77b4;stroke:#1f77b4;" x="314.680586" xlink:href="#mceb8688036" y="1097.446974"/>
     <use style="fill:#1f77b4;stroke:#1f77b4;" x="303.169508" xlink:href="#mceb8688036" y="1156.797748"/>
     <use style="fill:#1f77b4;stroke:#1f77b4;" x="280.147351" xlink:href="#mceb8688036" y="1166.469694"/>
     <use style="fill:#1f77b4;stroke:#1f77b4;" x="334.067665" xlink:href="#mceb8688036" y="1110.222556"/>
     <use style="fill:#1f77b4;stroke:#1f77b4;" x="263.940965" xlink:href="#mceb8688036" y="1203.103226"/>
     <use style="fill:#1f77b4;stroke:#1f77b4;" x="418.734674" xlink:href="#mceb8688036" y="1125.929553"/>
     <use style="fill:#1f77b4;stroke:#1f77b4;" x="277.572505" xlink:href="#mceb8688036" y="1127.116516"/>
     <use style="fill:#1f77b4;stroke:#1f77b4;" x="382.383901" xlink:href="#mceb8688036" y="1033.828266"/>
     <use style="fill:#1f77b4;stroke:#1f77b4;" x="482.348527" xlink:href="#mceb8688036" y="919.558351"/>
     <use style="fill:#1f77b4;stroke:#1f77b4;" x="780.72779" xlink:href="#mceb8688036" y="734.129652"/>
     <use style="fill:#1f77b4;stroke:#1f77b4;" x="245.462655" xlink:href="#mceb8688036" y="1190.077503"/>
     <use style="fill:#1f77b4;stroke:#1f77b4;" x="258.63981" xlink:href="#mceb8688036" y="1197.383514"/>
     <use style="fill:#1f77b4;stroke:#1f77b4;" x="256.519349" xlink:href="#mceb8688036" y="1194.071926"/>
     <use style="fill:#1f77b4;stroke:#1f77b4;" x="299.231507" xlink:href="#mceb8688036" y="1054.566542"/>
     <use style="fill:#1f77b4;stroke:#1f77b4;" x="293.324507" xlink:href="#mceb8688036" y="1171.868795"/>
     <use style="fill:#1f77b4;stroke:#1f77b4;" x="308.016277" xlink:href="#mceb8688036" y="1059.037467"/>
     <use style="fill:#1f77b4;stroke:#1f77b4;" x="388.442363" xlink:href="#mceb8688036" y="1059.549987"/>
     <use style="fill:#1f77b4;stroke:#1f77b4;" x="435.395445" xlink:href="#mceb8688036" y="1005.672191"/>
     <use style="fill:#1f77b4;stroke:#1f77b4;" x="268.636273" xlink:href="#mceb8688036" y="1219.446101"/>
     <use style="fill:#1f77b4;stroke:#1f77b4;" x="265.607042" xlink:href="#mceb8688036" y="1194.484356"/>
     <use style="fill:#1f77b4;stroke:#1f77b4;" x="209.717728" xlink:href="#mceb8688036" y="1218.571629"/>
     <use style="fill:#1f77b4;stroke:#1f77b4;" x="320.133202" xlink:href="#mceb8688036" y="1150.652101"/>
     <use style="fill:#1f77b4;stroke:#1f77b4;" x="263.48658" xlink:href="#mceb8688036" y="1161.593437"/>
     <use style="fill:#1f77b4;stroke:#1f77b4;" x="281.96489" xlink:href="#mceb8688036" y="1073.023768"/>
     <use style="fill:#1f77b4;stroke:#1f77b4;" x="250.612348" xlink:href="#mceb8688036" y="1107.527281"/>
     <use style="fill:#1f77b4;stroke:#1f77b4;" x="458.114678" xlink:href="#mceb8688036" y="1017.386787"/>
     <use style="fill:#1f77b4;stroke:#1f77b4;" x="402.073903" xlink:href="#mceb8688036" y="1072.557551"/>
     <use style="fill:#1f77b4;stroke:#1f77b4;" x="392.98621" xlink:href="#mceb8688036" y="1149.163371"/>
     <use style="fill:#1f77b4;stroke:#1f77b4;" x="359.361744" xlink:href="#mceb8688036" y="1148.909975"/>
     <use style="fill:#1f77b4;stroke:#1f77b4;" x="382.383901" xlink:href="#mceb8688036" y="1099.832861"/>
     <use style="fill:#1f77b4;stroke:#1f77b4;" x="321.193433" xlink:href="#mceb8688036" y="1145.424268"/>
     <use style="fill:#1f77b4;stroke:#1f77b4;" x="251.521117" xlink:href="#mceb8688036" y="1231.568437"/>
     <use style="fill:#1f77b4;stroke:#1f77b4;" x="439.939292" xlink:href="#mceb8688036" y="1100.436437"/>
     <use style="fill:#1f77b4;stroke:#1f77b4;" x="388.442363" xlink:href="#mceb8688036" y="1122.827508"/>
     <use style="fill:#1f77b4;stroke:#1f77b4;" x="324.82851" xlink:href="#mceb8688036" y="1152.480957"/>
     <use style="fill:#1f77b4;stroke:#1f77b4;" x="283.93389" xlink:href="#mceb8688036" y="1156.859464"/>
     <use style="fill:#1f77b4;stroke:#1f77b4;" x="278.784197" xlink:href="#mceb8688036" y="1166.239981"/>
     <use style="fill:#1f77b4;stroke:#1f77b4;" x="359.967591" xlink:href="#mceb8688036" y="1106.817854"/>
     <use style="fill:#1f77b4;stroke:#1f77b4;" x="418.734674" xlink:href="#mceb8688036" y="1100.142876"/>
     <use style="fill:#1f77b4;stroke:#1f77b4;" x="219.562729" xlink:href="#mceb8688036" y="1170.387989"/>
     <use style="fill:#1f77b4;stroke:#1f77b4;" x="214.564498" xlink:href="#mceb8688036" y="1208.374241"/>
     <use style="fill:#1f77b4;stroke:#1f77b4;" x="286.508737" xlink:href="#mceb8688036" y="1146.698763"/>
     <use style="fill:#1f77b4;stroke:#1f77b4;" x="266.212888" xlink:href="#mceb8688036" y="1202.729585"/>
     <use style="fill:#1f77b4;stroke:#1f77b4;" x="414.190827" xlink:href="#mceb8688036" y="1053.119582"/>
     <use style="fill:#1f77b4;stroke:#1f77b4;" x="283.782429" xlink:href="#mceb8688036" y="1211.070236"/>
     <use style="fill:#1f77b4;stroke:#1f77b4;" x="359.816129" xlink:href="#mceb8688036" y="1090.519784"/>
     <use style="fill:#1f77b4;stroke:#1f77b4;" x="246.674348" xlink:href="#mceb8688036" y="1236.257676"/>
     <use style="fill:#1f77b4;stroke:#1f77b4;" x="312.560124" xlink:href="#mceb8688036" y="1128.835698"/>
     <use style="fill:#1f77b4;stroke:#1f77b4;" x="415.705443" xlink:href="#mceb8688036" y="1059.022687"/>
     <use style="fill:#1f77b4;stroke:#1f77b4;" x="271.816966" xlink:href="#mceb8688036" y="1175.803184"/>
     <use style="fill:#1f77b4;stroke:#1f77b4;" x="368.752361" xlink:href="#mceb8688036" y="1137.187977"/>
     <use style="fill:#1f77b4;stroke:#1f77b4;" x="337.248357" xlink:href="#mceb8688036" y="1153.558661"/>
     <use style="fill:#1f77b4;stroke:#1f77b4;" x="365.72313" xlink:href="#mceb8688036" y="1110.464366"/>
     <use style="fill:#1f77b4;stroke:#1f77b4;" x="293.930353" xlink:href="#mceb8688036" y="1152.579929"/>
     <use style="fill:#1f77b4;stroke:#1f77b4;" x="228.650423" xlink:href="#mceb8688036" y="1213.609954"/>
     <use style="fill:#1f77b4;stroke:#1f77b4;" x="327.554818" xlink:href="#mceb8688036" y="1181.869071"/>
     <use style="fill:#1f77b4;stroke:#1f77b4;" x="318.315663" xlink:href="#mceb8688036" y="1100.292948"/>
     <use style="fill:#1f77b4;stroke:#1f77b4;" x="245.311194" xlink:href="#mceb8688036" y="1239.187541"/>
     <use style="fill:#1f77b4;stroke:#1f77b4;" x="432.366214" xlink:href="#mceb8688036" y="1070.755783"/>
     <use style="fill:#1f77b4;stroke:#1f77b4;" x="520.213916" xlink:href="#mceb8688036" y="854.33884"/>
     <use style="fill:#1f77b4;stroke:#1f77b4;" x="227.893115" xlink:href="#mceb8688036" y="1155.077685"/>
     <use style="fill:#1f77b4;stroke:#1f77b4;" x="353.303282" xlink:href="#mceb8688036" y="1111.266307"/>
     <use style="fill:#1f77b4;stroke:#1f77b4;" x="310.439662" xlink:href="#mceb8688036" y="1181.944348"/>
     <use style="fill:#1f77b4;stroke:#1f77b4;" x="214.564498" xlink:href="#mceb8688036" y="1217.955978"/>
     <use style="fill:#1f77b4;stroke:#1f77b4;" x="367.237745" xlink:href="#mceb8688036" y="1097.082704"/>
     <use style="fill:#1f77b4;stroke:#1f77b4;" x="929.160114" xlink:href="#mceb8688036" y="652.067084"/>
     <use style="fill:#1f77b4;stroke:#1f77b4;" x="283.025121" xlink:href="#mceb8688036" y="1151.163261"/>
     <use style="fill:#1f77b4;stroke:#1f77b4;" x="347.699205" xlink:href="#mceb8688036" y="1087.940958"/>
     <use style="fill:#1f77b4;stroke:#1f77b4;" x="379.35467" xlink:href="#mceb8688036" y="1081.674676"/>
     <use style="fill:#1f77b4;stroke:#1f77b4;" x="274.543274" xlink:href="#mceb8688036" y="1189.749588"/>
     <use style="fill:#1f77b4;stroke:#1f77b4;" x="371.781592" xlink:href="#mceb8688036" y="1044.128405"/>
     <use style="fill:#1f77b4;stroke:#1f77b4;" x="307.864816" xlink:href="#mceb8688036" y="1129.295535"/>
     <use style="fill:#1f77b4;stroke:#1f77b4;" x="341.489281" xlink:href="#mceb8688036" y="1127.914635"/>
     <use style="fill:#1f77b4;stroke:#1f77b4;" x="358.90736" xlink:href="#mceb8688036" y="1128.94669"/>
     <use style="fill:#1f77b4;stroke:#1f77b4;" x="301.654892" xlink:href="#mceb8688036" y="1142.676382"/>
     <use style="fill:#1f77b4;stroke:#1f77b4;" x="324.374125" xlink:href="#mceb8688036" y="1105.703836"/>
     <use style="fill:#1f77b4;stroke:#1f77b4;" x="345.730205" xlink:href="#mceb8688036" y="1090.821863"/>
     <use style="fill:#1f77b4;stroke:#1f77b4;" x="271.059658" xlink:href="#mceb8688036" y="1127.266515"/>
     <use style="fill:#1f77b4;stroke:#1f77b4;" x="254.398887" xlink:href="#mceb8688036" y="1188.964386"/>
     <use style="fill:#1f77b4;stroke:#1f77b4;" x="344.972897" xlink:href="#mceb8688036" y="1161.949052"/>
     <use style="fill:#1f77b4;stroke:#1f77b4;" x="400.559287" xlink:href="#mceb8688036" y="1036.97131"/>
     <use style="fill:#1f77b4;stroke:#1f77b4;" x="257.882503" xlink:href="#mceb8688036" y="1136.429001"/>
     <use style="fill:#1f77b4;stroke:#1f77b4;" x="336.642511" xlink:href="#mceb8688036" y="1106.207018"/>
     <use style="fill:#1f77b4;stroke:#1f77b4;" x="324.222664" xlink:href="#mceb8688036" y="1122.589617"/>
     <use style="fill:#1f77b4;stroke:#1f77b4;" x="246.219963" xlink:href="#mceb8688036" y="1278.915818"/>
     <use style="fill:#1f77b4;stroke:#1f77b4;" x="227.893115" xlink:href="#mceb8688036" y="1230.156542"/>
     <use style="fill:#1f77b4;stroke:#1f77b4;" x="459.629294" xlink:href="#mceb8688036" y="1092.897113"/>
     <use style="fill:#1f77b4;stroke:#1f77b4;" x="328.615049" xlink:href="#mceb8688036" y="1118.769445"/>
     <use style="fill:#1f77b4;stroke:#1f77b4;" x="523.243147" xlink:href="#mceb8688036" y="1000.470257"/>
     <use style="fill:#1f77b4;stroke:#1f77b4;" x="479.319296" xlink:href="#mceb8688036" y="914.604205"/>
     <use style="fill:#1f77b4;stroke:#1f77b4;" x="346.184589" xlink:href="#mceb8688036" y="1121.590625"/>
     <use style="fill:#1f77b4;stroke:#1f77b4;" x="357.241283" xlink:href="#mceb8688036" y="1137.767185"/>
     <use style="fill:#1f77b4;stroke:#1f77b4;" x="385.413132" xlink:href="#mceb8688036" y="1140.440549"/>
     <use style="fill:#1f77b4;stroke:#1f77b4;" x="433.88083" xlink:href="#mceb8688036" y="998.702671"/>
     <use style="fill:#1f77b4;stroke:#1f77b4;" x="350.274051" xlink:href="#mceb8688036" y="1079.898238"/>
     <use style="fill:#1f77b4;stroke:#1f77b4;" x="245.462655" xlink:href="#mceb8688036" y="1193.875086"/>
     <use style="fill:#1f77b4;stroke:#1f77b4;" x="280.147351" xlink:href="#mceb8688036" y="1152.439964"/>
     <use style="fill:#1f77b4;stroke:#1f77b4;" x="293.475968" xlink:href="#mceb8688036" y="1089.248256"/>
     <use style="fill:#1f77b4;stroke:#1f77b4;" x="357.847129" xlink:href="#mceb8688036" y="1097.740135"/>
     <use style="fill:#1f77b4;stroke:#1f77b4;" x="272.574274" xlink:href="#mceb8688036" y="1158.893207"/>
     <use style="fill:#1f77b4;stroke:#1f77b4;" x="303.018046" xlink:href="#mceb8688036" y="1128.839153"/>
     <use style="fill:#1f77b4;stroke:#1f77b4;" x="309.379431" xlink:href="#mceb8688036" y="1172.691849"/>
     <use style="fill:#1f77b4;stroke:#1f77b4;" x="307.107508" xlink:href="#mceb8688036" y="1138.953284"/>
     <use style="fill:#1f77b4;stroke:#1f77b4;" x="233.497192" xlink:href="#mceb8688036" y="1177.750058"/>
     <use style="fill:#1f77b4;stroke:#1f77b4;" x="400.559287" xlink:href="#mceb8688036" y="877.34291"/>
     <use style="fill:#1f77b4;stroke:#1f77b4;" x="399.044672" xlink:href="#mceb8688036" y="1099.017364"/>
     <use style="fill:#1f77b4;stroke:#1f77b4;" x="234.103039" xlink:href="#mceb8688036" y="1200.224156"/>
     <use style="fill:#1f77b4;stroke:#1f77b4;" x="255.459118" xlink:href="#mceb8688036" y="1156.18038"/>
     <use style="fill:#1f77b4;stroke:#1f77b4;" x="332.401588" xlink:href="#mceb8688036" y="1087.018048"/>
     <use style="fill:#1f77b4;stroke:#1f77b4;" x="287.871891" xlink:href="#mceb8688036" y="1101.415819"/>
     <use style="fill:#1f77b4;stroke:#1f77b4;" x="292.112814" xlink:href="#mceb8688036" y="1180.01164"/>
     <use style="fill:#1f77b4;stroke:#1f77b4;" x="227.893115" xlink:href="#mceb8688036" y="1223.43521"/>
     <use style="fill:#1f77b4;stroke:#1f77b4;" x="294.233276" xlink:href="#mceb8688036" y="1137.426123"/>
     <use style="fill:#1f77b4;stroke:#1f77b4;" x="280.147351" xlink:href="#mceb8688036" y="1175.050755"/>
     <use style="fill:#1f77b4;stroke:#1f77b4;" x="281.510505" xlink:href="#mceb8688036" y="1177.097132"/>
     <use style="fill:#1f77b4;stroke:#1f77b4;" x="280.147351" xlink:href="#mceb8688036" y="1190.214764"/>
     <use style="fill:#1f77b4;stroke:#1f77b4;" x="279.844428" xlink:href="#mceb8688036" y="1211.100974"/>
     <use style="fill:#1f77b4;stroke:#1f77b4;" x="299.53443" xlink:href="#mceb8688036" y="1170.077382"/>
     <use style="fill:#1f77b4;stroke:#1f77b4;" x="214.564498" xlink:href="#mceb8688036" y="1237.253116"/>
     <use style="fill:#1f77b4;stroke:#1f77b4;" x="365.72313" xlink:href="#mceb8688036" y="1216.36379"/>
     <use style="fill:#1f77b4;stroke:#1f77b4;" x="305.592893" xlink:href="#mceb8688036" y="1155.939213"/>
     <use style="fill:#1f77b4;stroke:#1f77b4;" x="260.305888" xlink:href="#mceb8688036" y="1156.771012"/>
     <use style="fill:#1f77b4;stroke:#1f77b4;" x="397.530056" xlink:href="#mceb8688036" y="898.494502"/>
     <use style="fill:#1f77b4;stroke:#1f77b4;" x="280.147351" xlink:href="#mceb8688036" y="1173.879436"/>
     <use style="fill:#1f77b4;stroke:#1f77b4;" x="406.61775" xlink:href="#mceb8688036" y="1059.172541"/>
     <use style="fill:#1f77b4;stroke:#1f77b4;" x="310.439662" xlink:href="#mceb8688036" y="1173.976643"/>
     <use style="fill:#1f77b4;stroke:#1f77b4;" x="418.734674" xlink:href="#mceb8688036" y="1074.165989"/>
     <use style="fill:#1f77b4;stroke:#1f77b4;" x="748.920864" xlink:href="#mceb8688036" y="696.608795"/>
     <use style="fill:#1f77b4;stroke:#1f77b4;" x="323.162433" xlink:href="#mceb8688036" y="1081.627862"/>
     <use style="fill:#1f77b4;stroke:#1f77b4;" x="331.492818" xlink:href="#mceb8688036" y="1141.946514"/>
     <use style="fill:#1f77b4;stroke:#1f77b4;" x="325.434356" xlink:href="#mceb8688036" y="1132.71221"/>
     <use style="fill:#1f77b4;stroke:#1f77b4;" x="266.212888" xlink:href="#mceb8688036" y="1215.878625"/>
     <use style="fill:#1f77b4;stroke:#1f77b4;" x="346.638974" xlink:href="#mceb8688036" y="1108.023035"/>
     <use style="fill:#1f77b4;stroke:#1f77b4;" x="249.097733" xlink:href="#mceb8688036" y="1216.028465"/>
     <use style="fill:#1f77b4;stroke:#1f77b4;" x="319.98174" xlink:href="#mceb8688036" y="1121.437776"/>
     <use style="fill:#1f77b4;stroke:#1f77b4;" x="261.366118" xlink:href="#mceb8688036" y="1134.462409"/>
     <use style="fill:#1f77b4;stroke:#1f77b4;" x="266.36435" xlink:href="#mceb8688036" y="1182.191846"/>
     <use style="fill:#1f77b4;stroke:#1f77b4;" x="420.24929" xlink:href="#mceb8688036" y="1088.407099"/>
     <use style="fill:#1f77b4;stroke:#1f77b4;" x="341.337819" xlink:href="#mceb8688036" y="1151.44615"/>
     <use style="fill:#1f77b4;stroke:#1f77b4;" x="259.851503" xlink:href="#mceb8688036" y="1159.366386"/>
     <use style="fill:#1f77b4;stroke:#1f77b4;" x="406.61775" xlink:href="#mceb8688036" y="1167.431074"/>
     <use style="fill:#1f77b4;stroke:#1f77b4;" x="388.442363" xlink:href="#mceb8688036" y="1006.061604"/>
     <use style="fill:#1f77b4;stroke:#1f77b4;" x="418.734674" xlink:href="#mceb8688036" y="1090.296282"/>
     <use style="fill:#1f77b4;stroke:#1f77b4;" x="253.187195" xlink:href="#mceb8688036" y="1206.963026"/>
     <use style="fill:#1f77b4;stroke:#1f77b4;" x="290.446737" xlink:href="#mceb8688036" y="1119.316474"/>
     <use style="fill:#1f77b4;stroke:#1f77b4;" x="341.186358" xlink:href="#mceb8688036" y="1133.31033"/>
     <use style="fill:#1f77b4;stroke:#1f77b4;" x="403.588519" xlink:href="#mceb8688036" y="1096.879217"/>
     <use style="fill:#1f77b4;stroke:#1f77b4;" x="271.059658" xlink:href="#mceb8688036" y="1151.715271"/>
     <use style="fill:#1f77b4;stroke:#1f77b4;" x="265.001196" xlink:href="#mceb8688036" y="1165.629854"/>
     <use style="fill:#1f77b4;stroke:#1f77b4;" x="370.266976" xlink:href="#mceb8688036" y="1139.73833"/>
     <use style="fill:#1f77b4;stroke:#1f77b4;" x="269.847966" xlink:href="#mceb8688036" y="1176.57059"/>
     <use style="fill:#1f77b4;stroke:#1f77b4;" x="258.63981" xlink:href="#mceb8688036" y="1197.383514"/>
     <use style="fill:#1f77b4;stroke:#1f77b4;" x="262.729272" xlink:href="#mceb8688036" y="1133.778802"/>
     <use style="fill:#1f77b4;stroke:#1f77b4;" x="349.516743" xlink:href="#mceb8688036" y="1150.017899"/>
     <use style="fill:#1f77b4;stroke:#1f77b4;" x="312.863047" xlink:href="#mceb8688036" y="1167.857359"/>
     <use style="fill:#1f77b4;stroke:#1f77b4;" x="385.413132" xlink:href="#mceb8688036" y="1095.57545"/>
     <use style="fill:#1f77b4;stroke:#1f77b4;" x="529.301609" xlink:href="#mceb8688036" y="1011.690432"/>
     <use style="fill:#1f77b4;stroke:#1f77b4;" x="328.312126" xlink:href="#mceb8688036" y="1178.471452"/>
     <use style="fill:#1f77b4;stroke:#1f77b4;" x="627.75162" xlink:href="#mceb8688036" y="881.618085"/>
     <use style="fill:#1f77b4;stroke:#1f77b4;" x="505.06776" xlink:href="#mceb8688036" y="877.816177"/>
     <use style="fill:#1f77b4;stroke:#1f77b4;" x="266.212888" xlink:href="#mceb8688036" y="1202.130135"/>
     <use style="fill:#1f77b4;stroke:#1f77b4;" x="307.25897" xlink:href="#mceb8688036" y="1154.686204"/>
     <use style="fill:#1f77b4;stroke:#1f77b4;" x="414.190827" xlink:href="#mceb8688036" y="1091.949178"/>
     <use style="fill:#1f77b4;stroke:#1f77b4;" x="305.592893" xlink:href="#mceb8688036" y="1168.837848"/>
     <use style="fill:#1f77b4;stroke:#1f77b4;" x="332.553049" xlink:href="#mceb8688036" y="1156.940238"/>
     <use style="fill:#1f77b4;stroke:#1f77b4;" x="209.717728" xlink:href="#mceb8688036" y="1152.668707"/>
     <use style="fill:#1f77b4;stroke:#1f77b4;" x="325.888741" xlink:href="#mceb8688036" y="1015.650952"/>
     <use style="fill:#1f77b4;stroke:#1f77b4;" x="285.145583" xlink:href="#mceb8688036" y="1129.181527"/>
     <use style="fill:#1f77b4;stroke:#1f77b4;" x="297.716892" xlink:href="#mceb8688036" y="1191.857953"/>
     <use style="fill:#1f77b4;stroke:#1f77b4;" x="1197.247066" xlink:href="#mceb8688036" y="551.420606"/>
     <use style="fill:#1f77b4;stroke:#1f77b4;" x="367.237745" xlink:href="#mceb8688036" y="1136.576987"/>
     <use style="fill:#1f77b4;stroke:#1f77b4;" x="297.868353" xlink:href="#mceb8688036" y="1185.144013"/>
    </g>
   </g>
   <g id="matplotlib.axis_1">
    <g id="xtick_1">
     <g id="line2d_1">
      <defs>
       <path d="M 0 0 
L 0 3.5 
" id="mb6eafaf8c9" style="stroke:#000000;stroke-width:0.8;"/>
      </defs>
      <g>
       <use style="stroke:#000000;stroke-width:0.8;" x="209.717728" xlink:href="#mb6eafaf8c9" y="1281.6"/>
      </g>
     </g>
     <g id="text_1">
      <!-- 0 -->
      <defs>
       <path d="M 31.78125 66.40625 
Q 24.171875 66.40625 20.328125 58.90625 
Q 16.5 51.421875 16.5 36.375 
Q 16.5 21.390625 20.328125 13.890625 
Q 24.171875 6.390625 31.78125 6.390625 
Q 39.453125 6.390625 43.28125 13.890625 
Q 47.125 21.390625 47.125 36.375 
Q 47.125 51.421875 43.28125 58.90625 
Q 39.453125 66.40625 31.78125 66.40625 
z
M 31.78125 74.21875 
Q 44.046875 74.21875 50.515625 64.515625 
Q 56.984375 54.828125 56.984375 36.375 
Q 56.984375 17.96875 50.515625 8.265625 
Q 44.046875 -1.421875 31.78125 -1.421875 
Q 19.53125 -1.421875 13.0625 8.265625 
Q 6.59375 17.96875 6.59375 36.375 
Q 6.59375 54.828125 13.0625 64.515625 
Q 19.53125 74.21875 31.78125 74.21875 
z
" id="DejaVuSans-30"/>
      </defs>
      <g transform="translate(206.536478 1296.198437)scale(0.1 -0.1)">
       <use xlink:href="#DejaVuSans-30"/>
      </g>
     </g>
    </g>
    <g id="xtick_2">
     <g id="line2d_2">
      <g>
       <use style="stroke:#000000;stroke-width:0.8;" x="361.179283" xlink:href="#mb6eafaf8c9" y="1281.6"/>
      </g>
     </g>
     <g id="text_2">
      <!-- 100 -->
      <defs>
       <path d="M 12.40625 8.296875 
L 28.515625 8.296875 
L 28.515625 63.921875 
L 10.984375 60.40625 
L 10.984375 69.390625 
L 28.421875 72.90625 
L 38.28125 72.90625 
L 38.28125 8.296875 
L 54.390625 8.296875 
L 54.390625 0 
L 12.40625 0 
z
" id="DejaVuSans-31"/>
      </defs>
      <g transform="translate(351.635533 1296.198437)scale(0.1 -0.1)">
       <use xlink:href="#DejaVuSans-31"/>
       <use x="63.623047" xlink:href="#DejaVuSans-30"/>
       <use x="127.246094" xlink:href="#DejaVuSans-30"/>
      </g>
     </g>
    </g>
    <g id="xtick_3">
     <g id="line2d_3">
      <g>
       <use style="stroke:#000000;stroke-width:0.8;" x="512.640838" xlink:href="#mb6eafaf8c9" y="1281.6"/>
      </g>
     </g>
     <g id="text_3">
      <!-- 200 -->
      <defs>
       <path d="M 19.1875 8.296875 
L 53.609375 8.296875 
L 53.609375 0 
L 7.328125 0 
L 7.328125 8.296875 
Q 12.9375 14.109375 22.625 23.890625 
Q 32.328125 33.6875 34.8125 36.53125 
Q 39.546875 41.84375 41.421875 45.53125 
Q 43.3125 49.21875 43.3125 52.78125 
Q 43.3125 58.59375 39.234375 62.25 
Q 35.15625 65.921875 28.609375 65.921875 
Q 23.96875 65.921875 18.8125 64.3125 
Q 13.671875 62.703125 7.8125 59.421875 
L 7.8125 69.390625 
Q 13.765625 71.78125 18.9375 73 
Q 24.125 74.21875 28.421875 74.21875 
Q 39.75 74.21875 46.484375 68.546875 
Q 53.21875 62.890625 53.21875 53.421875 
Q 53.21875 48.921875 51.53125 44.890625 
Q 49.859375 40.875 45.40625 35.40625 
Q 44.1875 33.984375 37.640625 27.21875 
Q 31.109375 20.453125 19.1875 8.296875 
z
" id="DejaVuSans-32"/>
      </defs>
      <g transform="translate(503.097088 1296.198437)scale(0.1 -0.1)">
       <use xlink:href="#DejaVuSans-32"/>
       <use x="63.623047" xlink:href="#DejaVuSans-30"/>
       <use x="127.246094" xlink:href="#DejaVuSans-30"/>
      </g>
     </g>
    </g>
    <g id="xtick_4">
     <g id="line2d_4">
      <g>
       <use style="stroke:#000000;stroke-width:0.8;" x="664.102393" xlink:href="#mb6eafaf8c9" y="1281.6"/>
      </g>
     </g>
     <g id="text_4">
      <!-- 300 -->
      <defs>
       <path d="M 40.578125 39.3125 
Q 47.65625 37.796875 51.625 33 
Q 55.609375 28.21875 55.609375 21.1875 
Q 55.609375 10.40625 48.1875 4.484375 
Q 40.765625 -1.421875 27.09375 -1.421875 
Q 22.515625 -1.421875 17.65625 -0.515625 
Q 12.796875 0.390625 7.625 2.203125 
L 7.625 11.71875 
Q 11.71875 9.328125 16.59375 8.109375 
Q 21.484375 6.890625 26.8125 6.890625 
Q 36.078125 6.890625 40.9375 10.546875 
Q 45.796875 14.203125 45.796875 21.1875 
Q 45.796875 27.640625 41.28125 31.265625 
Q 36.765625 34.90625 28.71875 34.90625 
L 20.21875 34.90625 
L 20.21875 43.015625 
L 29.109375 43.015625 
Q 36.375 43.015625 40.234375 45.921875 
Q 44.09375 48.828125 44.09375 54.296875 
Q 44.09375 59.90625 40.109375 62.90625 
Q 36.140625 65.921875 28.71875 65.921875 
Q 24.65625 65.921875 20.015625 65.03125 
Q 15.375 64.15625 9.8125 62.3125 
L 9.8125 71.09375 
Q 15.4375 72.65625 20.34375 73.4375 
Q 25.25 74.21875 29.59375 74.21875 
Q 40.828125 74.21875 47.359375 69.109375 
Q 53.90625 64.015625 53.90625 55.328125 
Q 53.90625 49.265625 50.4375 45.09375 
Q 46.96875 40.921875 40.578125 39.3125 
z
" id="DejaVuSans-33"/>
      </defs>
      <g transform="translate(654.558643 1296.198437)scale(0.1 -0.1)">
       <use xlink:href="#DejaVuSans-33"/>
       <use x="63.623047" xlink:href="#DejaVuSans-30"/>
       <use x="127.246094" xlink:href="#DejaVuSans-30"/>
      </g>
     </g>
    </g>
    <g id="xtick_5">
     <g id="line2d_5">
      <g>
       <use style="stroke:#000000;stroke-width:0.8;" x="815.563948" xlink:href="#mb6eafaf8c9" y="1281.6"/>
      </g>
     </g>
     <g id="text_5">
      <!-- 400 -->
      <defs>
       <path d="M 37.796875 64.3125 
L 12.890625 25.390625 
L 37.796875 25.390625 
z
M 35.203125 72.90625 
L 47.609375 72.90625 
L 47.609375 25.390625 
L 58.015625 25.390625 
L 58.015625 17.1875 
L 47.609375 17.1875 
L 47.609375 0 
L 37.796875 0 
L 37.796875 17.1875 
L 4.890625 17.1875 
L 4.890625 26.703125 
z
" id="DejaVuSans-34"/>
      </defs>
      <g transform="translate(806.020198 1296.198437)scale(0.1 -0.1)">
       <use xlink:href="#DejaVuSans-34"/>
       <use x="63.623047" xlink:href="#DejaVuSans-30"/>
       <use x="127.246094" xlink:href="#DejaVuSans-30"/>
      </g>
     </g>
    </g>
    <g id="xtick_6">
     <g id="line2d_6">
      <g>
       <use style="stroke:#000000;stroke-width:0.8;" x="967.025503" xlink:href="#mb6eafaf8c9" y="1281.6"/>
      </g>
     </g>
     <g id="text_6">
      <!-- 500 -->
      <defs>
       <path d="M 10.796875 72.90625 
L 49.515625 72.90625 
L 49.515625 64.59375 
L 19.828125 64.59375 
L 19.828125 46.734375 
Q 21.96875 47.46875 24.109375 47.828125 
Q 26.265625 48.1875 28.421875 48.1875 
Q 40.625 48.1875 47.75 41.5 
Q 54.890625 34.8125 54.890625 23.390625 
Q 54.890625 11.625 47.5625 5.09375 
Q 40.234375 -1.421875 26.90625 -1.421875 
Q 22.3125 -1.421875 17.546875 -0.640625 
Q 12.796875 0.140625 7.71875 1.703125 
L 7.71875 11.625 
Q 12.109375 9.234375 16.796875 8.0625 
Q 21.484375 6.890625 26.703125 6.890625 
Q 35.15625 6.890625 40.078125 11.328125 
Q 45.015625 15.765625 45.015625 23.390625 
Q 45.015625 31 40.078125 35.4375 
Q 35.15625 39.890625 26.703125 39.890625 
Q 22.75 39.890625 18.8125 39.015625 
Q 14.890625 38.140625 10.796875 36.28125 
z
" id="DejaVuSans-35"/>
      </defs>
      <g transform="translate(957.481753 1296.198437)scale(0.1 -0.1)">
       <use xlink:href="#DejaVuSans-35"/>
       <use x="63.623047" xlink:href="#DejaVuSans-30"/>
       <use x="127.246094" xlink:href="#DejaVuSans-30"/>
      </g>
     </g>
    </g>
    <g id="xtick_7">
     <g id="line2d_7">
      <g>
       <use style="stroke:#000000;stroke-width:0.8;" x="1118.487058" xlink:href="#mb6eafaf8c9" y="1281.6"/>
      </g>
     </g>
     <g id="text_7">
      <!-- 600 -->
      <defs>
       <path d="M 33.015625 40.375 
Q 26.375 40.375 22.484375 35.828125 
Q 18.609375 31.296875 18.609375 23.390625 
Q 18.609375 15.53125 22.484375 10.953125 
Q 26.375 6.390625 33.015625 6.390625 
Q 39.65625 6.390625 43.53125 10.953125 
Q 47.40625 15.53125 47.40625 23.390625 
Q 47.40625 31.296875 43.53125 35.828125 
Q 39.65625 40.375 33.015625 40.375 
z
M 52.59375 71.296875 
L 52.59375 62.3125 
Q 48.875 64.0625 45.09375 64.984375 
Q 41.3125 65.921875 37.59375 65.921875 
Q 27.828125 65.921875 22.671875 59.328125 
Q 17.53125 52.734375 16.796875 39.40625 
Q 19.671875 43.65625 24.015625 45.921875 
Q 28.375 48.1875 33.59375 48.1875 
Q 44.578125 48.1875 50.953125 41.515625 
Q 57.328125 34.859375 57.328125 23.390625 
Q 57.328125 12.15625 50.6875 5.359375 
Q 44.046875 -1.421875 33.015625 -1.421875 
Q 20.359375 -1.421875 13.671875 8.265625 
Q 6.984375 17.96875 6.984375 36.375 
Q 6.984375 53.65625 15.1875 63.9375 
Q 23.390625 74.21875 37.203125 74.21875 
Q 40.921875 74.21875 44.703125 73.484375 
Q 48.484375 72.75 52.59375 71.296875 
z
" id="DejaVuSans-36"/>
      </defs>
      <g transform="translate(1108.943308 1296.198437)scale(0.1 -0.1)">
       <use xlink:href="#DejaVuSans-36"/>
       <use x="63.623047" xlink:href="#DejaVuSans-30"/>
       <use x="127.246094" xlink:href="#DejaVuSans-30"/>
      </g>
     </g>
    </g>
    <g id="xtick_8">
     <g id="line2d_8">
      <g>
       <use style="stroke:#000000;stroke-width:0.8;" x="1269.948613" xlink:href="#mb6eafaf8c9" y="1281.6"/>
      </g>
     </g>
     <g id="text_8">
      <!-- 700 -->
      <defs>
       <path d="M 8.203125 72.90625 
L 55.078125 72.90625 
L 55.078125 68.703125 
L 28.609375 0 
L 18.3125 0 
L 43.21875 64.59375 
L 8.203125 64.59375 
z
" id="DejaVuSans-37"/>
      </defs>
      <g transform="translate(1260.404863 1296.198437)scale(0.1 -0.1)">
       <use xlink:href="#DejaVuSans-37"/>
       <use x="63.623047" xlink:href="#DejaVuSans-30"/>
       <use x="127.246094" xlink:href="#DejaVuSans-30"/>
      </g>
     </g>
    </g>
    <g id="text_9">
     <!-- Y Test -->
     <defs>
      <path d="M -0.203125 72.90625 
L 10.40625 72.90625 
L 30.609375 42.921875 
L 50.6875 72.90625 
L 61.28125 72.90625 
L 35.5 34.71875 
L 35.5 0 
L 25.59375 0 
L 25.59375 34.71875 
z
" id="DejaVuSans-59"/>
      <path id="DejaVuSans-20"/>
      <path d="M -0.296875 72.90625 
L 61.375 72.90625 
L 61.375 64.59375 
L 35.5 64.59375 
L 35.5 0 
L 25.59375 0 
L 25.59375 64.59375 
L -0.296875 64.59375 
z
" id="DejaVuSans-54"/>
      <path d="M 56.203125 29.59375 
L 56.203125 25.203125 
L 14.890625 25.203125 
Q 15.484375 15.921875 20.484375 11.0625 
Q 25.484375 6.203125 34.421875 6.203125 
Q 39.59375 6.203125 44.453125 7.46875 
Q 49.3125 8.734375 54.109375 11.28125 
L 54.109375 2.78125 
Q 49.265625 0.734375 44.1875 -0.34375 
Q 39.109375 -1.421875 33.890625 -1.421875 
Q 20.796875 -1.421875 13.15625 6.1875 
Q 5.515625 13.8125 5.515625 26.8125 
Q 5.515625 40.234375 12.765625 48.109375 
Q 20.015625 56 32.328125 56 
Q 43.359375 56 49.78125 48.890625 
Q 56.203125 41.796875 56.203125 29.59375 
z
M 47.21875 32.234375 
Q 47.125 39.59375 43.09375 43.984375 
Q 39.0625 48.390625 32.421875 48.390625 
Q 24.90625 48.390625 20.390625 44.140625 
Q 15.875 39.890625 15.1875 32.171875 
z
" id="DejaVuSans-65"/>
      <path d="M 44.28125 53.078125 
L 44.28125 44.578125 
Q 40.484375 46.53125 36.375 47.5 
Q 32.28125 48.484375 27.875 48.484375 
Q 21.1875 48.484375 17.84375 46.4375 
Q 14.5 44.390625 14.5 40.28125 
Q 14.5 37.15625 16.890625 35.375 
Q 19.28125 33.59375 26.515625 31.984375 
L 29.59375 31.296875 
Q 39.15625 29.25 43.1875 25.515625 
Q 47.21875 21.78125 47.21875 15.09375 
Q 47.21875 7.46875 41.1875 3.015625 
Q 35.15625 -1.421875 24.609375 -1.421875 
Q 20.21875 -1.421875 15.453125 -0.5625 
Q 10.6875 0.296875 5.421875 2 
L 5.421875 11.28125 
Q 10.40625 8.6875 15.234375 7.390625 
Q 20.0625 6.109375 24.8125 6.109375 
Q 31.15625 6.109375 34.5625 8.28125 
Q 37.984375 10.453125 37.984375 14.40625 
Q 37.984375 18.0625 35.515625 20.015625 
Q 33.0625 21.96875 24.703125 23.78125 
L 21.578125 24.515625 
Q 13.234375 26.265625 9.515625 29.90625 
Q 5.8125 33.546875 5.8125 39.890625 
Q 5.8125 47.609375 11.28125 51.796875 
Q 16.75 56 26.8125 56 
Q 31.78125 56 36.171875 55.265625 
Q 40.578125 54.546875 44.28125 53.078125 
z
" id="DejaVuSans-73"/>
      <path d="M 18.3125 70.21875 
L 18.3125 54.6875 
L 36.8125 54.6875 
L 36.8125 47.703125 
L 18.3125 47.703125 
L 18.3125 18.015625 
Q 18.3125 11.328125 20.140625 9.421875 
Q 21.96875 7.515625 27.59375 7.515625 
L 36.8125 7.515625 
L 36.8125 0 
L 27.59375 0 
Q 17.1875 0 13.234375 3.875 
Q 9.28125 7.765625 9.28125 18.015625 
L 9.28125 47.703125 
L 2.6875 47.703125 
L 2.6875 54.6875 
L 9.28125 54.6875 
L 9.28125 70.21875 
z
" id="DejaVuSans-74"/>
     </defs>
     <g transform="translate(722.675 1309.876563)scale(0.1 -0.1)">
      <use xlink:href="#DejaVuSans-59"/>
      <use x="61.083984" xlink:href="#DejaVuSans-20"/>
      <use x="92.871094" xlink:href="#DejaVuSans-54"/>
      <use x="153.689453" xlink:href="#DejaVuSans-65"/>
      <use x="215.212891" xlink:href="#DejaVuSans-73"/>
      <use x="267.3125" xlink:href="#DejaVuSans-74"/>
     </g>
    </g>
   </g>
   <g id="matplotlib.axis_2">
    <g id="ytick_1">
     <g id="line2d_9">
      <defs>
       <path d="M 0 0 
L -3.5 0 
" id="maca3804009" style="stroke:#000000;stroke-width:0.8;"/>
      </defs>
      <g>
       <use style="stroke:#000000;stroke-width:0.8;" x="180" xlink:href="#maca3804009" y="1252.073999"/>
      </g>
     </g>
     <g id="text_10">
      <!-- 0 -->
      <g transform="translate(166.6375 1255.873218)scale(0.1 -0.1)">
       <use xlink:href="#DejaVuSans-30"/>
      </g>
     </g>
    </g>
    <g id="ytick_2">
     <g id="line2d_10">
      <g>
       <use style="stroke:#000000;stroke-width:0.8;" x="180" xlink:href="#maca3804009" y="1101.589615"/>
      </g>
     </g>
     <g id="text_11">
      <!-- 100 -->
      <g transform="translate(153.9125 1105.388834)scale(0.1 -0.1)">
       <use xlink:href="#DejaVuSans-31"/>
       <use x="63.623047" xlink:href="#DejaVuSans-30"/>
       <use x="127.246094" xlink:href="#DejaVuSans-30"/>
      </g>
     </g>
    </g>
    <g id="ytick_3">
     <g id="line2d_11">
      <g>
       <use style="stroke:#000000;stroke-width:0.8;" x="180" xlink:href="#maca3804009" y="951.105232"/>
      </g>
     </g>
     <g id="text_12">
      <!-- 200 -->
      <g transform="translate(153.9125 954.904451)scale(0.1 -0.1)">
       <use xlink:href="#DejaVuSans-32"/>
       <use x="63.623047" xlink:href="#DejaVuSans-30"/>
       <use x="127.246094" xlink:href="#DejaVuSans-30"/>
      </g>
     </g>
    </g>
    <g id="ytick_4">
     <g id="line2d_12">
      <g>
       <use style="stroke:#000000;stroke-width:0.8;" x="180" xlink:href="#maca3804009" y="800.620848"/>
      </g>
     </g>
     <g id="text_13">
      <!-- 300 -->
      <g transform="translate(153.9125 804.420067)scale(0.1 -0.1)">
       <use xlink:href="#DejaVuSans-33"/>
       <use x="63.623047" xlink:href="#DejaVuSans-30"/>
       <use x="127.246094" xlink:href="#DejaVuSans-30"/>
      </g>
     </g>
    </g>
    <g id="ytick_5">
     <g id="line2d_13">
      <g>
       <use style="stroke:#000000;stroke-width:0.8;" x="180" xlink:href="#maca3804009" y="650.136465"/>
      </g>
     </g>
     <g id="text_14">
      <!-- 400 -->
      <g transform="translate(153.9125 653.935683)scale(0.1 -0.1)">
       <use xlink:href="#DejaVuSans-34"/>
       <use x="63.623047" xlink:href="#DejaVuSans-30"/>
       <use x="127.246094" xlink:href="#DejaVuSans-30"/>
      </g>
     </g>
    </g>
    <g id="ytick_6">
     <g id="line2d_14">
      <g>
       <use style="stroke:#000000;stroke-width:0.8;" x="180" xlink:href="#maca3804009" y="499.652081"/>
      </g>
     </g>
     <g id="text_15">
      <!-- 500 -->
      <g transform="translate(153.9125 503.4513)scale(0.1 -0.1)">
       <use xlink:href="#DejaVuSans-35"/>
       <use x="63.623047" xlink:href="#DejaVuSans-30"/>
       <use x="127.246094" xlink:href="#DejaVuSans-30"/>
      </g>
     </g>
    </g>
    <g id="ytick_7">
     <g id="line2d_15">
      <g>
       <use style="stroke:#000000;stroke-width:0.8;" x="180" xlink:href="#maca3804009" y="349.167698"/>
      </g>
     </g>
     <g id="text_16">
      <!-- 600 -->
      <g transform="translate(153.9125 352.966916)scale(0.1 -0.1)">
       <use xlink:href="#DejaVuSans-36"/>
       <use x="63.623047" xlink:href="#DejaVuSans-30"/>
       <use x="127.246094" xlink:href="#DejaVuSans-30"/>
      </g>
     </g>
    </g>
    <g id="ytick_8">
     <g id="line2d_16">
      <g>
       <use style="stroke:#000000;stroke-width:0.8;" x="180" xlink:href="#maca3804009" y="198.683314"/>
      </g>
     </g>
     <g id="text_17">
      <!-- 700 -->
      <g transform="translate(153.9125 202.482533)scale(0.1 -0.1)">
       <use xlink:href="#DejaVuSans-37"/>
       <use x="63.623047" xlink:href="#DejaVuSans-30"/>
       <use x="127.246094" xlink:href="#DejaVuSans-30"/>
      </g>
     </g>
    </g>
    <g id="text_18">
     <!-- Y Predicted -->
     <defs>
      <path d="M 19.671875 64.796875 
L 19.671875 37.40625 
L 32.078125 37.40625 
Q 38.96875 37.40625 42.71875 40.96875 
Q 46.484375 44.53125 46.484375 51.125 
Q 46.484375 57.671875 42.71875 61.234375 
Q 38.96875 64.796875 32.078125 64.796875 
z
M 9.8125 72.90625 
L 32.078125 72.90625 
Q 44.34375 72.90625 50.609375 67.359375 
Q 56.890625 61.8125 56.890625 51.125 
Q 56.890625 40.328125 50.609375 34.8125 
Q 44.34375 29.296875 32.078125 29.296875 
L 19.671875 29.296875 
L 19.671875 0 
L 9.8125 0 
z
" id="DejaVuSans-50"/>
      <path d="M 41.109375 46.296875 
Q 39.59375 47.171875 37.8125 47.578125 
Q 36.03125 48 33.890625 48 
Q 26.265625 48 22.1875 43.046875 
Q 18.109375 38.09375 18.109375 28.8125 
L 18.109375 0 
L 9.078125 0 
L 9.078125 54.6875 
L 18.109375 54.6875 
L 18.109375 46.1875 
Q 20.953125 51.171875 25.484375 53.578125 
Q 30.03125 56 36.53125 56 
Q 37.453125 56 38.578125 55.875 
Q 39.703125 55.765625 41.0625 55.515625 
z
" id="DejaVuSans-72"/>
      <path d="M 45.40625 46.390625 
L 45.40625 75.984375 
L 54.390625 75.984375 
L 54.390625 0 
L 45.40625 0 
L 45.40625 8.203125 
Q 42.578125 3.328125 38.25 0.953125 
Q 33.9375 -1.421875 27.875 -1.421875 
Q 17.96875 -1.421875 11.734375 6.484375 
Q 5.515625 14.40625 5.515625 27.296875 
Q 5.515625 40.1875 11.734375 48.09375 
Q 17.96875 56 27.875 56 
Q 33.9375 56 38.25 53.625 
Q 42.578125 51.265625 45.40625 46.390625 
z
M 14.796875 27.296875 
Q 14.796875 17.390625 18.875 11.75 
Q 22.953125 6.109375 30.078125 6.109375 
Q 37.203125 6.109375 41.296875 11.75 
Q 45.40625 17.390625 45.40625 27.296875 
Q 45.40625 37.203125 41.296875 42.84375 
Q 37.203125 48.484375 30.078125 48.484375 
Q 22.953125 48.484375 18.875 42.84375 
Q 14.796875 37.203125 14.796875 27.296875 
z
" id="DejaVuSans-64"/>
      <path d="M 9.421875 54.6875 
L 18.40625 54.6875 
L 18.40625 0 
L 9.421875 0 
z
M 9.421875 75.984375 
L 18.40625 75.984375 
L 18.40625 64.59375 
L 9.421875 64.59375 
z
" id="DejaVuSans-69"/>
      <path d="M 48.78125 52.59375 
L 48.78125 44.1875 
Q 44.96875 46.296875 41.140625 47.34375 
Q 37.3125 48.390625 33.40625 48.390625 
Q 24.65625 48.390625 19.8125 42.84375 
Q 14.984375 37.3125 14.984375 27.296875 
Q 14.984375 17.28125 19.8125 11.734375 
Q 24.65625 6.203125 33.40625 6.203125 
Q 37.3125 6.203125 41.140625 7.25 
Q 44.96875 8.296875 48.78125 10.40625 
L 48.78125 2.09375 
Q 45.015625 0.34375 40.984375 -0.53125 
Q 36.96875 -1.421875 32.421875 -1.421875 
Q 20.0625 -1.421875 12.78125 6.34375 
Q 5.515625 14.109375 5.515625 27.296875 
Q 5.515625 40.671875 12.859375 48.328125 
Q 20.21875 56 33.015625 56 
Q 37.15625 56 41.109375 55.140625 
Q 45.0625 54.296875 48.78125 52.59375 
z
" id="DejaVuSans-63"/>
     </defs>
     <g transform="translate(147.832812 755.510937)rotate(-90)scale(0.1 -0.1)">
      <use xlink:href="#DejaVuSans-59"/>
      <use x="61.083984" xlink:href="#DejaVuSans-20"/>
      <use x="92.871094" xlink:href="#DejaVuSans-50"/>
      <use x="153.158203" xlink:href="#DejaVuSans-72"/>
      <use x="194.240234" xlink:href="#DejaVuSans-65"/>
      <use x="255.763672" xlink:href="#DejaVuSans-64"/>
      <use x="319.240234" xlink:href="#DejaVuSans-69"/>
      <use x="347.023438" xlink:href="#DejaVuSans-63"/>
      <use x="402.003906" xlink:href="#DejaVuSans-74"/>
      <use x="441.212891" xlink:href="#DejaVuSans-65"/>
      <use x="502.736328" xlink:href="#DejaVuSans-64"/>
     </g>
    </g>
   </g>
   <g id="line2d_17">
    <path clip-path="url(#p0e17cc90f3)" d="M 180 1281.6 
L 1296 172.8 
" style="fill:none;stroke:#1f77b4;stroke-dasharray:5.55,2.4;stroke-dashoffset:0;stroke-width:1.5;"/>
   </g>
   <g id="patch_3">
    <path d="M 180 1281.6 
L 180 172.8 
" style="fill:none;stroke:#000000;stroke-linecap:square;stroke-linejoin:miter;stroke-width:0.8;"/>
   </g>
   <g id="patch_4">
    <path d="M 1296 1281.6 
L 1296 172.8 
" style="fill:none;stroke:#000000;stroke-linecap:square;stroke-linejoin:miter;stroke-width:0.8;"/>
   </g>
   <g id="patch_5">
    <path d="M 180 1281.6 
L 1296 1281.6 
" style="fill:none;stroke:#000000;stroke-linecap:square;stroke-linejoin:miter;stroke-width:0.8;"/>
   </g>
   <g id="patch_6">
    <path d="M 180 172.8 
L 1296 172.8 
" style="fill:none;stroke:#000000;stroke-linecap:square;stroke-linejoin:miter;stroke-width:0.8;"/>
   </g>
  </g>
 </g>
 <defs>
  <clipPath id="p0e17cc90f3">
   <rect height="1108.8" width="1116" x="180" y="172.8"/>
  </clipPath>
 </defs>
</svg>
