<?xml version="1.0" encoding="utf-8" standalone="no"?>
<!DOCTYPE svg PUBLIC "-//W3C//DTD SVG 1.1//EN"
  "http://www.w3.org/Graphics/SVG/1.1/DTD/svg11.dtd">
<!-- Created with matplotlib (http://matplotlib.org/) -->
<svg height="1440pt" version="1.1" viewBox="0 0 1440 1440" width="1440pt" xmlns="http://www.w3.org/2000/svg" xmlns:xlink="http://www.w3.org/1999/xlink">
 <defs>
  <style type="text/css">
*{stroke-linecap:butt;stroke-linejoin:round;}
  </style>
 </defs>
 <g id="figure_1">
  <g id="patch_1">
   <path d="M 0 1440 
L 1440 1440 
L 1440 0 
L 0 0 
z
" style="fill:#ffffff;"/>
  </g>
  <g id="axes_1">
   <g id="patch_2">
    <path d="M 180 1281.6 
L 1296 1281.6 
L 1296 172.8 
L 180 172.8 
z
" style="fill:#ffffff;"/>
   </g>
   <g id="PathCollection_1">
    <defs>
     <path d="M 0 3 
C 0.795609 3 1.55874 2.683901 2.12132 2.12132 
C 2.683901 1.55874 3 0.795609 3 0 
C 3 -0.795609 2.683901 -1.55874 2.12132 -2.12132 
C 1.55874 -2.683901 0.795609 -3 0 -3 
C -0.795609 -3 -1.55874 -2.683901 -2.12132 -2.12132 
C -2.683901 -1.55874 -3 -0.795609 -3 0 
C -3 0.795609 -2.683901 1.55874 -2.12132 2.12132 
C -1.55874 2.683901 -0.795609 3 0 3 
z
" id="m2c1242d436" style="stroke:#1f77b4;"/>
    </defs>
    <g clip-path="url(#pdd98dd6913)">
     <use style="fill:#1f77b4;stroke:#1f77b4;" x="362.06944" xlink:href="#m2c1242d436" y="1119.103861"/>
     <use style="fill:#1f77b4;stroke:#1f77b4;" x="300.436643" xlink:href="#m2c1242d436" y="1177.101667"/>
     <use style="fill:#1f77b4;stroke:#1f77b4;" x="248.999888" xlink:href="#m2c1242d436" y="1226.858116"/>
     <use style="fill:#1f77b4;stroke:#1f77b4;" x="455.203445" xlink:href="#m2c1242d436" y="1023.091599"/>
     <use style="fill:#1f77b4;stroke:#1f77b4;" x="353.395194" xlink:href="#m2c1242d436" y="1115.371327"/>
     <use style="fill:#1f77b4;stroke:#1f77b4;" x="357.199688" xlink:href="#m2c1242d436" y="1109.393024"/>
     <use style="fill:#1f77b4;stroke:#1f77b4;" x="375.461258" xlink:href="#m2c1242d436" y="1081.208207"/>
     <use style="fill:#1f77b4;stroke:#1f77b4;" x="335.894524" xlink:href="#m2c1242d436" y="1122.998562"/>
     <use style="fill:#1f77b4;stroke:#1f77b4;" x="279.131478" xlink:href="#m2c1242d436" y="1191.308195"/>
     <use style="fill:#1f77b4;stroke:#1f77b4;" x="239.869104" xlink:href="#m2c1242d436" y="1201.786012"/>
     <use style="fill:#1f77b4;stroke:#1f77b4;" x="324.481043" xlink:href="#m2c1242d436" y="1147.171112"/>
     <use style="fill:#1f77b4;stroke:#1f77b4;" x="484.117597" xlink:href="#m2c1242d436" y="979.764862"/>
     <use style="fill:#1f77b4;stroke:#1f77b4;" x="391.287951" xlink:href="#m2c1242d436" y="1085.469609"/>
     <use style="fill:#1f77b4;stroke:#1f77b4;" x="499.335571" xlink:href="#m2c1242d436" y="978.41873"/>
     <use style="fill:#1f77b4;stroke:#1f77b4;" x="328.742076" xlink:href="#m2c1242d436" y="1118.262302"/>
     <use style="fill:#1f77b4;stroke:#1f77b4;" x="296.02343" xlink:href="#m2c1242d436" y="1192.784204"/>
     <use style="fill:#1f77b4;stroke:#1f77b4;" x="314.893719" xlink:href="#m2c1242d436" y="1135.995737"/>
     <use style="fill:#1f77b4;stroke:#1f77b4;" x="394.331546" xlink:href="#m2c1242d436" y="1065.29832"/>
     <use style="fill:#1f77b4;stroke:#1f77b4;" x="289.175341" xlink:href="#m2c1242d436" y="1162.30791"/>
     <use style="fill:#1f77b4;stroke:#1f77b4;" x="409.549521" xlink:href="#m2c1242d436" y="1037.270173"/>
     <use style="fill:#1f77b4;stroke:#1f77b4;" x="265.73966" xlink:href="#m2c1242d436" y="1182.008811"/>
     <use style="fill:#1f77b4;stroke:#1f77b4;" x="365.873934" xlink:href="#m2c1242d436" y="1117.520602"/>
     <use style="fill:#1f77b4;stroke:#1f77b4;" x="260.717729" xlink:href="#m2c1242d436" y="1197.517908"/>
     <use style="fill:#1f77b4;stroke:#1f77b4;" x="279.131478" xlink:href="#m2c1242d436" y="1191.925087"/>
     <use style="fill:#1f77b4;stroke:#1f77b4;" x="321.893987" xlink:href="#m2c1242d436" y="1149.179151"/>
     <use style="fill:#1f77b4;stroke:#1f77b4;" x="317.785134" xlink:href="#m2c1242d436" y="1044.357467"/>
     <use style="fill:#1f77b4;stroke:#1f77b4;" x="234.847172" xlink:href="#m2c1242d436" y="1231.2"/>
     <use style="fill:#1f77b4;stroke:#1f77b4;" x="248.999888" xlink:href="#m2c1242d436" y="1179.957386"/>
     <use style="fill:#1f77b4;stroke:#1f77b4;" x="341.372994" xlink:href="#m2c1242d436" y="1131.518088"/>
     <use style="fill:#1f77b4;stroke:#1f77b4;" x="359.178025" xlink:href="#m2c1242d436" y="1119.59051"/>
     <use style="fill:#1f77b4;stroke:#1f77b4;" x="327.981177" xlink:href="#m2c1242d436" y="1115.879309"/>
     <use style="fill:#1f77b4;stroke:#1f77b4;" x="285.370848" xlink:href="#m2c1242d436" y="1152.964331"/>
     <use style="fill:#1f77b4;stroke:#1f77b4;" x="336.503243" xlink:href="#m2c1242d436" y="1146.794459"/>
     <use style="fill:#1f77b4;stroke:#1f77b4;" x="439.98547" xlink:href="#m2c1242d436" y="1025.847523"/>
     <use style="fill:#1f77b4;stroke:#1f77b4;" x="275.935703" xlink:href="#m2c1242d436" y="1181.25467"/>
     <use style="fill:#1f77b4;stroke:#1f77b4;" x="514.553546" xlink:href="#m2c1242d436" y="951.175487"/>
     <use style="fill:#1f77b4;stroke:#1f77b4;" x="328.133357" xlink:href="#m2c1242d436" y="1171.964775"/>
     <use style="fill:#1f77b4;stroke:#1f77b4;" x="329.046435" xlink:href="#m2c1242d436" y="1132.799038"/>
     <use style="fill:#1f77b4;stroke:#1f77b4;" x="456.725242" xlink:href="#m2c1242d436" y="1021.690005"/>
     <use style="fill:#1f77b4;stroke:#1f77b4;" x="397.375141" xlink:href="#m2c1242d436" y="1077.15188"/>
     <use style="fill:#1f77b4;stroke:#1f77b4;" x="455.203445" xlink:href="#m2c1242d436" y="970.570984"/>
     <use style="fill:#1f77b4;stroke:#1f77b4;" x="331.78567" xlink:href="#m2c1242d436" y="1132.073224"/>
     <use style="fill:#1f77b4;stroke:#1f77b4;" x="274.870445" xlink:href="#m2c1242d436" y="1163.381205"/>
     <use style="fill:#1f77b4;stroke:#1f77b4;" x="296.479969" xlink:href="#m2c1242d436" y="1172.952186"/>
     <use style="fill:#1f77b4;stroke:#1f77b4;" x="300.284463" xlink:href="#m2c1242d436" y="1160.325659"/>
     <use style="fill:#1f77b4;stroke:#1f77b4;" x="357.047508" xlink:href="#m2c1242d436" y="1129.810525"/>
     <use style="fill:#1f77b4;stroke:#1f77b4;" x="286.740465" xlink:href="#m2c1242d436" y="1172.20116"/>
     <use style="fill:#1f77b4;stroke:#1f77b4;" x="345.329668" xlink:href="#m2c1242d436" y="1148.198568"/>
     <use style="fill:#1f77b4;stroke:#1f77b4;" x="334.524906" xlink:href="#m2c1242d436" y="1103.937503"/>
     <use style="fill:#1f77b4;stroke:#1f77b4;" x="435.420078" xlink:href="#m2c1242d436" y="973.118034"/>
     <use style="fill:#1f77b4;stroke:#1f77b4;" x="305.762934" xlink:href="#m2c1242d436" y="1132.240391"/>
     <use style="fill:#1f77b4;stroke:#1f77b4;" x="254.478359" xlink:href="#m2c1242d436" y="1220.96404"/>
     <use style="fill:#1f77b4;stroke:#1f77b4;" x="284.609949" xlink:href="#m2c1242d436" y="1173.143399"/>
     <use style="fill:#1f77b4;stroke:#1f77b4;" x="427.811091" xlink:href="#m2c1242d436" y="1087.633081"/>
     <use style="fill:#1f77b4;stroke:#1f77b4;" x="271.065952" xlink:href="#m2c1242d436" y="1167.033427"/>
     <use style="fill:#1f77b4;stroke:#1f77b4;" x="506.944559" xlink:href="#m2c1242d436" y="958.693336"/>
     <use style="fill:#1f77b4;stroke:#1f77b4;" x="234.847172" xlink:href="#m2c1242d436" y="1198.417344"/>
     <use style="fill:#1f77b4;stroke:#1f77b4;" x="274.870445" xlink:href="#m2c1242d436" y="1193.584502"/>
     <use style="fill:#1f77b4;stroke:#1f77b4;" x="362.525979" xlink:href="#m2c1242d436" y="1078.535882"/>
     <use style="fill:#1f77b4;stroke:#1f77b4;" x="291.610217" xlink:href="#m2c1242d436" y="1156.479309"/>
     <use style="fill:#1f77b4;stroke:#1f77b4;" x="649.99352" xlink:href="#m2c1242d436" y="815.89913"/>
     <use style="fill:#1f77b4;stroke:#1f77b4;" x="300.741002" xlink:href="#m2c1242d436" y="1147.68636"/>
     <use style="fill:#1f77b4;stroke:#1f77b4;" x="465.856027" xlink:href="#m2c1242d436" y="1027.63195"/>
     <use style="fill:#1f77b4;stroke:#1f77b4;" x="328.285536" xlink:href="#m2c1242d436" y="1142.306223"/>
     <use style="fill:#1f77b4;stroke:#1f77b4;" x="337.416321" xlink:href="#m2c1242d436" y="1123.21344"/>
     <use style="fill:#1f77b4;stroke:#1f77b4;" x="340.916455" xlink:href="#m2c1242d436" y="1109.977548"/>
     <use style="fill:#1f77b4;stroke:#1f77b4;" x="328.742076" xlink:href="#m2c1242d436" y="1144.877457"/>
     <use style="fill:#1f77b4;stroke:#1f77b4;" x="319.154751" xlink:href="#m2c1242d436" y="1079.111523"/>
     <use style="fill:#1f77b4;stroke:#1f77b4;" x="287.805724" xlink:href="#m2c1242d436" y="1158.555384"/>
     <use style="fill:#1f77b4;stroke:#1f77b4;" x="300.436643" xlink:href="#m2c1242d436" y="1163.225128"/>
     <use style="fill:#1f77b4;stroke:#1f77b4;" x="279.740197" xlink:href="#m2c1242d436" y="1179.911897"/>
     <use style="fill:#1f77b4;stroke:#1f77b4;" x="289.93624" xlink:href="#m2c1242d436" y="1195.744491"/>
     <use style="fill:#1f77b4;stroke:#1f77b4;" x="279.131478" xlink:href="#m2c1242d436" y="1186.614125"/>
     <use style="fill:#1f77b4;stroke:#1f77b4;" x="373.93946" xlink:href="#m2c1242d436" y="1100.643675"/>
     <use style="fill:#1f77b4;stroke:#1f77b4;" x="409.549521" xlink:href="#m2c1242d436" y="1047.010335"/>
     <use style="fill:#1f77b4;stroke:#1f77b4;" x="291.610217" xlink:href="#m2c1242d436" y="1125.884436"/>
     <use style="fill:#1f77b4;stroke:#1f77b4;" x="306.371653" xlink:href="#m2c1242d436" y="1158.904028"/>
     <use style="fill:#1f77b4;stroke:#1f77b4;" x="358.417126" xlink:href="#m2c1242d436" y="1095.051026"/>
     <use style="fill:#1f77b4;stroke:#1f77b4;" x="462.812432" xlink:href="#m2c1242d436" y="992.050049"/>
     <use style="fill:#1f77b4;stroke:#1f77b4;" x="543.467698" xlink:href="#m2c1242d436" y="926.880899"/>
     <use style="fill:#1f77b4;stroke:#1f77b4;" x="316.111157" xlink:href="#m2c1242d436" y="1169.041232"/>
     <use style="fill:#1f77b4;stroke:#1f77b4;" x="248.999888" xlink:href="#m2c1242d436" y="1197.434817"/>
     <use style="fill:#1f77b4;stroke:#1f77b4;" x="375.917797" xlink:href="#m2c1242d436" y="1081.610625"/>
     <use style="fill:#1f77b4;stroke:#1f77b4;" x="443.029065" xlink:href="#m2c1242d436" y="982.321202"/>
     <use style="fill:#1f77b4;stroke:#1f77b4;" x="336.198883" xlink:href="#m2c1242d436" y="1150.153378"/>
     <use style="fill:#1f77b4;stroke:#1f77b4;" x="364.504316" xlink:href="#m2c1242d436" y="1113.425595"/>
     <use style="fill:#1f77b4;stroke:#1f77b4;" x="254.478359" xlink:href="#m2c1242d436" y="1227.496172"/>
     <use style="fill:#1f77b4;stroke:#1f77b4;" x="278.370579" xlink:href="#m2c1242d436" y="1182.446531"/>
     <use style="fill:#1f77b4;stroke:#1f77b4;" x="286.588286" xlink:href="#m2c1242d436" y="1183.07503"/>
     <use style="fill:#1f77b4;stroke:#1f77b4;" x="324.024503" xlink:href="#m2c1242d436" y="1122.948909"/>
     <use style="fill:#1f77b4;stroke:#1f77b4;" x="395.853344" xlink:href="#m2c1242d436" y="1070.969459"/>
     <use style="fill:#1f77b4;stroke:#1f77b4;" x="303.632417" xlink:href="#m2c1242d436" y="1151.98866"/>
     <use style="fill:#1f77b4;stroke:#1f77b4;" x="267.870177" xlink:href="#m2c1242d436" y="1219.387142"/>
     <use style="fill:#1f77b4;stroke:#1f77b4;" x="406.505926" xlink:href="#m2c1242d436" y="1080.518489"/>
     <use style="fill:#1f77b4;stroke:#1f77b4;" x="388.244356" xlink:href="#m2c1242d436" y="1065.756247"/>
     <use style="fill:#1f77b4;stroke:#1f77b4;" x="284.00123" xlink:href="#m2c1242d436" y="1155.900096"/>
     <use style="fill:#1f77b4;stroke:#1f77b4;" x="263.761324" xlink:href="#m2c1242d436" y="1095.695223"/>
     <use style="fill:#1f77b4;stroke:#1f77b4;" x="362.22162" xlink:href="#m2c1242d436" y="1121.811382"/>
     <use style="fill:#1f77b4;stroke:#1f77b4;" x="404.984129" xlink:href="#m2c1242d436" y="1055.60825"/>
     <use style="fill:#1f77b4;stroke:#1f77b4;" x="358.112767" xlink:href="#m2c1242d436" y="1103.867814"/>
     <use style="fill:#1f77b4;stroke:#1f77b4;" x="248.999888" xlink:href="#m2c1242d436" y="1203.576499"/>
     <use style="fill:#1f77b4;stroke:#1f77b4;" x="298.001767" xlink:href="#m2c1242d436" y="1162.885591"/>
     <use style="fill:#1f77b4;stroke:#1f77b4;" x="374.24382" xlink:href="#m2c1242d436" y="1078.372627"/>
     <use style="fill:#1f77b4;stroke:#1f77b4;" x="254.478359" xlink:href="#m2c1242d436" y="1227.496172"/>
     <use style="fill:#1f77b4;stroke:#1f77b4;" x="368.460989" xlink:href="#m2c1242d436" y="1078.573045"/>
     <use style="fill:#1f77b4;stroke:#1f77b4;" x="560.20747" xlink:href="#m2c1242d436" y="913.898195"/>
     <use style="fill:#1f77b4;stroke:#1f77b4;" x="332.850929" xlink:href="#m2c1242d436" y="1120.005238"/>
     <use style="fill:#1f77b4;stroke:#1f77b4;" x="313.82846" xlink:href="#m2c1242d436" y="1157.628938"/>
     <use style="fill:#1f77b4;stroke:#1f77b4;" x="320.06783" xlink:href="#m2c1242d436" y="1159.52313"/>
     <use style="fill:#1f77b4;stroke:#1f77b4;" x="281.109815" xlink:href="#m2c1242d436" y="1176.664507"/>
     <use style="fill:#1f77b4;stroke:#1f77b4;" x="265.73966" xlink:href="#m2c1242d436" y="1206.899071"/>
     <use style="fill:#1f77b4;stroke:#1f77b4;" x="362.525979" xlink:href="#m2c1242d436" y="1130.370503"/>
     <use style="fill:#1f77b4;stroke:#1f77b4;" x="293.132015" xlink:href="#m2c1242d436" y="1177.999699"/>
     <use style="fill:#1f77b4;stroke:#1f77b4;" x="294.349453" xlink:href="#m2c1242d436" y="1122.075514"/>
     <use style="fill:#1f77b4;stroke:#1f77b4;" x="473.465014" xlink:href="#m2c1242d436" y="936.10923"/>
     <use style="fill:#1f77b4;stroke:#1f77b4;" x="269.544154" xlink:href="#m2c1242d436" y="1193.38125"/>
     <use style="fill:#1f77b4;stroke:#1f77b4;" x="288.262263" xlink:href="#m2c1242d436" y="1164.638546"/>
     <use style="fill:#1f77b4;stroke:#1f77b4;" x="380.33101" xlink:href="#m2c1242d436" y="1085.222857"/>
     <use style="fill:#1f77b4;stroke:#1f77b4;" x="421.723901" xlink:href="#m2c1242d436" y="1034.999062"/>
     <use style="fill:#1f77b4;stroke:#1f77b4;" x="349.438521" xlink:href="#m2c1242d436" y="1102.263473"/>
     <use style="fill:#1f77b4;stroke:#1f77b4;" x="368.00445" xlink:href="#m2c1242d436" y="1121.8361"/>
     <use style="fill:#1f77b4;stroke:#1f77b4;" x="320.676549" xlink:href="#m2c1242d436" y="1051.340734"/>
     <use style="fill:#1f77b4;stroke:#1f77b4;" x="400.418736" xlink:href="#m2c1242d436" y="991.510082"/>
     <use style="fill:#1f77b4;stroke:#1f77b4;" x="350.503779" xlink:href="#m2c1242d436" y="1128.293059"/>
     <use style="fill:#1f77b4;stroke:#1f77b4;" x="398.896939" xlink:href="#m2c1242d436" y="1071.044774"/>
     <use style="fill:#1f77b4;stroke:#1f77b4;" x="293.132015" xlink:href="#m2c1242d436" y="1167.252719"/>
     <use style="fill:#1f77b4;stroke:#1f77b4;" x="420.202103" xlink:href="#m2c1242d436" y="1051.445062"/>
     <use style="fill:#1f77b4;stroke:#1f77b4;" x="388.244356" xlink:href="#m2c1242d436" y="1064.836192"/>
     <use style="fill:#1f77b4;stroke:#1f77b4;" x="392.809749" xlink:href="#m2c1242d436" y="1044.13038"/>
     <use style="fill:#1f77b4;stroke:#1f77b4;" x="389.766154" xlink:href="#m2c1242d436" y="1084.982412"/>
     <use style="fill:#1f77b4;stroke:#1f77b4;" x="421.723901" xlink:href="#m2c1242d436" y="956.948566"/>
     <use style="fill:#1f77b4;stroke:#1f77b4;" x="383.678964" xlink:href="#m2c1242d436" y="1085.893863"/>
     <use style="fill:#1f77b4;stroke:#1f77b4;" x="334.220546" xlink:href="#m2c1242d436" y="1128.352643"/>
     <use style="fill:#1f77b4;stroke:#1f77b4;" x="239.869104" xlink:href="#m2c1242d436" y="1212.709635"/>
     <use style="fill:#1f77b4;stroke:#1f77b4;" x="337.264141" xlink:href="#m2c1242d436" y="1147.756189"/>
     <use style="fill:#1f77b4;stroke:#1f77b4;" x="439.98547" xlink:href="#m2c1242d436" y="1039.936616"/>
     <use style="fill:#1f77b4;stroke:#1f77b4;" x="611.948584" xlink:href="#m2c1242d436" y="887.25703"/>
     <use style="fill:#1f77b4;stroke:#1f77b4;" x="286.740465" xlink:href="#m2c1242d436" y="1172.497513"/>
     <use style="fill:#1f77b4;stroke:#1f77b4;" x="745.866761" xlink:href="#m2c1242d436" y="703.568449"/>
     <use style="fill:#1f77b4;stroke:#1f77b4;" x="265.73966" xlink:href="#m2c1242d436" y="1203.981467"/>
     <use style="fill:#1f77b4;stroke:#1f77b4;" x="340.916455" xlink:href="#m2c1242d436" y="1158.383414"/>
     <use style="fill:#1f77b4;stroke:#1f77b4;" x="305.762934" xlink:href="#m2c1242d436" y="1157.547282"/>
     <use style="fill:#1f77b4;stroke:#1f77b4;" x="286.740465" xlink:href="#m2c1242d436" y="1161.259145"/>
     <use style="fill:#1f77b4;stroke:#1f77b4;" x="452.15985" xlink:href="#m2c1242d436" y="1000.850351"/>
     <use style="fill:#1f77b4;stroke:#1f77b4;" x="260.717729" xlink:href="#m2c1242d436" y="1180.530858"/>
     <use style="fill:#1f77b4;stroke:#1f77b4;" x="248.23899" xlink:href="#m2c1242d436" y="1205.888098"/>
     <use style="fill:#1f77b4;stroke:#1f77b4;" x="386.722559" xlink:href="#m2c1242d436" y="1080.220219"/>
     <use style="fill:#1f77b4;stroke:#1f77b4;" x="344.568769" xlink:href="#m2c1242d436" y="1121.475406"/>
     <use style="fill:#1f77b4;stroke:#1f77b4;" x="526.727926" xlink:href="#m2c1242d436" y="969.866553"/>
     <use style="fill:#1f77b4;stroke:#1f77b4;" x="307.132552" xlink:href="#m2c1242d436" y="1155.965227"/>
     <use style="fill:#1f77b4;stroke:#1f77b4;" x="265.73966" xlink:href="#m2c1242d436" y="1200.613564"/>
     <use style="fill:#1f77b4;stroke:#1f77b4;" x="386.722559" xlink:href="#m2c1242d436" y="1109.008285"/>
     <use style="fill:#1f77b4;stroke:#1f77b4;" x="642.384533" xlink:href="#m2c1242d436" y="827.247927"/>
     <use style="fill:#1f77b4;stroke:#1f77b4;" x="481.074002" xlink:href="#m2c1242d436" y="998.197638"/>
     <use style="fill:#1f77b4;stroke:#1f77b4;" x="277.91404" xlink:href="#m2c1242d436" y="1171.2136"/>
     <use style="fill:#1f77b4;stroke:#1f77b4;" x="331.176951" xlink:href="#m2c1242d436" y="1137.231366"/>
     <use style="fill:#1f77b4;stroke:#1f77b4;" x="343.503511" xlink:href="#m2c1242d436" y="1114.310397"/>
     <use style="fill:#1f77b4;stroke:#1f77b4;" x="411.071318" xlink:href="#m2c1242d436" y="1051.048634"/>
     <use style="fill:#1f77b4;stroke:#1f77b4;" x="353.090835" xlink:href="#m2c1242d436" y="1080.13878"/>
     <use style="fill:#1f77b4;stroke:#1f77b4;" x="319.76347" xlink:href="#m2c1242d436" y="1152.309461"/>
     <use style="fill:#1f77b4;stroke:#1f77b4;" x="260.717729" xlink:href="#m2c1242d436" y="1200.665915"/>
     <use style="fill:#1f77b4;stroke:#1f77b4;" x="338.02504" xlink:href="#m2c1242d436" y="1137.02224"/>
     <use style="fill:#1f77b4;stroke:#1f77b4;" x="500.857369" xlink:href="#m2c1242d436" y="974.1294"/>
     <use style="fill:#1f77b4;stroke:#1f77b4;" x="326.3072" xlink:href="#m2c1242d436" y="1154.703578"/>
     <use style="fill:#1f77b4;stroke:#1f77b4;" x="401.940534" xlink:href="#m2c1242d436" y="1048.147581"/>
     <use style="fill:#1f77b4;stroke:#1f77b4;" x="361.460721" xlink:href="#m2c1242d436" y="1113.91589"/>
     <use style="fill:#1f77b4;stroke:#1f77b4;" x="288.262263" xlink:href="#m2c1242d436" y="1168.003807"/>
     <use style="fill:#1f77b4;stroke:#1f77b4;" x="391.287951" xlink:href="#m2c1242d436" y="1086.188174"/>
     <use style="fill:#1f77b4;stroke:#1f77b4;" x="318.546033" xlink:href="#m2c1242d436" y="1117.101131"/>
     <use style="fill:#1f77b4;stroke:#1f77b4;" x="310.023967" xlink:href="#m2c1242d436" y="1165.142912"/>
     <use style="fill:#1f77b4;stroke:#1f77b4;" x="984.788963" xlink:href="#m2c1242d436" y="475.611506"/>
     <use style="fill:#1f77b4;stroke:#1f77b4;" x="374.24382" xlink:href="#m2c1242d436" y="1083.023358"/>
     <use style="fill:#1f77b4;stroke:#1f77b4;" x="557.163875" xlink:href="#m2c1242d436" y="909.703701"/>
     <use style="fill:#1f77b4;stroke:#1f77b4;" x="260.717729" xlink:href="#m2c1242d436" y="1165.813749"/>
     <use style="fill:#1f77b4;stroke:#1f77b4;" x="409.549521" xlink:href="#m2c1242d436" y="1078.862581"/>
     <use style="fill:#1f77b4;stroke:#1f77b4;" x="298.001767" xlink:href="#m2c1242d436" y="1154.436652"/>
     <use style="fill:#1f77b4;stroke:#1f77b4;" x="367.091372" xlink:href="#m2c1242d436" y="1097.396184"/>
     <use style="fill:#1f77b4;stroke:#1f77b4;" x="347.916724" xlink:href="#m2c1242d436" y="1126.899567"/>
     <use style="fill:#1f77b4;stroke:#1f77b4;" x="371.504584" xlink:href="#m2c1242d436" y="1064.723093"/>
     <use style="fill:#1f77b4;stroke:#1f77b4;" x="318.850392" xlink:href="#m2c1242d436" y="1138.541951"/>
     <use style="fill:#1f77b4;stroke:#1f77b4;" x="347.460184" xlink:href="#m2c1242d436" y="1108.630702"/>
     <use style="fill:#1f77b4;stroke:#1f77b4;" x="305.306395" xlink:href="#m2c1242d436" y="1151.205204"/>
     <use style="fill:#1f77b4;stroke:#1f77b4;" x="346.547106" xlink:href="#m2c1242d436" y="1032.887692"/>
     <use style="fill:#1f77b4;stroke:#1f77b4;" x="272.13121" xlink:href="#m2c1242d436" y="1159.653113"/>
     <use style="fill:#1f77b4;stroke:#1f77b4;" x="298.153946" xlink:href="#m2c1242d436" y="1131.590661"/>
     <use style="fill:#1f77b4;stroke:#1f77b4;" x="290.392779" xlink:href="#m2c1242d436" y="1136.683851"/>
     <use style="fill:#1f77b4;stroke:#1f77b4;" x="412.593116" xlink:href="#m2c1242d436" y="1061.860338"/>
     <use style="fill:#1f77b4;stroke:#1f77b4;" x="304.241136" xlink:href="#m2c1242d436" y="1158.461122"/>
     <use style="fill:#1f77b4;stroke:#1f77b4;" x="279.131478" xlink:href="#m2c1242d436" y="1180.838896"/>
     <use style="fill:#1f77b4;stroke:#1f77b4;" x="345.786207" xlink:href="#m2c1242d436" y="1139.144262"/>
     <use style="fill:#1f77b4;stroke:#1f77b4;" x="380.483189" xlink:href="#m2c1242d436" y="1068.126848"/>
     <use style="fill:#1f77b4;stroke:#1f77b4;" x="380.787549" xlink:href="#m2c1242d436" y="1068.714911"/>
     <use style="fill:#1f77b4;stroke:#1f77b4;" x="345.025308" xlink:href="#m2c1242d436" y="1118.127361"/>
     <use style="fill:#1f77b4;stroke:#1f77b4;" x="479.552204" xlink:href="#m2c1242d436" y="966.127942"/>
     <use style="fill:#1f77b4;stroke:#1f77b4;" x="369.678427" xlink:href="#m2c1242d436" y="1112.870209"/>
     <use style="fill:#1f77b4;stroke:#1f77b4;" x="1222.189367" xlink:href="#m2c1242d436" y="223.2"/>
     <use style="fill:#1f77b4;stroke:#1f77b4;" x="391.287951" xlink:href="#m2c1242d436" y="1080.052503"/>
     <use style="fill:#1f77b4;stroke:#1f77b4;" x="286.892645" xlink:href="#m2c1242d436" y="1164.083677"/>
     <use style="fill:#1f77b4;stroke:#1f77b4;" x="374.24382" xlink:href="#m2c1242d436" y="1080.656162"/>
     <use style="fill:#1f77b4;stroke:#1f77b4;" x="292.218936" xlink:href="#m2c1242d436" y="1173.51829"/>
     <use style="fill:#1f77b4;stroke:#1f77b4;" x="334.677086" xlink:href="#m2c1242d436" y="1129.921264"/>
     <use style="fill:#1f77b4;stroke:#1f77b4;" x="403.462331" xlink:href="#m2c1242d436" y="1094.908997"/>
     <use style="fill:#1f77b4;stroke:#1f77b4;" x="322.350526" xlink:href="#m2c1242d436" y="1125.119527"/>
     <use style="fill:#1f77b4;stroke:#1f77b4;" x="294.958172" xlink:href="#m2c1242d436" y="1165.634361"/>
     <use style="fill:#1f77b4;stroke:#1f77b4;" x="260.717729" xlink:href="#m2c1242d436" y="1180.745448"/>
     <use style="fill:#1f77b4;stroke:#1f77b4;" x="432.376483" xlink:href="#m2c1242d436" y="1029.800312"/>
     <use style="fill:#1f77b4;stroke:#1f77b4;" x="471.943217" xlink:href="#m2c1242d436" y="990.419641"/>
     <use style="fill:#1f77b4;stroke:#1f77b4;" x="300.436643" xlink:href="#m2c1242d436" y="1167.3892"/>
     <use style="fill:#1f77b4;stroke:#1f77b4;" x="380.787549" xlink:href="#m2c1242d436" y="1046.747945"/>
     <use style="fill:#1f77b4;stroke:#1f77b4;" x="239.869104" xlink:href="#m2c1242d436" y="1205.118156"/>
     <use style="fill:#1f77b4;stroke:#1f77b4;" x="303.632417" xlink:href="#m2c1242d436" y="1148.793321"/>
     <use style="fill:#1f77b4;stroke:#1f77b4;" x="279.740197" xlink:href="#m2c1242d436" y="1186.222192"/>
     <use style="fill:#1f77b4;stroke:#1f77b4;" x="500.857369" xlink:href="#m2c1242d436" y="964.033789"/>
     <use style="fill:#1f77b4;stroke:#1f77b4;" x="343.503511" xlink:href="#m2c1242d436" y="1101.515535"/>
     <use style="fill:#1f77b4;stroke:#1f77b4;" x="286.131746" xlink:href="#m2c1242d436" y="1177.215523"/>
     <use style="fill:#1f77b4;stroke:#1f77b4;" x="391.287951" xlink:href="#m2c1242d436" y="1104.46688"/>
     <use style="fill:#1f77b4;stroke:#1f77b4;" x="284.00123" xlink:href="#m2c1242d436" y="1159.65412"/>
     <use style="fill:#1f77b4;stroke:#1f77b4;" x="456.725242" xlink:href="#m2c1242d436" y="985.155299"/>
     <use style="fill:#1f77b4;stroke:#1f77b4;" x="374.24382" xlink:href="#m2c1242d436" y="1105.195007"/>
     <use style="fill:#1f77b4;stroke:#1f77b4;" x="541.9459" xlink:href="#m2c1242d436" y="958.389805"/>
     <use style="fill:#1f77b4;stroke:#1f77b4;" x="503.900964" xlink:href="#m2c1242d436" y="983.462591"/>
     <use style="fill:#1f77b4;stroke:#1f77b4;" x="371.200225" xlink:href="#m2c1242d436" y="1094.784799"/>
     <use style="fill:#1f77b4;stroke:#1f77b4;" x="330.111693" xlink:href="#m2c1242d436" y="1167.417899"/>
     <use style="fill:#1f77b4;stroke:#1f77b4;" x="325.394121" xlink:href="#m2c1242d436" y="1142.04076"/>
     <use style="fill:#1f77b4;stroke:#1f77b4;" x="583.034432" xlink:href="#m2c1242d436" y="897.110959"/>
     <use style="fill:#1f77b4;stroke:#1f77b4;" x="319.154751" xlink:href="#m2c1242d436" y="1134.194363"/>
     <use style="fill:#1f77b4;stroke:#1f77b4;" x="366.330473" xlink:href="#m2c1242d436" y="1121.322751"/>
     <use style="fill:#1f77b4;stroke:#1f77b4;" x="313.219741" xlink:href="#m2c1242d436" y="1140.939107"/>
     <use style="fill:#1f77b4;stroke:#1f77b4;" x="297.088688" xlink:href="#m2c1242d436" y="1150.21378"/>
     <use style="fill:#1f77b4;stroke:#1f77b4;" x="332.24221" xlink:href="#m2c1242d436" y="1114.279215"/>
     <use style="fill:#1f77b4;stroke:#1f77b4;" x="418.680306" xlink:href="#m2c1242d436" y="1033.397582"/>
     <use style="fill:#1f77b4;stroke:#1f77b4;" x="281.870714" xlink:href="#m2c1242d436" y="1188.191647"/>
     <use style="fill:#1f77b4;stroke:#1f77b4;" x="348.373263" xlink:href="#m2c1242d436" y="1144.006312"/>
     <use style="fill:#1f77b4;stroke:#1f77b4;" x="321.285268" xlink:href="#m2c1242d436" y="1151.526832"/>
     <use style="fill:#1f77b4;stroke:#1f77b4;" x="278.370579" xlink:href="#m2c1242d436" y="1180.624179"/>
     <use style="fill:#1f77b4;stroke:#1f77b4;" x="323.872324" xlink:href="#m2c1242d436" y="1165.729874"/>
     <use style="fill:#1f77b4;stroke:#1f77b4;" x="281.870714" xlink:href="#m2c1242d436" y="1171.153162"/>
     <use style="fill:#1f77b4;stroke:#1f77b4;" x="335.894524" xlink:href="#m2c1242d436" y="1126.038809"/>
     <use style="fill:#1f77b4;stroke:#1f77b4;" x="506.944559" xlink:href="#m2c1242d436" y="933.99693"/>
    </g>
   </g>
   <g id="matplotlib.axis_1">
    <g id="xtick_1">
     <g id="line2d_1">
      <defs>
       <path d="M 0 0 
L 0 3.5 
" id="m921a9cbe3f" style="stroke:#000000;stroke-width:0.8;"/>
      </defs>
      <g>
       <use style="stroke:#000000;stroke-width:0.8;" x="229.97742" xlink:href="#m921a9cbe3f" y="1281.6"/>
      </g>
     </g>
     <g id="text_1">
      <!-- 0 -->
      <defs>
       <path d="M 31.78125 66.40625 
Q 24.171875 66.40625 20.328125 58.90625 
Q 16.5 51.421875 16.5 36.375 
Q 16.5 21.390625 20.328125 13.890625 
Q 24.171875 6.390625 31.78125 6.390625 
Q 39.453125 6.390625 43.28125 13.890625 
Q 47.125 21.390625 47.125 36.375 
Q 47.125 51.421875 43.28125 58.90625 
Q 39.453125 66.40625 31.78125 66.40625 
z
M 31.78125 74.21875 
Q 44.046875 74.21875 50.515625 64.515625 
Q 56.984375 54.828125 56.984375 36.375 
Q 56.984375 17.96875 50.515625 8.265625 
Q 44.046875 -1.421875 31.78125 -1.421875 
Q 19.53125 -1.421875 13.0625 8.265625 
Q 6.59375 17.96875 6.59375 36.375 
Q 6.59375 54.828125 13.0625 64.515625 
Q 19.53125 74.21875 31.78125 74.21875 
z
" id="DejaVuSans-30"/>
      </defs>
      <g transform="translate(220.43367 1311.395313)scale(0.3 -0.3)">
       <use xlink:href="#DejaVuSans-30"/>
      </g>
     </g>
    </g>
    <g id="xtick_2">
     <g id="line2d_2">
      <g>
       <use style="stroke:#000000;stroke-width:0.8;" x="382.157167" xlink:href="#m921a9cbe3f" y="1281.6"/>
      </g>
     </g>
     <g id="text_2">
      <!-- 100 -->
      <defs>
       <path d="M 12.40625 8.296875 
L 28.515625 8.296875 
L 28.515625 63.921875 
L 10.984375 60.40625 
L 10.984375 69.390625 
L 28.421875 72.90625 
L 38.28125 72.90625 
L 38.28125 8.296875 
L 54.390625 8.296875 
L 54.390625 0 
L 12.40625 0 
z
" id="DejaVuSans-31"/>
      </defs>
      <g transform="translate(353.525917 1311.395313)scale(0.3 -0.3)">
       <use xlink:href="#DejaVuSans-31"/>
       <use x="63.623047" xlink:href="#DejaVuSans-30"/>
       <use x="127.246094" xlink:href="#DejaVuSans-30"/>
      </g>
     </g>
    </g>
    <g id="xtick_3">
     <g id="line2d_3">
      <g>
       <use style="stroke:#000000;stroke-width:0.8;" x="534.336913" xlink:href="#m921a9cbe3f" y="1281.6"/>
      </g>
     </g>
     <g id="text_3">
      <!-- 200 -->
      <defs>
       <path d="M 19.1875 8.296875 
L 53.609375 8.296875 
L 53.609375 0 
L 7.328125 0 
L 7.328125 8.296875 
Q 12.9375 14.109375 22.625 23.890625 
Q 32.328125 33.6875 34.8125 36.53125 
Q 39.546875 41.84375 41.421875 45.53125 
Q 43.3125 49.21875 43.3125 52.78125 
Q 43.3125 58.59375 39.234375 62.25 
Q 35.15625 65.921875 28.609375 65.921875 
Q 23.96875 65.921875 18.8125 64.3125 
Q 13.671875 62.703125 7.8125 59.421875 
L 7.8125 69.390625 
Q 13.765625 71.78125 18.9375 73 
Q 24.125 74.21875 28.421875 74.21875 
Q 39.75 74.21875 46.484375 68.546875 
Q 53.21875 62.890625 53.21875 53.421875 
Q 53.21875 48.921875 51.53125 44.890625 
Q 49.859375 40.875 45.40625 35.40625 
Q 44.1875 33.984375 37.640625 27.21875 
Q 31.109375 20.453125 19.1875 8.296875 
z
" id="DejaVuSans-32"/>
      </defs>
      <g transform="translate(505.705663 1311.395313)scale(0.3 -0.3)">
       <use xlink:href="#DejaVuSans-32"/>
       <use x="63.623047" xlink:href="#DejaVuSans-30"/>
       <use x="127.246094" xlink:href="#DejaVuSans-30"/>
      </g>
     </g>
    </g>
    <g id="xtick_4">
     <g id="line2d_4">
      <g>
       <use style="stroke:#000000;stroke-width:0.8;" x="686.51666" xlink:href="#m921a9cbe3f" y="1281.6"/>
      </g>
     </g>
     <g id="text_4">
      <!-- 300 -->
      <defs>
       <path d="M 40.578125 39.3125 
Q 47.65625 37.796875 51.625 33 
Q 55.609375 28.21875 55.609375 21.1875 
Q 55.609375 10.40625 48.1875 4.484375 
Q 40.765625 -1.421875 27.09375 -1.421875 
Q 22.515625 -1.421875 17.65625 -0.515625 
Q 12.796875 0.390625 7.625 2.203125 
L 7.625 11.71875 
Q 11.71875 9.328125 16.59375 8.109375 
Q 21.484375 6.890625 26.8125 6.890625 
Q 36.078125 6.890625 40.9375 10.546875 
Q 45.796875 14.203125 45.796875 21.1875 
Q 45.796875 27.640625 41.28125 31.265625 
Q 36.765625 34.90625 28.71875 34.90625 
L 20.21875 34.90625 
L 20.21875 43.015625 
L 29.109375 43.015625 
Q 36.375 43.015625 40.234375 45.921875 
Q 44.09375 48.828125 44.09375 54.296875 
Q 44.09375 59.90625 40.109375 62.90625 
Q 36.140625 65.921875 28.71875 65.921875 
Q 24.65625 65.921875 20.015625 65.03125 
Q 15.375 64.15625 9.8125 62.3125 
L 9.8125 71.09375 
Q 15.4375 72.65625 20.34375 73.4375 
Q 25.25 74.21875 29.59375 74.21875 
Q 40.828125 74.21875 47.359375 69.109375 
Q 53.90625 64.015625 53.90625 55.328125 
Q 53.90625 49.265625 50.4375 45.09375 
Q 46.96875 40.921875 40.578125 39.3125 
z
" id="DejaVuSans-33"/>
      </defs>
      <g transform="translate(657.88541 1311.395313)scale(0.3 -0.3)">
       <use xlink:href="#DejaVuSans-33"/>
       <use x="63.623047" xlink:href="#DejaVuSans-30"/>
       <use x="127.246094" xlink:href="#DejaVuSans-30"/>
      </g>
     </g>
    </g>
    <g id="xtick_5">
     <g id="line2d_5">
      <g>
       <use style="stroke:#000000;stroke-width:0.8;" x="838.696406" xlink:href="#m921a9cbe3f" y="1281.6"/>
      </g>
     </g>
     <g id="text_5">
      <!-- 400 -->
      <defs>
       <path d="M 37.796875 64.3125 
L 12.890625 25.390625 
L 37.796875 25.390625 
z
M 35.203125 72.90625 
L 47.609375 72.90625 
L 47.609375 25.390625 
L 58.015625 25.390625 
L 58.015625 17.1875 
L 47.609375 17.1875 
L 47.609375 0 
L 37.796875 0 
L 37.796875 17.1875 
L 4.890625 17.1875 
L 4.890625 26.703125 
z
" id="DejaVuSans-34"/>
      </defs>
      <g transform="translate(810.065156 1311.395313)scale(0.3 -0.3)">
       <use xlink:href="#DejaVuSans-34"/>
       <use x="63.623047" xlink:href="#DejaVuSans-30"/>
       <use x="127.246094" xlink:href="#DejaVuSans-30"/>
      </g>
     </g>
    </g>
    <g id="xtick_6">
     <g id="line2d_6">
      <g>
       <use style="stroke:#000000;stroke-width:0.8;" x="990.876153" xlink:href="#m921a9cbe3f" y="1281.6"/>
      </g>
     </g>
     <g id="text_6">
      <!-- 500 -->
      <defs>
       <path d="M 10.796875 72.90625 
L 49.515625 72.90625 
L 49.515625 64.59375 
L 19.828125 64.59375 
L 19.828125 46.734375 
Q 21.96875 47.46875 24.109375 47.828125 
Q 26.265625 48.1875 28.421875 48.1875 
Q 40.625 48.1875 47.75 41.5 
Q 54.890625 34.8125 54.890625 23.390625 
Q 54.890625 11.625 47.5625 5.09375 
Q 40.234375 -1.421875 26.90625 -1.421875 
Q 22.3125 -1.421875 17.546875 -0.640625 
Q 12.796875 0.140625 7.71875 1.703125 
L 7.71875 11.625 
Q 12.109375 9.234375 16.796875 8.0625 
Q 21.484375 6.890625 26.703125 6.890625 
Q 35.15625 6.890625 40.078125 11.328125 
Q 45.015625 15.765625 45.015625 23.390625 
Q 45.015625 31 40.078125 35.4375 
Q 35.15625 39.890625 26.703125 39.890625 
Q 22.75 39.890625 18.8125 39.015625 
Q 14.890625 38.140625 10.796875 36.28125 
z
" id="DejaVuSans-35"/>
      </defs>
      <g transform="translate(962.244903 1311.395313)scale(0.3 -0.3)">
       <use xlink:href="#DejaVuSans-35"/>
       <use x="63.623047" xlink:href="#DejaVuSans-30"/>
       <use x="127.246094" xlink:href="#DejaVuSans-30"/>
      </g>
     </g>
    </g>
    <g id="xtick_7">
     <g id="line2d_7">
      <g>
       <use style="stroke:#000000;stroke-width:0.8;" x="1143.055899" xlink:href="#m921a9cbe3f" y="1281.6"/>
      </g>
     </g>
     <g id="text_7">
      <!-- 600 -->
      <defs>
       <path d="M 33.015625 40.375 
Q 26.375 40.375 22.484375 35.828125 
Q 18.609375 31.296875 18.609375 23.390625 
Q 18.609375 15.53125 22.484375 10.953125 
Q 26.375 6.390625 33.015625 6.390625 
Q 39.65625 6.390625 43.53125 10.953125 
Q 47.40625 15.53125 47.40625 23.390625 
Q 47.40625 31.296875 43.53125 35.828125 
Q 39.65625 40.375 33.015625 40.375 
z
M 52.59375 71.296875 
L 52.59375 62.3125 
Q 48.875 64.0625 45.09375 64.984375 
Q 41.3125 65.921875 37.59375 65.921875 
Q 27.828125 65.921875 22.671875 59.328125 
Q 17.53125 52.734375 16.796875 39.40625 
Q 19.671875 43.65625 24.015625 45.921875 
Q 28.375 48.1875 33.59375 48.1875 
Q 44.578125 48.1875 50.953125 41.515625 
Q 57.328125 34.859375 57.328125 23.390625 
Q 57.328125 12.15625 50.6875 5.359375 
Q 44.046875 -1.421875 33.015625 -1.421875 
Q 20.359375 -1.421875 13.671875 8.265625 
Q 6.984375 17.96875 6.984375 36.375 
Q 6.984375 53.65625 15.1875 63.9375 
Q 23.390625 74.21875 37.203125 74.21875 
Q 40.921875 74.21875 44.703125 73.484375 
Q 48.484375 72.75 52.59375 71.296875 
z
" id="DejaVuSans-36"/>
      </defs>
      <g transform="translate(1114.424649 1311.395313)scale(0.3 -0.3)">
       <use xlink:href="#DejaVuSans-36"/>
       <use x="63.623047" xlink:href="#DejaVuSans-30"/>
       <use x="127.246094" xlink:href="#DejaVuSans-30"/>
      </g>
     </g>
    </g>
    <g id="xtick_8">
     <g id="line2d_8">
      <g>
       <use style="stroke:#000000;stroke-width:0.8;" x="1295.235646" xlink:href="#m921a9cbe3f" y="1281.6"/>
      </g>
     </g>
     <g id="text_8">
      <!-- 700 -->
      <defs>
       <path d="M 8.203125 72.90625 
L 55.078125 72.90625 
L 55.078125 68.703125 
L 28.609375 0 
L 18.3125 0 
L 43.21875 64.59375 
L 8.203125 64.59375 
z
" id="DejaVuSans-37"/>
      </defs>
      <g transform="translate(1266.604396 1311.395313)scale(0.3 -0.3)">
       <use xlink:href="#DejaVuSans-37"/>
       <use x="63.623047" xlink:href="#DejaVuSans-30"/>
       <use x="127.246094" xlink:href="#DejaVuSans-30"/>
      </g>
     </g>
    </g>
    <g id="text_9">
     <!-- Y Test -->
     <defs>
      <path d="M -0.203125 72.90625 
L 10.40625 72.90625 
L 30.609375 42.921875 
L 50.6875 72.90625 
L 61.28125 72.90625 
L 35.5 34.71875 
L 35.5 0 
L 25.59375 0 
L 25.59375 34.71875 
z
" id="DejaVuSans-59"/>
      <path id="DejaVuSans-20"/>
      <path d="M -0.296875 72.90625 
L 61.375 72.90625 
L 61.375 64.59375 
L 35.5 64.59375 
L 35.5 0 
L 25.59375 0 
L 25.59375 64.59375 
L -0.296875 64.59375 
z
" id="DejaVuSans-54"/>
      <path d="M 56.203125 29.59375 
L 56.203125 25.203125 
L 14.890625 25.203125 
Q 15.484375 15.921875 20.484375 11.0625 
Q 25.484375 6.203125 34.421875 6.203125 
Q 39.59375 6.203125 44.453125 7.46875 
Q 49.3125 8.734375 54.109375 11.28125 
L 54.109375 2.78125 
Q 49.265625 0.734375 44.1875 -0.34375 
Q 39.109375 -1.421875 33.890625 -1.421875 
Q 20.796875 -1.421875 13.15625 6.1875 
Q 5.515625 13.8125 5.515625 26.8125 
Q 5.515625 40.234375 12.765625 48.109375 
Q 20.015625 56 32.328125 56 
Q 43.359375 56 49.78125 48.890625 
Q 56.203125 41.796875 56.203125 29.59375 
z
M 47.21875 32.234375 
Q 47.125 39.59375 43.09375 43.984375 
Q 39.0625 48.390625 32.421875 48.390625 
Q 24.90625 48.390625 20.390625 44.140625 
Q 15.875 39.890625 15.1875 32.171875 
z
" id="DejaVuSans-65"/>
      <path d="M 44.28125 53.078125 
L 44.28125 44.578125 
Q 40.484375 46.53125 36.375 47.5 
Q 32.28125 48.484375 27.875 48.484375 
Q 21.1875 48.484375 17.84375 46.4375 
Q 14.5 44.390625 14.5 40.28125 
Q 14.5 37.15625 16.890625 35.375 
Q 19.28125 33.59375 26.515625 31.984375 
L 29.59375 31.296875 
Q 39.15625 29.25 43.1875 25.515625 
Q 47.21875 21.78125 47.21875 15.09375 
Q 47.21875 7.46875 41.1875 3.015625 
Q 35.15625 -1.421875 24.609375 -1.421875 
Q 20.21875 -1.421875 15.453125 -0.5625 
Q 10.6875 0.296875 5.421875 2 
L 5.421875 11.28125 
Q 10.40625 8.6875 15.234375 7.390625 
Q 20.0625 6.109375 24.8125 6.109375 
Q 31.15625 6.109375 34.5625 8.28125 
Q 37.984375 10.453125 37.984375 14.40625 
Q 37.984375 18.0625 35.515625 20.015625 
Q 33.0625 21.96875 24.703125 23.78125 
L 21.578125 24.515625 
Q 13.234375 26.265625 9.515625 29.90625 
Q 5.8125 33.546875 5.8125 39.890625 
Q 5.8125 47.609375 11.28125 51.796875 
Q 16.75 56 26.8125 56 
Q 31.78125 56 36.171875 55.265625 
Q 40.578125 54.546875 44.28125 53.078125 
z
" id="DejaVuSans-73"/>
      <path d="M 18.3125 70.21875 
L 18.3125 54.6875 
L 36.8125 54.6875 
L 36.8125 47.703125 
L 18.3125 47.703125 
L 18.3125 18.015625 
Q 18.3125 11.328125 20.140625 9.421875 
Q 21.96875 7.515625 27.59375 7.515625 
L 36.8125 7.515625 
L 36.8125 0 
L 27.59375 0 
Q 17.1875 0 13.234375 3.875 
Q 9.28125 7.765625 9.28125 18.015625 
L 9.28125 47.703125 
L 2.6875 47.703125 
L 2.6875 54.6875 
L 9.28125 54.6875 
L 9.28125 70.21875 
z
" id="DejaVuSans-74"/>
     </defs>
     <g transform="translate(692.025 1344.429688)scale(0.3 -0.3)">
      <use xlink:href="#DejaVuSans-59"/>
      <use x="61.083984" xlink:href="#DejaVuSans-20"/>
      <use x="92.871094" xlink:href="#DejaVuSans-54"/>
      <use x="153.689453" xlink:href="#DejaVuSans-65"/>
      <use x="215.212891" xlink:href="#DejaVuSans-73"/>
      <use x="267.3125" xlink:href="#DejaVuSans-74"/>
     </g>
    </g>
   </g>
   <g id="matplotlib.axis_2">
    <g id="ytick_1">
     <g id="line2d_9">
      <defs>
       <path d="M 0 0 
L -3.5 0 
" id="m3dd0760c51" style="stroke:#000000;stroke-width:0.8;"/>
      </defs>
      <g>
       <use style="stroke:#000000;stroke-width:0.8;" x="180" xlink:href="#m3dd0760c51" y="1231.945015"/>
      </g>
     </g>
     <g id="text_10">
      <!-- 0 -->
      <g transform="translate(153.9125 1243.342671)scale(0.3 -0.3)">
       <use xlink:href="#DejaVuSans-30"/>
      </g>
     </g>
    </g>
    <g id="ytick_2">
     <g id="line2d_10">
      <g>
       <use style="stroke:#000000;stroke-width:0.8;" x="180" xlink:href="#m3dd0760c51" y="1080.747073"/>
      </g>
     </g>
     <g id="text_11">
      <!-- 100 -->
      <g transform="translate(115.7375 1092.144729)scale(0.3 -0.3)">
       <use xlink:href="#DejaVuSans-31"/>
       <use x="63.623047" xlink:href="#DejaVuSans-30"/>
       <use x="127.246094" xlink:href="#DejaVuSans-30"/>
      </g>
     </g>
    </g>
    <g id="ytick_3">
     <g id="line2d_11">
      <g>
       <use style="stroke:#000000;stroke-width:0.8;" x="180" xlink:href="#m3dd0760c51" y="929.549132"/>
      </g>
     </g>
     <g id="text_12">
      <!-- 200 -->
      <g transform="translate(115.7375 940.946788)scale(0.3 -0.3)">
       <use xlink:href="#DejaVuSans-32"/>
       <use x="63.623047" xlink:href="#DejaVuSans-30"/>
       <use x="127.246094" xlink:href="#DejaVuSans-30"/>
      </g>
     </g>
    </g>
    <g id="ytick_4">
     <g id="line2d_12">
      <g>
       <use style="stroke:#000000;stroke-width:0.8;" x="180" xlink:href="#m3dd0760c51" y="778.35119"/>
      </g>
     </g>
     <g id="text_13">
      <!-- 300 -->
      <g transform="translate(115.7375 789.748846)scale(0.3 -0.3)">
       <use xlink:href="#DejaVuSans-33"/>
       <use x="63.623047" xlink:href="#DejaVuSans-30"/>
       <use x="127.246094" xlink:href="#DejaVuSans-30"/>
      </g>
     </g>
    </g>
    <g id="ytick_5">
     <g id="line2d_13">
      <g>
       <use style="stroke:#000000;stroke-width:0.8;" x="180" xlink:href="#m3dd0760c51" y="627.153248"/>
      </g>
     </g>
     <g id="text_14">
      <!-- 400 -->
      <g transform="translate(115.7375 638.550904)scale(0.3 -0.3)">
       <use xlink:href="#DejaVuSans-34"/>
       <use x="63.623047" xlink:href="#DejaVuSans-30"/>
       <use x="127.246094" xlink:href="#DejaVuSans-30"/>
      </g>
     </g>
    </g>
    <g id="ytick_6">
     <g id="line2d_14">
      <g>
       <use style="stroke:#000000;stroke-width:0.8;" x="180" xlink:href="#m3dd0760c51" y="475.955306"/>
      </g>
     </g>
     <g id="text_15">
      <!-- 500 -->
      <g transform="translate(115.7375 487.352963)scale(0.3 -0.3)">
       <use xlink:href="#DejaVuSans-35"/>
       <use x="63.623047" xlink:href="#DejaVuSans-30"/>
       <use x="127.246094" xlink:href="#DejaVuSans-30"/>
      </g>
     </g>
    </g>
    <g id="ytick_7">
     <g id="line2d_15">
      <g>
       <use style="stroke:#000000;stroke-width:0.8;" x="180" xlink:href="#m3dd0760c51" y="324.757365"/>
      </g>
     </g>
     <g id="text_16">
      <!-- 600 -->
      <g transform="translate(115.7375 336.155021)scale(0.3 -0.3)">
       <use xlink:href="#DejaVuSans-36"/>
       <use x="63.623047" xlink:href="#DejaVuSans-30"/>
       <use x="127.246094" xlink:href="#DejaVuSans-30"/>
      </g>
     </g>
    </g>
    <g id="ytick_8">
     <g id="line2d_16">
      <g>
       <use style="stroke:#000000;stroke-width:0.8;" x="180" xlink:href="#m3dd0760c51" y="173.559423"/>
      </g>
     </g>
     <g id="text_17">
      <!-- 700 -->
      <g transform="translate(115.7375 184.957079)scale(0.3 -0.3)">
       <use xlink:href="#DejaVuSans-37"/>
       <use x="63.623047" xlink:href="#DejaVuSans-30"/>
       <use x="127.246094" xlink:href="#DejaVuSans-30"/>
      </g>
     </g>
    </g>
    <g id="text_18">
     <!-- Y Predicted -->
     <defs>
      <path d="M 19.671875 64.796875 
L 19.671875 37.40625 
L 32.078125 37.40625 
Q 38.96875 37.40625 42.71875 40.96875 
Q 46.484375 44.53125 46.484375 51.125 
Q 46.484375 57.671875 42.71875 61.234375 
Q 38.96875 64.796875 32.078125 64.796875 
z
M 9.8125 72.90625 
L 32.078125 72.90625 
Q 44.34375 72.90625 50.609375 67.359375 
Q 56.890625 61.8125 56.890625 51.125 
Q 56.890625 40.328125 50.609375 34.8125 
Q 44.34375 29.296875 32.078125 29.296875 
L 19.671875 29.296875 
L 19.671875 0 
L 9.8125 0 
z
" id="DejaVuSans-50"/>
      <path d="M 41.109375 46.296875 
Q 39.59375 47.171875 37.8125 47.578125 
Q 36.03125 48 33.890625 48 
Q 26.265625 48 22.1875 43.046875 
Q 18.109375 38.09375 18.109375 28.8125 
L 18.109375 0 
L 9.078125 0 
L 9.078125 54.6875 
L 18.109375 54.6875 
L 18.109375 46.1875 
Q 20.953125 51.171875 25.484375 53.578125 
Q 30.03125 56 36.53125 56 
Q 37.453125 56 38.578125 55.875 
Q 39.703125 55.765625 41.0625 55.515625 
z
" id="DejaVuSans-72"/>
      <path d="M 45.40625 46.390625 
L 45.40625 75.984375 
L 54.390625 75.984375 
L 54.390625 0 
L 45.40625 0 
L 45.40625 8.203125 
Q 42.578125 3.328125 38.25 0.953125 
Q 33.9375 -1.421875 27.875 -1.421875 
Q 17.96875 -1.421875 11.734375 6.484375 
Q 5.515625 14.40625 5.515625 27.296875 
Q 5.515625 40.1875 11.734375 48.09375 
Q 17.96875 56 27.875 56 
Q 33.9375 56 38.25 53.625 
Q 42.578125 51.265625 45.40625 46.390625 
z
M 14.796875 27.296875 
Q 14.796875 17.390625 18.875 11.75 
Q 22.953125 6.109375 30.078125 6.109375 
Q 37.203125 6.109375 41.296875 11.75 
Q 45.40625 17.390625 45.40625 27.296875 
Q 45.40625 37.203125 41.296875 42.84375 
Q 37.203125 48.484375 30.078125 48.484375 
Q 22.953125 48.484375 18.875 42.84375 
Q 14.796875 37.203125 14.796875 27.296875 
z
" id="DejaVuSans-64"/>
      <path d="M 9.421875 54.6875 
L 18.40625 54.6875 
L 18.40625 0 
L 9.421875 0 
z
M 9.421875 75.984375 
L 18.40625 75.984375 
L 18.40625 64.59375 
L 9.421875 64.59375 
z
" id="DejaVuSans-69"/>
      <path d="M 48.78125 52.59375 
L 48.78125 44.1875 
Q 44.96875 46.296875 41.140625 47.34375 
Q 37.3125 48.390625 33.40625 48.390625 
Q 24.65625 48.390625 19.8125 42.84375 
Q 14.984375 37.3125 14.984375 27.296875 
Q 14.984375 17.28125 19.8125 11.734375 
Q 24.65625 6.203125 33.40625 6.203125 
Q 37.3125 6.203125 41.140625 7.25 
Q 44.96875 8.296875 48.78125 10.40625 
L 48.78125 2.09375 
Q 45.015625 0.34375 40.984375 -0.53125 
Q 36.96875 -1.421875 32.421875 -1.421875 
Q 20.0625 -1.421875 12.78125 6.34375 
Q 5.515625 14.109375 5.515625 27.296875 
Q 5.515625 40.671875 12.859375 48.328125 
Q 20.21875 56 33.015625 56 
Q 37.15625 56 41.109375 55.140625 
Q 45.0625 54.296875 48.78125 52.59375 
z
" id="DejaVuSans-63"/>
     </defs>
     <g transform="translate(105.498437 812.132812)rotate(-90)scale(0.3 -0.3)">
      <use xlink:href="#DejaVuSans-59"/>
      <use x="61.083984" xlink:href="#DejaVuSans-20"/>
      <use x="92.871094" xlink:href="#DejaVuSans-50"/>
      <use x="153.158203" xlink:href="#DejaVuSans-72"/>
      <use x="194.240234" xlink:href="#DejaVuSans-65"/>
      <use x="255.763672" xlink:href="#DejaVuSans-64"/>
      <use x="319.240234" xlink:href="#DejaVuSans-69"/>
      <use x="347.023438" xlink:href="#DejaVuSans-63"/>
      <use x="402.003906" xlink:href="#DejaVuSans-74"/>
      <use x="441.212891" xlink:href="#DejaVuSans-65"/>
      <use x="502.736328" xlink:href="#DejaVuSans-64"/>
     </g>
    </g>
   </g>
   <g id="line2d_17">
    <path clip-path="url(#pdd98dd6913)" d="M 180 1281.6 
L 1296 172.8 
" style="fill:none;stroke:#1f77b4;stroke-dasharray:5.55,2.4;stroke-dashoffset:0;stroke-width:1.5;"/>
   </g>
   <g id="patch_3">
    <path d="M 180 1281.6 
L 180 172.8 
" style="fill:none;stroke:#000000;stroke-linecap:square;stroke-linejoin:miter;stroke-width:0.8;"/>
   </g>
   <g id="patch_4">
    <path d="M 1296 1281.6 
L 1296 172.8 
" style="fill:none;stroke:#000000;stroke-linecap:square;stroke-linejoin:miter;stroke-width:0.8;"/>
   </g>
   <g id="patch_5">
    <path d="M 180 1281.6 
L 1296 1281.6 
" style="fill:none;stroke:#000000;stroke-linecap:square;stroke-linejoin:miter;stroke-width:0.8;"/>
   </g>
   <g id="patch_6">
    <path d="M 180 172.8 
L 1296 172.8 
" style="fill:none;stroke:#000000;stroke-linecap:square;stroke-linejoin:miter;stroke-width:0.8;"/>
   </g>
   <g id="text_19">
    <!-- Ridge_TPSA -->
    <defs>
     <path d="M 44.390625 34.1875 
Q 47.5625 33.109375 50.5625 29.59375 
Q 53.5625 26.078125 56.59375 19.921875 
L 66.609375 0 
L 56 0 
L 46.6875 18.703125 
Q 43.0625 26.03125 39.671875 28.421875 
Q 36.28125 30.8125 30.421875 30.8125 
L 19.671875 30.8125 
L 19.671875 0 
L 9.8125 0 
L 9.8125 72.90625 
L 32.078125 72.90625 
Q 44.578125 72.90625 50.734375 67.671875 
Q 56.890625 62.453125 56.890625 51.90625 
Q 56.890625 45.015625 53.6875 40.46875 
Q 50.484375 35.9375 44.390625 34.1875 
z
M 19.671875 64.796875 
L 19.671875 38.921875 
L 32.078125 38.921875 
Q 39.203125 38.921875 42.84375 42.21875 
Q 46.484375 45.515625 46.484375 51.90625 
Q 46.484375 58.296875 42.84375 61.546875 
Q 39.203125 64.796875 32.078125 64.796875 
z
" id="DejaVuSans-52"/>
     <path d="M 45.40625 27.984375 
Q 45.40625 37.75 41.375 43.109375 
Q 37.359375 48.484375 30.078125 48.484375 
Q 22.859375 48.484375 18.828125 43.109375 
Q 14.796875 37.75 14.796875 27.984375 
Q 14.796875 18.265625 18.828125 12.890625 
Q 22.859375 7.515625 30.078125 7.515625 
Q 37.359375 7.515625 41.375 12.890625 
Q 45.40625 18.265625 45.40625 27.984375 
z
M 54.390625 6.78125 
Q 54.390625 -7.171875 48.1875 -13.984375 
Q 42 -20.796875 29.203125 -20.796875 
Q 24.46875 -20.796875 20.265625 -20.09375 
Q 16.0625 -19.390625 12.109375 -17.921875 
L 12.109375 -9.1875 
Q 16.0625 -11.328125 19.921875 -12.34375 
Q 23.78125 -13.375 27.78125 -13.375 
Q 36.625 -13.375 41.015625 -8.765625 
Q 45.40625 -4.15625 45.40625 5.171875 
L 45.40625 9.625 
Q 42.625 4.78125 38.28125 2.390625 
Q 33.9375 0 27.875 0 
Q 17.828125 0 11.671875 7.65625 
Q 5.515625 15.328125 5.515625 27.984375 
Q 5.515625 40.671875 11.671875 48.328125 
Q 17.828125 56 27.875 56 
Q 33.9375 56 38.28125 53.609375 
Q 42.625 51.21875 45.40625 46.390625 
L 45.40625 54.6875 
L 54.390625 54.6875 
z
" id="DejaVuSans-67"/>
     <path d="M 50.984375 -16.609375 
L 50.984375 -23.578125 
L -0.984375 -23.578125 
L -0.984375 -16.609375 
z
" id="DejaVuSans-5f"/>
     <path d="M 53.515625 70.515625 
L 53.515625 60.890625 
Q 47.90625 63.578125 42.921875 64.890625 
Q 37.9375 66.21875 33.296875 66.21875 
Q 25.25 66.21875 20.875 63.09375 
Q 16.5 59.96875 16.5 54.203125 
Q 16.5 49.359375 19.40625 46.890625 
Q 22.3125 44.4375 30.421875 42.921875 
L 36.375 41.703125 
Q 47.40625 39.59375 52.65625 34.296875 
Q 57.90625 29 57.90625 20.125 
Q 57.90625 9.515625 50.796875 4.046875 
Q 43.703125 -1.421875 29.984375 -1.421875 
Q 24.8125 -1.421875 18.96875 -0.25 
Q 13.140625 0.921875 6.890625 3.21875 
L 6.890625 13.375 
Q 12.890625 10.015625 18.65625 8.296875 
Q 24.421875 6.59375 29.984375 6.59375 
Q 38.421875 6.59375 43.015625 9.90625 
Q 47.609375 13.234375 47.609375 19.390625 
Q 47.609375 24.75 44.3125 27.78125 
Q 41.015625 30.8125 33.5 32.328125 
L 27.484375 33.5 
Q 16.453125 35.6875 11.515625 40.375 
Q 6.59375 45.0625 6.59375 53.421875 
Q 6.59375 63.09375 13.40625 68.65625 
Q 20.21875 74.21875 32.171875 74.21875 
Q 37.3125 74.21875 42.625 73.28125 
Q 47.953125 72.359375 53.515625 70.515625 
z
" id="DejaVuSans-53"/>
     <path d="M 34.1875 63.1875 
L 20.796875 26.90625 
L 47.609375 26.90625 
z
M 28.609375 72.90625 
L 39.796875 72.90625 
L 67.578125 0 
L 57.328125 0 
L 50.6875 18.703125 
L 17.828125 18.703125 
L 11.1875 0 
L 0.78125 0 
z
" id="DejaVuSans-41"/>
    </defs>
    <g transform="translate(631.971563 166.8)scale(0.36 -0.36)">
     <use xlink:href="#DejaVuSans-52"/>
     <use x="69.482422" xlink:href="#DejaVuSans-69"/>
     <use x="97.265625" xlink:href="#DejaVuSans-64"/>
     <use x="160.742188" xlink:href="#DejaVuSans-67"/>
     <use x="224.21875" xlink:href="#DejaVuSans-65"/>
     <use x="285.742188" xlink:href="#DejaVuSans-5f"/>
     <use x="335.742188" xlink:href="#DejaVuSans-54"/>
     <use x="396.826172" xlink:href="#DejaVuSans-50"/>
     <use x="457.128906" xlink:href="#DejaVuSans-53"/>
     <use x="520.621094" xlink:href="#DejaVuSans-41"/>
    </g>
   </g>
  </g>
 </g>
 <defs>
  <clipPath id="pdd98dd6913">
   <rect height="1108.8" width="1116" x="180" y="172.8"/>
  </clipPath>
 </defs>
</svg>
