<?xml version="1.0" encoding="utf-8" standalone="no"?>
<!DOCTYPE svg PUBLIC "-//W3C//DTD SVG 1.1//EN"
  "http://www.w3.org/Graphics/SVG/1.1/DTD/svg11.dtd">
<!-- Created with matplotlib (http://matplotlib.org/) -->
<svg height="1440pt" version="1.1" viewBox="0 0 1440 1440" width="1440pt" xmlns="http://www.w3.org/2000/svg" xmlns:xlink="http://www.w3.org/1999/xlink">
 <defs>
  <style type="text/css">
*{stroke-linecap:butt;stroke-linejoin:round;}
  </style>
 </defs>
 <g id="figure_1">
  <g id="patch_1">
   <path d="M 0 1440 
L 1440 1440 
L 1440 0 
L 0 0 
z
" style="fill:#ffffff;"/>
  </g>
  <g id="axes_1">
   <g id="patch_2">
    <path d="M 180 1281.6 
L 1296 1281.6 
L 1296 172.8 
L 180 172.8 
z
" style="fill:#ffffff;"/>
   </g>
   <g id="PathCollection_1">
    <defs>
     <path d="M 0 3 
C 0.795609 3 1.55874 2.683901 2.12132 2.12132 
C 2.683901 1.55874 3 0.795609 3 0 
C 3 -0.795609 2.683901 -1.55874 2.12132 -2.12132 
C 1.55874 -2.683901 0.795609 -3 0 -3 
C -0.795609 -3 -1.55874 -2.683901 -2.12132 -2.12132 
C -2.683901 -1.55874 -3 -0.795609 -3 0 
C -3 0.795609 -2.683901 1.55874 -2.12132 2.12132 
C -1.55874 2.683901 -0.795609 3 0 3 
z
" id="mea634dae38" style="stroke:#1f77b4;"/>
    </defs>
    <g clip-path="url(#p1c5d96f4e3)">
     <use style="fill:#1f77b4;stroke:#1f77b4;" x="361.45477" xlink:href="#mea634dae38" y="1103.81595"/>
     <use style="fill:#1f77b4;stroke:#1f77b4;" x="298.123865" xlink:href="#mea634dae38" y="1165.537721"/>
     <use style="fill:#1f77b4;stroke:#1f77b4;" x="245.269925" xlink:href="#mea634dae38" y="1217.619379"/>
     <use style="fill:#1f77b4;stroke:#1f77b4;" x="457.154803" xlink:href="#mea634dae38" y="1005.255076"/>
     <use style="fill:#1f77b4;stroke:#1f77b4;" x="352.541531" xlink:href="#mea634dae38" y="1108.962896"/>
     <use style="fill:#1f77b4;stroke:#1f77b4;" x="356.450846" xlink:href="#mea634dae38" y="1107.642518"/>
     <use style="fill:#1f77b4;stroke:#1f77b4;" x="375.215559" xlink:href="#mea634dae38" y="1088.555524"/>
     <use style="fill:#1f77b4;stroke:#1f77b4;" x="334.558682" xlink:href="#mea634dae38" y="1128.260897"/>
     <use style="fill:#1f77b4;stroke:#1f77b4;" x="276.2317" xlink:href="#mea634dae38" y="1186.834231"/>
     <use style="fill:#1f77b4;stroke:#1f77b4;" x="235.887569" xlink:href="#mea634dae38" y="1228.324352"/>
     <use style="fill:#1f77b4;stroke:#1f77b4;" x="322.830736" xlink:href="#mea634dae38" y="1138.999283"/>
     <use style="fill:#1f77b4;stroke:#1f77b4;" x="486.865598" xlink:href="#mea634dae38" y="977.820009"/>
     <use style="fill:#1f77b4;stroke:#1f77b4;" x="391.47831" xlink:href="#mea634dae38" y="1069.277982"/>
     <use style="fill:#1f77b4;stroke:#1f77b4;" x="502.502858" xlink:href="#mea634dae38" y="960.863392"/>
     <use style="fill:#1f77b4;stroke:#1f77b4;" x="327.209169" xlink:href="#mea634dae38" y="1134.997834"/>
     <use style="fill:#1f77b4;stroke:#1f77b4;" x="293.58906" xlink:href="#mea634dae38" y="1168.590876"/>
     <use style="fill:#1f77b4;stroke:#1f77b4;" x="312.979262" xlink:href="#mea634dae38" y="1149.809744"/>
     <use style="fill:#1f77b4;stroke:#1f77b4;" x="394.605762" xlink:href="#mea634dae38" y="1066.32597"/>
     <use style="fill:#1f77b4;stroke:#1f77b4;" x="286.552292" xlink:href="#mea634dae38" y="1177.502629"/>
     <use style="fill:#1f77b4;stroke:#1f77b4;" x="410.243022" xlink:href="#mea634dae38" y="1053.789971"/>
     <use style="fill:#1f77b4;stroke:#1f77b4;" x="262.470911" xlink:href="#mea634dae38" y="1202.537269"/>
     <use style="fill:#1f77b4;stroke:#1f77b4;" x="365.364085" xlink:href="#mea634dae38" y="1094.869672"/>
     <use style="fill:#1f77b4;stroke:#1f77b4;" x="257.310615" xlink:href="#mea634dae38" y="1204.559503"/>
     <use style="fill:#1f77b4;stroke:#1f77b4;" x="276.2317" xlink:href="#mea634dae38" y="1184.514052"/>
     <use style="fill:#1f77b4;stroke:#1f77b4;" x="320.172402" xlink:href="#mea634dae38" y="1134.339707"/>
     <use style="fill:#1f77b4;stroke:#1f77b4;" x="315.950342" xlink:href="#mea634dae38" y="1146.21903"/>
     <use style="fill:#1f77b4;stroke:#1f77b4;" x="230.727273" xlink:href="#mea634dae38" y="1230.242637"/>
     <use style="fill:#1f77b4;stroke:#1f77b4;" x="245.269925" xlink:href="#mea634dae38" y="1217.84751"/>
     <use style="fill:#1f77b4;stroke:#1f77b4;" x="340.188096" xlink:href="#mea634dae38" y="1119.936823"/>
     <use style="fill:#1f77b4;stroke:#1f77b4;" x="358.48369" xlink:href="#mea634dae38" y="1108.015433"/>
     <use style="fill:#1f77b4;stroke:#1f77b4;" x="326.427306" xlink:href="#mea634dae38" y="1139.623504"/>
     <use style="fill:#1f77b4;stroke:#1f77b4;" x="282.642977" xlink:href="#mea634dae38" y="1176.461007"/>
     <use style="fill:#1f77b4;stroke:#1f77b4;" x="335.184172" xlink:href="#mea634dae38" y="1124.542366"/>
     <use style="fill:#1f77b4;stroke:#1f77b4;" x="441.517543" xlink:href="#mea634dae38" y="1019.968981"/>
     <use style="fill:#1f77b4;stroke:#1f77b4;" x="272.947876" xlink:href="#mea634dae38" y="1192.304869"/>
     <use style="fill:#1f77b4;stroke:#1f77b4;" x="518.140119" xlink:href="#mea634dae38" y="942.402644"/>
     <use style="fill:#1f77b4;stroke:#1f77b4;" x="326.583679" xlink:href="#mea634dae38" y="1134.456669"/>
     <use style="fill:#1f77b4;stroke:#1f77b4;" x="327.521915" xlink:href="#mea634dae38" y="1134.709088"/>
     <use style="fill:#1f77b4;stroke:#1f77b4;" x="458.718529" xlink:href="#mea634dae38" y="1005.865616"/>
     <use style="fill:#1f77b4;stroke:#1f77b4;" x="397.733214" xlink:href="#mea634dae38" y="1065.634457"/>
     <use style="fill:#1f77b4;stroke:#1f77b4;" x="457.154803" xlink:href="#mea634dae38" y="1009.378346"/>
     <use style="fill:#1f77b4;stroke:#1f77b4;" x="330.336621" xlink:href="#mea634dae38" y="1132.429741"/>
     <use style="fill:#1f77b4;stroke:#1f77b4;" x="271.853268" xlink:href="#mea634dae38" y="1189.912216"/>
     <use style="fill:#1f77b4;stroke:#1f77b4;" x="294.058177" xlink:href="#mea634dae38" y="1166.894345"/>
     <use style="fill:#1f77b4;stroke:#1f77b4;" x="297.967492" xlink:href="#mea634dae38" y="1164.017661"/>
     <use style="fill:#1f77b4;stroke:#1f77b4;" x="356.294474" xlink:href="#mea634dae38" y="1100.853224"/>
     <use style="fill:#1f77b4;stroke:#1f77b4;" x="284.050331" xlink:href="#mea634dae38" y="1177.558797"/>
     <use style="fill:#1f77b4;stroke:#1f77b4;" x="344.253783" xlink:href="#mea634dae38" y="1118.135507"/>
     <use style="fill:#1f77b4;stroke:#1f77b4;" x="333.151328" xlink:href="#mea634dae38" y="1130.338469"/>
     <use style="fill:#1f77b4;stroke:#1f77b4;" x="436.826365" xlink:href="#mea634dae38" y="1022.587783"/>
     <use style="fill:#1f77b4;stroke:#1f77b4;" x="303.596906" xlink:href="#mea634dae38" y="1163.855917"/>
     <use style="fill:#1f77b4;stroke:#1f77b4;" x="250.899339" xlink:href="#mea634dae38" y="1209.463995"/>
     <use style="fill:#1f77b4;stroke:#1f77b4;" x="281.861114" xlink:href="#mea634dae38" y="1179.682388"/>
     <use style="fill:#1f77b4;stroke:#1f77b4;" x="429.007735" xlink:href="#mea634dae38" y="1034.697663"/>
     <use style="fill:#1f77b4;stroke:#1f77b4;" x="267.943952" xlink:href="#mea634dae38" y="1193.646457"/>
     <use style="fill:#1f77b4;stroke:#1f77b4;" x="510.321489" xlink:href="#mea634dae38" y="953.248906"/>
     <use style="fill:#1f77b4;stroke:#1f77b4;" x="230.727273" xlink:href="#mea634dae38" y="1229.772249"/>
     <use style="fill:#1f77b4;stroke:#1f77b4;" x="271.853268" xlink:href="#mea634dae38" y="1190.29729"/>
     <use style="fill:#1f77b4;stroke:#1f77b4;" x="361.923887" xlink:href="#mea634dae38" y="1097.679207"/>
     <use style="fill:#1f77b4;stroke:#1f77b4;" x="289.054254" xlink:href="#mea634dae38" y="1178.802752"/>
     <use style="fill:#1f77b4;stroke:#1f77b4;" x="657.311736" xlink:href="#mea634dae38" y="806.372602"/>
     <use style="fill:#1f77b4;stroke:#1f77b4;" x="298.43661" xlink:href="#mea634dae38" y="1163.37027"/>
     <use style="fill:#1f77b4;stroke:#1f77b4;" x="468.100886" xlink:href="#mea634dae38" y="1001.94987"/>
     <use style="fill:#1f77b4;stroke:#1f77b4;" x="326.740052" xlink:href="#mea634dae38" y="1137.686282"/>
     <use style="fill:#1f77b4;stroke:#1f77b4;" x="336.122408" xlink:href="#mea634dae38" y="1127.856556"/>
     <use style="fill:#1f77b4;stroke:#1f77b4;" x="339.718978" xlink:href="#mea634dae38" y="1122.70145"/>
     <use style="fill:#1f77b4;stroke:#1f77b4;" x="327.209169" xlink:href="#mea634dae38" y="1133.705375"/>
     <use style="fill:#1f77b4;stroke:#1f77b4;" x="317.357695" xlink:href="#mea634dae38" y="1144.952518"/>
     <use style="fill:#1f77b4;stroke:#1f77b4;" x="285.144939" xlink:href="#mea634dae38" y="1177.395365"/>
     <use style="fill:#1f77b4;stroke:#1f77b4;" x="298.123865" xlink:href="#mea634dae38" y="1166.689486"/>
     <use style="fill:#1f77b4;stroke:#1f77b4;" x="276.857191" xlink:href="#mea634dae38" y="1184.043542"/>
     <use style="fill:#1f77b4;stroke:#1f77b4;" x="287.334155" xlink:href="#mea634dae38" y="1177.422328"/>
     <use style="fill:#1f77b4;stroke:#1f77b4;" x="276.2317" xlink:href="#mea634dae38" y="1184.378962"/>
     <use style="fill:#1f77b4;stroke:#1f77b4;" x="373.651833" xlink:href="#mea634dae38" y="1090.293993"/>
     <use style="fill:#1f77b4;stroke:#1f77b4;" x="410.243022" xlink:href="#mea634dae38" y="1053.34211"/>
     <use style="fill:#1f77b4;stroke:#1f77b4;" x="289.054254" xlink:href="#mea634dae38" y="1172.754648"/>
     <use style="fill:#1f77b4;stroke:#1f77b4;" x="304.222397" xlink:href="#mea634dae38" y="1161.239297"/>
     <use style="fill:#1f77b4;stroke:#1f77b4;" x="357.701827" xlink:href="#mea634dae38" y="1102.945554"/>
     <use style="fill:#1f77b4;stroke:#1f77b4;" x="464.973433" xlink:href="#mea634dae38" y="998.72389"/>
     <use style="fill:#1f77b4;stroke:#1f77b4;" x="547.850914" xlink:href="#mea634dae38" y="918.191139"/>
     <use style="fill:#1f77b4;stroke:#1f77b4;" x="314.230243" xlink:href="#mea634dae38" y="1148.619264"/>
     <use style="fill:#1f77b4;stroke:#1f77b4;" x="245.269925" xlink:href="#mea634dae38" y="1215.602033"/>
     <use style="fill:#1f77b4;stroke:#1f77b4;" x="375.684677" xlink:href="#mea634dae38" y="1087.590439"/>
     <use style="fill:#1f77b4;stroke:#1f77b4;" x="444.644995" xlink:href="#mea634dae38" y="1016.001684"/>
     <use style="fill:#1f77b4;stroke:#1f77b4;" x="334.871427" xlink:href="#mea634dae38" y="1127.37362"/>
     <use style="fill:#1f77b4;stroke:#1f77b4;" x="363.956731" xlink:href="#mea634dae38" y="1098.516757"/>
     <use style="fill:#1f77b4;stroke:#1f77b4;" x="250.899339" xlink:href="#mea634dae38" y="1212.785781"/>
     <use style="fill:#1f77b4;stroke:#1f77b4;" x="275.449837" xlink:href="#mea634dae38" y="1188.299068"/>
     <use style="fill:#1f77b4;stroke:#1f77b4;" x="283.893958" xlink:href="#mea634dae38" y="1177.307503"/>
     <use style="fill:#1f77b4;stroke:#1f77b4;" x="322.361619" xlink:href="#mea634dae38" y="1138.416596"/>
     <use style="fill:#1f77b4;stroke:#1f77b4;" x="396.169488" xlink:href="#mea634dae38" y="1067.969431"/>
     <use style="fill:#1f77b4;stroke:#1f77b4;" x="301.40769" xlink:href="#mea634dae38" y="1161.229489"/>
     <use style="fill:#1f77b4;stroke:#1f77b4;" x="264.660128" xlink:href="#mea634dae38" y="1196.577781"/>
     <use style="fill:#1f77b4;stroke:#1f77b4;" x="407.11557" xlink:href="#mea634dae38" y="1073.923149"/>
     <use style="fill:#1f77b4;stroke:#1f77b4;" x="388.350858" xlink:href="#mea634dae38" y="1071.416681"/>
     <use style="fill:#1f77b4;stroke:#1f77b4;" x="281.235624" xlink:href="#mea634dae38" y="1179.433974"/>
     <use style="fill:#1f77b4;stroke:#1f77b4;" x="260.438067" xlink:href="#mea634dae38" y="1199.956369"/>
     <use style="fill:#1f77b4;stroke:#1f77b4;" x="361.611142" xlink:href="#mea634dae38" y="1100.20521"/>
     <use style="fill:#1f77b4;stroke:#1f77b4;" x="405.551844" xlink:href="#mea634dae38" y="1064.910662"/>
     <use style="fill:#1f77b4;stroke:#1f77b4;" x="357.389082" xlink:href="#mea634dae38" y="1103.936833"/>
     <use style="fill:#1f77b4;stroke:#1f77b4;" x="245.269925" xlink:href="#mea634dae38" y="1215.716368"/>
     <use style="fill:#1f77b4;stroke:#1f77b4;" x="295.621903" xlink:href="#mea634dae38" y="1165.906179"/>
     <use style="fill:#1f77b4;stroke:#1f77b4;" x="373.964578" xlink:href="#mea634dae38" y="1087.709538"/>
     <use style="fill:#1f77b4;stroke:#1f77b4;" x="250.899339" xlink:href="#mea634dae38" y="1212.785781"/>
     <use style="fill:#1f77b4;stroke:#1f77b4;" x="368.022419" xlink:href="#mea634dae38" y="1092.702261"/>
     <use style="fill:#1f77b4;stroke:#1f77b4;" x="565.0519" xlink:href="#mea634dae38" y="898.658723"/>
     <use style="fill:#1f77b4;stroke:#1f77b4;" x="331.43123" xlink:href="#mea634dae38" y="1132.405776"/>
     <use style="fill:#1f77b4;stroke:#1f77b4;" x="311.884654" xlink:href="#mea634dae38" y="1157.271168"/>
     <use style="fill:#1f77b4;stroke:#1f77b4;" x="318.295931" xlink:href="#mea634dae38" y="1144.991426"/>
     <use style="fill:#1f77b4;stroke:#1f77b4;" x="278.264544" xlink:href="#mea634dae38" y="1185.228684"/>
     <use style="fill:#1f77b4;stroke:#1f77b4;" x="262.470911" xlink:href="#mea634dae38" y="1196.871159"/>
     <use style="fill:#1f77b4;stroke:#1f77b4;" x="361.923887" xlink:href="#mea634dae38" y="1100.397806"/>
     <use style="fill:#1f77b4;stroke:#1f77b4;" x="290.61798" xlink:href="#mea634dae38" y="1171.01944"/>
     <use style="fill:#1f77b4;stroke:#1f77b4;" x="291.868961" xlink:href="#mea634dae38" y="1172.316377"/>
     <use style="fill:#1f77b4;stroke:#1f77b4;" x="475.919516" xlink:href="#mea634dae38" y="987.34444"/>
     <use style="fill:#1f77b4;stroke:#1f77b4;" x="266.380226" xlink:href="#mea634dae38" y="1196.728656"/>
     <use style="fill:#1f77b4;stroke:#1f77b4;" x="285.614057" xlink:href="#mea634dae38" y="1178.056613"/>
     <use style="fill:#1f77b4;stroke:#1f77b4;" x="380.219482" xlink:href="#mea634dae38" y="1081.499509"/>
     <use style="fill:#1f77b4;stroke:#1f77b4;" x="422.75283" xlink:href="#mea634dae38" y="1041.440496"/>
     <use style="fill:#1f77b4;stroke:#1f77b4;" x="348.475844" xlink:href="#mea634dae38" y="1113.81202"/>
     <use style="fill:#1f77b4;stroke:#1f77b4;" x="367.553301" xlink:href="#mea634dae38" y="1095.118623"/>
     <use style="fill:#1f77b4;stroke:#1f77b4;" x="318.921421" xlink:href="#mea634dae38" y="1142.640709"/>
     <use style="fill:#1f77b4;stroke:#1f77b4;" x="400.860666" xlink:href="#mea634dae38" y="1066.6344"/>
     <use style="fill:#1f77b4;stroke:#1f77b4;" x="349.570452" xlink:href="#mea634dae38" y="1113.189499"/>
     <use style="fill:#1f77b4;stroke:#1f77b4;" x="399.29694" xlink:href="#mea634dae38" y="1061.851318"/>
     <use style="fill:#1f77b4;stroke:#1f77b4;" x="290.61798" xlink:href="#mea634dae38" y="1172.918938"/>
     <use style="fill:#1f77b4;stroke:#1f77b4;" x="421.189104" xlink:href="#mea634dae38" y="1042.418432"/>
     <use style="fill:#1f77b4;stroke:#1f77b4;" x="388.350858" xlink:href="#mea634dae38" y="1076.173751"/>
     <use style="fill:#1f77b4;stroke:#1f77b4;" x="393.042036" xlink:href="#mea634dae38" y="1067.40781"/>
     <use style="fill:#1f77b4;stroke:#1f77b4;" x="389.914584" xlink:href="#mea634dae38" y="1066.679373"/>
     <use style="fill:#1f77b4;stroke:#1f77b4;" x="422.75283" xlink:href="#mea634dae38" y="1038.572835"/>
     <use style="fill:#1f77b4;stroke:#1f77b4;" x="383.659679" xlink:href="#mea634dae38" y="1076.342845"/>
     <use style="fill:#1f77b4;stroke:#1f77b4;" x="332.838583" xlink:href="#mea634dae38" y="1125.55878"/>
     <use style="fill:#1f77b4;stroke:#1f77b4;" x="235.887569" xlink:href="#mea634dae38" y="1229.817113"/>
     <use style="fill:#1f77b4;stroke:#1f77b4;" x="335.966035" xlink:href="#mea634dae38" y="1126.973754"/>
     <use style="fill:#1f77b4;stroke:#1f77b4;" x="441.517543" xlink:href="#mea634dae38" y="1025.189541"/>
     <use style="fill:#1f77b4;stroke:#1f77b4;" x="618.218585" xlink:href="#mea634dae38" y="845.22316"/>
     <use style="fill:#1f77b4;stroke:#1f77b4;" x="284.050331" xlink:href="#mea634dae38" y="1178.679754"/>
     <use style="fill:#1f77b4;stroke:#1f77b4;" x="755.826477" xlink:href="#mea634dae38" y="813.528363"/>
     <use style="fill:#1f77b4;stroke:#1f77b4;" x="262.470911" xlink:href="#mea634dae38" y="1197.261085"/>
     <use style="fill:#1f77b4;stroke:#1f77b4;" x="339.718978" xlink:href="#mea634dae38" y="1125.483959"/>
     <use style="fill:#1f77b4;stroke:#1f77b4;" x="303.596906" xlink:href="#mea634dae38" y="1157.896145"/>
     <use style="fill:#1f77b4;stroke:#1f77b4;" x="284.050331" xlink:href="#mea634dae38" y="1177.509273"/>
     <use style="fill:#1f77b4;stroke:#1f77b4;" x="454.027351" xlink:href="#mea634dae38" y="1006.634583"/>
     <use style="fill:#1f77b4;stroke:#1f77b4;" x="257.310615" xlink:href="#mea634dae38" y="1206.414434"/>
     <use style="fill:#1f77b4;stroke:#1f77b4;" x="244.488062" xlink:href="#mea634dae38" y="1215.635675"/>
     <use style="fill:#1f77b4;stroke:#1f77b4;" x="386.787131" xlink:href="#mea634dae38" y="1076.856459"/>
     <use style="fill:#1f77b4;stroke:#1f77b4;" x="343.47192" xlink:href="#mea634dae38" y="1116.495296"/>
     <use style="fill:#1f77b4;stroke:#1f77b4;" x="530.649927" xlink:href="#mea634dae38" y="933.873878"/>
     <use style="fill:#1f77b4;stroke:#1f77b4;" x="305.00426" xlink:href="#mea634dae38" y="1157.158927"/>
     <use style="fill:#1f77b4;stroke:#1f77b4;" x="262.470911" xlink:href="#mea634dae38" y="1201.585818"/>
     <use style="fill:#1f77b4;stroke:#1f77b4;" x="386.787131" xlink:href="#mea634dae38" y="1074.159851"/>
     <use style="fill:#1f77b4;stroke:#1f77b4;" x="649.493106" xlink:href="#mea634dae38" y="818.021731"/>
     <use style="fill:#1f77b4;stroke:#1f77b4;" x="483.738146" xlink:href="#mea634dae38" y="984.857252"/>
     <use style="fill:#1f77b4;stroke:#1f77b4;" x="274.98072" xlink:href="#mea634dae38" y="1184.784109"/>
     <use style="fill:#1f77b4;stroke:#1f77b4;" x="329.711131" xlink:href="#mea634dae38" y="1125.499043"/>
     <use style="fill:#1f77b4;stroke:#1f77b4;" x="342.377312" xlink:href="#mea634dae38" y="1117.320345"/>
     <use style="fill:#1f77b4;stroke:#1f77b4;" x="411.806748" xlink:href="#mea634dae38" y="1053.228521"/>
     <use style="fill:#1f77b4;stroke:#1f77b4;" x="352.228786" xlink:href="#mea634dae38" y="1110.88453"/>
     <use style="fill:#1f77b4;stroke:#1f77b4;" x="317.983186" xlink:href="#mea634dae38" y="1141.703317"/>
     <use style="fill:#1f77b4;stroke:#1f77b4;" x="257.310615" xlink:href="#mea634dae38" y="1205.007281"/>
     <use style="fill:#1f77b4;stroke:#1f77b4;" x="336.747898" xlink:href="#mea634dae38" y="1124.805452"/>
     <use style="fill:#1f77b4;stroke:#1f77b4;" x="504.066584" xlink:href="#mea634dae38" y="957.13206"/>
     <use style="fill:#1f77b4;stroke:#1f77b4;" x="324.707208" xlink:href="#mea634dae38" y="1136.835162"/>
     <use style="fill:#1f77b4;stroke:#1f77b4;" x="402.424392" xlink:href="#mea634dae38" y="1060.272386"/>
     <use style="fill:#1f77b4;stroke:#1f77b4;" x="360.829279" xlink:href="#mea634dae38" y="1102.840269"/>
     <use style="fill:#1f77b4;stroke:#1f77b4;" x="285.614057" xlink:href="#mea634dae38" y="1176.543734"/>
     <use style="fill:#1f77b4;stroke:#1f77b4;" x="391.47831" xlink:href="#mea634dae38" y="1072.651635"/>
     <use style="fill:#1f77b4;stroke:#1f77b4;" x="316.732205" xlink:href="#mea634dae38" y="1149.402086"/>
     <use style="fill:#1f77b4;stroke:#1f77b4;" x="307.975339" xlink:href="#mea634dae38" y="1156.0283"/>
     <use style="fill:#1f77b4;stroke:#1f77b4;" x="1001.331465" xlink:href="#mea634dae38" y="462.878459"/>
     <use style="fill:#1f77b4;stroke:#1f77b4;" x="373.964578" xlink:href="#mea634dae38" y="1085.671902"/>
     <use style="fill:#1f77b4;stroke:#1f77b4;" x="561.924448" xlink:href="#mea634dae38" y="902.99826"/>
     <use style="fill:#1f77b4;stroke:#1f77b4;" x="257.310615" xlink:href="#mea634dae38" y="1207.874219"/>
     <use style="fill:#1f77b4;stroke:#1f77b4;" x="410.243022" xlink:href="#mea634dae38" y="1048.39595"/>
     <use style="fill:#1f77b4;stroke:#1f77b4;" x="295.621903" xlink:href="#mea634dae38" y="1163.906628"/>
     <use style="fill:#1f77b4;stroke:#1f77b4;" x="366.615066" xlink:href="#mea634dae38" y="1092.648857"/>
     <use style="fill:#1f77b4;stroke:#1f77b4;" x="346.912117" xlink:href="#mea634dae38" y="1111.648582"/>
     <use style="fill:#1f77b4;stroke:#1f77b4;" x="371.149871" xlink:href="#mea634dae38" y="1091.038398"/>
     <use style="fill:#1f77b4;stroke:#1f77b4;" x="317.04495" xlink:href="#mea634dae38" y="1147.808959"/>
     <use style="fill:#1f77b4;stroke:#1f77b4;" x="346.443" xlink:href="#mea634dae38" y="1113.152028"/>
     <use style="fill:#1f77b4;stroke:#1f77b4;" x="303.127788" xlink:href="#mea634dae38" y="1160.66045"/>
     <use style="fill:#1f77b4;stroke:#1f77b4;" x="345.504764" xlink:href="#mea634dae38" y="1115.012734"/>
     <use style="fill:#1f77b4;stroke:#1f77b4;" x="269.038561" xlink:href="#mea634dae38" y="1192.646631"/>
     <use style="fill:#1f77b4;stroke:#1f77b4;" x="295.778276" xlink:href="#mea634dae38" y="1166.242446"/>
     <use style="fill:#1f77b4;stroke:#1f77b4;" x="287.803273" xlink:href="#mea634dae38" y="1175.818714"/>
     <use style="fill:#1f77b4;stroke:#1f77b4;" x="413.370474" xlink:href="#mea634dae38" y="1048.056731"/>
     <use style="fill:#1f77b4;stroke:#1f77b4;" x="302.03318" xlink:href="#mea634dae38" y="1160.028945"/>
     <use style="fill:#1f77b4;stroke:#1f77b4;" x="276.2317" xlink:href="#mea634dae38" y="1183.172497"/>
     <use style="fill:#1f77b4;stroke:#1f77b4;" x="344.722901" xlink:href="#mea634dae38" y="1110.447576"/>
     <use style="fill:#1f77b4;stroke:#1f77b4;" x="380.375855" xlink:href="#mea634dae38" y="1084.298611"/>
     <use style="fill:#1f77b4;stroke:#1f77b4;" x="380.6886" xlink:href="#mea634dae38" y="1078.400958"/>
     <use style="fill:#1f77b4;stroke:#1f77b4;" x="343.941038" xlink:href="#mea634dae38" y="1120.758517"/>
     <use style="fill:#1f77b4;stroke:#1f77b4;" x="482.17442" xlink:href="#mea634dae38" y="982.436747"/>
     <use style="fill:#1f77b4;stroke:#1f77b4;" x="369.2734" xlink:href="#mea634dae38" y="1095.861451"/>
     <use style="fill:#1f77b4;stroke:#1f77b4;" x="1245.272727" xlink:href="#mea634dae38" y="230.144444"/>
     <use style="fill:#1f77b4;stroke:#1f77b4;" x="391.47831" xlink:href="#mea634dae38" y="1073.934193"/>
     <use style="fill:#1f77b4;stroke:#1f77b4;" x="284.206703" xlink:href="#mea634dae38" y="1176.017262"/>
     <use style="fill:#1f77b4;stroke:#1f77b4;" x="373.964578" xlink:href="#mea634dae38" y="1087.182527"/>
     <use style="fill:#1f77b4;stroke:#1f77b4;" x="289.679744" xlink:href="#mea634dae38" y="1173.348972"/>
     <use style="fill:#1f77b4;stroke:#1f77b4;" x="333.307701" xlink:href="#mea634dae38" y="1133.471519"/>
     <use style="fill:#1f77b4;stroke:#1f77b4;" x="403.988118" xlink:href="#mea634dae38" y="1055.852333"/>
     <use style="fill:#1f77b4;stroke:#1f77b4;" x="320.64152" xlink:href="#mea634dae38" y="1142.744442"/>
     <use style="fill:#1f77b4;stroke:#1f77b4;" x="292.494451" xlink:href="#mea634dae38" y="1173.660592"/>
     <use style="fill:#1f77b4;stroke:#1f77b4;" x="257.310615" xlink:href="#mea634dae38" y="1202.519033"/>
     <use style="fill:#1f77b4;stroke:#1f77b4;" x="433.698913" xlink:href="#mea634dae38" y="1032.493253"/>
     <use style="fill:#1f77b4;stroke:#1f77b4;" x="474.35579" xlink:href="#mea634dae38" y="997.04036"/>
     <use style="fill:#1f77b4;stroke:#1f77b4;" x="298.123865" xlink:href="#mea634dae38" y="1158.294694"/>
     <use style="fill:#1f77b4;stroke:#1f77b4;" x="380.6886" xlink:href="#mea634dae38" y="1085.260739"/>
     <use style="fill:#1f77b4;stroke:#1f77b4;" x="235.887569" xlink:href="#mea634dae38" y="1225.799155"/>
     <use style="fill:#1f77b4;stroke:#1f77b4;" x="301.40769" xlink:href="#mea634dae38" y="1161.510687"/>
     <use style="fill:#1f77b4;stroke:#1f77b4;" x="276.857191" xlink:href="#mea634dae38" y="1187.887488"/>
     <use style="fill:#1f77b4;stroke:#1f77b4;" x="504.066584" xlink:href="#mea634dae38" y="961.228389"/>
     <use style="fill:#1f77b4;stroke:#1f77b4;" x="342.377312" xlink:href="#mea634dae38" y="1119.256359"/>
     <use style="fill:#1f77b4;stroke:#1f77b4;" x="283.42484" xlink:href="#mea634dae38" y="1178.261509"/>
     <use style="fill:#1f77b4;stroke:#1f77b4;" x="391.47831" xlink:href="#mea634dae38" y="1070.115362"/>
     <use style="fill:#1f77b4;stroke:#1f77b4;" x="281.235624" xlink:href="#mea634dae38" y="1181.061054"/>
     <use style="fill:#1f77b4;stroke:#1f77b4;" x="458.718529" xlink:href="#mea634dae38" y="1003.180283"/>
     <use style="fill:#1f77b4;stroke:#1f77b4;" x="373.964578" xlink:href="#mea634dae38" y="1088.706473"/>
     <use style="fill:#1f77b4;stroke:#1f77b4;" x="546.287188" xlink:href="#mea634dae38" y="920.943271"/>
     <use style="fill:#1f77b4;stroke:#1f77b4;" x="507.194037" xlink:href="#mea634dae38" y="955.74581"/>
     <use style="fill:#1f77b4;stroke:#1f77b4;" x="370.837126" xlink:href="#mea634dae38" y="1093.323007"/>
     <use style="fill:#1f77b4;stroke:#1f77b4;" x="328.616523" xlink:href="#mea634dae38" y="1131.512257"/>
     <use style="fill:#1f77b4;stroke:#1f77b4;" x="323.768972" xlink:href="#mea634dae38" y="1138.380063"/>
     <use style="fill:#1f77b4;stroke:#1f77b4;" x="588.507791" xlink:href="#mea634dae38" y="873.962482"/>
     <use style="fill:#1f77b4;stroke:#1f77b4;" x="317.357695" xlink:href="#mea634dae38" y="1145.779194"/>
     <use style="fill:#1f77b4;stroke:#1f77b4;" x="365.833203" xlink:href="#mea634dae38" y="1094.865823"/>
     <use style="fill:#1f77b4;stroke:#1f77b4;" x="311.259164" xlink:href="#mea634dae38" y="1151.626469"/>
     <use style="fill:#1f77b4;stroke:#1f77b4;" x="294.683668" xlink:href="#mea634dae38" y="1169.963258"/>
     <use style="fill:#1f77b4;stroke:#1f77b4;" x="330.805739" xlink:href="#mea634dae38" y="1131.088513"/>
     <use style="fill:#1f77b4;stroke:#1f77b4;" x="419.625378" xlink:href="#mea634dae38" y="1042.622974"/>
     <use style="fill:#1f77b4;stroke:#1f77b4;" x="279.046407" xlink:href="#mea634dae38" y="1183.235524"/>
     <use style="fill:#1f77b4;stroke:#1f77b4;" x="347.381235" xlink:href="#mea634dae38" y="1115.283235"/>
     <use style="fill:#1f77b4;stroke:#1f77b4;" x="319.546912" xlink:href="#mea634dae38" y="1140.43295"/>
     <use style="fill:#1f77b4;stroke:#1f77b4;" x="275.449837" xlink:href="#mea634dae38" y="1186.758628"/>
     <use style="fill:#1f77b4;stroke:#1f77b4;" x="322.205246" xlink:href="#mea634dae38" y="1140.137379"/>
     <use style="fill:#1f77b4;stroke:#1f77b4;" x="279.046407" xlink:href="#mea634dae38" y="1180.70587"/>
     <use style="fill:#1f77b4;stroke:#1f77b4;" x="334.558682" xlink:href="#mea634dae38" y="1127.418077"/>
     <use style="fill:#1f77b4;stroke:#1f77b4;" x="510.321489" xlink:href="#mea634dae38" y="958.578813"/>
    </g>
   </g>
   <g id="matplotlib.axis_1">
    <g id="xtick_1">
     <g id="line2d_1">
      <defs>
       <path d="M 0 0 
L 0 3.5 
" id="m74d96065cc" style="stroke:#000000;stroke-width:0.8;"/>
      </defs>
      <g>
       <use style="stroke:#000000;stroke-width:0.8;" x="225.723349" xlink:href="#m74d96065cc" y="1281.6"/>
      </g>
     </g>
     <g id="text_1">
      <!-- 0 -->
      <defs>
       <path d="M 31.78125 66.40625 
Q 24.171875 66.40625 20.328125 58.90625 
Q 16.5 51.421875 16.5 36.375 
Q 16.5 21.390625 20.328125 13.890625 
Q 24.171875 6.390625 31.78125 6.390625 
Q 39.453125 6.390625 43.28125 13.890625 
Q 47.125 21.390625 47.125 36.375 
Q 47.125 51.421875 43.28125 58.90625 
Q 39.453125 66.40625 31.78125 66.40625 
z
M 31.78125 74.21875 
Q 44.046875 74.21875 50.515625 64.515625 
Q 56.984375 54.828125 56.984375 36.375 
Q 56.984375 17.96875 50.515625 8.265625 
Q 44.046875 -1.421875 31.78125 -1.421875 
Q 19.53125 -1.421875 13.0625 8.265625 
Q 6.59375 17.96875 6.59375 36.375 
Q 6.59375 54.828125 13.0625 64.515625 
Q 19.53125 74.21875 31.78125 74.21875 
z
" id="DejaVuSans-30"/>
      </defs>
      <g transform="translate(216.179599 1311.395313)scale(0.3 -0.3)">
       <use xlink:href="#DejaVuSans-30"/>
      </g>
     </g>
    </g>
    <g id="xtick_2">
     <g id="line2d_2">
      <g>
       <use style="stroke:#000000;stroke-width:0.8;" x="382.095953" xlink:href="#m74d96065cc" y="1281.6"/>
      </g>
     </g>
     <g id="text_2">
      <!-- 100 -->
      <defs>
       <path d="M 12.40625 8.296875 
L 28.515625 8.296875 
L 28.515625 63.921875 
L 10.984375 60.40625 
L 10.984375 69.390625 
L 28.421875 72.90625 
L 38.28125 72.90625 
L 38.28125 8.296875 
L 54.390625 8.296875 
L 54.390625 0 
L 12.40625 0 
z
" id="DejaVuSans-31"/>
      </defs>
      <g transform="translate(353.464703 1311.395313)scale(0.3 -0.3)">
       <use xlink:href="#DejaVuSans-31"/>
       <use x="63.623047" xlink:href="#DejaVuSans-30"/>
       <use x="127.246094" xlink:href="#DejaVuSans-30"/>
      </g>
     </g>
    </g>
    <g id="xtick_3">
     <g id="line2d_3">
      <g>
       <use style="stroke:#000000;stroke-width:0.8;" x="538.468557" xlink:href="#m74d96065cc" y="1281.6"/>
      </g>
     </g>
     <g id="text_3">
      <!-- 200 -->
      <defs>
       <path d="M 19.1875 8.296875 
L 53.609375 8.296875 
L 53.609375 0 
L 7.328125 0 
L 7.328125 8.296875 
Q 12.9375 14.109375 22.625 23.890625 
Q 32.328125 33.6875 34.8125 36.53125 
Q 39.546875 41.84375 41.421875 45.53125 
Q 43.3125 49.21875 43.3125 52.78125 
Q 43.3125 58.59375 39.234375 62.25 
Q 35.15625 65.921875 28.609375 65.921875 
Q 23.96875 65.921875 18.8125 64.3125 
Q 13.671875 62.703125 7.8125 59.421875 
L 7.8125 69.390625 
Q 13.765625 71.78125 18.9375 73 
Q 24.125 74.21875 28.421875 74.21875 
Q 39.75 74.21875 46.484375 68.546875 
Q 53.21875 62.890625 53.21875 53.421875 
Q 53.21875 48.921875 51.53125 44.890625 
Q 49.859375 40.875 45.40625 35.40625 
Q 44.1875 33.984375 37.640625 27.21875 
Q 31.109375 20.453125 19.1875 8.296875 
z
" id="DejaVuSans-32"/>
      </defs>
      <g transform="translate(509.837307 1311.395313)scale(0.3 -0.3)">
       <use xlink:href="#DejaVuSans-32"/>
       <use x="63.623047" xlink:href="#DejaVuSans-30"/>
       <use x="127.246094" xlink:href="#DejaVuSans-30"/>
      </g>
     </g>
    </g>
    <g id="xtick_4">
     <g id="line2d_4">
      <g>
       <use style="stroke:#000000;stroke-width:0.8;" x="694.841161" xlink:href="#m74d96065cc" y="1281.6"/>
      </g>
     </g>
     <g id="text_4">
      <!-- 300 -->
      <defs>
       <path d="M 40.578125 39.3125 
Q 47.65625 37.796875 51.625 33 
Q 55.609375 28.21875 55.609375 21.1875 
Q 55.609375 10.40625 48.1875 4.484375 
Q 40.765625 -1.421875 27.09375 -1.421875 
Q 22.515625 -1.421875 17.65625 -0.515625 
Q 12.796875 0.390625 7.625 2.203125 
L 7.625 11.71875 
Q 11.71875 9.328125 16.59375 8.109375 
Q 21.484375 6.890625 26.8125 6.890625 
Q 36.078125 6.890625 40.9375 10.546875 
Q 45.796875 14.203125 45.796875 21.1875 
Q 45.796875 27.640625 41.28125 31.265625 
Q 36.765625 34.90625 28.71875 34.90625 
L 20.21875 34.90625 
L 20.21875 43.015625 
L 29.109375 43.015625 
Q 36.375 43.015625 40.234375 45.921875 
Q 44.09375 48.828125 44.09375 54.296875 
Q 44.09375 59.90625 40.109375 62.90625 
Q 36.140625 65.921875 28.71875 65.921875 
Q 24.65625 65.921875 20.015625 65.03125 
Q 15.375 64.15625 9.8125 62.3125 
L 9.8125 71.09375 
Q 15.4375 72.65625 20.34375 73.4375 
Q 25.25 74.21875 29.59375 74.21875 
Q 40.828125 74.21875 47.359375 69.109375 
Q 53.90625 64.015625 53.90625 55.328125 
Q 53.90625 49.265625 50.4375 45.09375 
Q 46.96875 40.921875 40.578125 39.3125 
z
" id="DejaVuSans-33"/>
      </defs>
      <g transform="translate(666.209911 1311.395313)scale(0.3 -0.3)">
       <use xlink:href="#DejaVuSans-33"/>
       <use x="63.623047" xlink:href="#DejaVuSans-30"/>
       <use x="127.246094" xlink:href="#DejaVuSans-30"/>
      </g>
     </g>
    </g>
    <g id="xtick_5">
     <g id="line2d_5">
      <g>
       <use style="stroke:#000000;stroke-width:0.8;" x="851.213765" xlink:href="#m74d96065cc" y="1281.6"/>
      </g>
     </g>
     <g id="text_5">
      <!-- 400 -->
      <defs>
       <path d="M 37.796875 64.3125 
L 12.890625 25.390625 
L 37.796875 25.390625 
z
M 35.203125 72.90625 
L 47.609375 72.90625 
L 47.609375 25.390625 
L 58.015625 25.390625 
L 58.015625 17.1875 
L 47.609375 17.1875 
L 47.609375 0 
L 37.796875 0 
L 37.796875 17.1875 
L 4.890625 17.1875 
L 4.890625 26.703125 
z
" id="DejaVuSans-34"/>
      </defs>
      <g transform="translate(822.582515 1311.395313)scale(0.3 -0.3)">
       <use xlink:href="#DejaVuSans-34"/>
       <use x="63.623047" xlink:href="#DejaVuSans-30"/>
       <use x="127.246094" xlink:href="#DejaVuSans-30"/>
      </g>
     </g>
    </g>
    <g id="xtick_6">
     <g id="line2d_6">
      <g>
       <use style="stroke:#000000;stroke-width:0.8;" x="1007.586369" xlink:href="#m74d96065cc" y="1281.6"/>
      </g>
     </g>
     <g id="text_6">
      <!-- 500 -->
      <defs>
       <path d="M 10.796875 72.90625 
L 49.515625 72.90625 
L 49.515625 64.59375 
L 19.828125 64.59375 
L 19.828125 46.734375 
Q 21.96875 47.46875 24.109375 47.828125 
Q 26.265625 48.1875 28.421875 48.1875 
Q 40.625 48.1875 47.75 41.5 
Q 54.890625 34.8125 54.890625 23.390625 
Q 54.890625 11.625 47.5625 5.09375 
Q 40.234375 -1.421875 26.90625 -1.421875 
Q 22.3125 -1.421875 17.546875 -0.640625 
Q 12.796875 0.140625 7.71875 1.703125 
L 7.71875 11.625 
Q 12.109375 9.234375 16.796875 8.0625 
Q 21.484375 6.890625 26.703125 6.890625 
Q 35.15625 6.890625 40.078125 11.328125 
Q 45.015625 15.765625 45.015625 23.390625 
Q 45.015625 31 40.078125 35.4375 
Q 35.15625 39.890625 26.703125 39.890625 
Q 22.75 39.890625 18.8125 39.015625 
Q 14.890625 38.140625 10.796875 36.28125 
z
" id="DejaVuSans-35"/>
      </defs>
      <g transform="translate(978.955119 1311.395313)scale(0.3 -0.3)">
       <use xlink:href="#DejaVuSans-35"/>
       <use x="63.623047" xlink:href="#DejaVuSans-30"/>
       <use x="127.246094" xlink:href="#DejaVuSans-30"/>
      </g>
     </g>
    </g>
    <g id="xtick_7">
     <g id="line2d_7">
      <g>
       <use style="stroke:#000000;stroke-width:0.8;" x="1163.958973" xlink:href="#m74d96065cc" y="1281.6"/>
      </g>
     </g>
     <g id="text_7">
      <!-- 600 -->
      <defs>
       <path d="M 33.015625 40.375 
Q 26.375 40.375 22.484375 35.828125 
Q 18.609375 31.296875 18.609375 23.390625 
Q 18.609375 15.53125 22.484375 10.953125 
Q 26.375 6.390625 33.015625 6.390625 
Q 39.65625 6.390625 43.53125 10.953125 
Q 47.40625 15.53125 47.40625 23.390625 
Q 47.40625 31.296875 43.53125 35.828125 
Q 39.65625 40.375 33.015625 40.375 
z
M 52.59375 71.296875 
L 52.59375 62.3125 
Q 48.875 64.0625 45.09375 64.984375 
Q 41.3125 65.921875 37.59375 65.921875 
Q 27.828125 65.921875 22.671875 59.328125 
Q 17.53125 52.734375 16.796875 39.40625 
Q 19.671875 43.65625 24.015625 45.921875 
Q 28.375 48.1875 33.59375 48.1875 
Q 44.578125 48.1875 50.953125 41.515625 
Q 57.328125 34.859375 57.328125 23.390625 
Q 57.328125 12.15625 50.6875 5.359375 
Q 44.046875 -1.421875 33.015625 -1.421875 
Q 20.359375 -1.421875 13.671875 8.265625 
Q 6.984375 17.96875 6.984375 36.375 
Q 6.984375 53.65625 15.1875 63.9375 
Q 23.390625 74.21875 37.203125 74.21875 
Q 40.921875 74.21875 44.703125 73.484375 
Q 48.484375 72.75 52.59375 71.296875 
z
" id="DejaVuSans-36"/>
      </defs>
      <g transform="translate(1135.327723 1311.395313)scale(0.3 -0.3)">
       <use xlink:href="#DejaVuSans-36"/>
       <use x="63.623047" xlink:href="#DejaVuSans-30"/>
       <use x="127.246094" xlink:href="#DejaVuSans-30"/>
      </g>
     </g>
    </g>
    <g id="text_8">
     <!-- Y Test -->
     <defs>
      <path d="M -0.203125 72.90625 
L 10.40625 72.90625 
L 30.609375 42.921875 
L 50.6875 72.90625 
L 61.28125 72.90625 
L 35.5 34.71875 
L 35.5 0 
L 25.59375 0 
L 25.59375 34.71875 
z
" id="DejaVuSans-59"/>
      <path id="DejaVuSans-20"/>
      <path d="M -0.296875 72.90625 
L 61.375 72.90625 
L 61.375 64.59375 
L 35.5 64.59375 
L 35.5 0 
L 25.59375 0 
L 25.59375 64.59375 
L -0.296875 64.59375 
z
" id="DejaVuSans-54"/>
      <path d="M 56.203125 29.59375 
L 56.203125 25.203125 
L 14.890625 25.203125 
Q 15.484375 15.921875 20.484375 11.0625 
Q 25.484375 6.203125 34.421875 6.203125 
Q 39.59375 6.203125 44.453125 7.46875 
Q 49.3125 8.734375 54.109375 11.28125 
L 54.109375 2.78125 
Q 49.265625 0.734375 44.1875 -0.34375 
Q 39.109375 -1.421875 33.890625 -1.421875 
Q 20.796875 -1.421875 13.15625 6.1875 
Q 5.515625 13.8125 5.515625 26.8125 
Q 5.515625 40.234375 12.765625 48.109375 
Q 20.015625 56 32.328125 56 
Q 43.359375 56 49.78125 48.890625 
Q 56.203125 41.796875 56.203125 29.59375 
z
M 47.21875 32.234375 
Q 47.125 39.59375 43.09375 43.984375 
Q 39.0625 48.390625 32.421875 48.390625 
Q 24.90625 48.390625 20.390625 44.140625 
Q 15.875 39.890625 15.1875 32.171875 
z
" id="DejaVuSans-65"/>
      <path d="M 44.28125 53.078125 
L 44.28125 44.578125 
Q 40.484375 46.53125 36.375 47.5 
Q 32.28125 48.484375 27.875 48.484375 
Q 21.1875 48.484375 17.84375 46.4375 
Q 14.5 44.390625 14.5 40.28125 
Q 14.5 37.15625 16.890625 35.375 
Q 19.28125 33.59375 26.515625 31.984375 
L 29.59375 31.296875 
Q 39.15625 29.25 43.1875 25.515625 
Q 47.21875 21.78125 47.21875 15.09375 
Q 47.21875 7.46875 41.1875 3.015625 
Q 35.15625 -1.421875 24.609375 -1.421875 
Q 20.21875 -1.421875 15.453125 -0.5625 
Q 10.6875 0.296875 5.421875 2 
L 5.421875 11.28125 
Q 10.40625 8.6875 15.234375 7.390625 
Q 20.0625 6.109375 24.8125 6.109375 
Q 31.15625 6.109375 34.5625 8.28125 
Q 37.984375 10.453125 37.984375 14.40625 
Q 37.984375 18.0625 35.515625 20.015625 
Q 33.0625 21.96875 24.703125 23.78125 
L 21.578125 24.515625 
Q 13.234375 26.265625 9.515625 29.90625 
Q 5.8125 33.546875 5.8125 39.890625 
Q 5.8125 47.609375 11.28125 51.796875 
Q 16.75 56 26.8125 56 
Q 31.78125 56 36.171875 55.265625 
Q 40.578125 54.546875 44.28125 53.078125 
z
" id="DejaVuSans-73"/>
      <path d="M 18.3125 70.21875 
L 18.3125 54.6875 
L 36.8125 54.6875 
L 36.8125 47.703125 
L 18.3125 47.703125 
L 18.3125 18.015625 
Q 18.3125 11.328125 20.140625 9.421875 
Q 21.96875 7.515625 27.59375 7.515625 
L 36.8125 7.515625 
L 36.8125 0 
L 27.59375 0 
Q 17.1875 0 13.234375 3.875 
Q 9.28125 7.765625 9.28125 18.015625 
L 9.28125 47.703125 
L 2.6875 47.703125 
L 2.6875 54.6875 
L 9.28125 54.6875 
L 9.28125 70.21875 
z
" id="DejaVuSans-74"/>
     </defs>
     <g transform="translate(692.025 1344.429688)scale(0.3 -0.3)">
      <use xlink:href="#DejaVuSans-59"/>
      <use x="61.083984" xlink:href="#DejaVuSans-20"/>
      <use x="92.871094" xlink:href="#DejaVuSans-54"/>
      <use x="153.689453" xlink:href="#DejaVuSans-65"/>
      <use x="215.212891" xlink:href="#DejaVuSans-73"/>
      <use x="267.3125" xlink:href="#DejaVuSans-74"/>
     </g>
    </g>
   </g>
   <g id="matplotlib.axis_2">
    <g id="ytick_1">
     <g id="line2d_8">
      <defs>
       <path d="M 0 0 
L -3.5 0 
" id="mac21129ea9" style="stroke:#000000;stroke-width:0.8;"/>
      </defs>
      <g>
       <use style="stroke:#000000;stroke-width:0.8;" x="180" xlink:href="#mac21129ea9" y="1236.17164"/>
      </g>
     </g>
     <g id="text_9">
      <!-- 0 -->
      <g transform="translate(153.9125 1247.569296)scale(0.3 -0.3)">
       <use xlink:href="#DejaVuSans-30"/>
      </g>
     </g>
    </g>
    <g id="ytick_2">
     <g id="line2d_9">
      <g>
       <use style="stroke:#000000;stroke-width:0.8;" x="180" xlink:href="#mac21129ea9" y="1080.807891"/>
      </g>
     </g>
     <g id="text_10">
      <!-- 100 -->
      <g transform="translate(115.7375 1092.205548)scale(0.3 -0.3)">
       <use xlink:href="#DejaVuSans-31"/>
       <use x="63.623047" xlink:href="#DejaVuSans-30"/>
       <use x="127.246094" xlink:href="#DejaVuSans-30"/>
      </g>
     </g>
    </g>
    <g id="ytick_3">
     <g id="line2d_10">
      <g>
       <use style="stroke:#000000;stroke-width:0.8;" x="180" xlink:href="#mac21129ea9" y="925.444143"/>
      </g>
     </g>
     <g id="text_11">
      <!-- 200 -->
      <g transform="translate(115.7375 936.841799)scale(0.3 -0.3)">
       <use xlink:href="#DejaVuSans-32"/>
       <use x="63.623047" xlink:href="#DejaVuSans-30"/>
       <use x="127.246094" xlink:href="#DejaVuSans-30"/>
      </g>
     </g>
    </g>
    <g id="ytick_4">
     <g id="line2d_11">
      <g>
       <use style="stroke:#000000;stroke-width:0.8;" x="180" xlink:href="#mac21129ea9" y="770.080395"/>
      </g>
     </g>
     <g id="text_12">
      <!-- 300 -->
      <g transform="translate(115.7375 781.478051)scale(0.3 -0.3)">
       <use xlink:href="#DejaVuSans-33"/>
       <use x="63.623047" xlink:href="#DejaVuSans-30"/>
       <use x="127.246094" xlink:href="#DejaVuSans-30"/>
      </g>
     </g>
    </g>
    <g id="ytick_5">
     <g id="line2d_12">
      <g>
       <use style="stroke:#000000;stroke-width:0.8;" x="180" xlink:href="#mac21129ea9" y="614.716646"/>
      </g>
     </g>
     <g id="text_13">
      <!-- 400 -->
      <g transform="translate(115.7375 626.114302)scale(0.3 -0.3)">
       <use xlink:href="#DejaVuSans-34"/>
       <use x="63.623047" xlink:href="#DejaVuSans-30"/>
       <use x="127.246094" xlink:href="#DejaVuSans-30"/>
      </g>
     </g>
    </g>
    <g id="ytick_6">
     <g id="line2d_13">
      <g>
       <use style="stroke:#000000;stroke-width:0.8;" x="180" xlink:href="#mac21129ea9" y="459.352898"/>
      </g>
     </g>
     <g id="text_14">
      <!-- 500 -->
      <g transform="translate(115.7375 470.750554)scale(0.3 -0.3)">
       <use xlink:href="#DejaVuSans-35"/>
       <use x="63.623047" xlink:href="#DejaVuSans-30"/>
       <use x="127.246094" xlink:href="#DejaVuSans-30"/>
      </g>
     </g>
    </g>
    <g id="ytick_7">
     <g id="line2d_14">
      <g>
       <use style="stroke:#000000;stroke-width:0.8;" x="180" xlink:href="#mac21129ea9" y="303.989149"/>
      </g>
     </g>
     <g id="text_15">
      <!-- 600 -->
      <g transform="translate(115.7375 315.386805)scale(0.3 -0.3)">
       <use xlink:href="#DejaVuSans-36"/>
       <use x="63.623047" xlink:href="#DejaVuSans-30"/>
       <use x="127.246094" xlink:href="#DejaVuSans-30"/>
      </g>
     </g>
    </g>
    <g id="text_16">
     <!-- Y Predicted -->
     <defs>
      <path d="M 19.671875 64.796875 
L 19.671875 37.40625 
L 32.078125 37.40625 
Q 38.96875 37.40625 42.71875 40.96875 
Q 46.484375 44.53125 46.484375 51.125 
Q 46.484375 57.671875 42.71875 61.234375 
Q 38.96875 64.796875 32.078125 64.796875 
z
M 9.8125 72.90625 
L 32.078125 72.90625 
Q 44.34375 72.90625 50.609375 67.359375 
Q 56.890625 61.8125 56.890625 51.125 
Q 56.890625 40.328125 50.609375 34.8125 
Q 44.34375 29.296875 32.078125 29.296875 
L 19.671875 29.296875 
L 19.671875 0 
L 9.8125 0 
z
" id="DejaVuSans-50"/>
      <path d="M 41.109375 46.296875 
Q 39.59375 47.171875 37.8125 47.578125 
Q 36.03125 48 33.890625 48 
Q 26.265625 48 22.1875 43.046875 
Q 18.109375 38.09375 18.109375 28.8125 
L 18.109375 0 
L 9.078125 0 
L 9.078125 54.6875 
L 18.109375 54.6875 
L 18.109375 46.1875 
Q 20.953125 51.171875 25.484375 53.578125 
Q 30.03125 56 36.53125 56 
Q 37.453125 56 38.578125 55.875 
Q 39.703125 55.765625 41.0625 55.515625 
z
" id="DejaVuSans-72"/>
      <path d="M 45.40625 46.390625 
L 45.40625 75.984375 
L 54.390625 75.984375 
L 54.390625 0 
L 45.40625 0 
L 45.40625 8.203125 
Q 42.578125 3.328125 38.25 0.953125 
Q 33.9375 -1.421875 27.875 -1.421875 
Q 17.96875 -1.421875 11.734375 6.484375 
Q 5.515625 14.40625 5.515625 27.296875 
Q 5.515625 40.1875 11.734375 48.09375 
Q 17.96875 56 27.875 56 
Q 33.9375 56 38.25 53.625 
Q 42.578125 51.265625 45.40625 46.390625 
z
M 14.796875 27.296875 
Q 14.796875 17.390625 18.875 11.75 
Q 22.953125 6.109375 30.078125 6.109375 
Q 37.203125 6.109375 41.296875 11.75 
Q 45.40625 17.390625 45.40625 27.296875 
Q 45.40625 37.203125 41.296875 42.84375 
Q 37.203125 48.484375 30.078125 48.484375 
Q 22.953125 48.484375 18.875 42.84375 
Q 14.796875 37.203125 14.796875 27.296875 
z
" id="DejaVuSans-64"/>
      <path d="M 9.421875 54.6875 
L 18.40625 54.6875 
L 18.40625 0 
L 9.421875 0 
z
M 9.421875 75.984375 
L 18.40625 75.984375 
L 18.40625 64.59375 
L 9.421875 64.59375 
z
" id="DejaVuSans-69"/>
      <path d="M 48.78125 52.59375 
L 48.78125 44.1875 
Q 44.96875 46.296875 41.140625 47.34375 
Q 37.3125 48.390625 33.40625 48.390625 
Q 24.65625 48.390625 19.8125 42.84375 
Q 14.984375 37.3125 14.984375 27.296875 
Q 14.984375 17.28125 19.8125 11.734375 
Q 24.65625 6.203125 33.40625 6.203125 
Q 37.3125 6.203125 41.140625 7.25 
Q 44.96875 8.296875 48.78125 10.40625 
L 48.78125 2.09375 
Q 45.015625 0.34375 40.984375 -0.53125 
Q 36.96875 -1.421875 32.421875 -1.421875 
Q 20.0625 -1.421875 12.78125 6.34375 
Q 5.515625 14.109375 5.515625 27.296875 
Q 5.515625 40.671875 12.859375 48.328125 
Q 20.21875 56 33.015625 56 
Q 37.15625 56 41.109375 55.140625 
Q 45.0625 54.296875 48.78125 52.59375 
z
" id="DejaVuSans-63"/>
     </defs>
     <g transform="translate(105.498437 812.132812)rotate(-90)scale(0.3 -0.3)">
      <use xlink:href="#DejaVuSans-59"/>
      <use x="61.083984" xlink:href="#DejaVuSans-20"/>
      <use x="92.871094" xlink:href="#DejaVuSans-50"/>
      <use x="153.158203" xlink:href="#DejaVuSans-72"/>
      <use x="194.240234" xlink:href="#DejaVuSans-65"/>
      <use x="255.763672" xlink:href="#DejaVuSans-64"/>
      <use x="319.240234" xlink:href="#DejaVuSans-69"/>
      <use x="347.023438" xlink:href="#DejaVuSans-63"/>
      <use x="402.003906" xlink:href="#DejaVuSans-74"/>
      <use x="441.212891" xlink:href="#DejaVuSans-65"/>
      <use x="502.736328" xlink:href="#DejaVuSans-64"/>
     </g>
    </g>
   </g>
   <g id="line2d_15">
    <path clip-path="url(#p1c5d96f4e3)" d="M 180 1281.6 
L 1296 172.8 
" style="fill:none;stroke:#1f77b4;stroke-dasharray:5.55,2.4;stroke-dashoffset:0;stroke-width:1.5;"/>
   </g>
   <g id="patch_3">
    <path d="M 180 1281.6 
L 180 172.8 
" style="fill:none;stroke:#000000;stroke-linecap:square;stroke-linejoin:miter;stroke-width:0.8;"/>
   </g>
   <g id="patch_4">
    <path d="M 1296 1281.6 
L 1296 172.8 
" style="fill:none;stroke:#000000;stroke-linecap:square;stroke-linejoin:miter;stroke-width:0.8;"/>
   </g>
   <g id="patch_5">
    <path d="M 180 1281.6 
L 1296 1281.6 
" style="fill:none;stroke:#000000;stroke-linecap:square;stroke-linejoin:miter;stroke-width:0.8;"/>
   </g>
   <g id="patch_6">
    <path d="M 180 172.8 
L 1296 172.8 
" style="fill:none;stroke:#000000;stroke-linecap:square;stroke-linejoin:miter;stroke-width:0.8;"/>
   </g>
   <g id="text_17">
    <!-- Ridge_TPSA -->
    <defs>
     <path d="M 44.390625 34.1875 
Q 47.5625 33.109375 50.5625 29.59375 
Q 53.5625 26.078125 56.59375 19.921875 
L 66.609375 0 
L 56 0 
L 46.6875 18.703125 
Q 43.0625 26.03125 39.671875 28.421875 
Q 36.28125 30.8125 30.421875 30.8125 
L 19.671875 30.8125 
L 19.671875 0 
L 9.8125 0 
L 9.8125 72.90625 
L 32.078125 72.90625 
Q 44.578125 72.90625 50.734375 67.671875 
Q 56.890625 62.453125 56.890625 51.90625 
Q 56.890625 45.015625 53.6875 40.46875 
Q 50.484375 35.9375 44.390625 34.1875 
z
M 19.671875 64.796875 
L 19.671875 38.921875 
L 32.078125 38.921875 
Q 39.203125 38.921875 42.84375 42.21875 
Q 46.484375 45.515625 46.484375 51.90625 
Q 46.484375 58.296875 42.84375 61.546875 
Q 39.203125 64.796875 32.078125 64.796875 
z
" id="DejaVuSans-52"/>
     <path d="M 45.40625 27.984375 
Q 45.40625 37.75 41.375 43.109375 
Q 37.359375 48.484375 30.078125 48.484375 
Q 22.859375 48.484375 18.828125 43.109375 
Q 14.796875 37.75 14.796875 27.984375 
Q 14.796875 18.265625 18.828125 12.890625 
Q 22.859375 7.515625 30.078125 7.515625 
Q 37.359375 7.515625 41.375 12.890625 
Q 45.40625 18.265625 45.40625 27.984375 
z
M 54.390625 6.78125 
Q 54.390625 -7.171875 48.1875 -13.984375 
Q 42 -20.796875 29.203125 -20.796875 
Q 24.46875 -20.796875 20.265625 -20.09375 
Q 16.0625 -19.390625 12.109375 -17.921875 
L 12.109375 -9.1875 
Q 16.0625 -11.328125 19.921875 -12.34375 
Q 23.78125 -13.375 27.78125 -13.375 
Q 36.625 -13.375 41.015625 -8.765625 
Q 45.40625 -4.15625 45.40625 5.171875 
L 45.40625 9.625 
Q 42.625 4.78125 38.28125 2.390625 
Q 33.9375 0 27.875 0 
Q 17.828125 0 11.671875 7.65625 
Q 5.515625 15.328125 5.515625 27.984375 
Q 5.515625 40.671875 11.671875 48.328125 
Q 17.828125 56 27.875 56 
Q 33.9375 56 38.28125 53.609375 
Q 42.625 51.21875 45.40625 46.390625 
L 45.40625 54.6875 
L 54.390625 54.6875 
z
" id="DejaVuSans-67"/>
     <path d="M 50.984375 -16.609375 
L 50.984375 -23.578125 
L -0.984375 -23.578125 
L -0.984375 -16.609375 
z
" id="DejaVuSans-5f"/>
     <path d="M 53.515625 70.515625 
L 53.515625 60.890625 
Q 47.90625 63.578125 42.921875 64.890625 
Q 37.9375 66.21875 33.296875 66.21875 
Q 25.25 66.21875 20.875 63.09375 
Q 16.5 59.96875 16.5 54.203125 
Q 16.5 49.359375 19.40625 46.890625 
Q 22.3125 44.4375 30.421875 42.921875 
L 36.375 41.703125 
Q 47.40625 39.59375 52.65625 34.296875 
Q 57.90625 29 57.90625 20.125 
Q 57.90625 9.515625 50.796875 4.046875 
Q 43.703125 -1.421875 29.984375 -1.421875 
Q 24.8125 -1.421875 18.96875 -0.25 
Q 13.140625 0.921875 6.890625 3.21875 
L 6.890625 13.375 
Q 12.890625 10.015625 18.65625 8.296875 
Q 24.421875 6.59375 29.984375 6.59375 
Q 38.421875 6.59375 43.015625 9.90625 
Q 47.609375 13.234375 47.609375 19.390625 
Q 47.609375 24.75 44.3125 27.78125 
Q 41.015625 30.8125 33.5 32.328125 
L 27.484375 33.5 
Q 16.453125 35.6875 11.515625 40.375 
Q 6.59375 45.0625 6.59375 53.421875 
Q 6.59375 63.09375 13.40625 68.65625 
Q 20.21875 74.21875 32.171875 74.21875 
Q 37.3125 74.21875 42.625 73.28125 
Q 47.953125 72.359375 53.515625 70.515625 
z
" id="DejaVuSans-53"/>
     <path d="M 34.1875 63.1875 
L 20.796875 26.90625 
L 47.609375 26.90625 
z
M 28.609375 72.90625 
L 39.796875 72.90625 
L 67.578125 0 
L 57.328125 0 
L 50.6875 18.703125 
L 17.828125 18.703125 
L 11.1875 0 
L 0.78125 0 
z
" id="DejaVuSans-41"/>
    </defs>
    <g transform="translate(631.971563 166.8)scale(0.36 -0.36)">
     <use xlink:href="#DejaVuSans-52"/>
     <use x="69.482422" xlink:href="#DejaVuSans-69"/>
     <use x="97.265625" xlink:href="#DejaVuSans-64"/>
     <use x="160.742188" xlink:href="#DejaVuSans-67"/>
     <use x="224.21875" xlink:href="#DejaVuSans-65"/>
     <use x="285.742188" xlink:href="#DejaVuSans-5f"/>
     <use x="335.742188" xlink:href="#DejaVuSans-54"/>
     <use x="396.826172" xlink:href="#DejaVuSans-50"/>
     <use x="457.128906" xlink:href="#DejaVuSans-53"/>
     <use x="520.621094" xlink:href="#DejaVuSans-41"/>
    </g>
   </g>
  </g>
 </g>
 <defs>
  <clipPath id="p1c5d96f4e3">
   <rect height="1108.8" width="1116" x="180" y="172.8"/>
  </clipPath>
 </defs>
</svg>
