<?xml version="1.0" encoding="utf-8" standalone="no"?>
<!DOCTYPE svg PUBLIC "-//W3C//DTD SVG 1.1//EN"
  "http://www.w3.org/Graphics/SVG/1.1/DTD/svg11.dtd">
<!-- Created with matplotlib (http://matplotlib.org/) -->
<svg height="1440pt" version="1.1" viewBox="0 0 1440 1440" width="1440pt" xmlns="http://www.w3.org/2000/svg" xmlns:xlink="http://www.w3.org/1999/xlink">
 <defs>
  <style type="text/css">
*{stroke-linecap:butt;stroke-linejoin:round;}
  </style>
 </defs>
 <g id="figure_1">
  <g id="patch_1">
   <path d="M 0 1440 
L 1440 1440 
L 1440 0 
L 0 0 
z
" style="fill:#ffffff;"/>
  </g>
  <g id="axes_1">
   <g id="patch_2">
    <path d="M 180 1281.6 
L 1296 1281.6 
L 1296 172.8 
L 180 172.8 
z
" style="fill:#ffffff;"/>
   </g>
   <g id="PathCollection_1">
    <defs>
     <path d="M 0 3 
C 0.795609 3 1.55874 2.683901 2.12132 2.12132 
C 2.683901 1.55874 3 0.795609 3 0 
C 3 -0.795609 2.683901 -1.55874 2.12132 -2.12132 
C 1.55874 -2.683901 0.795609 -3 0 -3 
C -0.795609 -3 -1.55874 -2.683901 -2.12132 -2.12132 
C -2.683901 -1.55874 -3 -0.795609 -3 0 
C -3 0.795609 -2.683901 1.55874 -2.12132 2.12132 
C -1.55874 2.683901 -0.795609 3 0 3 
z
" id="ma6179a8072" style="stroke:#1f77b4;"/>
    </defs>
    <g clip-path="url(#pdc7e41745e)">
     <use style="fill:#1f77b4;stroke:#1f77b4;" x="824.091652" xlink:href="#ma6179a8072" y="578.144329"/>
     <use style="fill:#1f77b4;stroke:#1f77b4;" x="985.7994" xlink:href="#ma6179a8072" y="481.391064"/>
     <use style="fill:#1f77b4;stroke:#1f77b4;" x="994.783164" xlink:href="#ma6179a8072" y="460.102303"/>
     <use style="fill:#1f77b4;stroke:#1f77b4;" x="824.091652" xlink:href="#ma6179a8072" y="654.060298"/>
     <use style="fill:#1f77b4;stroke:#1f77b4;" x="869.010471" xlink:href="#ma6179a8072" y="608.347802"/>
     <use style="fill:#1f77b4;stroke:#1f77b4;" x="918.421172" xlink:href="#ma6179a8072" y="590.710842"/>
     <use style="fill:#1f77b4;stroke:#1f77b4;" x="954.356227" xlink:href="#ma6179a8072" y="585.863365"/>
     <use style="fill:#1f77b4;stroke:#1f77b4;" x="931.896818" xlink:href="#ma6179a8072" y="515.496978"/>
     <use style="fill:#1f77b4;stroke:#1f77b4;" x="936.3887" xlink:href="#ma6179a8072" y="502.793737"/>
     <use style="fill:#1f77b4;stroke:#1f77b4;" x="1048.685747" xlink:href="#ma6179a8072" y="439.017118"/>
     <use style="fill:#1f77b4;stroke:#1f77b4;" x="945.372463" xlink:href="#ma6179a8072" y="532.5253"/>
     <use style="fill:#1f77b4;stroke:#1f77b4;" x="1003.766928" xlink:href="#ma6179a8072" y="464.691164"/>
     <use style="fill:#1f77b4;stroke:#1f77b4;" x="675.85955" xlink:href="#ma6179a8072" y="737.18193"/>
     <use style="fill:#1f77b4;stroke:#1f77b4;" x="765.697188" xlink:href="#ma6179a8072" y="609.350958"/>
     <use style="fill:#1f77b4;stroke:#1f77b4;" x="846.551062" xlink:href="#ma6179a8072" y="632.572783"/>
     <use style="fill:#1f77b4;stroke:#1f77b4;" x="972.323755" xlink:href="#ma6179a8072" y="410.158749"/>
     <use style="fill:#1f77b4;stroke:#1f77b4;" x="918.421172" xlink:href="#ma6179a8072" y="565.053415"/>
     <use style="fill:#1f77b4;stroke:#1f77b4;" x="954.356227" xlink:href="#ma6179a8072" y="588.62274"/>
     <use style="fill:#1f77b4;stroke:#1f77b4;" x="828.583534" xlink:href="#ma6179a8072" y="653.068879"/>
     <use style="fill:#1f77b4;stroke:#1f77b4;" x="940.880582" xlink:href="#ma6179a8072" y="466.301809"/>
     <use style="fill:#1f77b4;stroke:#1f77b4;" x="972.323755" xlink:href="#ma6179a8072" y="529.496314"/>
     <use style="fill:#1f77b4;stroke:#1f77b4;" x="680.351432" xlink:href="#ma6179a8072" y="691.039197"/>
     <use style="fill:#1f77b4;stroke:#1f77b4;" x="882.486117" xlink:href="#ma6179a8072" y="622.360367"/>
     <use style="fill:#1f77b4;stroke:#1f77b4;" x="918.421172" xlink:href="#ma6179a8072" y="536.240911"/>
     <use style="fill:#1f77b4;stroke:#1f77b4;" x="806.124125" xlink:href="#ma6179a8072" y="664.221661"/>
     <use style="fill:#1f77b4;stroke:#1f77b4;" x="1151.99903" xlink:href="#ma6179a8072" y="473.933155"/>
     <use style="fill:#1f77b4;stroke:#1f77b4;" x="954.356227" xlink:href="#ma6179a8072" y="439.191279"/>
     <use style="fill:#1f77b4;stroke:#1f77b4;" x="1012.750692" xlink:href="#ma6179a8072" y="466.954174"/>
     <use style="fill:#1f77b4;stroke:#1f77b4;" x="824.091652" xlink:href="#ma6179a8072" y="561.59108"/>
     <use style="fill:#1f77b4;stroke:#1f77b4;" x="945.372463" xlink:href="#ma6179a8072" y="500.517614"/>
     <use style="fill:#1f77b4;stroke:#1f77b4;" x="860.026707" xlink:href="#ma6179a8072" y="581.489198"/>
     <use style="fill:#1f77b4;stroke:#1f77b4;" x="855.534826" xlink:href="#ma6179a8072" y="606.775842"/>
     <use style="fill:#1f77b4;stroke:#1f77b4;" x="900.453645" xlink:href="#ma6179a8072" y="541.084213"/>
     <use style="fill:#1f77b4;stroke:#1f77b4;" x="765.697188" xlink:href="#ma6179a8072" y="625.555274"/>
     <use style="fill:#1f77b4;stroke:#1f77b4;" x="927.404936" xlink:href="#ma6179a8072" y="465.468221"/>
     <use style="fill:#1f77b4;stroke:#1f77b4;" x="824.091652" xlink:href="#ma6179a8072" y="652.638824"/>
     <use style="fill:#1f77b4;stroke:#1f77b4;" x="1035.210101" xlink:href="#ma6179a8072" y="393.7649"/>
     <use style="fill:#1f77b4;stroke:#1f77b4;" x="882.486117" xlink:href="#ma6179a8072" y="497.084732"/>
     <use style="fill:#1f77b4;stroke:#1f77b4;" x="913.92929" xlink:href="#ma6179a8072" y="602.419328"/>
     <use style="fill:#1f77b4;stroke:#1f77b4;" x="945.372463" xlink:href="#ma6179a8072" y="543.980431"/>
     <use style="fill:#1f77b4;stroke:#1f77b4;" x="675.85955" xlink:href="#ma6179a8072" y="753.769909"/>
     <use style="fill:#1f77b4;stroke:#1f77b4;" x="869.010471" xlink:href="#ma6179a8072" y="568.550042"/>
     <use style="fill:#1f77b4;stroke:#1f77b4;" x="1107.080212" xlink:href="#ma6179a8072" y="415.09759"/>
     <use style="fill:#1f77b4;stroke:#1f77b4;" x="985.7994" xlink:href="#ma6179a8072" y="510.167801"/>
     <use style="fill:#1f77b4;stroke:#1f77b4;" x="833.075416" xlink:href="#ma6179a8072" y="640.6893"/>
     <use style="fill:#1f77b4;stroke:#1f77b4;" x="886.977999" xlink:href="#ma6179a8072" y="575.506338"/>
     <use style="fill:#1f77b4;stroke:#1f77b4;" x="1003.766928" xlink:href="#ma6179a8072" y="489.284015"/>
     <use style="fill:#1f77b4;stroke:#1f77b4;" x="972.323755" xlink:href="#ma6179a8072" y="467.85158"/>
     <use style="fill:#1f77b4;stroke:#1f77b4;" x="999.275046" xlink:href="#ma6179a8072" y="516.240818"/>
     <use style="fill:#1f77b4;stroke:#1f77b4;" x="869.010471" xlink:href="#ma6179a8072" y="654.445584"/>
     <use style="fill:#1f77b4;stroke:#1f77b4;" x="994.783164" xlink:href="#ma6179a8072" y="485.870097"/>
     <use style="fill:#1f77b4;stroke:#1f77b4;" x="976.815637" xlink:href="#ma6179a8072" y="437.464999"/>
     <use style="fill:#1f77b4;stroke:#1f77b4;" x="1012.750692" xlink:href="#ma6179a8072" y="452.793231"/>
     <use style="fill:#1f77b4;stroke:#1f77b4;" x="860.026707" xlink:href="#ma6179a8072" y="599.770042"/>
     <use style="fill:#1f77b4;stroke:#1f77b4;" x="1053.177629" xlink:href="#ma6179a8072" y="385.456628"/>
     <use style="fill:#1f77b4;stroke:#1f77b4;" x="747.72966" xlink:href="#ma6179a8072" y="611.819222"/>
     <use style="fill:#1f77b4;stroke:#1f77b4;" x="940.880582" xlink:href="#ma6179a8072" y="536.816876"/>
     <use style="fill:#1f77b4;stroke:#1f77b4;" x="1053.177629" xlink:href="#ma6179a8072" y="427.592179"/>
     <use style="fill:#1f77b4;stroke:#1f77b4;" x="761.205306" xlink:href="#ma6179a8072" y="715.677057"/>
     <use style="fill:#1f77b4;stroke:#1f77b4;" x="904.945526" xlink:href="#ma6179a8072" y="576.998793"/>
     <use style="fill:#1f77b4;stroke:#1f77b4;" x="882.486117" xlink:href="#ma6179a8072" y="553.577658"/>
     <use style="fill:#1f77b4;stroke:#1f77b4;" x="976.815637" xlink:href="#ma6179a8072" y="569.92879"/>
     <use style="fill:#1f77b4;stroke:#1f77b4;" x="747.72966" xlink:href="#ma6179a8072" y="638.181088"/>
     <use style="fill:#1f77b4;stroke:#1f77b4;" x="990.291282" xlink:href="#ma6179a8072" y="470.92959"/>
     <use style="fill:#1f77b4;stroke:#1f77b4;" x="860.026707" xlink:href="#ma6179a8072" y="570.879225"/>
     <use style="fill:#1f77b4;stroke:#1f77b4;" x="765.697188" xlink:href="#ma6179a8072" y="597.115946"/>
     <use style="fill:#1f77b4;stroke:#1f77b4;" x="895.961763" xlink:href="#ma6179a8072" y="550.101256"/>
     <use style="fill:#1f77b4;stroke:#1f77b4;" x="828.583534" xlink:href="#ma6179a8072" y="649.102812"/>
     <use style="fill:#1f77b4;stroke:#1f77b4;" x="869.010471" xlink:href="#ma6179a8072" y="628.054274"/>
     <use style="fill:#1f77b4;stroke:#1f77b4;" x="877.994235" xlink:href="#ma6179a8072" y="597.13381"/>
     <use style="fill:#1f77b4;stroke:#1f77b4;" x="949.864345" xlink:href="#ma6179a8072" y="496.598987"/>
     <use style="fill:#1f77b4;stroke:#1f77b4;" x="949.864345" xlink:href="#ma6179a8072" y="464.227056"/>
     <use style="fill:#1f77b4;stroke:#1f77b4;" x="967.831873" xlink:href="#ma6179a8072" y="504.420267"/>
     <use style="fill:#1f77b4;stroke:#1f77b4;" x="788.156597" xlink:href="#ma6179a8072" y="657.785293"/>
     <use style="fill:#1f77b4;stroke:#1f77b4;" x="958.848109" xlink:href="#ma6179a8072" y="566.300341"/>
     <use style="fill:#1f77b4;stroke:#1f77b4;" x="999.275046" xlink:href="#ma6179a8072" y="497.635207"/>
     <use style="fill:#1f77b4;stroke:#1f77b4;" x="833.075416" xlink:href="#ma6179a8072" y="648.016099"/>
     <use style="fill:#1f77b4;stroke:#1f77b4;" x="954.356227" xlink:href="#ma6179a8072" y="505.123652"/>
     <use style="fill:#1f77b4;stroke:#1f77b4;" x="945.372463" xlink:href="#ma6179a8072" y="548.905603"/>
     <use style="fill:#1f77b4;stroke:#1f77b4;" x="864.518589" xlink:href="#ma6179a8072" y="549.714663"/>
     <use style="fill:#1f77b4;stroke:#1f77b4;" x="958.848109" xlink:href="#ma6179a8072" y="461.802353"/>
     <use style="fill:#1f77b4;stroke:#1f77b4;" x="1134.031503" xlink:href="#ma6179a8072" y="363.137856"/>
     <use style="fill:#1f77b4;stroke:#1f77b4;" x="869.010471" xlink:href="#ma6179a8072" y="504.035241"/>
     <use style="fill:#1f77b4;stroke:#1f77b4;" x="801.632243" xlink:href="#ma6179a8072" y="700.867049"/>
     <use style="fill:#1f77b4;stroke:#1f77b4;" x="927.404936" xlink:href="#ma6179a8072" y="551.561434"/>
     <use style="fill:#1f77b4;stroke:#1f77b4;" x="909.437408" xlink:href="#ma6179a8072" y="623.248681"/>
     <use style="fill:#1f77b4;stroke:#1f77b4;" x="972.323755" xlink:href="#ma6179a8072" y="469.671058"/>
     <use style="fill:#1f77b4;stroke:#1f77b4;" x="1026.226337" xlink:href="#ma6179a8072" y="454.391476"/>
     <use style="fill:#1f77b4;stroke:#1f77b4;" x="922.913054" xlink:href="#ma6179a8072" y="483.17079"/>
     <use style="fill:#1f77b4;stroke:#1f77b4;" x="940.880582" xlink:href="#ma6179a8072" y="601.640138"/>
     <use style="fill:#1f77b4;stroke:#1f77b4;" x="927.404936" xlink:href="#ma6179a8072" y="542.038517"/>
     <use style="fill:#1f77b4;stroke:#1f77b4;" x="976.815637" xlink:href="#ma6179a8072" y="500.260808"/>
     <use style="fill:#1f77b4;stroke:#1f77b4;" x="1017.242574" xlink:href="#ma6179a8072" y="426.513103"/>
     <use style="fill:#1f77b4;stroke:#1f77b4;" x="842.05918" xlink:href="#ma6179a8072" y="516.974593"/>
     <use style="fill:#1f77b4;stroke:#1f77b4;" x="698.318959" xlink:href="#ma6179a8072" y="735.246783"/>
     <use style="fill:#1f77b4;stroke:#1f77b4;" x="1003.766928" xlink:href="#ma6179a8072" y="466.171031"/>
     <use style="fill:#1f77b4;stroke:#1f77b4;" x="824.091652" xlink:href="#ma6179a8072" y="674.063339"/>
     <use style="fill:#1f77b4;stroke:#1f77b4;" x="882.486117" xlink:href="#ma6179a8072" y="551.303525"/>
     <use style="fill:#1f77b4;stroke:#1f77b4;" x="1044.193865" xlink:href="#ma6179a8072" y="400.593492"/>
     <use style="fill:#1f77b4;stroke:#1f77b4;" x="788.156597" xlink:href="#ma6179a8072" y="670.821266"/>
     <use style="fill:#1f77b4;stroke:#1f77b4;" x="967.831873" xlink:href="#ma6179a8072" y="490.293164"/>
     <use style="fill:#1f77b4;stroke:#1f77b4;" x="972.323755" xlink:href="#ma6179a8072" y="500.453858"/>
     <use style="fill:#1f77b4;stroke:#1f77b4;" x="900.453645" xlink:href="#ma6179a8072" y="597.650212"/>
     <use style="fill:#1f77b4;stroke:#1f77b4;" x="972.323755" xlink:href="#ma6179a8072" y="469.671058"/>
     <use style="fill:#1f77b4;stroke:#1f77b4;" x="842.05918" xlink:href="#ma6179a8072" y="699.216746"/>
     <use style="fill:#1f77b4;stroke:#1f77b4;" x="801.632243" xlink:href="#ma6179a8072" y="681.158365"/>
     <use style="fill:#1f77b4;stroke:#1f77b4;" x="931.896818" xlink:href="#ma6179a8072" y="578.977936"/>
     <use style="fill:#1f77b4;stroke:#1f77b4;" x="927.404936" xlink:href="#ma6179a8072" y="563.654908"/>
     <use style="fill:#1f77b4;stroke:#1f77b4;" x="958.848109" xlink:href="#ma6179a8072" y="482.611646"/>
     <use style="fill:#1f77b4;stroke:#1f77b4;" x="931.896818" xlink:href="#ma6179a8072" y="518.401437"/>
     <use style="fill:#1f77b4;stroke:#1f77b4;" x="1003.766928" xlink:href="#ma6179a8072" y="474.284685"/>
     <use style="fill:#1f77b4;stroke:#1f77b4;" x="801.632243" xlink:href="#ma6179a8072" y="617.064631"/>
     <use style="fill:#1f77b4;stroke:#1f77b4;" x="954.356227" xlink:href="#ma6179a8072" y="473.181755"/>
     <use style="fill:#1f77b4;stroke:#1f77b4;" x="1084.620802" xlink:href="#ma6179a8072" y="466.413527"/>
     <use style="fill:#1f77b4;stroke:#1f77b4;" x="612.973203" xlink:href="#ma6179a8072" y="743.254937"/>
     <use style="fill:#1f77b4;stroke:#1f77b4;" x="900.453645" xlink:href="#ma6179a8072" y="570.498456"/>
     <use style="fill:#1f77b4;stroke:#1f77b4;" x="936.3887" xlink:href="#ma6179a8072" y="544.296839"/>
     <use style="fill:#1f77b4;stroke:#1f77b4;" x="752.221542" xlink:href="#ma6179a8072" y="636.097098"/>
     <use style="fill:#1f77b4;stroke:#1f77b4;" x="729.762133" xlink:href="#ma6179a8072" y="743.79917"/>
     <use style="fill:#1f77b4;stroke:#1f77b4;" x="909.437408" xlink:href="#ma6179a8072" y="577.532288"/>
     <use style="fill:#1f77b4;stroke:#1f77b4;" x="877.994235" xlink:href="#ma6179a8072" y="579.438299"/>
     <use style="fill:#1f77b4;stroke:#1f77b4;" x="985.7994" xlink:href="#ma6179a8072" y="639.074613"/>
     <use style="fill:#1f77b4;stroke:#1f77b4;" x="1021.734456" xlink:href="#ma6179a8072" y="511.469254"/>
     <use style="fill:#1f77b4;stroke:#1f77b4;" x="900.453645" xlink:href="#ma6179a8072" y="605.233331"/>
     <use style="fill:#1f77b4;stroke:#1f77b4;" x="913.92929" xlink:href="#ma6179a8072" y="506.901883"/>
     <use style="fill:#1f77b4;stroke:#1f77b4;" x="1003.766928" xlink:href="#ma6179a8072" y="515.201491"/>
     <use style="fill:#1f77b4;stroke:#1f77b4;" x="886.977999" xlink:href="#ma6179a8072" y="641.331635"/>
     <use style="fill:#1f77b4;stroke:#1f77b4;" x="729.762133" xlink:href="#ma6179a8072" y="695.452087"/>
     <use style="fill:#1f77b4;stroke:#1f77b4;" x="967.831873" xlink:href="#ma6179a8072" y="525.952849"/>
     <use style="fill:#1f77b4;stroke:#1f77b4;" x="846.551062" xlink:href="#ma6179a8072" y="713.139437"/>
     <use style="fill:#1f77b4;stroke:#1f77b4;" x="1169.966558" xlink:href="#ma6179a8072" y="428.27336"/>
     <use style="fill:#1f77b4;stroke:#1f77b4;" x="945.372463" xlink:href="#ma6179a8072" y="554.47125"/>
     <use style="fill:#1f77b4;stroke:#1f77b4;" x="1008.25881" xlink:href="#ma6179a8072" y="502.75645"/>
     <use style="fill:#1f77b4;stroke:#1f77b4;" x="1075.637038" xlink:href="#ma6179a8072" y="442.317972"/>
     <use style="fill:#1f77b4;stroke:#1f77b4;" x="842.05918" xlink:href="#ma6179a8072" y="521.622917"/>
     <use style="fill:#1f77b4;stroke:#1f77b4;" x="922.913054" xlink:href="#ma6179a8072" y="530.981232"/>
     <use style="fill:#1f77b4;stroke:#1f77b4;" x="707.302723" xlink:href="#ma6179a8072" y="637.795258"/>
     <use style="fill:#1f77b4;stroke:#1f77b4;" x="954.356227" xlink:href="#ma6179a8072" y="498.445489"/>
     <use style="fill:#1f77b4;stroke:#1f77b4;" x="662.383904" xlink:href="#ma6179a8072" y="754.951399"/>
     <use style="fill:#1f77b4;stroke:#1f77b4;" x="1205.901613" xlink:href="#ma6179a8072" y="223.2"/>
     <use style="fill:#1f77b4;stroke:#1f77b4;" x="1125.047739" xlink:href="#ma6179a8072" y="313.616543"/>
     <use style="fill:#1f77b4;stroke:#1f77b4;" x="882.486117" xlink:href="#ma6179a8072" y="497.96287"/>
     <use style="fill:#1f77b4;stroke:#1f77b4;" x="1003.766928" xlink:href="#ma6179a8072" y="551.568832"/>
     <use style="fill:#1f77b4;stroke:#1f77b4;" x="972.323755" xlink:href="#ma6179a8072" y="519.918275"/>
     <use style="fill:#1f77b4;stroke:#1f77b4;" x="882.486117" xlink:href="#ma6179a8072" y="601.587738"/>
     <use style="fill:#1f77b4;stroke:#1f77b4;" x="931.896818" xlink:href="#ma6179a8072" y="550.177823"/>
     <use style="fill:#1f77b4;stroke:#1f77b4;" x="877.994235" xlink:href="#ma6179a8072" y="610.418059"/>
     <use style="fill:#1f77b4;stroke:#1f77b4;" x="904.945526" xlink:href="#ma6179a8072" y="596.236347"/>
     <use style="fill:#1f77b4;stroke:#1f77b4;" x="1084.620802" xlink:href="#ma6179a8072" y="341.186225"/>
     <use style="fill:#1f77b4;stroke:#1f77b4;" x="900.453645" xlink:href="#ma6179a8072" y="562.479952"/>
     <use style="fill:#1f77b4;stroke:#1f77b4;" x="1008.25881" xlink:href="#ma6179a8072" y="491.516172"/>
     <use style="fill:#1f77b4;stroke:#1f77b4;" x="837.567298" xlink:href="#ma6179a8072" y="486.008377"/>
     <use style="fill:#1f77b4;stroke:#1f77b4;" x="783.664715" xlink:href="#ma6179a8072" y="631.579504"/>
     <use style="fill:#1f77b4;stroke:#1f77b4;" x="886.977999" xlink:href="#ma6179a8072" y="799.375889"/>
     <use style="fill:#1f77b4;stroke:#1f77b4;" x="976.815637" xlink:href="#ma6179a8072" y="509.885332"/>
     <use style="fill:#1f77b4;stroke:#1f77b4;" x="918.421172" xlink:href="#ma6179a8072" y="546.375471"/>
     <use style="fill:#1f77b4;stroke:#1f77b4;" x="904.945526" xlink:href="#ma6179a8072" y="543.031953"/>
     <use style="fill:#1f77b4;stroke:#1f77b4;" x="922.913054" xlink:href="#ma6179a8072" y="495.990509"/>
     <use style="fill:#1f77b4;stroke:#1f77b4;" x="1008.25881" xlink:href="#ma6179a8072" y="573.231248"/>
     <use style="fill:#1f77b4;stroke:#1f77b4;" x="869.010471" xlink:href="#ma6179a8072" y="562.682772"/>
     <use style="fill:#1f77b4;stroke:#1f77b4;" x="985.7994" xlink:href="#ma6179a8072" y="501.278663"/>
     <use style="fill:#1f77b4;stroke:#1f77b4;" x="864.518589" xlink:href="#ma6179a8072" y="597.555713"/>
     <use style="fill:#1f77b4;stroke:#1f77b4;" x="936.3887" xlink:href="#ma6179a8072" y="438.426952"/>
     <use style="fill:#1f77b4;stroke:#1f77b4;" x="1003.766928" xlink:href="#ma6179a8072" y="508.092337"/>
     <use style="fill:#1f77b4;stroke:#1f77b4;" x="976.815637" xlink:href="#ma6179a8072" y="571.710043"/>
     <use style="fill:#1f77b4;stroke:#1f77b4;" x="967.831873" xlink:href="#ma6179a8072" y="482.489995"/>
     <use style="fill:#1f77b4;stroke:#1f77b4;" x="824.091652" xlink:href="#ma6179a8072" y="577.809506"/>
     <use style="fill:#1f77b4;stroke:#1f77b4;" x="810.616007" xlink:href="#ma6179a8072" y="626.931748"/>
     <use style="fill:#1f77b4;stroke:#1f77b4;" x="774.680952" xlink:href="#ma6179a8072" y="705.009875"/>
     <use style="fill:#1f77b4;stroke:#1f77b4;" x="1048.685747" xlink:href="#ma6179a8072" y="402.832261"/>
     <use style="fill:#1f77b4;stroke:#1f77b4;" x="747.72966" xlink:href="#ma6179a8072" y="725.127687"/>
     <use style="fill:#1f77b4;stroke:#1f77b4;" x="940.880582" xlink:href="#ma6179a8072" y="542.00223"/>
     <use style="fill:#1f77b4;stroke:#1f77b4;" x="994.783164" xlink:href="#ma6179a8072" y="548.833655"/>
     <use style="fill:#1f77b4;stroke:#1f77b4;" x="895.961763" xlink:href="#ma6179a8072" y="597.870559"/>
     <use style="fill:#1f77b4;stroke:#1f77b4;" x="882.486117" xlink:href="#ma6179a8072" y="481.81386"/>
     <use style="fill:#1f77b4;stroke:#1f77b4;" x="886.977999" xlink:href="#ma6179a8072" y="557.32624"/>
     <use style="fill:#1f77b4;stroke:#1f77b4;" x="913.92929" xlink:href="#ma6179a8072" y="622.069127"/>
     <use style="fill:#1f77b4;stroke:#1f77b4;" x="985.7994" xlink:href="#ma6179a8072" y="446.172699"/>
     <use style="fill:#1f77b4;stroke:#1f77b4;" x="855.534826" xlink:href="#ma6179a8072" y="586.306024"/>
     <use style="fill:#1f77b4;stroke:#1f77b4;" x="855.534826" xlink:href="#ma6179a8072" y="599.377095"/>
     <use style="fill:#1f77b4;stroke:#1f77b4;" x="931.896818" xlink:href="#ma6179a8072" y="515.486487"/>
     <use style="fill:#1f77b4;stroke:#1f77b4;" x="1008.25881" xlink:href="#ma6179a8072" y="482.061797"/>
     <use style="fill:#1f77b4;stroke:#1f77b4;" x="819.59977" xlink:href="#ma6179a8072" y="684.305782"/>
     <use style="fill:#1f77b4;stroke:#1f77b4;" x="1102.58833" xlink:href="#ma6179a8072" y="438.020731"/>
     <use style="fill:#1f77b4;stroke:#1f77b4;" x="1021.734456" xlink:href="#ma6179a8072" y="440.227627"/>
     <use style="fill:#1f77b4;stroke:#1f77b4;" x="972.323755" xlink:href="#ma6179a8072" y="571.420525"/>
     <use style="fill:#1f77b4;stroke:#1f77b4;" x="954.356227" xlink:href="#ma6179a8072" y="509.958569"/>
     <use style="fill:#1f77b4;stroke:#1f77b4;" x="1003.766928" xlink:href="#ma6179a8072" y="468.226929"/>
     <use style="fill:#1f77b4;stroke:#1f77b4;" x="900.453645" xlink:href="#ma6179a8072" y="547.195842"/>
     <use style="fill:#1f77b4;stroke:#1f77b4;" x="765.697188" xlink:href="#ma6179a8072" y="544.12436"/>
     <use style="fill:#1f77b4;stroke:#1f77b4;" x="734.254015" xlink:href="#ma6179a8072" y="694.489138"/>
     <use style="fill:#1f77b4;stroke:#1f77b4;" x="958.848109" xlink:href="#ma6179a8072" y="523.861519"/>
     <use style="fill:#1f77b4;stroke:#1f77b4;" x="985.7994" xlink:href="#ma6179a8072" y="505.912716"/>
     <use style="fill:#1f77b4;stroke:#1f77b4;" x="801.632243" xlink:href="#ma6179a8072" y="713.973208"/>
     <use style="fill:#1f77b4;stroke:#1f77b4;" x="761.205306" xlink:href="#ma6179a8072" y="715.565451"/>
     <use style="fill:#1f77b4;stroke:#1f77b4;" x="329.984644" xlink:href="#ma6179a8072" y="1231.2"/>
     <use style="fill:#1f77b4;stroke:#1f77b4;" x="855.534826" xlink:href="#ma6179a8072" y="646.977209"/>
     <use style="fill:#1f77b4;stroke:#1f77b4;" x="851.042944" xlink:href="#ma6179a8072" y="584.903311"/>
     <use style="fill:#1f77b4;stroke:#1f77b4;" x="891.469881" xlink:href="#ma6179a8072" y="607.119066"/>
     <use style="fill:#1f77b4;stroke:#1f77b4;" x="895.961763" xlink:href="#ma6179a8072" y="541.863893"/>
     <use style="fill:#1f77b4;stroke:#1f77b4;" x="819.59977" xlink:href="#ma6179a8072" y="560.067321"/>
     <use style="fill:#1f77b4;stroke:#1f77b4;" x="900.453645" xlink:href="#ma6179a8072" y="484.972933"/>
     <use style="fill:#1f77b4;stroke:#1f77b4;" x="1044.193865" xlink:href="#ma6179a8072" y="472.697051"/>
     <use style="fill:#1f77b4;stroke:#1f77b4;" x="1156.490912" xlink:href="#ma6179a8072" y="369.912107"/>
     <use style="fill:#1f77b4;stroke:#1f77b4;" x="1053.177629" xlink:href="#ma6179a8072" y="504.196149"/>
     <use style="fill:#1f77b4;stroke:#1f77b4;" x="1062.161393" xlink:href="#ma6179a8072" y="493.234853"/>
     <use style="fill:#1f77b4;stroke:#1f77b4;" x="1026.226337" xlink:href="#ma6179a8072" y="419.675523"/>
     <use style="fill:#1f77b4;stroke:#1f77b4;" x="927.404936" xlink:href="#ma6179a8072" y="556.876613"/>
     <use style="fill:#1f77b4;stroke:#1f77b4;" x="761.205306" xlink:href="#ma6179a8072" y="759.145801"/>
     <use style="fill:#1f77b4;stroke:#1f77b4;" x="1075.637038" xlink:href="#ma6179a8072" y="384.110946"/>
     <use style="fill:#1f77b4;stroke:#1f77b4;" x="931.896818" xlink:href="#ma6179a8072" y="457.539452"/>
     <use style="fill:#1f77b4;stroke:#1f77b4;" x="994.783164" xlink:href="#ma6179a8072" y="436.42239"/>
     <use style="fill:#1f77b4;stroke:#1f77b4;" x="819.59977" xlink:href="#ma6179a8072" y="574.436984"/>
     <use style="fill:#1f77b4;stroke:#1f77b4;" x="927.404936" xlink:href="#ma6179a8072" y="547.986936"/>
     <use style="fill:#1f77b4;stroke:#1f77b4;" x="931.896818" xlink:href="#ma6179a8072" y="482.229427"/>
     <use style="fill:#1f77b4;stroke:#1f77b4;" x="828.583534" xlink:href="#ma6179a8072" y="576.116301"/>
     <use style="fill:#1f77b4;stroke:#1f77b4;" x="963.339991" xlink:href="#ma6179a8072" y="500.833812"/>
     <use style="fill:#1f77b4;stroke:#1f77b4;" x="945.372463" xlink:href="#ma6179a8072" y="583.728552"/>
     <use style="fill:#1f77b4;stroke:#1f77b4;" x="886.977999" xlink:href="#ma6179a8072" y="572.193579"/>
     <use style="fill:#1f77b4;stroke:#1f77b4;" x="1080.12892" xlink:href="#ma6179a8072" y="340.461075"/>
     <use style="fill:#1f77b4;stroke:#1f77b4;" x="994.783164" xlink:href="#ma6179a8072" y="516.118592"/>
     <use style="fill:#1f77b4;stroke:#1f77b4;" x="922.913054" xlink:href="#ma6179a8072" y="568.836954"/>
     <use style="fill:#1f77b4;stroke:#1f77b4;" x="815.107889" xlink:href="#ma6179a8072" y="562.516745"/>
     <use style="fill:#1f77b4;stroke:#1f77b4;" x="860.026707" xlink:href="#ma6179a8072" y="496.636472"/>
     <use style="fill:#1f77b4;stroke:#1f77b4;" x="788.156597" xlink:href="#ma6179a8072" y="682.597874"/>
     <use style="fill:#1f77b4;stroke:#1f77b4;" x="963.339991" xlink:href="#ma6179a8072" y="489.626021"/>
     <use style="fill:#1f77b4;stroke:#1f77b4;" x="900.453645" xlink:href="#ma6179a8072" y="596.314211"/>
     <use style="fill:#1f77b4;stroke:#1f77b4;" x="797.140361" xlink:href="#ma6179a8072" y="694.064649"/>
     <use style="fill:#1f77b4;stroke:#1f77b4;" x="864.518589" xlink:href="#ma6179a8072" y="612.159179"/>
     <use style="fill:#1f77b4;stroke:#1f77b4;" x="779.172833" xlink:href="#ma6179a8072" y="662.629058"/>
     <use style="fill:#1f77b4;stroke:#1f77b4;" x="671.367668" xlink:href="#ma6179a8072" y="736.039555"/>
     <use style="fill:#1f77b4;stroke:#1f77b4;" x="913.92929" xlink:href="#ma6179a8072" y="529.609403"/>
     <use style="fill:#1f77b4;stroke:#1f77b4;" x="936.3887" xlink:href="#ma6179a8072" y="563.537262"/>
     <use style="fill:#1f77b4;stroke:#1f77b4;" x="900.453645" xlink:href="#ma6179a8072" y="517.26506"/>
     <use style="fill:#1f77b4;stroke:#1f77b4;" x="1017.242574" xlink:href="#ma6179a8072" y="474.532484"/>
     <use style="fill:#1f77b4;stroke:#1f77b4;" x="913.92929" xlink:href="#ma6179a8072" y="520.709833"/>
     <use style="fill:#1f77b4;stroke:#1f77b4;" x="954.356227" xlink:href="#ma6179a8072" y="487.714178"/>
     <use style="fill:#1f77b4;stroke:#1f77b4;" x="666.875786" xlink:href="#ma6179a8072" y="705.102475"/>
     <use style="fill:#1f77b4;stroke:#1f77b4;" x="837.567298" xlink:href="#ma6179a8072" y="576.461542"/>
    </g>
   </g>
   <g id="matplotlib.axis_1">
    <g id="xtick_1">
     <g id="line2d_1">
      <defs>
       <path d="M 0 0 
L 0 3.5 
" id="m8cdc1c7786" style="stroke:#000000;stroke-width:0.8;"/>
      </defs>
      <g>
       <use style="stroke:#000000;stroke-width:0.8;" x="365.919699" xlink:href="#m8cdc1c7786" y="1281.6"/>
      </g>
     </g>
     <g id="text_1">
      <!-- −10 -->
      <defs>
       <path d="M 10.59375 35.5 
L 73.1875 35.5 
L 73.1875 27.203125 
L 10.59375 27.203125 
z
" id="DejaVuSans-2212"/>
       <path d="M 12.40625 8.296875 
L 28.515625 8.296875 
L 28.515625 63.921875 
L 10.984375 60.40625 
L 10.984375 69.390625 
L 28.421875 72.90625 
L 38.28125 72.90625 
L 38.28125 8.296875 
L 54.390625 8.296875 
L 54.390625 0 
L 12.40625 0 
z
" id="DejaVuSans-31"/>
       <path d="M 31.78125 66.40625 
Q 24.171875 66.40625 20.328125 58.90625 
Q 16.5 51.421875 16.5 36.375 
Q 16.5 21.390625 20.328125 13.890625 
Q 24.171875 6.390625 31.78125 6.390625 
Q 39.453125 6.390625 43.28125 13.890625 
Q 47.125 21.390625 47.125 36.375 
Q 47.125 51.421875 43.28125 58.90625 
Q 39.453125 66.40625 31.78125 66.40625 
z
M 31.78125 74.21875 
Q 44.046875 74.21875 50.515625 64.515625 
Q 56.984375 54.828125 56.984375 36.375 
Q 56.984375 17.96875 50.515625 8.265625 
Q 44.046875 -1.421875 31.78125 -1.421875 
Q 19.53125 -1.421875 13.0625 8.265625 
Q 6.59375 17.96875 6.59375 36.375 
Q 6.59375 54.828125 13.0625 64.515625 
Q 19.53125 74.21875 31.78125 74.21875 
z
" id="DejaVuSans-30"/>
      </defs>
      <g transform="translate(334.262668 1311.395313)scale(0.3 -0.3)">
       <use xlink:href="#DejaVuSans-2212"/>
       <use x="83.789062" xlink:href="#DejaVuSans-31"/>
       <use x="147.412109" xlink:href="#DejaVuSans-30"/>
      </g>
     </g>
    </g>
    <g id="xtick_2">
     <g id="line2d_2">
      <g>
       <use style="stroke:#000000;stroke-width:0.8;" x="590.513794" xlink:href="#m8cdc1c7786" y="1281.6"/>
      </g>
     </g>
     <g id="text_2">
      <!-- −5 -->
      <defs>
       <path d="M 10.796875 72.90625 
L 49.515625 72.90625 
L 49.515625 64.59375 
L 19.828125 64.59375 
L 19.828125 46.734375 
Q 21.96875 47.46875 24.109375 47.828125 
Q 26.265625 48.1875 28.421875 48.1875 
Q 40.625 48.1875 47.75 41.5 
Q 54.890625 34.8125 54.890625 23.390625 
Q 54.890625 11.625 47.5625 5.09375 
Q 40.234375 -1.421875 26.90625 -1.421875 
Q 22.3125 -1.421875 17.546875 -0.640625 
Q 12.796875 0.140625 7.71875 1.703125 
L 7.71875 11.625 
Q 12.109375 9.234375 16.796875 8.0625 
Q 21.484375 6.890625 26.703125 6.890625 
Q 35.15625 6.890625 40.078125 11.328125 
Q 45.015625 15.765625 45.015625 23.390625 
Q 45.015625 31 40.078125 35.4375 
Q 35.15625 39.890625 26.703125 39.890625 
Q 22.75 39.890625 18.8125 39.015625 
Q 14.890625 38.140625 10.796875 36.28125 
z
" id="DejaVuSans-35"/>
      </defs>
      <g transform="translate(568.400513 1311.395313)scale(0.3 -0.3)">
       <use xlink:href="#DejaVuSans-2212"/>
       <use x="83.789062" xlink:href="#DejaVuSans-35"/>
      </g>
     </g>
    </g>
    <g id="xtick_3">
     <g id="line2d_3">
      <g>
       <use style="stroke:#000000;stroke-width:0.8;" x="815.107889" xlink:href="#m8cdc1c7786" y="1281.6"/>
      </g>
     </g>
     <g id="text_3">
      <!-- 0 -->
      <g transform="translate(805.564139 1311.395313)scale(0.3 -0.3)">
       <use xlink:href="#DejaVuSans-30"/>
      </g>
     </g>
    </g>
    <g id="xtick_4">
     <g id="line2d_4">
      <g>
       <use style="stroke:#000000;stroke-width:0.8;" x="1039.701983" xlink:href="#m8cdc1c7786" y="1281.6"/>
      </g>
     </g>
     <g id="text_4">
      <!-- 5 -->
      <g transform="translate(1030.158233 1311.395313)scale(0.3 -0.3)">
       <use xlink:href="#DejaVuSans-35"/>
      </g>
     </g>
    </g>
    <g id="xtick_5">
     <g id="line2d_5">
      <g>
       <use style="stroke:#000000;stroke-width:0.8;" x="1264.296078" xlink:href="#m8cdc1c7786" y="1281.6"/>
      </g>
     </g>
     <g id="text_5">
      <!-- 10 -->
      <g transform="translate(1245.208578 1311.395313)scale(0.3 -0.3)">
       <use xlink:href="#DejaVuSans-31"/>
       <use x="63.623047" xlink:href="#DejaVuSans-30"/>
      </g>
     </g>
    </g>
    <g id="text_6">
     <!-- Y Test -->
     <defs>
      <path d="M -0.203125 72.90625 
L 10.40625 72.90625 
L 30.609375 42.921875 
L 50.6875 72.90625 
L 61.28125 72.90625 
L 35.5 34.71875 
L 35.5 0 
L 25.59375 0 
L 25.59375 34.71875 
z
" id="DejaVuSans-59"/>
      <path id="DejaVuSans-20"/>
      <path d="M -0.296875 72.90625 
L 61.375 72.90625 
L 61.375 64.59375 
L 35.5 64.59375 
L 35.5 0 
L 25.59375 0 
L 25.59375 64.59375 
L -0.296875 64.59375 
z
" id="DejaVuSans-54"/>
      <path d="M 56.203125 29.59375 
L 56.203125 25.203125 
L 14.890625 25.203125 
Q 15.484375 15.921875 20.484375 11.0625 
Q 25.484375 6.203125 34.421875 6.203125 
Q 39.59375 6.203125 44.453125 7.46875 
Q 49.3125 8.734375 54.109375 11.28125 
L 54.109375 2.78125 
Q 49.265625 0.734375 44.1875 -0.34375 
Q 39.109375 -1.421875 33.890625 -1.421875 
Q 20.796875 -1.421875 13.15625 6.1875 
Q 5.515625 13.8125 5.515625 26.8125 
Q 5.515625 40.234375 12.765625 48.109375 
Q 20.015625 56 32.328125 56 
Q 43.359375 56 49.78125 48.890625 
Q 56.203125 41.796875 56.203125 29.59375 
z
M 47.21875 32.234375 
Q 47.125 39.59375 43.09375 43.984375 
Q 39.0625 48.390625 32.421875 48.390625 
Q 24.90625 48.390625 20.390625 44.140625 
Q 15.875 39.890625 15.1875 32.171875 
z
" id="DejaVuSans-65"/>
      <path d="M 44.28125 53.078125 
L 44.28125 44.578125 
Q 40.484375 46.53125 36.375 47.5 
Q 32.28125 48.484375 27.875 48.484375 
Q 21.1875 48.484375 17.84375 46.4375 
Q 14.5 44.390625 14.5 40.28125 
Q 14.5 37.15625 16.890625 35.375 
Q 19.28125 33.59375 26.515625 31.984375 
L 29.59375 31.296875 
Q 39.15625 29.25 43.1875 25.515625 
Q 47.21875 21.78125 47.21875 15.09375 
Q 47.21875 7.46875 41.1875 3.015625 
Q 35.15625 -1.421875 24.609375 -1.421875 
Q 20.21875 -1.421875 15.453125 -0.5625 
Q 10.6875 0.296875 5.421875 2 
L 5.421875 11.28125 
Q 10.40625 8.6875 15.234375 7.390625 
Q 20.0625 6.109375 24.8125 6.109375 
Q 31.15625 6.109375 34.5625 8.28125 
Q 37.984375 10.453125 37.984375 14.40625 
Q 37.984375 18.0625 35.515625 20.015625 
Q 33.0625 21.96875 24.703125 23.78125 
L 21.578125 24.515625 
Q 13.234375 26.265625 9.515625 29.90625 
Q 5.8125 33.546875 5.8125 39.890625 
Q 5.8125 47.609375 11.28125 51.796875 
Q 16.75 56 26.8125 56 
Q 31.78125 56 36.171875 55.265625 
Q 40.578125 54.546875 44.28125 53.078125 
z
" id="DejaVuSans-73"/>
      <path d="M 18.3125 70.21875 
L 18.3125 54.6875 
L 36.8125 54.6875 
L 36.8125 47.703125 
L 18.3125 47.703125 
L 18.3125 18.015625 
Q 18.3125 11.328125 20.140625 9.421875 
Q 21.96875 7.515625 27.59375 7.515625 
L 36.8125 7.515625 
L 36.8125 0 
L 27.59375 0 
Q 17.1875 0 13.234375 3.875 
Q 9.28125 7.765625 9.28125 18.015625 
L 9.28125 47.703125 
L 2.6875 47.703125 
L 2.6875 54.6875 
L 9.28125 54.6875 
L 9.28125 70.21875 
z
" id="DejaVuSans-74"/>
     </defs>
     <g transform="translate(692.025 1344.429688)scale(0.3 -0.3)">
      <use xlink:href="#DejaVuSans-59"/>
      <use x="61.083984" xlink:href="#DejaVuSans-20"/>
      <use x="92.871094" xlink:href="#DejaVuSans-54"/>
      <use x="153.689453" xlink:href="#DejaVuSans-65"/>
      <use x="215.212891" xlink:href="#DejaVuSans-73"/>
      <use x="267.3125" xlink:href="#DejaVuSans-74"/>
     </g>
    </g>
   </g>
   <g id="matplotlib.axis_2">
    <g id="ytick_1">
     <g id="line2d_6">
      <defs>
       <path d="M 0 0 
L -3.5 0 
" id="me5c1265d05" style="stroke:#000000;stroke-width:0.8;"/>
      </defs>
      <g>
       <use style="stroke:#000000;stroke-width:0.8;" x="180" xlink:href="#me5c1265d05" y="1096.879782"/>
      </g>
     </g>
     <g id="text_7">
      <!-- −10 -->
      <g transform="translate(109.685937 1108.277439)scale(0.3 -0.3)">
       <use xlink:href="#DejaVuSans-2212"/>
       <use x="83.789062" xlink:href="#DejaVuSans-31"/>
       <use x="147.412109" xlink:href="#DejaVuSans-30"/>
      </g>
     </g>
    </g>
    <g id="ytick_2">
     <g id="line2d_7">
      <g>
       <use style="stroke:#000000;stroke-width:0.8;" x="180" xlink:href="#me5c1265d05" y="873.734682"/>
      </g>
     </g>
     <g id="text_8">
      <!-- −5 -->
      <g transform="translate(128.773438 885.132338)scale(0.3 -0.3)">
       <use xlink:href="#DejaVuSans-2212"/>
       <use x="83.789062" xlink:href="#DejaVuSans-35"/>
      </g>
     </g>
    </g>
    <g id="ytick_3">
     <g id="line2d_8">
      <g>
       <use style="stroke:#000000;stroke-width:0.8;" x="180" xlink:href="#me5c1265d05" y="650.589582"/>
      </g>
     </g>
     <g id="text_9">
      <!-- 0 -->
      <g transform="translate(153.9125 661.987238)scale(0.3 -0.3)">
       <use xlink:href="#DejaVuSans-30"/>
      </g>
     </g>
    </g>
    <g id="ytick_4">
     <g id="line2d_9">
      <g>
       <use style="stroke:#000000;stroke-width:0.8;" x="180" xlink:href="#me5c1265d05" y="427.444481"/>
      </g>
     </g>
     <g id="text_10">
      <!-- 5 -->
      <g transform="translate(153.9125 438.842138)scale(0.3 -0.3)">
       <use xlink:href="#DejaVuSans-35"/>
      </g>
     </g>
    </g>
    <g id="ytick_5">
     <g id="line2d_10">
      <g>
       <use style="stroke:#000000;stroke-width:0.8;" x="180" xlink:href="#me5c1265d05" y="204.299381"/>
      </g>
     </g>
     <g id="text_11">
      <!-- 10 -->
      <g transform="translate(134.825 215.697037)scale(0.3 -0.3)">
       <use xlink:href="#DejaVuSans-31"/>
       <use x="63.623047" xlink:href="#DejaVuSans-30"/>
      </g>
     </g>
    </g>
    <g id="text_12">
     <!-- Y Predicted -->
     <defs>
      <path d="M 19.671875 64.796875 
L 19.671875 37.40625 
L 32.078125 37.40625 
Q 38.96875 37.40625 42.71875 40.96875 
Q 46.484375 44.53125 46.484375 51.125 
Q 46.484375 57.671875 42.71875 61.234375 
Q 38.96875 64.796875 32.078125 64.796875 
z
M 9.8125 72.90625 
L 32.078125 72.90625 
Q 44.34375 72.90625 50.609375 67.359375 
Q 56.890625 61.8125 56.890625 51.125 
Q 56.890625 40.328125 50.609375 34.8125 
Q 44.34375 29.296875 32.078125 29.296875 
L 19.671875 29.296875 
L 19.671875 0 
L 9.8125 0 
z
" id="DejaVuSans-50"/>
      <path d="M 41.109375 46.296875 
Q 39.59375 47.171875 37.8125 47.578125 
Q 36.03125 48 33.890625 48 
Q 26.265625 48 22.1875 43.046875 
Q 18.109375 38.09375 18.109375 28.8125 
L 18.109375 0 
L 9.078125 0 
L 9.078125 54.6875 
L 18.109375 54.6875 
L 18.109375 46.1875 
Q 20.953125 51.171875 25.484375 53.578125 
Q 30.03125 56 36.53125 56 
Q 37.453125 56 38.578125 55.875 
Q 39.703125 55.765625 41.0625 55.515625 
z
" id="DejaVuSans-72"/>
      <path d="M 45.40625 46.390625 
L 45.40625 75.984375 
L 54.390625 75.984375 
L 54.390625 0 
L 45.40625 0 
L 45.40625 8.203125 
Q 42.578125 3.328125 38.25 0.953125 
Q 33.9375 -1.421875 27.875 -1.421875 
Q 17.96875 -1.421875 11.734375 6.484375 
Q 5.515625 14.40625 5.515625 27.296875 
Q 5.515625 40.1875 11.734375 48.09375 
Q 17.96875 56 27.875 56 
Q 33.9375 56 38.25 53.625 
Q 42.578125 51.265625 45.40625 46.390625 
z
M 14.796875 27.296875 
Q 14.796875 17.390625 18.875 11.75 
Q 22.953125 6.109375 30.078125 6.109375 
Q 37.203125 6.109375 41.296875 11.75 
Q 45.40625 17.390625 45.40625 27.296875 
Q 45.40625 37.203125 41.296875 42.84375 
Q 37.203125 48.484375 30.078125 48.484375 
Q 22.953125 48.484375 18.875 42.84375 
Q 14.796875 37.203125 14.796875 27.296875 
z
" id="DejaVuSans-64"/>
      <path d="M 9.421875 54.6875 
L 18.40625 54.6875 
L 18.40625 0 
L 9.421875 0 
z
M 9.421875 75.984375 
L 18.40625 75.984375 
L 18.40625 64.59375 
L 9.421875 64.59375 
z
" id="DejaVuSans-69"/>
      <path d="M 48.78125 52.59375 
L 48.78125 44.1875 
Q 44.96875 46.296875 41.140625 47.34375 
Q 37.3125 48.390625 33.40625 48.390625 
Q 24.65625 48.390625 19.8125 42.84375 
Q 14.984375 37.3125 14.984375 27.296875 
Q 14.984375 17.28125 19.8125 11.734375 
Q 24.65625 6.203125 33.40625 6.203125 
Q 37.3125 6.203125 41.140625 7.25 
Q 44.96875 8.296875 48.78125 10.40625 
L 48.78125 2.09375 
Q 45.015625 0.34375 40.984375 -0.53125 
Q 36.96875 -1.421875 32.421875 -1.421875 
Q 20.0625 -1.421875 12.78125 6.34375 
Q 5.515625 14.109375 5.515625 27.296875 
Q 5.515625 40.671875 12.859375 48.328125 
Q 20.21875 56 33.015625 56 
Q 37.15625 56 41.109375 55.140625 
Q 45.0625 54.296875 48.78125 52.59375 
z
" id="DejaVuSans-63"/>
     </defs>
     <g transform="translate(99.446875 812.132812)rotate(-90)scale(0.3 -0.3)">
      <use xlink:href="#DejaVuSans-59"/>
      <use x="61.083984" xlink:href="#DejaVuSans-20"/>
      <use x="92.871094" xlink:href="#DejaVuSans-50"/>
      <use x="153.158203" xlink:href="#DejaVuSans-72"/>
      <use x="194.240234" xlink:href="#DejaVuSans-65"/>
      <use x="255.763672" xlink:href="#DejaVuSans-64"/>
      <use x="319.240234" xlink:href="#DejaVuSans-69"/>
      <use x="347.023438" xlink:href="#DejaVuSans-63"/>
      <use x="402.003906" xlink:href="#DejaVuSans-74"/>
      <use x="441.212891" xlink:href="#DejaVuSans-65"/>
      <use x="502.736328" xlink:href="#DejaVuSans-64"/>
     </g>
    </g>
   </g>
   <g id="line2d_11">
    <path clip-path="url(#pdc7e41745e)" d="M 180 1281.6 
L 1296 172.8 
" style="fill:none;stroke:#1f77b4;stroke-dasharray:5.55,2.4;stroke-dashoffset:0;stroke-width:1.5;"/>
   </g>
   <g id="patch_3">
    <path d="M 180 1281.6 
L 180 172.8 
" style="fill:none;stroke:#000000;stroke-linecap:square;stroke-linejoin:miter;stroke-width:0.8;"/>
   </g>
   <g id="patch_4">
    <path d="M 1296 1281.6 
L 1296 172.8 
" style="fill:none;stroke:#000000;stroke-linecap:square;stroke-linejoin:miter;stroke-width:0.8;"/>
   </g>
   <g id="patch_5">
    <path d="M 180 1281.6 
L 1296 1281.6 
" style="fill:none;stroke:#000000;stroke-linecap:square;stroke-linejoin:miter;stroke-width:0.8;"/>
   </g>
   <g id="patch_6">
    <path d="M 180 172.8 
L 1296 172.8 
" style="fill:none;stroke:#000000;stroke-linecap:square;stroke-linejoin:miter;stroke-width:0.8;"/>
   </g>
   <g id="text_13">
    <!-- Ridge_xLogP -->
    <defs>
     <path d="M 44.390625 34.1875 
Q 47.5625 33.109375 50.5625 29.59375 
Q 53.5625 26.078125 56.59375 19.921875 
L 66.609375 0 
L 56 0 
L 46.6875 18.703125 
Q 43.0625 26.03125 39.671875 28.421875 
Q 36.28125 30.8125 30.421875 30.8125 
L 19.671875 30.8125 
L 19.671875 0 
L 9.8125 0 
L 9.8125 72.90625 
L 32.078125 72.90625 
Q 44.578125 72.90625 50.734375 67.671875 
Q 56.890625 62.453125 56.890625 51.90625 
Q 56.890625 45.015625 53.6875 40.46875 
Q 50.484375 35.9375 44.390625 34.1875 
z
M 19.671875 64.796875 
L 19.671875 38.921875 
L 32.078125 38.921875 
Q 39.203125 38.921875 42.84375 42.21875 
Q 46.484375 45.515625 46.484375 51.90625 
Q 46.484375 58.296875 42.84375 61.546875 
Q 39.203125 64.796875 32.078125 64.796875 
z
" id="DejaVuSans-52"/>
     <path d="M 45.40625 27.984375 
Q 45.40625 37.75 41.375 43.109375 
Q 37.359375 48.484375 30.078125 48.484375 
Q 22.859375 48.484375 18.828125 43.109375 
Q 14.796875 37.75 14.796875 27.984375 
Q 14.796875 18.265625 18.828125 12.890625 
Q 22.859375 7.515625 30.078125 7.515625 
Q 37.359375 7.515625 41.375 12.890625 
Q 45.40625 18.265625 45.40625 27.984375 
z
M 54.390625 6.78125 
Q 54.390625 -7.171875 48.1875 -13.984375 
Q 42 -20.796875 29.203125 -20.796875 
Q 24.46875 -20.796875 20.265625 -20.09375 
Q 16.0625 -19.390625 12.109375 -17.921875 
L 12.109375 -9.1875 
Q 16.0625 -11.328125 19.921875 -12.34375 
Q 23.78125 -13.375 27.78125 -13.375 
Q 36.625 -13.375 41.015625 -8.765625 
Q 45.40625 -4.15625 45.40625 5.171875 
L 45.40625 9.625 
Q 42.625 4.78125 38.28125 2.390625 
Q 33.9375 0 27.875 0 
Q 17.828125 0 11.671875 7.65625 
Q 5.515625 15.328125 5.515625 27.984375 
Q 5.515625 40.671875 11.671875 48.328125 
Q 17.828125 56 27.875 56 
Q 33.9375 56 38.28125 53.609375 
Q 42.625 51.21875 45.40625 46.390625 
L 45.40625 54.6875 
L 54.390625 54.6875 
z
" id="DejaVuSans-67"/>
     <path d="M 50.984375 -16.609375 
L 50.984375 -23.578125 
L -0.984375 -23.578125 
L -0.984375 -16.609375 
z
" id="DejaVuSans-5f"/>
     <path d="M 54.890625 54.6875 
L 35.109375 28.078125 
L 55.90625 0 
L 45.3125 0 
L 29.390625 21.484375 
L 13.484375 0 
L 2.875 0 
L 24.125 28.609375 
L 4.6875 54.6875 
L 15.28125 54.6875 
L 29.78125 35.203125 
L 44.28125 54.6875 
z
" id="DejaVuSans-78"/>
     <path d="M 9.8125 72.90625 
L 19.671875 72.90625 
L 19.671875 8.296875 
L 55.171875 8.296875 
L 55.171875 0 
L 9.8125 0 
z
" id="DejaVuSans-4c"/>
     <path d="M 30.609375 48.390625 
Q 23.390625 48.390625 19.1875 42.75 
Q 14.984375 37.109375 14.984375 27.296875 
Q 14.984375 17.484375 19.15625 11.84375 
Q 23.34375 6.203125 30.609375 6.203125 
Q 37.796875 6.203125 41.984375 11.859375 
Q 46.1875 17.53125 46.1875 27.296875 
Q 46.1875 37.015625 41.984375 42.703125 
Q 37.796875 48.390625 30.609375 48.390625 
z
M 30.609375 56 
Q 42.328125 56 49.015625 48.375 
Q 55.71875 40.765625 55.71875 27.296875 
Q 55.71875 13.875 49.015625 6.21875 
Q 42.328125 -1.421875 30.609375 -1.421875 
Q 18.84375 -1.421875 12.171875 6.21875 
Q 5.515625 13.875 5.515625 27.296875 
Q 5.515625 40.765625 12.171875 48.375 
Q 18.84375 56 30.609375 56 
z
" id="DejaVuSans-6f"/>
    </defs>
    <g transform="translate(623.5875 166.8)scale(0.36 -0.36)">
     <use xlink:href="#DejaVuSans-52"/>
     <use x="69.482422" xlink:href="#DejaVuSans-69"/>
     <use x="97.265625" xlink:href="#DejaVuSans-64"/>
     <use x="160.742188" xlink:href="#DejaVuSans-67"/>
     <use x="224.21875" xlink:href="#DejaVuSans-65"/>
     <use x="285.742188" xlink:href="#DejaVuSans-5f"/>
     <use x="335.742188" xlink:href="#DejaVuSans-78"/>
     <use x="394.921875" xlink:href="#DejaVuSans-4c"/>
     <use x="450.619141" xlink:href="#DejaVuSans-6f"/>
     <use x="511.800781" xlink:href="#DejaVuSans-67"/>
     <use x="575.277344" xlink:href="#DejaVuSans-50"/>
    </g>
   </g>
  </g>
 </g>
 <defs>
  <clipPath id="pdc7e41745e">
   <rect height="1108.8" width="1116" x="180" y="172.8"/>
  </clipPath>
 </defs>
</svg>
