<?xml version="1.0" encoding="utf-8" standalone="no"?>
<!DOCTYPE svg PUBLIC "-//W3C//DTD SVG 1.1//EN"
  "http://www.w3.org/Graphics/SVG/1.1/DTD/svg11.dtd">
<!-- Created with matplotlib (http://matplotlib.org/) -->
<svg height="1440pt" version="1.1" viewBox="0 0 1440 1440" width="1440pt" xmlns="http://www.w3.org/2000/svg" xmlns:xlink="http://www.w3.org/1999/xlink">
 <defs>
  <style type="text/css">
*{stroke-linecap:butt;stroke-linejoin:round;}
  </style>
 </defs>
 <g id="figure_1">
  <g id="patch_1">
   <path d="M 0 1440 
L 1440 1440 
L 1440 0 
L 0 0 
z
" style="fill:#ffffff;"/>
  </g>
  <g id="axes_1">
   <g id="patch_2">
    <path d="M 180 1281.6 
L 1296 1281.6 
L 1296 172.8 
L 180 172.8 
z
" style="fill:#ffffff;"/>
   </g>
   <g id="PathCollection_1">
    <defs>
     <path d="M 0 3 
C 0.795609 3 1.55874 2.683901 2.12132 2.12132 
C 2.683901 1.55874 3 0.795609 3 0 
C 3 -0.795609 2.683901 -1.55874 2.12132 -2.12132 
C 1.55874 -2.683901 0.795609 -3 0 -3 
C -0.795609 -3 -1.55874 -2.683901 -2.12132 -2.12132 
C -2.683901 -1.55874 -3 -0.795609 -3 0 
C -3 0.795609 -2.683901 1.55874 -2.12132 2.12132 
C -1.55874 2.683901 -0.795609 3 0 3 
z
" id="m269a11d371" style="stroke:#1f77b4;"/>
    </defs>
    <g clip-path="url(#p6e157d93e4)">
     <use style="fill:#1f77b4;stroke:#1f77b4;" x="859.503133" xlink:href="#m269a11d371" y="523.119655"/>
     <use style="fill:#1f77b4;stroke:#1f77b4;" x="1018.155303" xlink:href="#m269a11d371" y="468.556579"/>
     <use style="fill:#1f77b4;stroke:#1f77b4;" x="944.931225" xlink:href="#m269a11d371" y="539.694429"/>
     <use style="fill:#1f77b4;stroke:#1f77b4;" x="883.91116" xlink:href="#m269a11d371" y="587.762418"/>
     <use style="fill:#1f77b4;stroke:#1f77b4;" x="928.659207" xlink:href="#m269a11d371" y="551.206729"/>
     <use style="fill:#1f77b4;stroke:#1f77b4;" x="818.82309" xlink:href="#m269a11d371" y="683.610775"/>
     <use style="fill:#1f77b4;stroke:#1f77b4;" x="944.931225" xlink:href="#m269a11d371" y="697.399661"/>
     <use style="fill:#1f77b4;stroke:#1f77b4;" x="749.667016" xlink:href="#m269a11d371" y="642.848895"/>
     <use style="fill:#1f77b4;stroke:#1f77b4;" x="916.455194" xlink:href="#m269a11d371" y="516.133155"/>
     <use style="fill:#1f77b4;stroke:#1f77b4;" x="672.374933" xlink:href="#m269a11d371" y="742.962642"/>
     <use style="fill:#1f77b4;stroke:#1f77b4;" x="908.319186" xlink:href="#m269a11d371" y="542.996693"/>
     <use style="fill:#1f77b4;stroke:#1f77b4;" x="534.062786" xlink:href="#m269a11d371" y="751.764496"/>
     <use style="fill:#1f77b4;stroke:#1f77b4;" x="778.143046" xlink:href="#m269a11d371" y="690.964864"/>
     <use style="fill:#1f77b4;stroke:#1f77b4;" x="798.483068" xlink:href="#m269a11d371" y="682.167236"/>
     <use style="fill:#1f77b4;stroke:#1f77b4;" x="1083.243373" xlink:href="#m269a11d371" y="374.546363"/>
     <use style="fill:#1f77b4;stroke:#1f77b4;" x="953.067233" xlink:href="#m269a11d371" y="495.838573"/>
     <use style="fill:#1f77b4;stroke:#1f77b4;" x="912.38719" xlink:href="#m269a11d371" y="512.455364"/>
     <use style="fill:#1f77b4;stroke:#1f77b4;" x="770.007038" xlink:href="#m269a11d371" y="683.338584"/>
     <use style="fill:#1f77b4;stroke:#1f77b4;" x="468.974716" xlink:href="#m269a11d371" y="963.6109"/>
     <use style="fill:#1f77b4;stroke:#1f77b4;" x="957.135238" xlink:href="#m269a11d371" y="563.522603"/>
     <use style="fill:#1f77b4;stroke:#1f77b4;" x="753.73502" xlink:href="#m269a11d371" y="760.074328"/>
     <use style="fill:#1f77b4;stroke:#1f77b4;" x="863.571138" xlink:href="#m269a11d371" y="639.727457"/>
     <use style="fill:#1f77b4;stroke:#1f77b4;" x="977.47526" xlink:href="#m269a11d371" y="487.840111"/>
     <use style="fill:#1f77b4;stroke:#1f77b4;" x="924.591203" xlink:href="#m269a11d371" y="542.976813"/>
     <use style="fill:#1f77b4;stroke:#1f77b4;" x="822.891094" xlink:href="#m269a11d371" y="629.932194"/>
     <use style="fill:#1f77b4;stroke:#1f77b4;" x="741.531007" xlink:href="#m269a11d371" y="706.90666"/>
     <use style="fill:#1f77b4;stroke:#1f77b4;" x="920.523199" xlink:href="#m269a11d371" y="537.298592"/>
     <use style="fill:#1f77b4;stroke:#1f77b4;" x="831.027103" xlink:href="#m269a11d371" y="630.972359"/>
     <use style="fill:#1f77b4;stroke:#1f77b4;" x="778.143046" xlink:href="#m269a11d371" y="666.161804"/>
     <use style="fill:#1f77b4;stroke:#1f77b4;" x="867.639142" xlink:href="#m269a11d371" y="600.696278"/>
     <use style="fill:#1f77b4;stroke:#1f77b4;" x="953.067233" xlink:href="#m269a11d371" y="553.244823"/>
     <use style="fill:#1f77b4;stroke:#1f77b4;" x="875.775151" xlink:href="#m269a11d371" y="593.581266"/>
     <use style="fill:#1f77b4;stroke:#1f77b4;" x="782.211051" xlink:href="#m269a11d371" y="651.052354"/>
     <use style="fill:#1f77b4;stroke:#1f77b4;" x="741.531007" xlink:href="#m269a11d371" y="740.378747"/>
     <use style="fill:#1f77b4;stroke:#1f77b4;" x="847.29912" xlink:href="#m269a11d371" y="612.419983"/>
     <use style="fill:#1f77b4;stroke:#1f77b4;" x="851.367125" xlink:href="#m269a11d371" y="604.56617"/>
     <use style="fill:#1f77b4;stroke:#1f77b4;" x="912.38719" xlink:href="#m269a11d371" y="557.524822"/>
     <use style="fill:#1f77b4;stroke:#1f77b4;" x="908.319186" xlink:href="#m269a11d371" y="486.141846"/>
     <use style="fill:#1f77b4;stroke:#1f77b4;" x="1054.767342" xlink:href="#m269a11d371" y="463.697074"/>
     <use style="fill:#1f77b4;stroke:#1f77b4;" x="908.319186" xlink:href="#m269a11d371" y="586.261299"/>
     <use style="fill:#1f77b4;stroke:#1f77b4;" x="920.523199" xlink:href="#m269a11d371" y="508.789025"/>
     <use style="fill:#1f77b4;stroke:#1f77b4;" x="892.047168" xlink:href="#m269a11d371" y="602.399502"/>
     <use style="fill:#1f77b4;stroke:#1f77b4;" x="704.918968" xlink:href="#m269a11d371" y="780.249931"/>
     <use style="fill:#1f77b4;stroke:#1f77b4;" x="745.599012" xlink:href="#m269a11d371" y="645.748057"/>
     <use style="fill:#1f77b4;stroke:#1f77b4;" x="985.611268" xlink:href="#m269a11d371" y="531.263823"/>
     <use style="fill:#1f77b4;stroke:#1f77b4;" x="936.795216" xlink:href="#m269a11d371" y="609.667368"/>
     <use style="fill:#1f77b4;stroke:#1f77b4;" x="973.407255" xlink:href="#m269a11d371" y="548.066997"/>
     <use style="fill:#1f77b4;stroke:#1f77b4;" x="1046.631333" xlink:href="#m269a11d371" y="477.596526"/>
     <use style="fill:#1f77b4;stroke:#1f77b4;" x="948.999229" xlink:href="#m269a11d371" y="532.718686"/>
     <use style="fill:#1f77b4;stroke:#1f77b4;" x="948.999229" xlink:href="#m269a11d371" y="532.732786"/>
     <use style="fill:#1f77b4;stroke:#1f77b4;" x="733.394999" xlink:href="#m269a11d371" y="686.610446"/>
     <use style="fill:#1f77b4;stroke:#1f77b4;" x="729.326994" xlink:href="#m269a11d371" y="686.421543"/>
     <use style="fill:#1f77b4;stroke:#1f77b4;" x="989.679273" xlink:href="#m269a11d371" y="530.16474"/>
     <use style="fill:#1f77b4;stroke:#1f77b4;" x="920.523199" xlink:href="#m269a11d371" y="499.460361"/>
     <use style="fill:#1f77b4;stroke:#1f77b4;" x="875.775151" xlink:href="#m269a11d371" y="594.50653"/>
     <use style="fill:#1f77b4;stroke:#1f77b4;" x="863.571138" xlink:href="#m269a11d371" y="644.882584"/>
     <use style="fill:#1f77b4;stroke:#1f77b4;" x="1014.087299" xlink:href="#m269a11d371" y="529.995275"/>
     <use style="fill:#1f77b4;stroke:#1f77b4;" x="912.38719" xlink:href="#m269a11d371" y="542.347055"/>
     <use style="fill:#1f77b4;stroke:#1f77b4;" x="826.959099" xlink:href="#m269a11d371" y="638.382415"/>
     <use style="fill:#1f77b4;stroke:#1f77b4;" x="965.271246" xlink:href="#m269a11d371" y="551.817806"/>
     <use style="fill:#1f77b4;stroke:#1f77b4;" x="879.843155" xlink:href="#m269a11d371" y="566.815137"/>
     <use style="fill:#1f77b4;stroke:#1f77b4;" x="867.639142" xlink:href="#m269a11d371" y="610.811699"/>
     <use style="fill:#1f77b4;stroke:#1f77b4;" x="924.591203" xlink:href="#m269a11d371" y="521.581985"/>
     <use style="fill:#1f77b4;stroke:#1f77b4;" x="912.38719" xlink:href="#m269a11d371" y="598.132258"/>
     <use style="fill:#1f77b4;stroke:#1f77b4;" x="1014.087299" xlink:href="#m269a11d371" y="444.886861"/>
     <use style="fill:#1f77b4;stroke:#1f77b4;" x="948.999229" xlink:href="#m269a11d371" y="525.260646"/>
     <use style="fill:#1f77b4;stroke:#1f77b4;" x="814.755086" xlink:href="#m269a11d371" y="619.046654"/>
     <use style="fill:#1f77b4;stroke:#1f77b4;" x="883.91116" xlink:href="#m269a11d371" y="580.061926"/>
     <use style="fill:#1f77b4;stroke:#1f77b4;" x="887.979164" xlink:href="#m269a11d371" y="532.023441"/>
     <use style="fill:#1f77b4;stroke:#1f77b4;" x="1103.583394" xlink:href="#m269a11d371" y="443.036803"/>
     <use style="fill:#1f77b4;stroke:#1f77b4;" x="761.871029" xlink:href="#m269a11d371" y="632.972183"/>
     <use style="fill:#1f77b4;stroke:#1f77b4;" x="879.843155" xlink:href="#m269a11d371" y="531.715069"/>
     <use style="fill:#1f77b4;stroke:#1f77b4;" x="843.231116" xlink:href="#m269a11d371" y="648.007968"/>
     <use style="fill:#1f77b4;stroke:#1f77b4;" x="977.47526" xlink:href="#m269a11d371" y="493.317069"/>
     <use style="fill:#1f77b4;stroke:#1f77b4;" x="944.931225" xlink:href="#m269a11d371" y="533.237264"/>
     <use style="fill:#1f77b4;stroke:#1f77b4;" x="953.067233" xlink:href="#m269a11d371" y="553.808977"/>
     <use style="fill:#1f77b4;stroke:#1f77b4;" x="883.91116" xlink:href="#m269a11d371" y="647.84835"/>
     <use style="fill:#1f77b4;stroke:#1f77b4;" x="806.619077" xlink:href="#m269a11d371" y="616.39564"/>
     <use style="fill:#1f77b4;stroke:#1f77b4;" x="826.959099" xlink:href="#m269a11d371" y="624.870883"/>
     <use style="fill:#1f77b4;stroke:#1f77b4;" x="916.455194" xlink:href="#m269a11d371" y="529.615799"/>
     <use style="fill:#1f77b4;stroke:#1f77b4;" x="1058.835347" xlink:href="#m269a11d371" y="426.83544"/>
     <use style="fill:#1f77b4;stroke:#1f77b4;" x="961.203242" xlink:href="#m269a11d371" y="508.216168"/>
     <use style="fill:#1f77b4;stroke:#1f77b4;" x="985.611268" xlink:href="#m269a11d371" y="471.514589"/>
     <use style="fill:#1f77b4;stroke:#1f77b4;" x="851.367125" xlink:href="#m269a11d371" y="517.995784"/>
     <use style="fill:#1f77b4;stroke:#1f77b4;" x="908.319186" xlink:href="#m269a11d371" y="619.101759"/>
     <use style="fill:#1f77b4;stroke:#1f77b4;" x="802.551073" xlink:href="#m269a11d371" y="672.421667"/>
     <use style="fill:#1f77b4;stroke:#1f77b4;" x="896.115173" xlink:href="#m269a11d371" y="535.466402"/>
     <use style="fill:#1f77b4;stroke:#1f77b4;" x="904.251181" xlink:href="#m269a11d371" y="569.801009"/>
     <use style="fill:#1f77b4;stroke:#1f77b4;" x="745.599012" xlink:href="#m269a11d371" y="629.775448"/>
     <use style="fill:#1f77b4;stroke:#1f77b4;" x="839.163112" xlink:href="#m269a11d371" y="507.345368"/>
     <use style="fill:#1f77b4;stroke:#1f77b4;" x="953.067233" xlink:href="#m269a11d371" y="474.629526"/>
     <use style="fill:#1f77b4;stroke:#1f77b4;" x="1005.95129" xlink:href="#m269a11d371" y="440.742152"/>
     <use style="fill:#1f77b4;stroke:#1f77b4;" x="871.707146" xlink:href="#m269a11d371" y="651.48585"/>
     <use style="fill:#1f77b4;stroke:#1f77b4;" x="904.251181" xlink:href="#m269a11d371" y="606.37133"/>
     <use style="fill:#1f77b4;stroke:#1f77b4;" x="664.238925" xlink:href="#m269a11d371" y="751.770682"/>
     <use style="fill:#1f77b4;stroke:#1f77b4;" x="733.394999" xlink:href="#m269a11d371" y="673.615976"/>
     <use style="fill:#1f77b4;stroke:#1f77b4;" x="806.619077" xlink:href="#m269a11d371" y="659.741402"/>
     <use style="fill:#1f77b4;stroke:#1f77b4;" x="871.707146" xlink:href="#m269a11d371" y="588.447159"/>
     <use style="fill:#1f77b4;stroke:#1f77b4;" x="896.115173" xlink:href="#m269a11d371" y="559.229356"/>
     <use style="fill:#1f77b4;stroke:#1f77b4;" x="778.143046" xlink:href="#m269a11d371" y="713.743458"/>
     <use style="fill:#1f77b4;stroke:#1f77b4;" x="615.422873" xlink:href="#m269a11d371" y="759.104696"/>
     <use style="fill:#1f77b4;stroke:#1f77b4;" x="928.659207" xlink:href="#m269a11d371" y="551.338135"/>
     <use style="fill:#1f77b4;stroke:#1f77b4;" x="1010.019294" xlink:href="#m269a11d371" y="470.925095"/>
     <use style="fill:#1f77b4;stroke:#1f77b4;" x="908.319186" xlink:href="#m269a11d371" y="581.535059"/>
     <use style="fill:#1f77b4;stroke:#1f77b4;" x="814.755086" xlink:href="#m269a11d371" y="593.38596"/>
     <use style="fill:#1f77b4;stroke:#1f77b4;" x="814.755086" xlink:href="#m269a11d371" y="667.875421"/>
     <use style="fill:#1f77b4;stroke:#1f77b4;" x="1026.291312" xlink:href="#m269a11d371" y="434.036724"/>
     <use style="fill:#1f77b4;stroke:#1f77b4;" x="875.775151" xlink:href="#m269a11d371" y="592.102489"/>
     <use style="fill:#1f77b4;stroke:#1f77b4;" x="875.775151" xlink:href="#m269a11d371" y="616.715241"/>
     <use style="fill:#1f77b4;stroke:#1f77b4;" x="924.591203" xlink:href="#m269a11d371" y="512.619776"/>
     <use style="fill:#1f77b4;stroke:#1f77b4;" x="806.619077" xlink:href="#m269a11d371" y="755.352425"/>
     <use style="fill:#1f77b4;stroke:#1f77b4;" x="973.407255" xlink:href="#m269a11d371" y="536.107506"/>
     <use style="fill:#1f77b4;stroke:#1f77b4;" x="1005.95129" xlink:href="#m269a11d371" y="498.945303"/>
     <use style="fill:#1f77b4;stroke:#1f77b4;" x="896.115173" xlink:href="#m269a11d371" y="603.958281"/>
     <use style="fill:#1f77b4;stroke:#1f77b4;" x="948.999229" xlink:href="#m269a11d371" y="529.090948"/>
     <use style="fill:#1f77b4;stroke:#1f77b4;" x="875.775151" xlink:href="#m269a11d371" y="607.860552"/>
     <use style="fill:#1f77b4;stroke:#1f77b4;" x="981.543264" xlink:href="#m269a11d371" y="499.922033"/>
     <use style="fill:#1f77b4;stroke:#1f77b4;" x="818.82309" xlink:href="#m269a11d371" y="728.224983"/>
     <use style="fill:#1f77b4;stroke:#1f77b4;" x="765.939033" xlink:href="#m269a11d371" y="688.337041"/>
     <use style="fill:#1f77b4;stroke:#1f77b4;" x="924.591203" xlink:href="#m269a11d371" y="622.660543"/>
     <use style="fill:#1f77b4;stroke:#1f77b4;" x="940.86322" xlink:href="#m269a11d371" y="547.492885"/>
     <use style="fill:#1f77b4;stroke:#1f77b4;" x="948.999229" xlink:href="#m269a11d371" y="530.660284"/>
     <use style="fill:#1f77b4;stroke:#1f77b4;" x="900.183177" xlink:href="#m269a11d371" y="590.596486"/>
     <use style="fill:#1f77b4;stroke:#1f77b4;" x="928.659207" xlink:href="#m269a11d371" y="556.447053"/>
     <use style="fill:#1f77b4;stroke:#1f77b4;" x="957.135238" xlink:href="#m269a11d371" y="533.486835"/>
     <use style="fill:#1f77b4;stroke:#1f77b4;" x="826.959099" xlink:href="#m269a11d371" y="598.064147"/>
     <use style="fill:#1f77b4;stroke:#1f77b4;" x="1030.359316" xlink:href="#m269a11d371" y="408.133866"/>
     <use style="fill:#1f77b4;stroke:#1f77b4;" x="928.659207" xlink:href="#m269a11d371" y="537.714301"/>
     <use style="fill:#1f77b4;stroke:#1f77b4;" x="867.639142" xlink:href="#m269a11d371" y="620.398385"/>
     <use style="fill:#1f77b4;stroke:#1f77b4;" x="749.667016" xlink:href="#m269a11d371" y="674.813219"/>
     <use style="fill:#1f77b4;stroke:#1f77b4;" x="997.815281" xlink:href="#m269a11d371" y="475.642822"/>
     <use style="fill:#1f77b4;stroke:#1f77b4;" x="916.455194" xlink:href="#m269a11d371" y="531.969168"/>
     <use style="fill:#1f77b4;stroke:#1f77b4;" x="822.891094" xlink:href="#m269a11d371" y="646.93612"/>
     <use style="fill:#1f77b4;stroke:#1f77b4;" x="936.795216" xlink:href="#m269a11d371" y="534.947739"/>
     <use style="fill:#1f77b4;stroke:#1f77b4;" x="1250.031551" xlink:href="#m269a11d371" y="238.154516"/>
     <use style="fill:#1f77b4;stroke:#1f77b4;" x="892.047168" xlink:href="#m269a11d371" y="620.842654"/>
     <use style="fill:#1f77b4;stroke:#1f77b4;" x="871.707146" xlink:href="#m269a11d371" y="559.691874"/>
     <use style="fill:#1f77b4;stroke:#1f77b4;" x="928.659207" xlink:href="#m269a11d371" y="575.840531"/>
     <use style="fill:#1f77b4;stroke:#1f77b4;" x="916.455194" xlink:href="#m269a11d371" y="556.118934"/>
     <use style="fill:#1f77b4;stroke:#1f77b4;" x="973.407255" xlink:href="#m269a11d371" y="571.831088"/>
     <use style="fill:#1f77b4;stroke:#1f77b4;" x="875.775151" xlink:href="#m269a11d371" y="605.092507"/>
     <use style="fill:#1f77b4;stroke:#1f77b4;" x="993.747277" xlink:href="#m269a11d371" y="496.809387"/>
     <use style="fill:#1f77b4;stroke:#1f77b4;" x="961.203242" xlink:href="#m269a11d371" y="549.267833"/>
     <use style="fill:#1f77b4;stroke:#1f77b4;" x="904.251181" xlink:href="#m269a11d371" y="570.42786"/>
     <use style="fill:#1f77b4;stroke:#1f77b4;" x="957.135238" xlink:href="#m269a11d371" y="539.292956"/>
     <use style="fill:#1f77b4;stroke:#1f77b4;" x="953.067233" xlink:href="#m269a11d371" y="518.320685"/>
     <use style="fill:#1f77b4;stroke:#1f77b4;" x="668.306929" xlink:href="#m269a11d371" y="704.182589"/>
     <use style="fill:#1f77b4;stroke:#1f77b4;" x="912.38719" xlink:href="#m269a11d371" y="487.52543"/>
     <use style="fill:#1f77b4;stroke:#1f77b4;" x="1001.883286" xlink:href="#m269a11d371" y="476.651611"/>
     <use style="fill:#1f77b4;stroke:#1f77b4;" x="896.115173" xlink:href="#m269a11d371" y="586.181902"/>
     <use style="fill:#1f77b4;stroke:#1f77b4;" x="944.931225" xlink:href="#m269a11d371" y="542.818328"/>
     <use style="fill:#1f77b4;stroke:#1f77b4;" x="729.326994" xlink:href="#m269a11d371" y="614.834931"/>
     <use style="fill:#1f77b4;stroke:#1f77b4;" x="977.47526" xlink:href="#m269a11d371" y="501.777103"/>
     <use style="fill:#1f77b4;stroke:#1f77b4;" x="855.435129" xlink:href="#m269a11d371" y="828.172216"/>
     <use style="fill:#1f77b4;stroke:#1f77b4;" x="875.775151" xlink:href="#m269a11d371" y="624.228925"/>
     <use style="fill:#1f77b4;stroke:#1f77b4;" x="721.190986" xlink:href="#m269a11d371" y="743.304052"/>
     <use style="fill:#1f77b4;stroke:#1f77b4;" x="900.183177" xlink:href="#m269a11d371" y="488.581146"/>
     <use style="fill:#1f77b4;stroke:#1f77b4;" x="879.843155" xlink:href="#m269a11d371" y="656.403893"/>
     <use style="fill:#1f77b4;stroke:#1f77b4;" x="973.407255" xlink:href="#m269a11d371" y="469.4616"/>
     <use style="fill:#1f77b4;stroke:#1f77b4;" x="676.442938" xlink:href="#m269a11d371" y="770.674404"/>
     <use style="fill:#1f77b4;stroke:#1f77b4;" x="985.611268" xlink:href="#m269a11d371" y="550.711161"/>
     <use style="fill:#1f77b4;stroke:#1f77b4;" x="859.503133" xlink:href="#m269a11d371" y="618.260538"/>
     <use style="fill:#1f77b4;stroke:#1f77b4;" x="953.067233" xlink:href="#m269a11d371" y="523.494293"/>
     <use style="fill:#1f77b4;stroke:#1f77b4;" x="920.523199" xlink:href="#m269a11d371" y="541.151764"/>
     <use style="fill:#1f77b4;stroke:#1f77b4;" x="1046.631333" xlink:href="#m269a11d371" y="453.897058"/>
     <use style="fill:#1f77b4;stroke:#1f77b4;" x="932.727212" xlink:href="#m269a11d371" y="513.936629"/>
     <use style="fill:#1f77b4;stroke:#1f77b4;" x="916.455194" xlink:href="#m269a11d371" y="595.342755"/>
     <use style="fill:#1f77b4;stroke:#1f77b4;" x="920.523199" xlink:href="#m269a11d371" y="497.326232"/>
     <use style="fill:#1f77b4;stroke:#1f77b4;" x="790.34706" xlink:href="#m269a11d371" y="599.858789"/>
     <use style="fill:#1f77b4;stroke:#1f77b4;" x="892.047168" xlink:href="#m269a11d371" y="513.541182"/>
     <use style="fill:#1f77b4;stroke:#1f77b4;" x="1005.95129" xlink:href="#m269a11d371" y="489.398452"/>
     <use style="fill:#1f77b4;stroke:#1f77b4;" x="1111.719403" xlink:href="#m269a11d371" y="449.988409"/>
     <use style="fill:#1f77b4;stroke:#1f77b4;" x="818.82309" xlink:href="#m269a11d371" y="656.681704"/>
     <use style="fill:#1f77b4;stroke:#1f77b4;" x="900.183177" xlink:href="#m269a11d371" y="484.816007"/>
     <use style="fill:#1f77b4;stroke:#1f77b4;" x="892.047168" xlink:href="#m269a11d371" y="517.09387"/>
     <use style="fill:#1f77b4;stroke:#1f77b4;" x="912.38719" xlink:href="#m269a11d371" y="487.943306"/>
     <use style="fill:#1f77b4;stroke:#1f77b4;" x="965.271246" xlink:href="#m269a11d371" y="494.68032"/>
     <use style="fill:#1f77b4;stroke:#1f77b4;" x="1001.883286" xlink:href="#m269a11d371" y="463.427647"/>
     <use style="fill:#1f77b4;stroke:#1f77b4;" x="875.775151" xlink:href="#m269a11d371" y="596.653783"/>
     <use style="fill:#1f77b4;stroke:#1f77b4;" x="965.271246" xlink:href="#m269a11d371" y="497.575591"/>
     <use style="fill:#1f77b4;stroke:#1f77b4;" x="936.795216" xlink:href="#m269a11d371" y="543.398208"/>
     <use style="fill:#1f77b4;stroke:#1f77b4;" x="778.143046" xlink:href="#m269a11d371" y="691.905664"/>
     <use style="fill:#1f77b4;stroke:#1f77b4;" x="924.591203" xlink:href="#m269a11d371" y="588.205278"/>
     <use style="fill:#1f77b4;stroke:#1f77b4;" x="892.047168" xlink:href="#m269a11d371" y="581.43906"/>
     <use style="fill:#1f77b4;stroke:#1f77b4;" x="904.251181" xlink:href="#m269a11d371" y="572.9901"/>
     <use style="fill:#1f77b4;stroke:#1f77b4;" x="981.543264" xlink:href="#m269a11d371" y="470.016494"/>
     <use style="fill:#1f77b4;stroke:#1f77b4;" x="948.999229" xlink:href="#m269a11d371" y="497.290792"/>
     <use style="fill:#1f77b4;stroke:#1f77b4;" x="668.306929" xlink:href="#m269a11d371" y="749.207843"/>
     <use style="fill:#1f77b4;stroke:#1f77b4;" x="818.82309" xlink:href="#m269a11d371" y="647.567549"/>
     <use style="fill:#1f77b4;stroke:#1f77b4;" x="831.027103" xlink:href="#m269a11d371" y="686.542818"/>
     <use style="fill:#1f77b4;stroke:#1f77b4;" x="961.203242" xlink:href="#m269a11d371" y="557.663359"/>
     <use style="fill:#1f77b4;stroke:#1f77b4;" x="875.775151" xlink:href="#m269a11d371" y="636.869079"/>
     <use style="fill:#1f77b4;stroke:#1f77b4;" x="961.203242" xlink:href="#m269a11d371" y="541.273009"/>
     <use style="fill:#1f77b4;stroke:#1f77b4;" x="887.979164" xlink:href="#m269a11d371" y="572.432961"/>
     <use style="fill:#1f77b4;stroke:#1f77b4;" x="944.931225" xlink:href="#m269a11d371" y="382.662342"/>
     <use style="fill:#1f77b4;stroke:#1f77b4;" x="924.591203" xlink:href="#m269a11d371" y="605.75528"/>
     <use style="fill:#1f77b4;stroke:#1f77b4;" x="924.591203" xlink:href="#m269a11d371" y="570.238525"/>
     <use style="fill:#1f77b4;stroke:#1f77b4;" x="936.795216" xlink:href="#m269a11d371" y="568.96679"/>
     <use style="fill:#1f77b4;stroke:#1f77b4;" x="928.659207" xlink:href="#m269a11d371" y="521.362846"/>
     <use style="fill:#1f77b4;stroke:#1f77b4;" x="741.531007" xlink:href="#m269a11d371" y="780.444559"/>
     <use style="fill:#1f77b4;stroke:#1f77b4;" x="863.571138" xlink:href="#m269a11d371" y="619.070409"/>
     <use style="fill:#1f77b4;stroke:#1f77b4;" x="981.543264" xlink:href="#m269a11d371" y="529.890744"/>
     <use style="fill:#1f77b4;stroke:#1f77b4;" x="1233.759533" xlink:href="#m269a11d371" y="332.10809"/>
     <use style="fill:#1f77b4;stroke:#1f77b4;" x="839.163112" xlink:href="#m269a11d371" y="604.898878"/>
     <use style="fill:#1f77b4;stroke:#1f77b4;" x="794.415064" xlink:href="#m269a11d371" y="714.583755"/>
     <use style="fill:#1f77b4;stroke:#1f77b4;" x="851.367125" xlink:href="#m269a11d371" y="578.513891"/>
     <use style="fill:#1f77b4;stroke:#1f77b4;" x="977.47526" xlink:href="#m269a11d371" y="464.701202"/>
     <use style="fill:#1f77b4;stroke:#1f77b4;" x="831.027103" xlink:href="#m269a11d371" y="623.616734"/>
     <use style="fill:#1f77b4;stroke:#1f77b4;" x="953.067233" xlink:href="#m269a11d371" y="561.060549"/>
     <use style="fill:#1f77b4;stroke:#1f77b4;" x="717.122981" xlink:href="#m269a11d371" y="660.878693"/>
     <use style="fill:#1f77b4;stroke:#1f77b4;" x="916.455194" xlink:href="#m269a11d371" y="562.680759"/>
     <use style="fill:#1f77b4;stroke:#1f77b4;" x="1022.223307" xlink:href="#m269a11d371" y="438.098052"/>
     <use style="fill:#1f77b4;stroke:#1f77b4;" x="798.483068" xlink:href="#m269a11d371" y="613.359389"/>
     <use style="fill:#1f77b4;stroke:#1f77b4;" x="619.490877" xlink:href="#m269a11d371" y="777.775034"/>
     <use style="fill:#1f77b4;stroke:#1f77b4;" x="944.931225" xlink:href="#m269a11d371" y="425.28612"/>
     <use style="fill:#1f77b4;stroke:#1f77b4;" x="831.027103" xlink:href="#m269a11d371" y="686.052208"/>
     <use style="fill:#1f77b4;stroke:#1f77b4;" x="826.959099" xlink:href="#m269a11d371" y="655.614766"/>
     <use style="fill:#1f77b4;stroke:#1f77b4;" x="932.727212" xlink:href="#m269a11d371" y="614.330512"/>
     <use style="fill:#1f77b4;stroke:#1f77b4;" x="826.959099" xlink:href="#m269a11d371" y="624.870883"/>
     <use style="fill:#1f77b4;stroke:#1f77b4;" x="993.747277" xlink:href="#m269a11d371" y="470.52601"/>
     <use style="fill:#1f77b4;stroke:#1f77b4;" x="908.319186" xlink:href="#m269a11d371" y="630.333543"/>
     <use style="fill:#1f77b4;stroke:#1f77b4;" x="973.407255" xlink:href="#m269a11d371" y="506.149165"/>
     <use style="fill:#1f77b4;stroke:#1f77b4;" x="892.047168" xlink:href="#m269a11d371" y="597.604479"/>
     <use style="fill:#1f77b4;stroke:#1f77b4;" x="717.122981" xlink:href="#m269a11d371" y="672.632168"/>
     <use style="fill:#1f77b4;stroke:#1f77b4;" x="875.775151" xlink:href="#m269a11d371" y="502.621679"/>
     <use style="fill:#1f77b4;stroke:#1f77b4;" x="851.367125" xlink:href="#m269a11d371" y="601.258041"/>
     <use style="fill:#1f77b4;stroke:#1f77b4;" x="1034.42732" xlink:href="#m269a11d371" y="406.332723"/>
     <use style="fill:#1f77b4;stroke:#1f77b4;" x="912.38719" xlink:href="#m269a11d371" y="523.328589"/>
     <use style="fill:#1f77b4;stroke:#1f77b4;" x="831.027103" xlink:href="#m269a11d371" y="671.28439"/>
     <use style="fill:#1f77b4;stroke:#1f77b4;" x="871.707146" xlink:href="#m269a11d371" y="640.634412"/>
     <use style="fill:#1f77b4;stroke:#1f77b4;" x="961.203242" xlink:href="#m269a11d371" y="551.463054"/>
     <use style="fill:#1f77b4;stroke:#1f77b4;" x="839.163112" xlink:href="#m269a11d371" y="626.89068"/>
     <use style="fill:#1f77b4;stroke:#1f77b4;" x="1099.51539" xlink:href="#m269a11d371" y="238.39805"/>
     <use style="fill:#1f77b4;stroke:#1f77b4;" x="1164.60346" xlink:href="#m269a11d371" y="513.657387"/>
     <use style="fill:#1f77b4;stroke:#1f77b4;" x="953.067233" xlink:href="#m269a11d371" y="531.022372"/>
     <use style="fill:#1f77b4;stroke:#1f77b4;" x="871.707146" xlink:href="#m269a11d371" y="588.451653"/>
     <use style="fill:#1f77b4;stroke:#1f77b4;" x="351.00259" xlink:href="#m269a11d371" y="1226.471878"/>
     <use style="fill:#1f77b4;stroke:#1f77b4;" x="684.578946" xlink:href="#m269a11d371" y="743.502566"/>
     <use style="fill:#1f77b4;stroke:#1f77b4;" x="826.959099" xlink:href="#m269a11d371" y="626.215959"/>
    </g>
   </g>
   <g id="matplotlib.axis_1">
    <g id="xtick_1">
     <g id="line2d_1">
      <defs>
       <path d="M 0 0 
L 0 3.5 
" id="me8a75875fe" style="stroke:#000000;stroke-width:0.8;"/>
      </defs>
      <g>
       <use style="stroke:#000000;stroke-width:0.8;" x="180.146407" xlink:href="#me8a75875fe" y="1281.6"/>
      </g>
     </g>
     <g id="text_1">
      <!-- −15 -->
      <defs>
       <path d="M 10.59375 35.5 
L 73.1875 35.5 
L 73.1875 27.203125 
L 10.59375 27.203125 
z
" id="DejaVuSans-2212"/>
       <path d="M 12.40625 8.296875 
L 28.515625 8.296875 
L 28.515625 63.921875 
L 10.984375 60.40625 
L 10.984375 69.390625 
L 28.421875 72.90625 
L 38.28125 72.90625 
L 38.28125 8.296875 
L 54.390625 8.296875 
L 54.390625 0 
L 12.40625 0 
z
" id="DejaVuSans-31"/>
       <path d="M 10.796875 72.90625 
L 49.515625 72.90625 
L 49.515625 64.59375 
L 19.828125 64.59375 
L 19.828125 46.734375 
Q 21.96875 47.46875 24.109375 47.828125 
Q 26.265625 48.1875 28.421875 48.1875 
Q 40.625 48.1875 47.75 41.5 
Q 54.890625 34.8125 54.890625 23.390625 
Q 54.890625 11.625 47.5625 5.09375 
Q 40.234375 -1.421875 26.90625 -1.421875 
Q 22.3125 -1.421875 17.546875 -0.640625 
Q 12.796875 0.140625 7.71875 1.703125 
L 7.71875 11.625 
Q 12.109375 9.234375 16.796875 8.0625 
Q 21.484375 6.890625 26.703125 6.890625 
Q 35.15625 6.890625 40.078125 11.328125 
Q 45.015625 15.765625 45.015625 23.390625 
Q 45.015625 31 40.078125 35.4375 
Q 35.15625 39.890625 26.703125 39.890625 
Q 22.75 39.890625 18.8125 39.015625 
Q 14.890625 38.140625 10.796875 36.28125 
z
" id="DejaVuSans-35"/>
      </defs>
      <g transform="translate(169.594064 1296.198437)scale(0.1 -0.1)">
       <use xlink:href="#DejaVuSans-2212"/>
       <use x="83.789062" xlink:href="#DejaVuSans-31"/>
       <use x="147.412109" xlink:href="#DejaVuSans-35"/>
      </g>
     </g>
    </g>
    <g id="xtick_2">
     <g id="line2d_2">
      <g>
       <use style="stroke:#000000;stroke-width:0.8;" x="383.546625" xlink:href="#me8a75875fe" y="1281.6"/>
      </g>
     </g>
     <g id="text_2">
      <!-- −10 -->
      <defs>
       <path d="M 31.78125 66.40625 
Q 24.171875 66.40625 20.328125 58.90625 
Q 16.5 51.421875 16.5 36.375 
Q 16.5 21.390625 20.328125 13.890625 
Q 24.171875 6.390625 31.78125 6.390625 
Q 39.453125 6.390625 43.28125 13.890625 
Q 47.125 21.390625 47.125 36.375 
Q 47.125 51.421875 43.28125 58.90625 
Q 39.453125 66.40625 31.78125 66.40625 
z
M 31.78125 74.21875 
Q 44.046875 74.21875 50.515625 64.515625 
Q 56.984375 54.828125 56.984375 36.375 
Q 56.984375 17.96875 50.515625 8.265625 
Q 44.046875 -1.421875 31.78125 -1.421875 
Q 19.53125 -1.421875 13.0625 8.265625 
Q 6.59375 17.96875 6.59375 36.375 
Q 6.59375 54.828125 13.0625 64.515625 
Q 19.53125 74.21875 31.78125 74.21875 
z
" id="DejaVuSans-30"/>
      </defs>
      <g transform="translate(372.994281 1296.198437)scale(0.1 -0.1)">
       <use xlink:href="#DejaVuSans-2212"/>
       <use x="83.789062" xlink:href="#DejaVuSans-31"/>
       <use x="147.412109" xlink:href="#DejaVuSans-30"/>
      </g>
     </g>
    </g>
    <g id="xtick_3">
     <g id="line2d_3">
      <g>
       <use style="stroke:#000000;stroke-width:0.8;" x="586.946842" xlink:href="#me8a75875fe" y="1281.6"/>
      </g>
     </g>
     <g id="text_3">
      <!-- −5 -->
      <g transform="translate(579.575748 1296.198437)scale(0.1 -0.1)">
       <use xlink:href="#DejaVuSans-2212"/>
       <use x="83.789062" xlink:href="#DejaVuSans-35"/>
      </g>
     </g>
    </g>
    <g id="xtick_4">
     <g id="line2d_4">
      <g>
       <use style="stroke:#000000;stroke-width:0.8;" x="790.34706" xlink:href="#me8a75875fe" y="1281.6"/>
      </g>
     </g>
     <g id="text_4">
      <!-- 0 -->
      <g transform="translate(787.16581 1296.198437)scale(0.1 -0.1)">
       <use xlink:href="#DejaVuSans-30"/>
      </g>
     </g>
    </g>
    <g id="xtick_5">
     <g id="line2d_5">
      <g>
       <use style="stroke:#000000;stroke-width:0.8;" x="993.747277" xlink:href="#me8a75875fe" y="1281.6"/>
      </g>
     </g>
     <g id="text_5">
      <!-- 5 -->
      <g transform="translate(990.566027 1296.198437)scale(0.1 -0.1)">
       <use xlink:href="#DejaVuSans-35"/>
      </g>
     </g>
    </g>
    <g id="xtick_6">
     <g id="line2d_6">
      <g>
       <use style="stroke:#000000;stroke-width:0.8;" x="1197.147494" xlink:href="#me8a75875fe" y="1281.6"/>
      </g>
     </g>
     <g id="text_6">
      <!-- 10 -->
      <g transform="translate(1190.784994 1296.198437)scale(0.1 -0.1)">
       <use xlink:href="#DejaVuSans-31"/>
       <use x="63.623047" xlink:href="#DejaVuSans-30"/>
      </g>
     </g>
    </g>
    <g id="text_7">
     <!-- Y Test -->
     <defs>
      <path d="M -0.203125 72.90625 
L 10.40625 72.90625 
L 30.609375 42.921875 
L 50.6875 72.90625 
L 61.28125 72.90625 
L 35.5 34.71875 
L 35.5 0 
L 25.59375 0 
L 25.59375 34.71875 
z
" id="DejaVuSans-59"/>
      <path id="DejaVuSans-20"/>
      <path d="M -0.296875 72.90625 
L 61.375 72.90625 
L 61.375 64.59375 
L 35.5 64.59375 
L 35.5 0 
L 25.59375 0 
L 25.59375 64.59375 
L -0.296875 64.59375 
z
" id="DejaVuSans-54"/>
      <path d="M 56.203125 29.59375 
L 56.203125 25.203125 
L 14.890625 25.203125 
Q 15.484375 15.921875 20.484375 11.0625 
Q 25.484375 6.203125 34.421875 6.203125 
Q 39.59375 6.203125 44.453125 7.46875 
Q 49.3125 8.734375 54.109375 11.28125 
L 54.109375 2.78125 
Q 49.265625 0.734375 44.1875 -0.34375 
Q 39.109375 -1.421875 33.890625 -1.421875 
Q 20.796875 -1.421875 13.15625 6.1875 
Q 5.515625 13.8125 5.515625 26.8125 
Q 5.515625 40.234375 12.765625 48.109375 
Q 20.015625 56 32.328125 56 
Q 43.359375 56 49.78125 48.890625 
Q 56.203125 41.796875 56.203125 29.59375 
z
M 47.21875 32.234375 
Q 47.125 39.59375 43.09375 43.984375 
Q 39.0625 48.390625 32.421875 48.390625 
Q 24.90625 48.390625 20.390625 44.140625 
Q 15.875 39.890625 15.1875 32.171875 
z
" id="DejaVuSans-65"/>
      <path d="M 44.28125 53.078125 
L 44.28125 44.578125 
Q 40.484375 46.53125 36.375 47.5 
Q 32.28125 48.484375 27.875 48.484375 
Q 21.1875 48.484375 17.84375 46.4375 
Q 14.5 44.390625 14.5 40.28125 
Q 14.5 37.15625 16.890625 35.375 
Q 19.28125 33.59375 26.515625 31.984375 
L 29.59375 31.296875 
Q 39.15625 29.25 43.1875 25.515625 
Q 47.21875 21.78125 47.21875 15.09375 
Q 47.21875 7.46875 41.1875 3.015625 
Q 35.15625 -1.421875 24.609375 -1.421875 
Q 20.21875 -1.421875 15.453125 -0.5625 
Q 10.6875 0.296875 5.421875 2 
L 5.421875 11.28125 
Q 10.40625 8.6875 15.234375 7.390625 
Q 20.0625 6.109375 24.8125 6.109375 
Q 31.15625 6.109375 34.5625 8.28125 
Q 37.984375 10.453125 37.984375 14.40625 
Q 37.984375 18.0625 35.515625 20.015625 
Q 33.0625 21.96875 24.703125 23.78125 
L 21.578125 24.515625 
Q 13.234375 26.265625 9.515625 29.90625 
Q 5.8125 33.546875 5.8125 39.890625 
Q 5.8125 47.609375 11.28125 51.796875 
Q 16.75 56 26.8125 56 
Q 31.78125 56 36.171875 55.265625 
Q 40.578125 54.546875 44.28125 53.078125 
z
" id="DejaVuSans-73"/>
      <path d="M 18.3125 70.21875 
L 18.3125 54.6875 
L 36.8125 54.6875 
L 36.8125 47.703125 
L 18.3125 47.703125 
L 18.3125 18.015625 
Q 18.3125 11.328125 20.140625 9.421875 
Q 21.96875 7.515625 27.59375 7.515625 
L 36.8125 7.515625 
L 36.8125 0 
L 27.59375 0 
Q 17.1875 0 13.234375 3.875 
Q 9.28125 7.765625 9.28125 18.015625 
L 9.28125 47.703125 
L 2.6875 47.703125 
L 2.6875 54.6875 
L 9.28125 54.6875 
L 9.28125 70.21875 
z
" id="DejaVuSans-74"/>
     </defs>
     <g transform="translate(722.675 1309.876563)scale(0.1 -0.1)">
      <use xlink:href="#DejaVuSans-59"/>
      <use x="61.083984" xlink:href="#DejaVuSans-20"/>
      <use x="92.871094" xlink:href="#DejaVuSans-54"/>
      <use x="153.689453" xlink:href="#DejaVuSans-65"/>
      <use x="215.212891" xlink:href="#DejaVuSans-73"/>
      <use x="267.3125" xlink:href="#DejaVuSans-74"/>
     </g>
    </g>
   </g>
   <g id="matplotlib.axis_2">
    <g id="ytick_1">
     <g id="line2d_7">
      <defs>
       <path d="M 0 0 
L -3.5 0 
" id="m28e1af2d8e" style="stroke:#000000;stroke-width:0.8;"/>
      </defs>
      <g>
       <use style="stroke:#000000;stroke-width:0.8;" x="180" xlink:href="#m28e1af2d8e" y="1281.454537"/>
      </g>
     </g>
     <g id="text_8">
      <!-- −15 -->
      <g transform="translate(151.895312 1285.253756)scale(0.1 -0.1)">
       <use xlink:href="#DejaVuSans-2212"/>
       <use x="83.789062" xlink:href="#DejaVuSans-31"/>
       <use x="147.412109" xlink:href="#DejaVuSans-35"/>
      </g>
     </g>
    </g>
    <g id="ytick_2">
     <g id="line2d_8">
      <g>
       <use style="stroke:#000000;stroke-width:0.8;" x="180" xlink:href="#m28e1af2d8e" y="1079.366579"/>
      </g>
     </g>
     <g id="text_9">
      <!-- −10 -->
      <g transform="translate(151.895312 1083.165798)scale(0.1 -0.1)">
       <use xlink:href="#DejaVuSans-2212"/>
       <use x="83.789062" xlink:href="#DejaVuSans-31"/>
       <use x="147.412109" xlink:href="#DejaVuSans-30"/>
      </g>
     </g>
    </g>
    <g id="ytick_3">
     <g id="line2d_9">
      <g>
       <use style="stroke:#000000;stroke-width:0.8;" x="180" xlink:href="#m28e1af2d8e" y="877.278621"/>
      </g>
     </g>
     <g id="text_10">
      <!-- −5 -->
      <g transform="translate(158.257812 881.07784)scale(0.1 -0.1)">
       <use xlink:href="#DejaVuSans-2212"/>
       <use x="83.789062" xlink:href="#DejaVuSans-35"/>
      </g>
     </g>
    </g>
    <g id="ytick_4">
     <g id="line2d_10">
      <g>
       <use style="stroke:#000000;stroke-width:0.8;" x="180" xlink:href="#m28e1af2d8e" y="675.190663"/>
      </g>
     </g>
     <g id="text_11">
      <!-- 0 -->
      <g transform="translate(166.6375 678.989882)scale(0.1 -0.1)">
       <use xlink:href="#DejaVuSans-30"/>
      </g>
     </g>
    </g>
    <g id="ytick_5">
     <g id="line2d_11">
      <g>
       <use style="stroke:#000000;stroke-width:0.8;" x="180" xlink:href="#m28e1af2d8e" y="473.102705"/>
      </g>
     </g>
     <g id="text_12">
      <!-- 5 -->
      <g transform="translate(166.6375 476.901924)scale(0.1 -0.1)">
       <use xlink:href="#DejaVuSans-35"/>
      </g>
     </g>
    </g>
    <g id="ytick_6">
     <g id="line2d_12">
      <g>
       <use style="stroke:#000000;stroke-width:0.8;" x="180" xlink:href="#m28e1af2d8e" y="271.014748"/>
      </g>
     </g>
     <g id="text_13">
      <!-- 10 -->
      <g transform="translate(160.275 274.813966)scale(0.1 -0.1)">
       <use xlink:href="#DejaVuSans-31"/>
       <use x="63.623047" xlink:href="#DejaVuSans-30"/>
      </g>
     </g>
    </g>
    <g id="text_14">
     <!-- Y Predicted -->
     <defs>
      <path d="M 19.671875 64.796875 
L 19.671875 37.40625 
L 32.078125 37.40625 
Q 38.96875 37.40625 42.71875 40.96875 
Q 46.484375 44.53125 46.484375 51.125 
Q 46.484375 57.671875 42.71875 61.234375 
Q 38.96875 64.796875 32.078125 64.796875 
z
M 9.8125 72.90625 
L 32.078125 72.90625 
Q 44.34375 72.90625 50.609375 67.359375 
Q 56.890625 61.8125 56.890625 51.125 
Q 56.890625 40.328125 50.609375 34.8125 
Q 44.34375 29.296875 32.078125 29.296875 
L 19.671875 29.296875 
L 19.671875 0 
L 9.8125 0 
z
" id="DejaVuSans-50"/>
      <path d="M 41.109375 46.296875 
Q 39.59375 47.171875 37.8125 47.578125 
Q 36.03125 48 33.890625 48 
Q 26.265625 48 22.1875 43.046875 
Q 18.109375 38.09375 18.109375 28.8125 
L 18.109375 0 
L 9.078125 0 
L 9.078125 54.6875 
L 18.109375 54.6875 
L 18.109375 46.1875 
Q 20.953125 51.171875 25.484375 53.578125 
Q 30.03125 56 36.53125 56 
Q 37.453125 56 38.578125 55.875 
Q 39.703125 55.765625 41.0625 55.515625 
z
" id="DejaVuSans-72"/>
      <path d="M 45.40625 46.390625 
L 45.40625 75.984375 
L 54.390625 75.984375 
L 54.390625 0 
L 45.40625 0 
L 45.40625 8.203125 
Q 42.578125 3.328125 38.25 0.953125 
Q 33.9375 -1.421875 27.875 -1.421875 
Q 17.96875 -1.421875 11.734375 6.484375 
Q 5.515625 14.40625 5.515625 27.296875 
Q 5.515625 40.1875 11.734375 48.09375 
Q 17.96875 56 27.875 56 
Q 33.9375 56 38.25 53.625 
Q 42.578125 51.265625 45.40625 46.390625 
z
M 14.796875 27.296875 
Q 14.796875 17.390625 18.875 11.75 
Q 22.953125 6.109375 30.078125 6.109375 
Q 37.203125 6.109375 41.296875 11.75 
Q 45.40625 17.390625 45.40625 27.296875 
Q 45.40625 37.203125 41.296875 42.84375 
Q 37.203125 48.484375 30.078125 48.484375 
Q 22.953125 48.484375 18.875 42.84375 
Q 14.796875 37.203125 14.796875 27.296875 
z
" id="DejaVuSans-64"/>
      <path d="M 9.421875 54.6875 
L 18.40625 54.6875 
L 18.40625 0 
L 9.421875 0 
z
M 9.421875 75.984375 
L 18.40625 75.984375 
L 18.40625 64.59375 
L 9.421875 64.59375 
z
" id="DejaVuSans-69"/>
      <path d="M 48.78125 52.59375 
L 48.78125 44.1875 
Q 44.96875 46.296875 41.140625 47.34375 
Q 37.3125 48.390625 33.40625 48.390625 
Q 24.65625 48.390625 19.8125 42.84375 
Q 14.984375 37.3125 14.984375 27.296875 
Q 14.984375 17.28125 19.8125 11.734375 
Q 24.65625 6.203125 33.40625 6.203125 
Q 37.3125 6.203125 41.140625 7.25 
Q 44.96875 8.296875 48.78125 10.40625 
L 48.78125 2.09375 
Q 45.015625 0.34375 40.984375 -0.53125 
Q 36.96875 -1.421875 32.421875 -1.421875 
Q 20.0625 -1.421875 12.78125 6.34375 
Q 5.515625 14.109375 5.515625 27.296875 
Q 5.515625 40.671875 12.859375 48.328125 
Q 20.21875 56 33.015625 56 
Q 37.15625 56 41.109375 55.140625 
Q 45.0625 54.296875 48.78125 52.59375 
z
" id="DejaVuSans-63"/>
     </defs>
     <g transform="translate(145.815625 755.510937)rotate(-90)scale(0.1 -0.1)">
      <use xlink:href="#DejaVuSans-59"/>
      <use x="61.083984" xlink:href="#DejaVuSans-20"/>
      <use x="92.871094" xlink:href="#DejaVuSans-50"/>
      <use x="153.158203" xlink:href="#DejaVuSans-72"/>
      <use x="194.240234" xlink:href="#DejaVuSans-65"/>
      <use x="255.763672" xlink:href="#DejaVuSans-64"/>
      <use x="319.240234" xlink:href="#DejaVuSans-69"/>
      <use x="347.023438" xlink:href="#DejaVuSans-63"/>
      <use x="402.003906" xlink:href="#DejaVuSans-74"/>
      <use x="441.212891" xlink:href="#DejaVuSans-65"/>
      <use x="502.736328" xlink:href="#DejaVuSans-64"/>
     </g>
    </g>
   </g>
   <g id="line2d_13">
    <path clip-path="url(#p6e157d93e4)" d="M 180 1281.6 
L 1296 172.8 
" style="fill:none;stroke:#1f77b4;stroke-dasharray:5.55,2.4;stroke-dashoffset:0;stroke-width:1.5;"/>
   </g>
   <g id="patch_3">
    <path d="M 180 1281.6 
L 180 172.8 
" style="fill:none;stroke:#000000;stroke-linecap:square;stroke-linejoin:miter;stroke-width:0.8;"/>
   </g>
   <g id="patch_4">
    <path d="M 1296 1281.6 
L 1296 172.8 
" style="fill:none;stroke:#000000;stroke-linecap:square;stroke-linejoin:miter;stroke-width:0.8;"/>
   </g>
   <g id="patch_5">
    <path d="M 180 1281.6 
L 1296 1281.6 
" style="fill:none;stroke:#000000;stroke-linecap:square;stroke-linejoin:miter;stroke-width:0.8;"/>
   </g>
   <g id="patch_6">
    <path d="M 180 172.8 
L 1296 172.8 
" style="fill:none;stroke:#000000;stroke-linecap:square;stroke-linejoin:miter;stroke-width:0.8;"/>
   </g>
  </g>
 </g>
 <defs>
  <clipPath id="p6e157d93e4">
   <rect height="1108.8" width="1116" x="180" y="172.8"/>
  </clipPath>
 </defs>
</svg>
