<?xml version="1.0" encoding="utf-8" standalone="no"?>
<!DOCTYPE svg PUBLIC "-//W3C//DTD SVG 1.1//EN"
  "http://www.w3.org/Graphics/SVG/1.1/DTD/svg11.dtd">
<!-- Created with matplotlib (http://matplotlib.org/) -->
<svg height="1440pt" version="1.1" viewBox="0 0 1440 1440" width="1440pt" xmlns="http://www.w3.org/2000/svg" xmlns:xlink="http://www.w3.org/1999/xlink">
 <defs>
  <style type="text/css">
*{stroke-linecap:butt;stroke-linejoin:round;}
  </style>
 </defs>
 <g id="figure_1">
  <g id="patch_1">
   <path d="M 0 1440 
L 1440 1440 
L 1440 0 
L 0 0 
z
" style="fill:#ffffff;"/>
  </g>
  <g id="axes_1">
   <g id="patch_2">
    <path d="M 180 1281.6 
L 1296 1281.6 
L 1296 172.8 
L 180 172.8 
z
" style="fill:#ffffff;"/>
   </g>
   <g id="PathCollection_1">
    <defs>
     <path d="M 0 3 
C 0.795609 3 1.55874 2.683901 2.12132 2.12132 
C 2.683901 1.55874 3 0.795609 3 0 
C 3 -0.795609 2.683901 -1.55874 2.12132 -2.12132 
C 1.55874 -2.683901 0.795609 -3 0 -3 
C -0.795609 -3 -1.55874 -2.683901 -2.12132 -2.12132 
C -2.683901 -1.55874 -3 -0.795609 -3 0 
C -3 0.795609 -2.683901 1.55874 -2.12132 2.12132 
C -1.55874 2.683901 -0.795609 3 0 3 
z
" id="m051e81c5d8" style="stroke:#1f77b4;"/>
    </defs>
    <g clip-path="url(#pcc4120cc62)">
     <use style="fill:#1f77b4;stroke:#1f77b4;" x="286.241084" xlink:href="#m051e81c5d8" y="1177.261552"/>
     <use style="fill:#1f77b4;stroke:#1f77b4;" x="336.736304" xlink:href="#m051e81c5d8" y="1136.539781"/>
     <use style="fill:#1f77b4;stroke:#1f77b4;" x="253.483562" xlink:href="#m051e81c5d8" y="1208.588284"/>
     <use style="fill:#1f77b4;stroke:#1f77b4;" x="271.507351" xlink:href="#m051e81c5d8" y="1177.131849"/>
     <use style="fill:#1f77b4;stroke:#1f77b4;" x="329.870099" xlink:href="#m051e81c5d8" y="1112.910278"/>
     <use style="fill:#1f77b4;stroke:#1f77b4;" x="326.29395" xlink:href="#m051e81c5d8" y="1089.537751"/>
     <use style="fill:#1f77b4;stroke:#1f77b4;" x="309.843666" xlink:href="#m051e81c5d8" y="1018.421124"/>
     <use style="fill:#1f77b4;stroke:#1f77b4;" x="315.136366" xlink:href="#m051e81c5d8" y="1153.500626"/>
     <use style="fill:#1f77b4;stroke:#1f77b4;" x="264.784192" xlink:href="#m051e81c5d8" y="1172.153143"/>
     <use style="fill:#1f77b4;stroke:#1f77b4;" x="344.174694" xlink:href="#m051e81c5d8" y="1134.850428"/>
     <use style="fill:#1f77b4;stroke:#1f77b4;" x="288.386773" xlink:href="#m051e81c5d8" y="1184.009923"/>
     <use style="fill:#1f77b4;stroke:#1f77b4;" x="477.77961" xlink:href="#m051e81c5d8" y="1014.442132"/>
     <use style="fill:#1f77b4;stroke:#1f77b4;" x="315.279412" xlink:href="#m051e81c5d8" y="1137.126599"/>
     <use style="fill:#1f77b4;stroke:#1f77b4;" x="436.296285" xlink:href="#m051e81c5d8" y="1044.539094"/>
     <use style="fill:#1f77b4;stroke:#1f77b4;" x="363.628943" xlink:href="#m051e81c5d8" y="1098.926155"/>
     <use style="fill:#1f77b4;stroke:#1f77b4;" x="336.16412" xlink:href="#m051e81c5d8" y="1138.412289"/>
     <use style="fill:#1f77b4;stroke:#1f77b4;" x="275.941776" xlink:href="#m051e81c5d8" y="1156.164924"/>
     <use style="fill:#1f77b4;stroke:#1f77b4;" x="456.322717" xlink:href="#m051e81c5d8" y="1002.732146"/>
     <use style="fill:#1f77b4;stroke:#1f77b4;" x="699.500831" xlink:href="#m051e81c5d8" y="828.777608"/>
     <use style="fill:#1f77b4;stroke:#1f77b4;" x="369.064689" xlink:href="#m051e81c5d8" y="1120.677649"/>
     <use style="fill:#1f77b4;stroke:#1f77b4;" x="386.230203" xlink:href="#m051e81c5d8" y="1084.086275"/>
     <use style="fill:#1f77b4;stroke:#1f77b4;" x="279.374879" xlink:href="#m051e81c5d8" y="1172.44829"/>
     <use style="fill:#1f77b4;stroke:#1f77b4;" x="371.925608" xlink:href="#m051e81c5d8" y="1094.084366"/>
     <use style="fill:#1f77b4;stroke:#1f77b4;" x="261.780227" xlink:href="#m051e81c5d8" y="1233.313193"/>
     <use style="fill:#1f77b4;stroke:#1f77b4;" x="303.406598" xlink:href="#m051e81c5d8" y="1174.604771"/>
     <use style="fill:#1f77b4;stroke:#1f77b4;" x="351.470037" xlink:href="#m051e81c5d8" y="1120.465349"/>
     <use style="fill:#1f77b4;stroke:#1f77b4;" x="282.664935" xlink:href="#m051e81c5d8" y="1174.576054"/>
     <use style="fill:#1f77b4;stroke:#1f77b4;" x="295.252979" xlink:href="#m051e81c5d8" y="1163.20183"/>
     <use style="fill:#1f77b4;stroke:#1f77b4;" x="299.687403" xlink:href="#m051e81c5d8" y="1151.195376"/>
     <use style="fill:#1f77b4;stroke:#1f77b4;" x="261.780227" xlink:href="#m051e81c5d8" y="1203.80666"/>
     <use style="fill:#1f77b4;stroke:#1f77b4;" x="255.057067" xlink:href="#m051e81c5d8" y="1181.182323"/>
     <use style="fill:#1f77b4;stroke:#1f77b4;" x="274.940454" xlink:href="#m051e81c5d8" y="1185.727467"/>
     <use style="fill:#1f77b4;stroke:#1f77b4;" x="347.321704" xlink:href="#m051e81c5d8" y="1106.586663"/>
     <use style="fill:#1f77b4;stroke:#1f77b4;" x="366.346816" xlink:href="#m051e81c5d8" y="1087.694495"/>
     <use style="fill:#1f77b4;stroke:#1f77b4;" x="477.77961" xlink:href="#m051e81c5d8" y="1006.502131"/>
     <use style="fill:#1f77b4;stroke:#1f77b4;" x="365.345494" xlink:href="#m051e81c5d8" y="1117.903182"/>
     <use style="fill:#1f77b4;stroke:#1f77b4;" x="283.952349" xlink:href="#m051e81c5d8" y="1185.739854"/>
     <use style="fill:#1f77b4;stroke:#1f77b4;" x="347.178658" xlink:href="#m051e81c5d8" y="1130.987438"/>
     <use style="fill:#1f77b4;stroke:#1f77b4;" x="266.786835" xlink:href="#m051e81c5d8" y="1160.40614"/>
     <use style="fill:#1f77b4;stroke:#1f77b4;" x="304.121828" xlink:href="#m051e81c5d8" y="1153.398867"/>
     <use style="fill:#1f77b4;stroke:#1f77b4;" x="410.548014" xlink:href="#m051e81c5d8" y="1102.467475"/>
     <use style="fill:#1f77b4;stroke:#1f77b4;" x="303.406598" xlink:href="#m051e81c5d8" y="1158.402082"/>
     <use style="fill:#1f77b4;stroke:#1f77b4;" x="409.117554" xlink:href="#m051e81c5d8" y="1065.823434"/>
     <use style="fill:#1f77b4;stroke:#1f77b4;" x="421.99169" xlink:href="#m051e81c5d8" y="1052.156991"/>
     <use style="fill:#1f77b4;stroke:#1f77b4;" x="399.104338" xlink:href="#m051e81c5d8" y="1060.839682"/>
     <use style="fill:#1f77b4;stroke:#1f77b4;" x="386.230203" xlink:href="#m051e81c5d8" y="1063.262603"/>
     <use style="fill:#1f77b4;stroke:#1f77b4;" x="393.3825" xlink:href="#m051e81c5d8" y="1048.591995"/>
     <use style="fill:#1f77b4;stroke:#1f77b4;" x="277.944419" xlink:href="#m051e81c5d8" y="1187.070425"/>
     <use style="fill:#1f77b4;stroke:#1f77b4;" x="258.204078" xlink:href="#m051e81c5d8" y="1220.298347"/>
     <use style="fill:#1f77b4;stroke:#1f77b4;" x="295.825163" xlink:href="#m051e81c5d8" y="1155.607852"/>
     <use style="fill:#1f77b4;stroke:#1f77b4;" x="328.582685" xlink:href="#m051e81c5d8" y="1124.694846"/>
     <use style="fill:#1f77b4;stroke:#1f77b4;" x="315.136366" xlink:href="#m051e81c5d8" y="1167.968235"/>
     <use style="fill:#1f77b4;stroke:#1f77b4;" x="246.47431" xlink:href="#m051e81c5d8" y="1205.661167"/>
     <use style="fill:#1f77b4;stroke:#1f77b4;" x="305.552287" xlink:href="#m051e81c5d8" y="1161.873862"/>
     <use style="fill:#1f77b4;stroke:#1f77b4;" x="332.30188" xlink:href="#m051e81c5d8" y="1161.512448"/>
     <use style="fill:#1f77b4;stroke:#1f77b4;" x="379.077905" xlink:href="#m051e81c5d8" y="1122.1316"/>
     <use style="fill:#1f77b4;stroke:#1f77b4;" x="414.839392" xlink:href="#m051e81c5d8" y="1064.80665"/>
     <use style="fill:#1f77b4;stroke:#1f77b4;" x="271.364306" xlink:href="#m051e81c5d8" y="1179.105175"/>
     <use style="fill:#1f77b4;stroke:#1f77b4;" x="328.582685" xlink:href="#m051e81c5d8" y="1133.595192"/>
     <use style="fill:#1f77b4;stroke:#1f77b4;" x="373.356067" xlink:href="#m051e81c5d8" y="1124.871458"/>
     <use style="fill:#1f77b4;stroke:#1f77b4;" x="342.17205" xlink:href="#m051e81c5d8" y="1118.692643"/>
     <use style="fill:#1f77b4;stroke:#1f77b4;" x="321.573434" xlink:href="#m051e81c5d8" y="1138.23506"/>
     <use style="fill:#1f77b4;stroke:#1f77b4;" x="277.944419" xlink:href="#m051e81c5d8" y="1180.261743"/>
     <use style="fill:#1f77b4;stroke:#1f77b4;" x="332.874064" xlink:href="#m051e81c5d8" y="1099.938035"/>
     <use style="fill:#1f77b4;stroke:#1f77b4;" x="295.825163" xlink:href="#m051e81c5d8" y="1158.074942"/>
     <use style="fill:#1f77b4;stroke:#1f77b4;" x="252.339194" xlink:href="#m051e81c5d8" y="1193.381156"/>
     <use style="fill:#1f77b4;stroke:#1f77b4;" x="342.029004" xlink:href="#m051e81c5d8" y="1108.029418"/>
     <use style="fill:#1f77b4;stroke:#1f77b4;" x="323.719123" xlink:href="#m051e81c5d8" y="1116.314257"/>
     <use style="fill:#1f77b4;stroke:#1f77b4;" x="312.847631" xlink:href="#m051e81c5d8" y="1175.590662"/>
     <use style="fill:#1f77b4;stroke:#1f77b4;" x="291.104646" xlink:href="#m051e81c5d8" y="1193.519571"/>
     <use style="fill:#1f77b4;stroke:#1f77b4;" x="342.029004" xlink:href="#m051e81c5d8" y="1105.315057"/>
     <use style="fill:#1f77b4;stroke:#1f77b4;" x="275.79873" xlink:href="#m051e81c5d8" y="1209.95214"/>
     <use style="fill:#1f77b4;stroke:#1f77b4;" x="421.99169" xlink:href="#m051e81c5d8" y="1057.630164"/>
     <use style="fill:#1f77b4;stroke:#1f77b4;" x="288.672865" xlink:href="#m051e81c5d8" y="1139.951807"/>
     <use style="fill:#1f77b4;stroke:#1f77b4;" x="387.660662" xlink:href="#m051e81c5d8" y="1060.83706"/>
     <use style="fill:#1f77b4;stroke:#1f77b4;" x="482.070988" xlink:href="#m051e81c5d8" y="990.160202"/>
     <use style="fill:#1f77b4;stroke:#1f77b4;" x="763.871508" xlink:href="#m051e81c5d8" y="687.621013"/>
     <use style="fill:#1f77b4;stroke:#1f77b4;" x="258.347124" xlink:href="#m051e81c5d8" y="1187.336718"/>
     <use style="fill:#1f77b4;stroke:#1f77b4;" x="270.792122" xlink:href="#m051e81c5d8" y="1188.257517"/>
     <use style="fill:#1f77b4;stroke:#1f77b4;" x="268.789478" xlink:href="#m051e81c5d8" y="1178.197584"/>
     <use style="fill:#1f77b4;stroke:#1f77b4;" x="309.128436" xlink:href="#m051e81c5d8" y="1118.00233"/>
     <use style="fill:#1f77b4;stroke:#1f77b4;" x="303.549644" xlink:href="#m051e81c5d8" y="1162.496482"/>
     <use style="fill:#1f77b4;stroke:#1f77b4;" x="317.425101" xlink:href="#m051e81c5d8" y="1119.324914"/>
     <use style="fill:#1f77b4;stroke:#1f77b4;" x="393.3825" xlink:href="#m051e81c5d8" y="1099.95878"/>
     <use style="fill:#1f77b4;stroke:#1f77b4;" x="437.726744" xlink:href="#m051e81c5d8" y="1008.418608"/>
     <use style="fill:#1f77b4;stroke:#1f77b4;" x="280.233154" xlink:href="#m051e81c5d8" y="1172.333846"/>
     <use style="fill:#1f77b4;stroke:#1f77b4;" x="277.372235" xlink:href="#m051e81c5d8" y="1169.228816"/>
     <use style="fill:#1f77b4;stroke:#1f77b4;" x="224.58828" xlink:href="#m051e81c5d8" y="1209.255793"/>
     <use style="fill:#1f77b4;stroke:#1f77b4;" x="328.868777" xlink:href="#m051e81c5d8" y="1124.843481"/>
     <use style="fill:#1f77b4;stroke:#1f77b4;" x="275.369592" xlink:href="#m051e81c5d8" y="1277.572671"/>
     <use style="fill:#1f77b4;stroke:#1f77b4;" x="292.821198" xlink:href="#m051e81c5d8" y="1170.244437"/>
     <use style="fill:#1f77b4;stroke:#1f77b4;" x="263.210686" xlink:href="#m051e81c5d8" y="1163.503283"/>
     <use style="fill:#1f77b4;stroke:#1f77b4;" x="459.183636" xlink:href="#m051e81c5d8" y="996.463575"/>
     <use style="fill:#1f77b4;stroke:#1f77b4;" x="406.256635" xlink:href="#m051e81c5d8" y="1073.462518"/>
     <use style="fill:#1f77b4;stroke:#1f77b4;" x="397.673878" xlink:href="#m051e81c5d8" y="1093.150704"/>
     <use style="fill:#1f77b4;stroke:#1f77b4;" x="365.917678" xlink:href="#m051e81c5d8" y="1090.788378"/>
     <use style="fill:#1f77b4;stroke:#1f77b4;" x="387.660662" xlink:href="#m051e81c5d8" y="1081.85709"/>
     <use style="fill:#1f77b4;stroke:#1f77b4;" x="329.870099" xlink:href="#m051e81c5d8" y="1151.390514"/>
     <use style="fill:#1f77b4;stroke:#1f77b4;" x="264.068962" xlink:href="#m051e81c5d8" y="1187.824282"/>
     <use style="fill:#1f77b4;stroke:#1f77b4;" x="442.018123" xlink:href="#m051e81c5d8" y="1080.189612"/>
     <use style="fill:#1f77b4;stroke:#1f77b4;" x="393.3825" xlink:href="#m051e81c5d8" y="1083.421381"/>
     <use style="fill:#1f77b4;stroke:#1f77b4;" x="333.303201" xlink:href="#m051e81c5d8" y="1134.324203"/>
     <use style="fill:#1f77b4;stroke:#1f77b4;" x="294.680795" xlink:href="#m051e81c5d8" y="1154.806832"/>
     <use style="fill:#1f77b4;stroke:#1f77b4;" x="289.817233" xlink:href="#m051e81c5d8" y="1169.752397"/>
     <use style="fill:#1f77b4;stroke:#1f77b4;" x="366.489862" xlink:href="#m051e81c5d8" y="1082.491464"/>
     <use style="fill:#1f77b4;stroke:#1f77b4;" x="421.99169" xlink:href="#m051e81c5d8" y="1050.265667"/>
     <use style="fill:#1f77b4;stroke:#1f77b4;" x="233.886267" xlink:href="#m051e81c5d8" y="1204.80735"/>
     <use style="fill:#1f77b4;stroke:#1f77b4;" x="229.165751" xlink:href="#m051e81c5d8" y="1192.325145"/>
     <use style="fill:#1f77b4;stroke:#1f77b4;" x="297.112576" xlink:href="#m051e81c5d8" y="1146.005876"/>
     <use style="fill:#1f77b4;stroke:#1f77b4;" x="277.944419" xlink:href="#m051e81c5d8" y="1198.503971"/>
     <use style="fill:#1f77b4;stroke:#1f77b4;" x="417.700311" xlink:href="#m051e81c5d8" y="977.963456"/>
     <use style="fill:#1f77b4;stroke:#1f77b4;" x="294.537749" xlink:href="#m051e81c5d8" y="1190.89916"/>
     <use style="fill:#1f77b4;stroke:#1f77b4;" x="366.346816" xlink:href="#m051e81c5d8" y="1101.628476"/>
     <use style="fill:#1f77b4;stroke:#1f77b4;" x="259.491492" xlink:href="#m051e81c5d8" y="1190.854606"/>
     <use style="fill:#1f77b4;stroke:#1f77b4;" x="321.71648" xlink:href="#m051e81c5d8" y="1147.030259"/>
     <use style="fill:#1f77b4;stroke:#1f77b4;" x="419.130771" xlink:href="#m051e81c5d8" y="1042.194032"/>
     <use style="fill:#1f77b4;stroke:#1f77b4;" x="283.237119" xlink:href="#m051e81c5d8" y="1176.235975"/>
     <use style="fill:#1f77b4;stroke:#1f77b4;" x="374.786527" xlink:href="#m051e81c5d8" y="1103.711997"/>
     <use style="fill:#1f77b4;stroke:#1f77b4;" x="345.032969" xlink:href="#m051e81c5d8" y="1126.040545"/>
     <use style="fill:#1f77b4;stroke:#1f77b4;" x="371.925608" xlink:href="#m051e81c5d8" y="1075.745507"/>
     <use style="fill:#1f77b4;stroke:#1f77b4;" x="304.121828" xlink:href="#m051e81c5d8" y="1155.758388"/>
     <use style="fill:#1f77b4;stroke:#1f77b4;" x="242.469024" xlink:href="#m051e81c5d8" y="1205.506804"/>
     <use style="fill:#1f77b4;stroke:#1f77b4;" x="335.878028" xlink:href="#m051e81c5d8" y="1160.125529"/>
     <use style="fill:#1f77b4;stroke:#1f77b4;" x="327.152226" xlink:href="#m051e81c5d8" y="1127.523331"/>
     <use style="fill:#1f77b4;stroke:#1f77b4;" x="258.204078" xlink:href="#m051e81c5d8" y="1220.009879"/>
     <use style="fill:#1f77b4;stroke:#1f77b4;" x="434.865825" xlink:href="#m051e81c5d8" y="1019.458767"/>
     <use style="fill:#1f77b4;stroke:#1f77b4;" x="517.832476" xlink:href="#m051e81c5d8" y="944.15484"/>
     <use style="fill:#1f77b4;stroke:#1f77b4;" x="241.753794" xlink:href="#m051e81c5d8" y="1233.08263"/>
     <use style="fill:#1f77b4;stroke:#1f77b4;" x="360.19584" xlink:href="#m051e81c5d8" y="1098.275545"/>
     <use style="fill:#1f77b4;stroke:#1f77b4;" x="319.713836" xlink:href="#m051e81c5d8" y="1140.179601"/>
     <use style="fill:#1f77b4;stroke:#1f77b4;" x="229.165751" xlink:href="#m051e81c5d8" y="1205.494787"/>
     <use style="fill:#1f77b4;stroke:#1f77b4;" x="373.356067" xlink:href="#m051e81c5d8" y="1103.852138"/>
     <use style="fill:#1f77b4;stroke:#1f77b4;" x="904.056538" xlink:href="#m051e81c5d8" y="610.215451"/>
     <use style="fill:#1f77b4;stroke:#1f77b4;" x="293.822519" xlink:href="#m051e81c5d8" y="1163.450269"/>
     <use style="fill:#1f77b4;stroke:#1f77b4;" x="354.90314" xlink:href="#m051e81c5d8" y="1140.292263"/>
     <use style="fill:#1f77b4;stroke:#1f77b4;" x="384.799743" xlink:href="#m051e81c5d8" y="1073.395933"/>
     <use style="fill:#1f77b4;stroke:#1f77b4;" x="285.811946" xlink:href="#m051e81c5d8" y="1189.847476"/>
     <use style="fill:#1f77b4;stroke:#1f77b4;" x="377.647446" xlink:href="#m051e81c5d8" y="1033.942555"/>
     <use style="fill:#1f77b4;stroke:#1f77b4;" x="317.282055" xlink:href="#m051e81c5d8" y="1136.803769"/>
     <use style="fill:#1f77b4;stroke:#1f77b4;" x="349.038256" xlink:href="#m051e81c5d8" y="1112.795744"/>
     <use style="fill:#1f77b4;stroke:#1f77b4;" x="365.48854" xlink:href="#m051e81c5d8" y="1087.228075"/>
     <use style="fill:#1f77b4;stroke:#1f77b4;" x="311.417171" xlink:href="#m051e81c5d8" y="1150.212457"/>
     <use style="fill:#1f77b4;stroke:#1f77b4;" x="332.874064" xlink:href="#m051e81c5d8" y="1122.389496"/>
     <use style="fill:#1f77b4;stroke:#1f77b4;" x="353.043542" xlink:href="#m051e81c5d8" y="1089.222523"/>
     <use style="fill:#1f77b4;stroke:#1f77b4;" x="282.52189" xlink:href="#m051e81c5d8" y="1138.138283"/>
     <use style="fill:#1f77b4;stroke:#1f77b4;" x="266.786835" xlink:href="#m051e81c5d8" y="1196.975303"/>
     <use style="fill:#1f77b4;stroke:#1f77b4;" x="352.328313" xlink:href="#m051e81c5d8" y="1141.674203"/>
     <use style="fill:#1f77b4;stroke:#1f77b4;" x="404.826176" xlink:href="#m051e81c5d8" y="1093.278501"/>
     <use style="fill:#1f77b4;stroke:#1f77b4;" x="270.076892" xlink:href="#m051e81c5d8" y="1207.744659"/>
     <use style="fill:#1f77b4;stroke:#1f77b4;" x="344.460785" xlink:href="#m051e81c5d8" y="1112.850666"/>
     <use style="fill:#1f77b4;stroke:#1f77b4;" x="332.731018" xlink:href="#m051e81c5d8" y="1128.723644"/>
     <use style="fill:#1f77b4;stroke:#1f77b4;" x="259.062354" xlink:href="#m051e81c5d8" y="1224.354133"/>
     <use style="fill:#1f77b4;stroke:#1f77b4;" x="241.753794" xlink:href="#m051e81c5d8" y="1221.569799"/>
     <use style="fill:#1f77b4;stroke:#1f77b4;" x="460.614096" xlink:href="#m051e81c5d8" y="996.176467"/>
     <use style="fill:#1f77b4;stroke:#1f77b4;" x="336.87935" xlink:href="#m051e81c5d8" y="1091.373962"/>
     <use style="fill:#1f77b4;stroke:#1f77b4;" x="520.693395" xlink:href="#m051e81c5d8" y="956.724562"/>
     <use style="fill:#1f77b4;stroke:#1f77b4;" x="479.210069" xlink:href="#m051e81c5d8" y="978.05"/>
     <use style="fill:#1f77b4;stroke:#1f77b4;" x="353.47268" xlink:href="#m051e81c5d8" y="1105.828181"/>
     <use style="fill:#1f77b4;stroke:#1f77b4;" x="363.915034" xlink:href="#m051e81c5d8" y="1143.185659"/>
     <use style="fill:#1f77b4;stroke:#1f77b4;" x="390.521581" xlink:href="#m051e81c5d8" y="1093.015859"/>
     <use style="fill:#1f77b4;stroke:#1f77b4;" x="436.296285" xlink:href="#m051e81c5d8" y="1011.560255"/>
     <use style="fill:#1f77b4;stroke:#1f77b4;" x="357.334921" xlink:href="#m051e81c5d8" y="1131.941939"/>
     <use style="fill:#1f77b4;stroke:#1f77b4;" x="258.347124" xlink:href="#m051e81c5d8" y="1189.874045"/>
     <use style="fill:#1f77b4;stroke:#1f77b4;" x="291.104646" xlink:href="#m051e81c5d8" y="1176.586958"/>
     <use style="fill:#1f77b4;stroke:#1f77b4;" x="303.69269" xlink:href="#m051e81c5d8" y="1138.74903"/>
     <use style="fill:#1f77b4;stroke:#1f77b4;" x="364.487218" xlink:href="#m051e81c5d8" y="1119.217157"/>
     <use style="fill:#1f77b4;stroke:#1f77b4;" x="283.952349" xlink:href="#m051e81c5d8" y="1160.887086"/>
     <use style="fill:#1f77b4;stroke:#1f77b4;" x="312.704585" xlink:href="#m051e81c5d8" y="1151.442591"/>
     <use style="fill:#1f77b4;stroke:#1f77b4;" x="318.712515" xlink:href="#m051e81c5d8" y="1163.776415"/>
     <use style="fill:#1f77b4;stroke:#1f77b4;" x="316.566825" xlink:href="#m051e81c5d8" y="1132.740526"/>
     <use style="fill:#1f77b4;stroke:#1f77b4;" x="247.046494" xlink:href="#m051e81c5d8" y="1182.280979"/>
     <use style="fill:#1f77b4;stroke:#1f77b4;" x="404.826176" xlink:href="#m051e81c5d8" y="982.973659"/>
     <use style="fill:#1f77b4;stroke:#1f77b4;" x="403.395716" xlink:href="#m051e81c5d8" y="1087.022064"/>
     <use style="fill:#1f77b4;stroke:#1f77b4;" x="247.618678" xlink:href="#m051e81c5d8" y="1211.539986"/>
     <use style="fill:#1f77b4;stroke:#1f77b4;" x="267.788157" xlink:href="#m051e81c5d8" y="1177.458066"/>
     <use style="fill:#1f77b4;stroke:#1f77b4;" x="340.455499" xlink:href="#m051e81c5d8" y="1107.169825"/>
     <use style="fill:#1f77b4;stroke:#1f77b4;" x="298.39999" xlink:href="#m051e81c5d8" y="1134.757417"/>
     <use style="fill:#1f77b4;stroke:#1f77b4;" x="302.405276" xlink:href="#m051e81c5d8" y="1169.315928"/>
     <use style="fill:#1f77b4;stroke:#1f77b4;" x="241.753794" xlink:href="#m051e81c5d8" y="1201.410234"/>
     <use style="fill:#1f77b4;stroke:#1f77b4;" x="304.40792" xlink:href="#m051e81c5d8" y="1155.326487"/>
     <use style="fill:#1f77b4;stroke:#1f77b4;" x="291.104646" xlink:href="#m051e81c5d8" y="1172.851002"/>
     <use style="fill:#1f77b4;stroke:#1f77b4;" x="292.39206" xlink:href="#m051e81c5d8" y="1178.964113"/>
     <use style="fill:#1f77b4;stroke:#1f77b4;" x="291.104646" xlink:href="#m051e81c5d8" y="1177.122573"/>
     <use style="fill:#1f77b4;stroke:#1f77b4;" x="290.818555" xlink:href="#m051e81c5d8" y="1188.428712"/>
     <use style="fill:#1f77b4;stroke:#1f77b4;" x="309.414528" xlink:href="#m051e81c5d8" y="1161.452995"/>
     <use style="fill:#1f77b4;stroke:#1f77b4;" x="229.165751" xlink:href="#m051e81c5d8" y="1213.956532"/>
     <use style="fill:#1f77b4;stroke:#1f77b4;" x="371.925608" xlink:href="#m051e81c5d8" y="1221.064799"/>
     <use style="fill:#1f77b4;stroke:#1f77b4;" x="315.136366" xlink:href="#m051e81c5d8" y="1147.358705"/>
     <use style="fill:#1f77b4;stroke:#1f77b4;" x="272.365627" xlink:href="#m051e81c5d8" y="1169.973798"/>
     <use style="fill:#1f77b4;stroke:#1f77b4;" x="401.965257" xlink:href="#m051e81c5d8" y="893.296429"/>
     <use style="fill:#1f77b4;stroke:#1f77b4;" x="291.104646" xlink:href="#m051e81c5d8" y="1183.487621"/>
     <use style="fill:#1f77b4;stroke:#1f77b4;" x="410.548014" xlink:href="#m051e81c5d8" y="1030.990416"/>
     <use style="fill:#1f77b4;stroke:#1f77b4;" x="319.713836" xlink:href="#m051e81c5d8" y="1167.274894"/>
     <use style="fill:#1f77b4;stroke:#1f77b4;" x="421.99169" xlink:href="#m051e81c5d8" y="1049.698982"/>
     <use style="fill:#1f77b4;stroke:#1f77b4;" x="733.831858" xlink:href="#m051e81c5d8" y="734.690975"/>
     <use style="fill:#1f77b4;stroke:#1f77b4;" x="331.729696" xlink:href="#m051e81c5d8" y="1123.656429"/>
     <use style="fill:#1f77b4;stroke:#1f77b4;" x="339.597223" xlink:href="#m051e81c5d8" y="1138.019933"/>
     <use style="fill:#1f77b4;stroke:#1f77b4;" x="333.875385" xlink:href="#m051e81c5d8" y="1196.503154"/>
     <use style="fill:#1f77b4;stroke:#1f77b4;" x="277.944419" xlink:href="#m051e81c5d8" y="1195.303852"/>
     <use style="fill:#1f77b4;stroke:#1f77b4;" x="353.901818" xlink:href="#m051e81c5d8" y="1097.884055"/>
     <use style="fill:#1f77b4;stroke:#1f77b4;" x="261.780227" xlink:href="#m051e81c5d8" y="1193.107266"/>
     <use style="fill:#1f77b4;stroke:#1f77b4;" x="328.725731" xlink:href="#m051e81c5d8" y="1114.363071"/>
     <use style="fill:#1f77b4;stroke:#1f77b4;" x="273.366949" xlink:href="#m051e81c5d8" y="1188.449163"/>
     <use style="fill:#1f77b4;stroke:#1f77b4;" x="278.087465" xlink:href="#m051e81c5d8" y="1173.843517"/>
     <use style="fill:#1f77b4;stroke:#1f77b4;" x="423.422149" xlink:href="#m051e81c5d8" y="1080.449345"/>
     <use style="fill:#1f77b4;stroke:#1f77b4;" x="348.89521" xlink:href="#m051e81c5d8" y="1159.136866"/>
     <use style="fill:#1f77b4;stroke:#1f77b4;" x="271.936489" xlink:href="#m051e81c5d8" y="1181.119673"/>
     <use style="fill:#1f77b4;stroke:#1f77b4;" x="410.548014" xlink:href="#m051e81c5d8" y="1119.711217"/>
     <use style="fill:#1f77b4;stroke:#1f77b4;" x="393.3825" xlink:href="#m051e81c5d8" y="1058.403291"/>
     <use style="fill:#1f77b4;stroke:#1f77b4;" x="421.99169" xlink:href="#m051e81c5d8" y="1044.103678"/>
     <use style="fill:#1f77b4;stroke:#1f77b4;" x="265.642468" xlink:href="#m051e81c5d8" y="1195.323087"/>
     <use style="fill:#1f77b4;stroke:#1f77b4;" x="300.831771" xlink:href="#m051e81c5d8" y="1155.168642"/>
     <use style="fill:#1f77b4;stroke:#1f77b4;" x="348.752164" xlink:href="#m051e81c5d8" y="1126.868094"/>
     <use style="fill:#1f77b4;stroke:#1f77b4;" x="407.687095" xlink:href="#m051e81c5d8" y="1069.877087"/>
     <use style="fill:#1f77b4;stroke:#1f77b4;" x="282.52189" xlink:href="#m051e81c5d8" y="1199.605792"/>
     <use style="fill:#1f77b4;stroke:#1f77b4;" x="276.800052" xlink:href="#m051e81c5d8" y="1137.60325"/>
     <use style="fill:#1f77b4;stroke:#1f77b4;" x="376.216986" xlink:href="#m051e81c5d8" y="1110.614722"/>
     <use style="fill:#1f77b4;stroke:#1f77b4;" x="281.377522" xlink:href="#m051e81c5d8" y="1138.414918"/>
     <use style="fill:#1f77b4;stroke:#1f77b4;" x="270.792122" xlink:href="#m051e81c5d8" y="1188.257517"/>
     <use style="fill:#1f77b4;stroke:#1f77b4;" x="274.654362" xlink:href="#m051e81c5d8" y="1201.305472"/>
     <use style="fill:#1f77b4;stroke:#1f77b4;" x="356.619691" xlink:href="#m051e81c5d8" y="1139.885622"/>
     <use style="fill:#1f77b4;stroke:#1f77b4;" x="322.002571" xlink:href="#m051e81c5d8" y="1152.074483"/>
     <use style="fill:#1f77b4;stroke:#1f77b4;" x="390.521581" xlink:href="#m051e81c5d8" y="1068.673352"/>
     <use style="fill:#1f77b4;stroke:#1f77b4;" x="526.415232" xlink:href="#m051e81c5d8" y="974.873794"/>
     <use style="fill:#1f77b4;stroke:#1f77b4;" x="336.593258" xlink:href="#m051e81c5d8" y="1176.497294"/>
     <use style="fill:#1f77b4;stroke:#1f77b4;" x="619.395099" xlink:href="#m051e81c5d8" y="851.098731"/>
     <use style="fill:#1f77b4;stroke:#1f77b4;" x="503.527881" xlink:href="#m051e81c5d8" y="958.779923"/>
     <use style="fill:#1f77b4;stroke:#1f77b4;" x="277.944419" xlink:href="#m051e81c5d8" y="1190.978894"/>
     <use style="fill:#1f77b4;stroke:#1f77b4;" x="316.709871" xlink:href="#m051e81c5d8" y="1154.216464"/>
     <use style="fill:#1f77b4;stroke:#1f77b4;" x="417.700311" xlink:href="#m051e81c5d8" y="1040.365328"/>
     <use style="fill:#1f77b4;stroke:#1f77b4;" x="315.136366" xlink:href="#m051e81c5d8" y="1154.326837"/>
     <use style="fill:#1f77b4;stroke:#1f77b4;" x="340.598545" xlink:href="#m051e81c5d8" y="1147.939529"/>
     <use style="fill:#1f77b4;stroke:#1f77b4;" x="224.58828" xlink:href="#m051e81c5d8" y="1235.274454"/>
     <use style="fill:#1f77b4;stroke:#1f77b4;" x="334.304523" xlink:href="#m051e81c5d8" y="1014.778676"/>
     <use style="fill:#1f77b4;stroke:#1f77b4;" x="295.825163" xlink:href="#m051e81c5d8" y="1140.033431"/>
     <use style="fill:#1f77b4;stroke:#1f77b4;" x="307.697977" xlink:href="#m051e81c5d8" y="1169.232139"/>
     <use style="fill:#1f77b4;stroke:#1f77b4;" x="1157.247867" xlink:href="#m051e81c5d8" y="269.572671"/>
     <use style="fill:#1f77b4;stroke:#1f77b4;" x="373.356067" xlink:href="#m051e81c5d8" y="1095.757579"/>
     <use style="fill:#1f77b4;stroke:#1f77b4;" x="307.841022" xlink:href="#m051e81c5d8" y="1160.399494"/>
    </g>
   </g>
   <g id="matplotlib.axis_1">
    <g id="xtick_1">
     <g id="line2d_1">
      <defs>
       <path d="M 0 0 
L 0 3.5 
" id="m463209318a" style="stroke:#000000;stroke-width:0.8;"/>
      </defs>
      <g>
       <use style="stroke:#000000;stroke-width:0.8;" x="224.58828" xlink:href="#m463209318a" y="1281.6"/>
      </g>
     </g>
     <g id="text_1">
      <!-- 0 -->
      <defs>
       <path d="M 31.78125 66.40625 
Q 24.171875 66.40625 20.328125 58.90625 
Q 16.5 51.421875 16.5 36.375 
Q 16.5 21.390625 20.328125 13.890625 
Q 24.171875 6.390625 31.78125 6.390625 
Q 39.453125 6.390625 43.28125 13.890625 
Q 47.125 21.390625 47.125 36.375 
Q 47.125 51.421875 43.28125 58.90625 
Q 39.453125 66.40625 31.78125 66.40625 
z
M 31.78125 74.21875 
Q 44.046875 74.21875 50.515625 64.515625 
Q 56.984375 54.828125 56.984375 36.375 
Q 56.984375 17.96875 50.515625 8.265625 
Q 44.046875 -1.421875 31.78125 -1.421875 
Q 19.53125 -1.421875 13.0625 8.265625 
Q 6.59375 17.96875 6.59375 36.375 
Q 6.59375 54.828125 13.0625 64.515625 
Q 19.53125 74.21875 31.78125 74.21875 
z
" id="DejaVuSans-30"/>
      </defs>
      <g transform="translate(221.40703 1296.198437)scale(0.1 -0.1)">
       <use xlink:href="#DejaVuSans-30"/>
      </g>
     </g>
    </g>
    <g id="xtick_2">
     <g id="line2d_2">
      <g>
       <use style="stroke:#000000;stroke-width:0.8;" x="367.634229" xlink:href="#m463209318a" y="1281.6"/>
      </g>
     </g>
     <g id="text_2">
      <!-- 100 -->
      <defs>
       <path d="M 12.40625 8.296875 
L 28.515625 8.296875 
L 28.515625 63.921875 
L 10.984375 60.40625 
L 10.984375 69.390625 
L 28.421875 72.90625 
L 38.28125 72.90625 
L 38.28125 8.296875 
L 54.390625 8.296875 
L 54.390625 0 
L 12.40625 0 
z
" id="DejaVuSans-31"/>
      </defs>
      <g transform="translate(358.090479 1296.198437)scale(0.1 -0.1)">
       <use xlink:href="#DejaVuSans-31"/>
       <use x="63.623047" xlink:href="#DejaVuSans-30"/>
       <use x="127.246094" xlink:href="#DejaVuSans-30"/>
      </g>
     </g>
    </g>
    <g id="xtick_3">
     <g id="line2d_3">
      <g>
       <use style="stroke:#000000;stroke-width:0.8;" x="510.680178" xlink:href="#m463209318a" y="1281.6"/>
      </g>
     </g>
     <g id="text_3">
      <!-- 200 -->
      <defs>
       <path d="M 19.1875 8.296875 
L 53.609375 8.296875 
L 53.609375 0 
L 7.328125 0 
L 7.328125 8.296875 
Q 12.9375 14.109375 22.625 23.890625 
Q 32.328125 33.6875 34.8125 36.53125 
Q 39.546875 41.84375 41.421875 45.53125 
Q 43.3125 49.21875 43.3125 52.78125 
Q 43.3125 58.59375 39.234375 62.25 
Q 35.15625 65.921875 28.609375 65.921875 
Q 23.96875 65.921875 18.8125 64.3125 
Q 13.671875 62.703125 7.8125 59.421875 
L 7.8125 69.390625 
Q 13.765625 71.78125 18.9375 73 
Q 24.125 74.21875 28.421875 74.21875 
Q 39.75 74.21875 46.484375 68.546875 
Q 53.21875 62.890625 53.21875 53.421875 
Q 53.21875 48.921875 51.53125 44.890625 
Q 49.859375 40.875 45.40625 35.40625 
Q 44.1875 33.984375 37.640625 27.21875 
Q 31.109375 20.453125 19.1875 8.296875 
z
" id="DejaVuSans-32"/>
      </defs>
      <g transform="translate(501.136428 1296.198437)scale(0.1 -0.1)">
       <use xlink:href="#DejaVuSans-32"/>
       <use x="63.623047" xlink:href="#DejaVuSans-30"/>
       <use x="127.246094" xlink:href="#DejaVuSans-30"/>
      </g>
     </g>
    </g>
    <g id="xtick_4">
     <g id="line2d_4">
      <g>
       <use style="stroke:#000000;stroke-width:0.8;" x="653.726127" xlink:href="#m463209318a" y="1281.6"/>
      </g>
     </g>
     <g id="text_4">
      <!-- 300 -->
      <defs>
       <path d="M 40.578125 39.3125 
Q 47.65625 37.796875 51.625 33 
Q 55.609375 28.21875 55.609375 21.1875 
Q 55.609375 10.40625 48.1875 4.484375 
Q 40.765625 -1.421875 27.09375 -1.421875 
Q 22.515625 -1.421875 17.65625 -0.515625 
Q 12.796875 0.390625 7.625 2.203125 
L 7.625 11.71875 
Q 11.71875 9.328125 16.59375 8.109375 
Q 21.484375 6.890625 26.8125 6.890625 
Q 36.078125 6.890625 40.9375 10.546875 
Q 45.796875 14.203125 45.796875 21.1875 
Q 45.796875 27.640625 41.28125 31.265625 
Q 36.765625 34.90625 28.71875 34.90625 
L 20.21875 34.90625 
L 20.21875 43.015625 
L 29.109375 43.015625 
Q 36.375 43.015625 40.234375 45.921875 
Q 44.09375 48.828125 44.09375 54.296875 
Q 44.09375 59.90625 40.109375 62.90625 
Q 36.140625 65.921875 28.71875 65.921875 
Q 24.65625 65.921875 20.015625 65.03125 
Q 15.375 64.15625 9.8125 62.3125 
L 9.8125 71.09375 
Q 15.4375 72.65625 20.34375 73.4375 
Q 25.25 74.21875 29.59375 74.21875 
Q 40.828125 74.21875 47.359375 69.109375 
Q 53.90625 64.015625 53.90625 55.328125 
Q 53.90625 49.265625 50.4375 45.09375 
Q 46.96875 40.921875 40.578125 39.3125 
z
" id="DejaVuSans-33"/>
      </defs>
      <g transform="translate(644.182377 1296.198437)scale(0.1 -0.1)">
       <use xlink:href="#DejaVuSans-33"/>
       <use x="63.623047" xlink:href="#DejaVuSans-30"/>
       <use x="127.246094" xlink:href="#DejaVuSans-30"/>
      </g>
     </g>
    </g>
    <g id="xtick_5">
     <g id="line2d_5">
      <g>
       <use style="stroke:#000000;stroke-width:0.8;" x="796.772076" xlink:href="#m463209318a" y="1281.6"/>
      </g>
     </g>
     <g id="text_5">
      <!-- 400 -->
      <defs>
       <path d="M 37.796875 64.3125 
L 12.890625 25.390625 
L 37.796875 25.390625 
z
M 35.203125 72.90625 
L 47.609375 72.90625 
L 47.609375 25.390625 
L 58.015625 25.390625 
L 58.015625 17.1875 
L 47.609375 17.1875 
L 47.609375 0 
L 37.796875 0 
L 37.796875 17.1875 
L 4.890625 17.1875 
L 4.890625 26.703125 
z
" id="DejaVuSans-34"/>
      </defs>
      <g transform="translate(787.228326 1296.198437)scale(0.1 -0.1)">
       <use xlink:href="#DejaVuSans-34"/>
       <use x="63.623047" xlink:href="#DejaVuSans-30"/>
       <use x="127.246094" xlink:href="#DejaVuSans-30"/>
      </g>
     </g>
    </g>
    <g id="xtick_6">
     <g id="line2d_6">
      <g>
       <use style="stroke:#000000;stroke-width:0.8;" x="939.818025" xlink:href="#m463209318a" y="1281.6"/>
      </g>
     </g>
     <g id="text_6">
      <!-- 500 -->
      <defs>
       <path d="M 10.796875 72.90625 
L 49.515625 72.90625 
L 49.515625 64.59375 
L 19.828125 64.59375 
L 19.828125 46.734375 
Q 21.96875 47.46875 24.109375 47.828125 
Q 26.265625 48.1875 28.421875 48.1875 
Q 40.625 48.1875 47.75 41.5 
Q 54.890625 34.8125 54.890625 23.390625 
Q 54.890625 11.625 47.5625 5.09375 
Q 40.234375 -1.421875 26.90625 -1.421875 
Q 22.3125 -1.421875 17.546875 -0.640625 
Q 12.796875 0.140625 7.71875 1.703125 
L 7.71875 11.625 
Q 12.109375 9.234375 16.796875 8.0625 
Q 21.484375 6.890625 26.703125 6.890625 
Q 35.15625 6.890625 40.078125 11.328125 
Q 45.015625 15.765625 45.015625 23.390625 
Q 45.015625 31 40.078125 35.4375 
Q 35.15625 39.890625 26.703125 39.890625 
Q 22.75 39.890625 18.8125 39.015625 
Q 14.890625 38.140625 10.796875 36.28125 
z
" id="DejaVuSans-35"/>
      </defs>
      <g transform="translate(930.274275 1296.198437)scale(0.1 -0.1)">
       <use xlink:href="#DejaVuSans-35"/>
       <use x="63.623047" xlink:href="#DejaVuSans-30"/>
       <use x="127.246094" xlink:href="#DejaVuSans-30"/>
      </g>
     </g>
    </g>
    <g id="xtick_7">
     <g id="line2d_7">
      <g>
       <use style="stroke:#000000;stroke-width:0.8;" x="1082.863974" xlink:href="#m463209318a" y="1281.6"/>
      </g>
     </g>
     <g id="text_7">
      <!-- 600 -->
      <defs>
       <path d="M 33.015625 40.375 
Q 26.375 40.375 22.484375 35.828125 
Q 18.609375 31.296875 18.609375 23.390625 
Q 18.609375 15.53125 22.484375 10.953125 
Q 26.375 6.390625 33.015625 6.390625 
Q 39.65625 6.390625 43.53125 10.953125 
Q 47.40625 15.53125 47.40625 23.390625 
Q 47.40625 31.296875 43.53125 35.828125 
Q 39.65625 40.375 33.015625 40.375 
z
M 52.59375 71.296875 
L 52.59375 62.3125 
Q 48.875 64.0625 45.09375 64.984375 
Q 41.3125 65.921875 37.59375 65.921875 
Q 27.828125 65.921875 22.671875 59.328125 
Q 17.53125 52.734375 16.796875 39.40625 
Q 19.671875 43.65625 24.015625 45.921875 
Q 28.375 48.1875 33.59375 48.1875 
Q 44.578125 48.1875 50.953125 41.515625 
Q 57.328125 34.859375 57.328125 23.390625 
Q 57.328125 12.15625 50.6875 5.359375 
Q 44.046875 -1.421875 33.015625 -1.421875 
Q 20.359375 -1.421875 13.671875 8.265625 
Q 6.984375 17.96875 6.984375 36.375 
Q 6.984375 53.65625 15.1875 63.9375 
Q 23.390625 74.21875 37.203125 74.21875 
Q 40.921875 74.21875 44.703125 73.484375 
Q 48.484375 72.75 52.59375 71.296875 
z
" id="DejaVuSans-36"/>
      </defs>
      <g transform="translate(1073.320224 1296.198437)scale(0.1 -0.1)">
       <use xlink:href="#DejaVuSans-36"/>
       <use x="63.623047" xlink:href="#DejaVuSans-30"/>
       <use x="127.246094" xlink:href="#DejaVuSans-30"/>
      </g>
     </g>
    </g>
    <g id="xtick_8">
     <g id="line2d_8">
      <g>
       <use style="stroke:#000000;stroke-width:0.8;" x="1225.909923" xlink:href="#m463209318a" y="1281.6"/>
      </g>
     </g>
     <g id="text_8">
      <!-- 700 -->
      <defs>
       <path d="M 8.203125 72.90625 
L 55.078125 72.90625 
L 55.078125 68.703125 
L 28.609375 0 
L 18.3125 0 
L 43.21875 64.59375 
L 8.203125 64.59375 
z
" id="DejaVuSans-37"/>
      </defs>
      <g transform="translate(1216.366173 1296.198437)scale(0.1 -0.1)">
       <use xlink:href="#DejaVuSans-37"/>
       <use x="63.623047" xlink:href="#DejaVuSans-30"/>
       <use x="127.246094" xlink:href="#DejaVuSans-30"/>
      </g>
     </g>
    </g>
    <g id="text_9">
     <!-- Y Test -->
     <defs>
      <path d="M -0.203125 72.90625 
L 10.40625 72.90625 
L 30.609375 42.921875 
L 50.6875 72.90625 
L 61.28125 72.90625 
L 35.5 34.71875 
L 35.5 0 
L 25.59375 0 
L 25.59375 34.71875 
z
" id="DejaVuSans-59"/>
      <path id="DejaVuSans-20"/>
      <path d="M -0.296875 72.90625 
L 61.375 72.90625 
L 61.375 64.59375 
L 35.5 64.59375 
L 35.5 0 
L 25.59375 0 
L 25.59375 64.59375 
L -0.296875 64.59375 
z
" id="DejaVuSans-54"/>
      <path d="M 56.203125 29.59375 
L 56.203125 25.203125 
L 14.890625 25.203125 
Q 15.484375 15.921875 20.484375 11.0625 
Q 25.484375 6.203125 34.421875 6.203125 
Q 39.59375 6.203125 44.453125 7.46875 
Q 49.3125 8.734375 54.109375 11.28125 
L 54.109375 2.78125 
Q 49.265625 0.734375 44.1875 -0.34375 
Q 39.109375 -1.421875 33.890625 -1.421875 
Q 20.796875 -1.421875 13.15625 6.1875 
Q 5.515625 13.8125 5.515625 26.8125 
Q 5.515625 40.234375 12.765625 48.109375 
Q 20.015625 56 32.328125 56 
Q 43.359375 56 49.78125 48.890625 
Q 56.203125 41.796875 56.203125 29.59375 
z
M 47.21875 32.234375 
Q 47.125 39.59375 43.09375 43.984375 
Q 39.0625 48.390625 32.421875 48.390625 
Q 24.90625 48.390625 20.390625 44.140625 
Q 15.875 39.890625 15.1875 32.171875 
z
" id="DejaVuSans-65"/>
      <path d="M 44.28125 53.078125 
L 44.28125 44.578125 
Q 40.484375 46.53125 36.375 47.5 
Q 32.28125 48.484375 27.875 48.484375 
Q 21.1875 48.484375 17.84375 46.4375 
Q 14.5 44.390625 14.5 40.28125 
Q 14.5 37.15625 16.890625 35.375 
Q 19.28125 33.59375 26.515625 31.984375 
L 29.59375 31.296875 
Q 39.15625 29.25 43.1875 25.515625 
Q 47.21875 21.78125 47.21875 15.09375 
Q 47.21875 7.46875 41.1875 3.015625 
Q 35.15625 -1.421875 24.609375 -1.421875 
Q 20.21875 -1.421875 15.453125 -0.5625 
Q 10.6875 0.296875 5.421875 2 
L 5.421875 11.28125 
Q 10.40625 8.6875 15.234375 7.390625 
Q 20.0625 6.109375 24.8125 6.109375 
Q 31.15625 6.109375 34.5625 8.28125 
Q 37.984375 10.453125 37.984375 14.40625 
Q 37.984375 18.0625 35.515625 20.015625 
Q 33.0625 21.96875 24.703125 23.78125 
L 21.578125 24.515625 
Q 13.234375 26.265625 9.515625 29.90625 
Q 5.8125 33.546875 5.8125 39.890625 
Q 5.8125 47.609375 11.28125 51.796875 
Q 16.75 56 26.8125 56 
Q 31.78125 56 36.171875 55.265625 
Q 40.578125 54.546875 44.28125 53.078125 
z
" id="DejaVuSans-73"/>
      <path d="M 18.3125 70.21875 
L 18.3125 54.6875 
L 36.8125 54.6875 
L 36.8125 47.703125 
L 18.3125 47.703125 
L 18.3125 18.015625 
Q 18.3125 11.328125 20.140625 9.421875 
Q 21.96875 7.515625 27.59375 7.515625 
L 36.8125 7.515625 
L 36.8125 0 
L 27.59375 0 
Q 17.1875 0 13.234375 3.875 
Q 9.28125 7.765625 9.28125 18.015625 
L 9.28125 47.703125 
L 2.6875 47.703125 
L 2.6875 54.6875 
L 9.28125 54.6875 
L 9.28125 70.21875 
z
" id="DejaVuSans-74"/>
     </defs>
     <g transform="translate(722.675 1309.876563)scale(0.1 -0.1)">
      <use xlink:href="#DejaVuSans-59"/>
      <use x="61.083984" xlink:href="#DejaVuSans-20"/>
      <use x="92.871094" xlink:href="#DejaVuSans-54"/>
      <use x="153.689453" xlink:href="#DejaVuSans-65"/>
      <use x="215.212891" xlink:href="#DejaVuSans-73"/>
      <use x="267.3125" xlink:href="#DejaVuSans-74"/>
     </g>
    </g>
   </g>
   <g id="matplotlib.axis_2">
    <g id="ytick_1">
     <g id="line2d_9">
      <defs>
       <path d="M 0 0 
L -3.5 0 
" id="m6d98e104ed" style="stroke:#000000;stroke-width:0.8;"/>
      </defs>
      <g>
       <use style="stroke:#000000;stroke-width:0.8;" x="180" xlink:href="#m6d98e104ed" y="1237.299386"/>
      </g>
     </g>
     <g id="text_10">
      <!-- 0 -->
      <g transform="translate(166.6375 1241.098605)scale(0.1 -0.1)">
       <use xlink:href="#DejaVuSans-30"/>
      </g>
     </g>
    </g>
    <g id="ytick_2">
     <g id="line2d_10">
      <g>
       <use style="stroke:#000000;stroke-width:0.8;" x="180" xlink:href="#m6d98e104ed" y="1095.176314"/>
      </g>
     </g>
     <g id="text_11">
      <!-- 100 -->
      <g transform="translate(153.9125 1098.975533)scale(0.1 -0.1)">
       <use xlink:href="#DejaVuSans-31"/>
       <use x="63.623047" xlink:href="#DejaVuSans-30"/>
       <use x="127.246094" xlink:href="#DejaVuSans-30"/>
      </g>
     </g>
    </g>
    <g id="ytick_3">
     <g id="line2d_11">
      <g>
       <use style="stroke:#000000;stroke-width:0.8;" x="180" xlink:href="#m6d98e104ed" y="953.053242"/>
      </g>
     </g>
     <g id="text_12">
      <!-- 200 -->
      <g transform="translate(153.9125 956.852461)scale(0.1 -0.1)">
       <use xlink:href="#DejaVuSans-32"/>
       <use x="63.623047" xlink:href="#DejaVuSans-30"/>
       <use x="127.246094" xlink:href="#DejaVuSans-30"/>
      </g>
     </g>
    </g>
    <g id="ytick_4">
     <g id="line2d_12">
      <g>
       <use style="stroke:#000000;stroke-width:0.8;" x="180" xlink:href="#m6d98e104ed" y="810.930171"/>
      </g>
     </g>
     <g id="text_13">
      <!-- 300 -->
      <g transform="translate(153.9125 814.729389)scale(0.1 -0.1)">
       <use xlink:href="#DejaVuSans-33"/>
       <use x="63.623047" xlink:href="#DejaVuSans-30"/>
       <use x="127.246094" xlink:href="#DejaVuSans-30"/>
      </g>
     </g>
    </g>
    <g id="ytick_5">
     <g id="line2d_13">
      <g>
       <use style="stroke:#000000;stroke-width:0.8;" x="180" xlink:href="#m6d98e104ed" y="668.807099"/>
      </g>
     </g>
     <g id="text_14">
      <!-- 400 -->
      <g transform="translate(153.9125 672.606317)scale(0.1 -0.1)">
       <use xlink:href="#DejaVuSans-34"/>
       <use x="63.623047" xlink:href="#DejaVuSans-30"/>
       <use x="127.246094" xlink:href="#DejaVuSans-30"/>
      </g>
     </g>
    </g>
    <g id="ytick_6">
     <g id="line2d_14">
      <g>
       <use style="stroke:#000000;stroke-width:0.8;" x="180" xlink:href="#m6d98e104ed" y="526.684027"/>
      </g>
     </g>
     <g id="text_15">
      <!-- 500 -->
      <g transform="translate(153.9125 530.483246)scale(0.1 -0.1)">
       <use xlink:href="#DejaVuSans-35"/>
       <use x="63.623047" xlink:href="#DejaVuSans-30"/>
       <use x="127.246094" xlink:href="#DejaVuSans-30"/>
      </g>
     </g>
    </g>
    <g id="ytick_7">
     <g id="line2d_15">
      <g>
       <use style="stroke:#000000;stroke-width:0.8;" x="180" xlink:href="#m6d98e104ed" y="384.560955"/>
      </g>
     </g>
     <g id="text_16">
      <!-- 600 -->
      <g transform="translate(153.9125 388.360174)scale(0.1 -0.1)">
       <use xlink:href="#DejaVuSans-36"/>
       <use x="63.623047" xlink:href="#DejaVuSans-30"/>
       <use x="127.246094" xlink:href="#DejaVuSans-30"/>
      </g>
     </g>
    </g>
    <g id="ytick_8">
     <g id="line2d_16">
      <g>
       <use style="stroke:#000000;stroke-width:0.8;" x="180" xlink:href="#m6d98e104ed" y="242.437883"/>
      </g>
     </g>
     <g id="text_17">
      <!-- 700 -->
      <g transform="translate(153.9125 246.237102)scale(0.1 -0.1)">
       <use xlink:href="#DejaVuSans-37"/>
       <use x="63.623047" xlink:href="#DejaVuSans-30"/>
       <use x="127.246094" xlink:href="#DejaVuSans-30"/>
      </g>
     </g>
    </g>
    <g id="text_18">
     <!-- Y Predicted -->
     <defs>
      <path d="M 19.671875 64.796875 
L 19.671875 37.40625 
L 32.078125 37.40625 
Q 38.96875 37.40625 42.71875 40.96875 
Q 46.484375 44.53125 46.484375 51.125 
Q 46.484375 57.671875 42.71875 61.234375 
Q 38.96875 64.796875 32.078125 64.796875 
z
M 9.8125 72.90625 
L 32.078125 72.90625 
Q 44.34375 72.90625 50.609375 67.359375 
Q 56.890625 61.8125 56.890625 51.125 
Q 56.890625 40.328125 50.609375 34.8125 
Q 44.34375 29.296875 32.078125 29.296875 
L 19.671875 29.296875 
L 19.671875 0 
L 9.8125 0 
z
" id="DejaVuSans-50"/>
      <path d="M 41.109375 46.296875 
Q 39.59375 47.171875 37.8125 47.578125 
Q 36.03125 48 33.890625 48 
Q 26.265625 48 22.1875 43.046875 
Q 18.109375 38.09375 18.109375 28.8125 
L 18.109375 0 
L 9.078125 0 
L 9.078125 54.6875 
L 18.109375 54.6875 
L 18.109375 46.1875 
Q 20.953125 51.171875 25.484375 53.578125 
Q 30.03125 56 36.53125 56 
Q 37.453125 56 38.578125 55.875 
Q 39.703125 55.765625 41.0625 55.515625 
z
" id="DejaVuSans-72"/>
      <path d="M 45.40625 46.390625 
L 45.40625 75.984375 
L 54.390625 75.984375 
L 54.390625 0 
L 45.40625 0 
L 45.40625 8.203125 
Q 42.578125 3.328125 38.25 0.953125 
Q 33.9375 -1.421875 27.875 -1.421875 
Q 17.96875 -1.421875 11.734375 6.484375 
Q 5.515625 14.40625 5.515625 27.296875 
Q 5.515625 40.1875 11.734375 48.09375 
Q 17.96875 56 27.875 56 
Q 33.9375 56 38.25 53.625 
Q 42.578125 51.265625 45.40625 46.390625 
z
M 14.796875 27.296875 
Q 14.796875 17.390625 18.875 11.75 
Q 22.953125 6.109375 30.078125 6.109375 
Q 37.203125 6.109375 41.296875 11.75 
Q 45.40625 17.390625 45.40625 27.296875 
Q 45.40625 37.203125 41.296875 42.84375 
Q 37.203125 48.484375 30.078125 48.484375 
Q 22.953125 48.484375 18.875 42.84375 
Q 14.796875 37.203125 14.796875 27.296875 
z
" id="DejaVuSans-64"/>
      <path d="M 9.421875 54.6875 
L 18.40625 54.6875 
L 18.40625 0 
L 9.421875 0 
z
M 9.421875 75.984375 
L 18.40625 75.984375 
L 18.40625 64.59375 
L 9.421875 64.59375 
z
" id="DejaVuSans-69"/>
      <path d="M 48.78125 52.59375 
L 48.78125 44.1875 
Q 44.96875 46.296875 41.140625 47.34375 
Q 37.3125 48.390625 33.40625 48.390625 
Q 24.65625 48.390625 19.8125 42.84375 
Q 14.984375 37.3125 14.984375 27.296875 
Q 14.984375 17.28125 19.8125 11.734375 
Q 24.65625 6.203125 33.40625 6.203125 
Q 37.3125 6.203125 41.140625 7.25 
Q 44.96875 8.296875 48.78125 10.40625 
L 48.78125 2.09375 
Q 45.015625 0.34375 40.984375 -0.53125 
Q 36.96875 -1.421875 32.421875 -1.421875 
Q 20.0625 -1.421875 12.78125 6.34375 
Q 5.515625 14.109375 5.515625 27.296875 
Q 5.515625 40.671875 12.859375 48.328125 
Q 20.21875 56 33.015625 56 
Q 37.15625 56 41.109375 55.140625 
Q 45.0625 54.296875 48.78125 52.59375 
z
" id="DejaVuSans-63"/>
     </defs>
     <g transform="translate(147.832812 755.510937)rotate(-90)scale(0.1 -0.1)">
      <use xlink:href="#DejaVuSans-59"/>
      <use x="61.083984" xlink:href="#DejaVuSans-20"/>
      <use x="92.871094" xlink:href="#DejaVuSans-50"/>
      <use x="153.158203" xlink:href="#DejaVuSans-72"/>
      <use x="194.240234" xlink:href="#DejaVuSans-65"/>
      <use x="255.763672" xlink:href="#DejaVuSans-64"/>
      <use x="319.240234" xlink:href="#DejaVuSans-69"/>
      <use x="347.023438" xlink:href="#DejaVuSans-63"/>
      <use x="402.003906" xlink:href="#DejaVuSans-74"/>
      <use x="441.212891" xlink:href="#DejaVuSans-65"/>
      <use x="502.736328" xlink:href="#DejaVuSans-64"/>
     </g>
    </g>
   </g>
   <g id="line2d_17">
    <path clip-path="url(#pcc4120cc62)" d="M 180 1281.6 
L 1296 172.8 
" style="fill:none;stroke:#1f77b4;stroke-dasharray:5.55,2.4;stroke-dashoffset:0;stroke-width:1.5;"/>
   </g>
   <g id="patch_3">
    <path d="M 180 1281.6 
L 180 172.8 
" style="fill:none;stroke:#000000;stroke-linecap:square;stroke-linejoin:miter;stroke-width:0.8;"/>
   </g>
   <g id="patch_4">
    <path d="M 1296 1281.6 
L 1296 172.8 
" style="fill:none;stroke:#000000;stroke-linecap:square;stroke-linejoin:miter;stroke-width:0.8;"/>
   </g>
   <g id="patch_5">
    <path d="M 180 1281.6 
L 1296 1281.6 
" style="fill:none;stroke:#000000;stroke-linecap:square;stroke-linejoin:miter;stroke-width:0.8;"/>
   </g>
   <g id="patch_6">
    <path d="M 180 172.8 
L 1296 172.8 
" style="fill:none;stroke:#000000;stroke-linecap:square;stroke-linejoin:miter;stroke-width:0.8;"/>
   </g>
  </g>
 </g>
 <defs>
  <clipPath id="pcc4120cc62">
   <rect height="1108.8" width="1116" x="180" y="172.8"/>
  </clipPath>
 </defs>
</svg>
