<?xml version="1.0" encoding="utf-8" standalone="no"?>
<!DOCTYPE svg PUBLIC "-//W3C//DTD SVG 1.1//EN"
  "http://www.w3.org/Graphics/SVG/1.1/DTD/svg11.dtd">
<!-- Created with matplotlib (http://matplotlib.org/) -->
<svg height="1440pt" version="1.1" viewBox="0 0 1440 1440" width="1440pt" xmlns="http://www.w3.org/2000/svg" xmlns:xlink="http://www.w3.org/1999/xlink">
 <defs>
  <style type="text/css">
*{stroke-linecap:butt;stroke-linejoin:round;}
  </style>
 </defs>
 <g id="figure_1">
  <g id="patch_1">
   <path d="M 0 1440 
L 1440 1440 
L 1440 0 
L 0 0 
z
" style="fill:#ffffff;"/>
  </g>
  <g id="axes_1">
   <g id="patch_2">
    <path d="M 180 1281.6 
L 1296 1281.6 
L 1296 172.8 
L 180 172.8 
z
" style="fill:#ffffff;"/>
   </g>
   <g id="PathCollection_1">
    <defs>
     <path d="M 0 3 
C 0.795609 3 1.55874 2.683901 2.12132 2.12132 
C 2.683901 1.55874 3 0.795609 3 0 
C 3 -0.795609 2.683901 -1.55874 2.12132 -2.12132 
C 1.55874 -2.683901 0.795609 -3 0 -3 
C -0.795609 -3 -1.55874 -2.683901 -2.12132 -2.12132 
C -2.683901 -1.55874 -3 -0.795609 -3 0 
C -3 0.795609 -2.683901 1.55874 -2.12132 2.12132 
C -1.55874 2.683901 -0.795609 3 0 3 
z
" id="m39e055e730" style="stroke:#1f77b4;"/>
    </defs>
    <g clip-path="url(#p0668d641a0)">
     <use style="fill:#1f77b4;stroke:#1f77b4;" x="803.417524" xlink:href="#m39e055e730" y="604.747173"/>
     <use style="fill:#1f77b4;stroke:#1f77b4;" x="982.454957" xlink:href="#m39e055e730" y="578.216523"/>
     <use style="fill:#1f77b4;stroke:#1f77b4;" x="899.822295" xlink:href="#m39e055e730" y="622.559326"/>
     <use style="fill:#1f77b4;stroke:#1f77b4;" x="830.961744" xlink:href="#m39e055e730" y="639.845319"/>
     <use style="fill:#1f77b4;stroke:#1f77b4;" x="881.459482" xlink:href="#m39e055e730" y="616.356698"/>
     <use style="fill:#1f77b4;stroke:#1f77b4;" x="757.51049" xlink:href="#m39e055e730" y="661.048967"/>
     <use style="fill:#1f77b4;stroke:#1f77b4;" x="899.822295" xlink:href="#m39e055e730" y="638.799391"/>
     <use style="fill:#1f77b4;stroke:#1f77b4;" x="679.468531" xlink:href="#m39e055e730" y="721.161148"/>
     <use style="fill:#1f77b4;stroke:#1f77b4;" x="867.687371" xlink:href="#m39e055e730" y="545.754835"/>
     <use style="fill:#1f77b4;stroke:#1f77b4;" x="592.245167" xlink:href="#m39e055e730" y="792.794379"/>
     <use style="fill:#1f77b4;stroke:#1f77b4;" x="858.505965" xlink:href="#m39e055e730" y="609.034159"/>
     <use style="fill:#1f77b4;stroke:#1f77b4;" x="436.161251" xlink:href="#m39e055e730" y="731.42294"/>
     <use style="fill:#1f77b4;stroke:#1f77b4;" x="711.603455" xlink:href="#m39e055e730" y="745.328294"/>
     <use style="fill:#1f77b4;stroke:#1f77b4;" x="734.556972" xlink:href="#m39e055e730" y="602.082597"/>
     <use style="fill:#1f77b4;stroke:#1f77b4;" x="1055.906211" xlink:href="#m39e055e730" y="646.542438"/>
     <use style="fill:#1f77b4;stroke:#1f77b4;" x="909.003702" xlink:href="#m39e055e730" y="579.394183"/>
     <use style="fill:#1f77b4;stroke:#1f77b4;" x="863.096668" xlink:href="#m39e055e730" y="591.781029"/>
     <use style="fill:#1f77b4;stroke:#1f77b4;" x="702.422049" xlink:href="#m39e055e730" y="730.793877"/>
     <use style="fill:#1f77b4;stroke:#1f77b4;" x="362.709996" xlink:href="#m39e055e730" y="609.316961"/>
     <use style="fill:#1f77b4;stroke:#1f77b4;" x="913.594406" xlink:href="#m39e055e730" y="664.668877"/>
     <use style="fill:#1f77b4;stroke:#1f77b4;" x="684.059235" xlink:href="#m39e055e730" y="747.651892"/>
     <use style="fill:#1f77b4;stroke:#1f77b4;" x="808.008227" xlink:href="#m39e055e730" y="747.620519"/>
     <use style="fill:#1f77b4;stroke:#1f77b4;" x="936.547923" xlink:href="#m39e055e730" y="601.067262"/>
     <use style="fill:#1f77b4;stroke:#1f77b4;" x="876.868778" xlink:href="#m39e055e730" y="601.633246"/>
     <use style="fill:#1f77b4;stroke:#1f77b4;" x="762.101193" xlink:href="#m39e055e730" y="685.654556"/>
     <use style="fill:#1f77b4;stroke:#1f77b4;" x="670.287125" xlink:href="#m39e055e730" y="723.404709"/>
     <use style="fill:#1f77b4;stroke:#1f77b4;" x="872.278075" xlink:href="#m39e055e730" y="593.758827"/>
     <use style="fill:#1f77b4;stroke:#1f77b4;" x="771.2826" xlink:href="#m39e055e730" y="692.255767"/>
     <use style="fill:#1f77b4;stroke:#1f77b4;" x="711.603455" xlink:href="#m39e055e730" y="740.34961"/>
     <use style="fill:#1f77b4;stroke:#1f77b4;" x="812.59893" xlink:href="#m39e055e730" y="671.491058"/>
     <use style="fill:#1f77b4;stroke:#1f77b4;" x="909.003702" xlink:href="#m39e055e730" y="644.99423"/>
     <use style="fill:#1f77b4;stroke:#1f77b4;" x="821.780337" xlink:href="#m39e055e730" y="675.685794"/>
     <use style="fill:#1f77b4;stroke:#1f77b4;" x="716.194159" xlink:href="#m39e055e730" y="688.319768"/>
     <use style="fill:#1f77b4;stroke:#1f77b4;" x="670.287125" xlink:href="#m39e055e730" y="748.573355"/>
     <use style="fill:#1f77b4;stroke:#1f77b4;" x="789.645413" xlink:href="#m39e055e730" y="646.336665"/>
     <use style="fill:#1f77b4;stroke:#1f77b4;" x="794.236117" xlink:href="#m39e055e730" y="661.082767"/>
     <use style="fill:#1f77b4;stroke:#1f77b4;" x="863.096668" xlink:href="#m39e055e730" y="613.216537"/>
     <use style="fill:#1f77b4;stroke:#1f77b4;" x="858.505965" xlink:href="#m39e055e730" y="596.543276"/>
     <use style="fill:#1f77b4;stroke:#1f77b4;" x="1023.771288" xlink:href="#m39e055e730" y="529.584365"/>
     <use style="fill:#1f77b4;stroke:#1f77b4;" x="858.505965" xlink:href="#m39e055e730" y="673.749895"/>
     <use style="fill:#1f77b4;stroke:#1f77b4;" x="872.278075" xlink:href="#m39e055e730" y="592.429357"/>
     <use style="fill:#1f77b4;stroke:#1f77b4;" x="840.143151" xlink:href="#m39e055e730" y="695.743438"/>
     <use style="fill:#1f77b4;stroke:#1f77b4;" x="628.970794" xlink:href="#m39e055e730" y="769.310041"/>
     <use style="fill:#1f77b4;stroke:#1f77b4;" x="674.877828" xlink:href="#m39e055e730" y="658.73006"/>
     <use style="fill:#1f77b4;stroke:#1f77b4;" x="945.729329" xlink:href="#m39e055e730" y="599.707933"/>
     <use style="fill:#1f77b4;stroke:#1f77b4;" x="890.640889" xlink:href="#m39e055e730" y="660.947913"/>
     <use style="fill:#1f77b4;stroke:#1f77b4;" x="931.957219" xlink:href="#m39e055e730" y="602.098299"/>
     <use style="fill:#1f77b4;stroke:#1f77b4;" x="1014.589881" xlink:href="#m39e055e730" y="608.525353"/>
     <use style="fill:#1f77b4;stroke:#1f77b4;" x="904.412999" xlink:href="#m39e055e730" y="550.633905"/>
     <use style="fill:#1f77b4;stroke:#1f77b4;" x="904.412999" xlink:href="#m39e055e730" y="498.213312"/>
     <use style="fill:#1f77b4;stroke:#1f77b4;" x="661.105718" xlink:href="#m39e055e730" y="744.228636"/>
     <use style="fill:#1f77b4;stroke:#1f77b4;" x="656.515014" xlink:href="#m39e055e730" y="799.758687"/>
     <use style="fill:#1f77b4;stroke:#1f77b4;" x="950.320033" xlink:href="#m39e055e730" y="544.489748"/>
     <use style="fill:#1f77b4;stroke:#1f77b4;" x="872.278075" xlink:href="#m39e055e730" y="650.53548"/>
     <use style="fill:#1f77b4;stroke:#1f77b4;" x="821.780337" xlink:href="#m39e055e730" y="657.829872"/>
     <use style="fill:#1f77b4;stroke:#1f77b4;" x="808.008227" xlink:href="#m39e055e730" y="650.120427"/>
     <use style="fill:#1f77b4;stroke:#1f77b4;" x="977.864253" xlink:href="#m39e055e730" y="623.131834"/>
     <use style="fill:#1f77b4;stroke:#1f77b4;" x="863.096668" xlink:href="#m39e055e730" y="624.157995"/>
     <use style="fill:#1f77b4;stroke:#1f77b4;" x="766.691896" xlink:href="#m39e055e730" y="677.990091"/>
     <use style="fill:#1f77b4;stroke:#1f77b4;" x="922.775812" xlink:href="#m39e055e730" y="593.989493"/>
     <use style="fill:#1f77b4;stroke:#1f77b4;" x="826.371041" xlink:href="#m39e055e730" y="622.587875"/>
     <use style="fill:#1f77b4;stroke:#1f77b4;" x="812.59893" xlink:href="#m39e055e730" y="643.51315"/>
     <use style="fill:#1f77b4;stroke:#1f77b4;" x="876.868778" xlink:href="#m39e055e730" y="624.058797"/>
     <use style="fill:#1f77b4;stroke:#1f77b4;" x="863.096668" xlink:href="#m39e055e730" y="626.943683"/>
     <use style="fill:#1f77b4;stroke:#1f77b4;" x="977.864253" xlink:href="#m39e055e730" y="549.770967"/>
     <use style="fill:#1f77b4;stroke:#1f77b4;" x="904.412999" xlink:href="#m39e055e730" y="564.132965"/>
     <use style="fill:#1f77b4;stroke:#1f77b4;" x="752.919786" xlink:href="#m39e055e730" y="691.708423"/>
     <use style="fill:#1f77b4;stroke:#1f77b4;" x="830.961744" xlink:href="#m39e055e730" y="564.241836"/>
     <use style="fill:#1f77b4;stroke:#1f77b4;" x="835.552448" xlink:href="#m39e055e730" y="629.726384"/>
     <use style="fill:#1f77b4;stroke:#1f77b4;" x="1078.859729" xlink:href="#m39e055e730" y="635.711615"/>
     <use style="fill:#1f77b4;stroke:#1f77b4;" x="693.240642" xlink:href="#m39e055e730" y="687.816126"/>
     <use style="fill:#1f77b4;stroke:#1f77b4;" x="826.371041" xlink:href="#m39e055e730" y="621.251886"/>
     <use style="fill:#1f77b4;stroke:#1f77b4;" x="785.05471" xlink:href="#m39e055e730" y="652.044429"/>
     <use style="fill:#1f77b4;stroke:#1f77b4;" x="936.547923" xlink:href="#m39e055e730" y="584.470339"/>
     <use style="fill:#1f77b4;stroke:#1f77b4;" x="899.822295" xlink:href="#m39e055e730" y="579.448614"/>
     <use style="fill:#1f77b4;stroke:#1f77b4;" x="909.003702" xlink:href="#m39e055e730" y="601.067262"/>
     <use style="fill:#1f77b4;stroke:#1f77b4;" x="830.961744" xlink:href="#m39e055e730" y="601.067262"/>
     <use style="fill:#1f77b4;stroke:#1f77b4;" x="743.738379" xlink:href="#m39e055e730" y="665.441857"/>
     <use style="fill:#1f77b4;stroke:#1f77b4;" x="766.691896" xlink:href="#m39e055e730" y="690.078111"/>
     <use style="fill:#1f77b4;stroke:#1f77b4;" x="867.687371" xlink:href="#m39e055e730" y="546.441596"/>
     <use style="fill:#1f77b4;stroke:#1f77b4;" x="1028.361991" xlink:href="#m39e055e730" y="581.403825"/>
     <use style="fill:#1f77b4;stroke:#1f77b4;" x="918.185109" xlink:href="#m39e055e730" y="485.37491"/>
     <use style="fill:#1f77b4;stroke:#1f77b4;" x="945.729329" xlink:href="#m39e055e730" y="626.572437"/>
     <use style="fill:#1f77b4;stroke:#1f77b4;" x="794.236117" xlink:href="#m39e055e730" y="594.942192"/>
     <use style="fill:#1f77b4;stroke:#1f77b4;" x="858.505965" xlink:href="#m39e055e730" y="600.518209"/>
     <use style="fill:#1f77b4;stroke:#1f77b4;" x="739.147676" xlink:href="#m39e055e730" y="722.30431"/>
     <use style="fill:#1f77b4;stroke:#1f77b4;" x="844.733854" xlink:href="#m39e055e730" y="567.125786"/>
     <use style="fill:#1f77b4;stroke:#1f77b4;" x="853.915261" xlink:href="#m39e055e730" y="619.207969"/>
     <use style="fill:#1f77b4;stroke:#1f77b4;" x="674.877828" xlink:href="#m39e055e730" y="657.595018"/>
     <use style="fill:#1f77b4;stroke:#1f77b4;" x="780.464007" xlink:href="#m39e055e730" y="732.228459"/>
     <use style="fill:#1f77b4;stroke:#1f77b4;" x="909.003702" xlink:href="#m39e055e730" y="664.718478"/>
     <use style="fill:#1f77b4;stroke:#1f77b4;" x="968.682847" xlink:href="#m39e055e730" y="523.287893"/>
     <use style="fill:#1f77b4;stroke:#1f77b4;" x="817.189634" xlink:href="#m39e055e730" y="614.738648"/>
     <use style="fill:#1f77b4;stroke:#1f77b4;" x="853.915261" xlink:href="#m39e055e730" y="669.988465"/>
     <use style="fill:#1f77b4;stroke:#1f77b4;" x="583.06376" xlink:href="#m39e055e730" y="719.156934"/>
     <use style="fill:#1f77b4;stroke:#1f77b4;" x="661.105718" xlink:href="#m39e055e730" y="642.520306"/>
     <use style="fill:#1f77b4;stroke:#1f77b4;" x="743.738379" xlink:href="#m39e055e730" y="712.230515"/>
     <use style="fill:#1f77b4;stroke:#1f77b4;" x="817.189634" xlink:href="#m39e055e730" y="643.598945"/>
     <use style="fill:#1f77b4;stroke:#1f77b4;" x="844.733854" xlink:href="#m39e055e730" y="570.305294"/>
     <use style="fill:#1f77b4;stroke:#1f77b4;" x="711.603455" xlink:href="#m39e055e730" y="774.598756"/>
     <use style="fill:#1f77b4;stroke:#1f77b4;" x="527.975319" xlink:href="#m39e055e730" y="801.768059"/>
     <use style="fill:#1f77b4;stroke:#1f77b4;" x="881.459482" xlink:href="#m39e055e730" y="607.178626"/>
     <use style="fill:#1f77b4;stroke:#1f77b4;" x="973.27355" xlink:href="#m39e055e730" y="468.764266"/>
     <use style="fill:#1f77b4;stroke:#1f77b4;" x="858.505965" xlink:href="#m39e055e730" y="633.018346"/>
     <use style="fill:#1f77b4;stroke:#1f77b4;" x="752.919786" xlink:href="#m39e055e730" y="622.56951"/>
     <use style="fill:#1f77b4;stroke:#1f77b4;" x="752.919786" xlink:href="#m39e055e730" y="697.539129"/>
     <use style="fill:#1f77b4;stroke:#1f77b4;" x="991.636364" xlink:href="#m39e055e730" y="471.05569"/>
     <use style="fill:#1f77b4;stroke:#1f77b4;" x="821.780337" xlink:href="#m39e055e730" y="677.20187"/>
     <use style="fill:#1f77b4;stroke:#1f77b4;" x="821.780337" xlink:href="#m39e055e730" y="656.651679"/>
     <use style="fill:#1f77b4;stroke:#1f77b4;" x="876.868778" xlink:href="#m39e055e730" y="607.418663"/>
     <use style="fill:#1f77b4;stroke:#1f77b4;" x="743.738379" xlink:href="#m39e055e730" y="703.35858"/>
     <use style="fill:#1f77b4;stroke:#1f77b4;" x="931.957219" xlink:href="#m39e055e730" y="555.902459"/>
     <use style="fill:#1f77b4;stroke:#1f77b4;" x="968.682847" xlink:href="#m39e055e730" y="583.328499"/>
     <use style="fill:#1f77b4;stroke:#1f77b4;" x="844.733854" xlink:href="#m39e055e730" y="675.882113"/>
     <use style="fill:#1f77b4;stroke:#1f77b4;" x="904.412999" xlink:href="#m39e055e730" y="599.220491"/>
     <use style="fill:#1f77b4;stroke:#1f77b4;" x="821.780337" xlink:href="#m39e055e730" y="725.566355"/>
     <use style="fill:#1f77b4;stroke:#1f77b4;" x="941.138626" xlink:href="#m39e055e730" y="522.631922"/>
     <use style="fill:#1f77b4;stroke:#1f77b4;" x="757.51049" xlink:href="#m39e055e730" y="698.574673"/>
     <use style="fill:#1f77b4;stroke:#1f77b4;" x="697.831345" xlink:href="#m39e055e730" y="697.449759"/>
     <use style="fill:#1f77b4;stroke:#1f77b4;" x="876.868778" xlink:href="#m39e055e730" y="682.276595"/>
     <use style="fill:#1f77b4;stroke:#1f77b4;" x="895.231592" xlink:href="#m39e055e730" y="606.02556"/>
     <use style="fill:#1f77b4;stroke:#1f77b4;" x="904.412999" xlink:href="#m39e055e730" y="554.836683"/>
     <use style="fill:#1f77b4;stroke:#1f77b4;" x="849.324558" xlink:href="#m39e055e730" y="635.027227"/>
     <use style="fill:#1f77b4;stroke:#1f77b4;" x="881.459482" xlink:href="#m39e055e730" y="582.147574"/>
     <use style="fill:#1f77b4;stroke:#1f77b4;" x="913.594406" xlink:href="#m39e055e730" y="550.351178"/>
     <use style="fill:#1f77b4;stroke:#1f77b4;" x="766.691896" xlink:href="#m39e055e730" y="626.26305"/>
     <use style="fill:#1f77b4;stroke:#1f77b4;" x="996.227067" xlink:href="#m39e055e730" y="601.067262"/>
     <use style="fill:#1f77b4;stroke:#1f77b4;" x="881.459482" xlink:href="#m39e055e730" y="708.986781"/>
     <use style="fill:#1f77b4;stroke:#1f77b4;" x="812.59893" xlink:href="#m39e055e730" y="655.205585"/>
     <use style="fill:#1f77b4;stroke:#1f77b4;" x="679.468531" xlink:href="#m39e055e730" y="724.064727"/>
     <use style="fill:#1f77b4;stroke:#1f77b4;" x="959.50144" xlink:href="#m39e055e730" y="540.90678"/>
     <use style="fill:#1f77b4;stroke:#1f77b4;" x="867.687371" xlink:href="#m39e055e730" y="605.114529"/>
     <use style="fill:#1f77b4;stroke:#1f77b4;" x="762.101193" xlink:href="#m39e055e730" y="601.067262"/>
     <use style="fill:#1f77b4;stroke:#1f77b4;" x="890.640889" xlink:href="#m39e055e730" y="562.957188"/>
     <use style="fill:#1f77b4;stroke:#1f77b4;" x="1244.125051" xlink:href="#m39e055e730" y="584.448105"/>
     <use style="fill:#1f77b4;stroke:#1f77b4;" x="840.143151" xlink:href="#m39e055e730" y="567.362643"/>
     <use style="fill:#1f77b4;stroke:#1f77b4;" x="817.189634" xlink:href="#m39e055e730" y="641.045543"/>
     <use style="fill:#1f77b4;stroke:#1f77b4;" x="881.459482" xlink:href="#m39e055e730" y="609.309549"/>
     <use style="fill:#1f77b4;stroke:#1f77b4;" x="867.687371" xlink:href="#m39e055e730" y="615.661079"/>
     <use style="fill:#1f77b4;stroke:#1f77b4;" x="931.957219" xlink:href="#m39e055e730" y="607.50139"/>
     <use style="fill:#1f77b4;stroke:#1f77b4;" x="821.780337" xlink:href="#m39e055e730" y="674.551828"/>
     <use style="fill:#1f77b4;stroke:#1f77b4;" x="954.910736" xlink:href="#m39e055e730" y="502.55957"/>
     <use style="fill:#1f77b4;stroke:#1f77b4;" x="918.185109" xlink:href="#m39e055e730" y="592.905176"/>
     <use style="fill:#1f77b4;stroke:#1f77b4;" x="853.915261" xlink:href="#m39e055e730" y="572.103631"/>
     <use style="fill:#1f77b4;stroke:#1f77b4;" x="913.594406" xlink:href="#m39e055e730" y="599.720268"/>
     <use style="fill:#1f77b4;stroke:#1f77b4;" x="909.003702" xlink:href="#m39e055e730" y="620.001618"/>
     <use style="fill:#1f77b4;stroke:#1f77b4;" x="587.654463" xlink:href="#m39e055e730" y="795.463352"/>
     <use style="fill:#1f77b4;stroke:#1f77b4;" x="863.096668" xlink:href="#m39e055e730" y="532.317509"/>
     <use style="fill:#1f77b4;stroke:#1f77b4;" x="964.092143" xlink:href="#m39e055e730" y="615.917936"/>
     <use style="fill:#1f77b4;stroke:#1f77b4;" x="844.733854" xlink:href="#m39e055e730" y="671.293676"/>
     <use style="fill:#1f77b4;stroke:#1f77b4;" x="899.822295" xlink:href="#m39e055e730" y="610.96697"/>
     <use style="fill:#1f77b4;stroke:#1f77b4;" x="656.515014" xlink:href="#m39e055e730" y="662.135861"/>
     <use style="fill:#1f77b4;stroke:#1f77b4;" x="936.547923" xlink:href="#m39e055e730" y="535.587692"/>
     <use style="fill:#1f77b4;stroke:#1f77b4;" x="798.82682" xlink:href="#m39e055e730" y="720.192098"/>
     <use style="fill:#1f77b4;stroke:#1f77b4;" x="821.780337" xlink:href="#m39e055e730" y="649.128962"/>
     <use style="fill:#1f77b4;stroke:#1f77b4;" x="647.333608" xlink:href="#m39e055e730" y="581.238858"/>
     <use style="fill:#1f77b4;stroke:#1f77b4;" x="849.324558" xlink:href="#m39e055e730" y="601.067262"/>
     <use style="fill:#1f77b4;stroke:#1f77b4;" x="826.371041" xlink:href="#m39e055e730" y="703.595821"/>
     <use style="fill:#1f77b4;stroke:#1f77b4;" x="931.957219" xlink:href="#m39e055e730" y="548.018506"/>
     <use style="fill:#1f77b4;stroke:#1f77b4;" x="596.83587" xlink:href="#m39e055e730" y="770.026701"/>
     <use style="fill:#1f77b4;stroke:#1f77b4;" x="945.729329" xlink:href="#m39e055e730" y="606.452344"/>
     <use style="fill:#1f77b4;stroke:#1f77b4;" x="803.417524" xlink:href="#m39e055e730" y="631.601965"/>
     <use style="fill:#1f77b4;stroke:#1f77b4;" x="909.003702" xlink:href="#m39e055e730" y="555.920971"/>
     <use style="fill:#1f77b4;stroke:#1f77b4;" x="872.278075" xlink:href="#m39e055e730" y="616.831273"/>
     <use style="fill:#1f77b4;stroke:#1f77b4;" x="1014.589881" xlink:href="#m39e055e730" y="532.843411"/>
     <use style="fill:#1f77b4;stroke:#1f77b4;" x="886.050185" xlink:href="#m39e055e730" y="592.746379"/>
     <use style="fill:#1f77b4;stroke:#1f77b4;" x="867.687371" xlink:href="#m39e055e730" y="661.260385"/>
     <use style="fill:#1f77b4;stroke:#1f77b4;" x="872.278075" xlink:href="#m39e055e730" y="495.844781"/>
     <use style="fill:#1f77b4;stroke:#1f77b4;" x="725.375566" xlink:href="#m39e055e730" y="688.642151"/>
     <use style="fill:#1f77b4;stroke:#1f77b4;" x="840.143151" xlink:href="#m39e055e730" y="652.70265"/>
     <use style="fill:#1f77b4;stroke:#1f77b4;" x="968.682847" xlink:href="#m39e055e730" y="463.435516"/>
     <use style="fill:#1f77b4;stroke:#1f77b4;" x="1088.041135" xlink:href="#m39e055e730" y="601.067262"/>
     <use style="fill:#1f77b4;stroke:#1f77b4;" x="757.51049" xlink:href="#m39e055e730" y="683.89486"/>
     <use style="fill:#1f77b4;stroke:#1f77b4;" x="849.324558" xlink:href="#m39e055e730" y="540.859888"/>
     <use style="fill:#1f77b4;stroke:#1f77b4;" x="840.143151" xlink:href="#m39e055e730" y="611.107074"/>
     <use style="fill:#1f77b4;stroke:#1f77b4;" x="863.096668" xlink:href="#m39e055e730" y="611.231748"/>
     <use style="fill:#1f77b4;stroke:#1f77b4;" x="922.775812" xlink:href="#m39e055e730" y="574.808446"/>
     <use style="fill:#1f77b4;stroke:#1f77b4;" x="964.092143" xlink:href="#m39e055e730" y="571.829862"/>
     <use style="fill:#1f77b4;stroke:#1f77b4;" x="821.780337" xlink:href="#m39e055e730" y="655.775269"/>
     <use style="fill:#1f77b4;stroke:#1f77b4;" x="922.775812" xlink:href="#m39e055e730" y="611.908877"/>
     <use style="fill:#1f77b4;stroke:#1f77b4;" x="890.640889" xlink:href="#m39e055e730" y="621.31379"/>
     <use style="fill:#1f77b4;stroke:#1f77b4;" x="711.603455" xlink:href="#m39e055e730" y="733.142986"/>
     <use style="fill:#1f77b4;stroke:#1f77b4;" x="876.868778" xlink:href="#m39e055e730" y="643.780044"/>
     <use style="fill:#1f77b4;stroke:#1f77b4;" x="840.143151" xlink:href="#m39e055e730" y="615.975789"/>
     <use style="fill:#1f77b4;stroke:#1f77b4;" x="853.915261" xlink:href="#m39e055e730" y="640.230047"/>
     <use style="fill:#1f77b4;stroke:#1f77b4;" x="941.138626" xlink:href="#m39e055e730" y="519.914572"/>
     <use style="fill:#1f77b4;stroke:#1f77b4;" x="904.412999" xlink:href="#m39e055e730" y="631.449167"/>
     <use style="fill:#1f77b4;stroke:#1f77b4;" x="587.654463" xlink:href="#m39e055e730" y="822.234043"/>
     <use style="fill:#1f77b4;stroke:#1f77b4;" x="757.51049" xlink:href="#m39e055e730" y="750.762134"/>
     <use style="fill:#1f77b4;stroke:#1f77b4;" x="771.2826" xlink:href="#m39e055e730" y="592.862676"/>
     <use style="fill:#1f77b4;stroke:#1f77b4;" x="918.185109" xlink:href="#m39e055e730" y="653.928992"/>
     <use style="fill:#1f77b4;stroke:#1f77b4;" x="821.780337" xlink:href="#m39e055e730" y="704.178469"/>
     <use style="fill:#1f77b4;stroke:#1f77b4;" x="918.185109" xlink:href="#m39e055e730" y="565.484275"/>
     <use style="fill:#1f77b4;stroke:#1f77b4;" x="835.552448" xlink:href="#m39e055e730" y="666.475097"/>
     <use style="fill:#1f77b4;stroke:#1f77b4;" x="899.822295" xlink:href="#m39e055e730" y="601.067262"/>
     <use style="fill:#1f77b4;stroke:#1f77b4;" x="876.868778" xlink:href="#m39e055e730" y="712.467962"/>
     <use style="fill:#1f77b4;stroke:#1f77b4;" x="876.868778" xlink:href="#m39e055e730" y="645.171675"/>
     <use style="fill:#1f77b4;stroke:#1f77b4;" x="890.640889" xlink:href="#m39e055e730" y="710.704677"/>
     <use style="fill:#1f77b4;stroke:#1f77b4;" x="881.459482" xlink:href="#m39e055e730" y="571.302318"/>
     <use style="fill:#1f77b4;stroke:#1f77b4;" x="670.287125" xlink:href="#m39e055e730" y="836.43669"/>
     <use style="fill:#1f77b4;stroke:#1f77b4;" x="808.008227" xlink:href="#m39e055e730" y="680.819959"/>
     <use style="fill:#1f77b4;stroke:#1f77b4;" x="941.138626" xlink:href="#m39e055e730" y="595.396855"/>
     <use style="fill:#1f77b4;stroke:#1f77b4;" x="1225.762238" xlink:href="#m39e055e730" y="569.82628"/>
     <use style="fill:#1f77b4;stroke:#1f77b4;" x="780.464007" xlink:href="#m39e055e730" y="678.085527"/>
     <use style="fill:#1f77b4;stroke:#1f77b4;" x="729.966269" xlink:href="#m39e055e730" y="753.532982"/>
     <use style="fill:#1f77b4;stroke:#1f77b4;" x="794.236117" xlink:href="#m39e055e730" y="649.347641"/>
     <use style="fill:#1f77b4;stroke:#1f77b4;" x="936.547923" xlink:href="#m39e055e730" y="608.078387"/>
     <use style="fill:#1f77b4;stroke:#1f77b4;" x="771.2826" xlink:href="#m39e055e730" y="620.948189"/>
     <use style="fill:#1f77b4;stroke:#1f77b4;" x="909.003702" xlink:href="#m39e055e730" y="601.067262"/>
     <use style="fill:#1f77b4;stroke:#1f77b4;" x="642.742904" xlink:href="#m39e055e730" y="695.496644"/>
     <use style="fill:#1f77b4;stroke:#1f77b4;" x="867.687371" xlink:href="#m39e055e730" y="642.106928"/>
     <use style="fill:#1f77b4;stroke:#1f77b4;" x="987.04566" xlink:href="#m39e055e730" y="586.311046"/>
     <use style="fill:#1f77b4;stroke:#1f77b4;" x="734.556972" xlink:href="#m39e055e730" y="703.919761"/>
     <use style="fill:#1f77b4;stroke:#1f77b4;" x="532.566022" xlink:href="#m39e055e730" y="820.67573"/>
     <use style="fill:#1f77b4;stroke:#1f77b4;" x="899.822295" xlink:href="#m39e055e730" y="609.189503"/>
     <use style="fill:#1f77b4;stroke:#1f77b4;" x="771.2826" xlink:href="#m39e055e730" y="754.711632"/>
     <use style="fill:#1f77b4;stroke:#1f77b4;" x="766.691896" xlink:href="#m39e055e730" y="592.102435"/>
     <use style="fill:#1f77b4;stroke:#1f77b4;" x="886.050185" xlink:href="#m39e055e730" y="607.462499"/>
     <use style="fill:#1f77b4;stroke:#1f77b4;" x="766.691896" xlink:href="#m39e055e730" y="690.078111"/>
     <use style="fill:#1f77b4;stroke:#1f77b4;" x="954.910736" xlink:href="#m39e055e730" y="588.896844"/>
     <use style="fill:#1f77b4;stroke:#1f77b4;" x="858.505965" xlink:href="#m39e055e730" y="696.256929"/>
     <use style="fill:#1f77b4;stroke:#1f77b4;" x="931.957219" xlink:href="#m39e055e730" y="532.764449"/>
     <use style="fill:#1f77b4;stroke:#1f77b4;" x="840.143151" xlink:href="#m39e055e730" y="631.630928"/>
     <use style="fill:#1f77b4;stroke:#1f77b4;" x="642.742904" xlink:href="#m39e055e730" y="639.599514"/>
     <use style="fill:#1f77b4;stroke:#1f77b4;" x="821.780337" xlink:href="#m39e055e730" y="570.271601"/>
     <use style="fill:#1f77b4;stroke:#1f77b4;" x="794.236117" xlink:href="#m39e055e730" y="601.067262"/>
     <use style="fill:#1f77b4;stroke:#1f77b4;" x="1000.81777" xlink:href="#m39e055e730" y="601.067262"/>
     <use style="fill:#1f77b4;stroke:#1f77b4;" x="863.096668" xlink:href="#m39e055e730" y="612.363557"/>
     <use style="fill:#1f77b4;stroke:#1f77b4;" x="771.2826" xlink:href="#m39e055e730" y="705.050207"/>
     <use style="fill:#1f77b4;stroke:#1f77b4;" x="817.189634" xlink:href="#m39e055e730" y="674.810594"/>
     <use style="fill:#1f77b4;stroke:#1f77b4;" x="918.185109" xlink:href="#m39e055e730" y="618.265303"/>
     <use style="fill:#1f77b4;stroke:#1f77b4;" x="780.464007" xlink:href="#m39e055e730" y="644.081605"/>
     <use style="fill:#1f77b4;stroke:#1f77b4;" x="1074.269025" xlink:href="#m39e055e730" y="632.713344"/>
     <use style="fill:#1f77b4;stroke:#1f77b4;" x="1147.72028" xlink:href="#m39e055e730" y="592.309715"/>
     <use style="fill:#1f77b4;stroke:#1f77b4;" x="909.003702" xlink:href="#m39e055e730" y="607.773183"/>
     <use style="fill:#1f77b4;stroke:#1f77b4;" x="817.189634" xlink:href="#m39e055e730" y="639.446847"/>
     <use style="fill:#1f77b4;stroke:#1f77b4;" x="229.579597" xlink:href="#m39e055e730" y="646.678122"/>
     <use style="fill:#1f77b4;stroke:#1f77b4;" x="606.017277" xlink:href="#m39e055e730" y="723.330609"/>
     <use style="fill:#1f77b4;stroke:#1f77b4;" x="766.691896" xlink:href="#m39e055e730" y="673.267108"/>
    </g>
   </g>
   <g id="matplotlib.axis_1">
    <g id="xtick_1">
     <g id="line2d_1">
      <defs>
       <path d="M 0 0 
L 0 3.5 
" id="mb320ec32c5" style="stroke:#000000;stroke-width:0.8;"/>
      </defs>
      <g>
       <use style="stroke:#000000;stroke-width:0.8;" x="266.305224" xlink:href="#mb320ec32c5" y="1281.6"/>
      </g>
     </g>
     <g id="text_1">
      <!-- −10 -->
      <defs>
       <path d="M 10.59375 35.5 
L 73.1875 35.5 
L 73.1875 27.203125 
L 10.59375 27.203125 
z
" id="DejaVuSans-2212"/>
       <path d="M 12.40625 8.296875 
L 28.515625 8.296875 
L 28.515625 63.921875 
L 10.984375 60.40625 
L 10.984375 69.390625 
L 28.421875 72.90625 
L 38.28125 72.90625 
L 38.28125 8.296875 
L 54.390625 8.296875 
L 54.390625 0 
L 12.40625 0 
z
" id="DejaVuSans-31"/>
       <path d="M 31.78125 66.40625 
Q 24.171875 66.40625 20.328125 58.90625 
Q 16.5 51.421875 16.5 36.375 
Q 16.5 21.390625 20.328125 13.890625 
Q 24.171875 6.390625 31.78125 6.390625 
Q 39.453125 6.390625 43.28125 13.890625 
Q 47.125 21.390625 47.125 36.375 
Q 47.125 51.421875 43.28125 58.90625 
Q 39.453125 66.40625 31.78125 66.40625 
z
M 31.78125 74.21875 
Q 44.046875 74.21875 50.515625 64.515625 
Q 56.984375 54.828125 56.984375 36.375 
Q 56.984375 17.96875 50.515625 8.265625 
Q 44.046875 -1.421875 31.78125 -1.421875 
Q 19.53125 -1.421875 13.0625 8.265625 
Q 6.59375 17.96875 6.59375 36.375 
Q 6.59375 54.828125 13.0625 64.515625 
Q 19.53125 74.21875 31.78125 74.21875 
z
" id="DejaVuSans-30"/>
      </defs>
      <g transform="translate(255.75288 1296.198437)scale(0.1 -0.1)">
       <use xlink:href="#DejaVuSans-2212"/>
       <use x="83.789062" xlink:href="#DejaVuSans-31"/>
       <use x="147.412109" xlink:href="#DejaVuSans-30"/>
      </g>
     </g>
    </g>
    <g id="xtick_2">
     <g id="line2d_2">
      <g>
       <use style="stroke:#000000;stroke-width:0.8;" x="495.840395" xlink:href="#mb320ec32c5" y="1281.6"/>
      </g>
     </g>
     <g id="text_2">
      <!-- −5 -->
      <defs>
       <path d="M 10.796875 72.90625 
L 49.515625 72.90625 
L 49.515625 64.59375 
L 19.828125 64.59375 
L 19.828125 46.734375 
Q 21.96875 47.46875 24.109375 47.828125 
Q 26.265625 48.1875 28.421875 48.1875 
Q 40.625 48.1875 47.75 41.5 
Q 54.890625 34.8125 54.890625 23.390625 
Q 54.890625 11.625 47.5625 5.09375 
Q 40.234375 -1.421875 26.90625 -1.421875 
Q 22.3125 -1.421875 17.546875 -0.640625 
Q 12.796875 0.140625 7.71875 1.703125 
L 7.71875 11.625 
Q 12.109375 9.234375 16.796875 8.0625 
Q 21.484375 6.890625 26.703125 6.890625 
Q 35.15625 6.890625 40.078125 11.328125 
Q 45.015625 15.765625 45.015625 23.390625 
Q 45.015625 31 40.078125 35.4375 
Q 35.15625 39.890625 26.703125 39.890625 
Q 22.75 39.890625 18.8125 39.015625 
Q 14.890625 38.140625 10.796875 36.28125 
z
" id="DejaVuSans-35"/>
      </defs>
      <g transform="translate(488.469301 1296.198437)scale(0.1 -0.1)">
       <use xlink:href="#DejaVuSans-2212"/>
       <use x="83.789062" xlink:href="#DejaVuSans-35"/>
      </g>
     </g>
    </g>
    <g id="xtick_3">
     <g id="line2d_3">
      <g>
       <use style="stroke:#000000;stroke-width:0.8;" x="725.375566" xlink:href="#mb320ec32c5" y="1281.6"/>
      </g>
     </g>
     <g id="text_3">
      <!-- 0 -->
      <g transform="translate(722.194316 1296.198437)scale(0.1 -0.1)">
       <use xlink:href="#DejaVuSans-30"/>
      </g>
     </g>
    </g>
    <g id="xtick_4">
     <g id="line2d_4">
      <g>
       <use style="stroke:#000000;stroke-width:0.8;" x="954.910736" xlink:href="#mb320ec32c5" y="1281.6"/>
      </g>
     </g>
     <g id="text_4">
      <!-- 5 -->
      <g transform="translate(951.729486 1296.198437)scale(0.1 -0.1)">
       <use xlink:href="#DejaVuSans-35"/>
      </g>
     </g>
    </g>
    <g id="xtick_5">
     <g id="line2d_5">
      <g>
       <use style="stroke:#000000;stroke-width:0.8;" x="1184.445907" xlink:href="#mb320ec32c5" y="1281.6"/>
      </g>
     </g>
     <g id="text_5">
      <!-- 10 -->
      <g transform="translate(1178.083407 1296.198437)scale(0.1 -0.1)">
       <use xlink:href="#DejaVuSans-31"/>
       <use x="63.623047" xlink:href="#DejaVuSans-30"/>
      </g>
     </g>
    </g>
    <g id="text_6">
     <!-- Y Test -->
     <defs>
      <path d="M -0.203125 72.90625 
L 10.40625 72.90625 
L 30.609375 42.921875 
L 50.6875 72.90625 
L 61.28125 72.90625 
L 35.5 34.71875 
L 35.5 0 
L 25.59375 0 
L 25.59375 34.71875 
z
" id="DejaVuSans-59"/>
      <path id="DejaVuSans-20"/>
      <path d="M -0.296875 72.90625 
L 61.375 72.90625 
L 61.375 64.59375 
L 35.5 64.59375 
L 35.5 0 
L 25.59375 0 
L 25.59375 64.59375 
L -0.296875 64.59375 
z
" id="DejaVuSans-54"/>
      <path d="M 56.203125 29.59375 
L 56.203125 25.203125 
L 14.890625 25.203125 
Q 15.484375 15.921875 20.484375 11.0625 
Q 25.484375 6.203125 34.421875 6.203125 
Q 39.59375 6.203125 44.453125 7.46875 
Q 49.3125 8.734375 54.109375 11.28125 
L 54.109375 2.78125 
Q 49.265625 0.734375 44.1875 -0.34375 
Q 39.109375 -1.421875 33.890625 -1.421875 
Q 20.796875 -1.421875 13.15625 6.1875 
Q 5.515625 13.8125 5.515625 26.8125 
Q 5.515625 40.234375 12.765625 48.109375 
Q 20.015625 56 32.328125 56 
Q 43.359375 56 49.78125 48.890625 
Q 56.203125 41.796875 56.203125 29.59375 
z
M 47.21875 32.234375 
Q 47.125 39.59375 43.09375 43.984375 
Q 39.0625 48.390625 32.421875 48.390625 
Q 24.90625 48.390625 20.390625 44.140625 
Q 15.875 39.890625 15.1875 32.171875 
z
" id="DejaVuSans-65"/>
      <path d="M 44.28125 53.078125 
L 44.28125 44.578125 
Q 40.484375 46.53125 36.375 47.5 
Q 32.28125 48.484375 27.875 48.484375 
Q 21.1875 48.484375 17.84375 46.4375 
Q 14.5 44.390625 14.5 40.28125 
Q 14.5 37.15625 16.890625 35.375 
Q 19.28125 33.59375 26.515625 31.984375 
L 29.59375 31.296875 
Q 39.15625 29.25 43.1875 25.515625 
Q 47.21875 21.78125 47.21875 15.09375 
Q 47.21875 7.46875 41.1875 3.015625 
Q 35.15625 -1.421875 24.609375 -1.421875 
Q 20.21875 -1.421875 15.453125 -0.5625 
Q 10.6875 0.296875 5.421875 2 
L 5.421875 11.28125 
Q 10.40625 8.6875 15.234375 7.390625 
Q 20.0625 6.109375 24.8125 6.109375 
Q 31.15625 6.109375 34.5625 8.28125 
Q 37.984375 10.453125 37.984375 14.40625 
Q 37.984375 18.0625 35.515625 20.015625 
Q 33.0625 21.96875 24.703125 23.78125 
L 21.578125 24.515625 
Q 13.234375 26.265625 9.515625 29.90625 
Q 5.8125 33.546875 5.8125 39.890625 
Q 5.8125 47.609375 11.28125 51.796875 
Q 16.75 56 26.8125 56 
Q 31.78125 56 36.171875 55.265625 
Q 40.578125 54.546875 44.28125 53.078125 
z
" id="DejaVuSans-73"/>
      <path d="M 18.3125 70.21875 
L 18.3125 54.6875 
L 36.8125 54.6875 
L 36.8125 47.703125 
L 18.3125 47.703125 
L 18.3125 18.015625 
Q 18.3125 11.328125 20.140625 9.421875 
Q 21.96875 7.515625 27.59375 7.515625 
L 36.8125 7.515625 
L 36.8125 0 
L 27.59375 0 
Q 17.1875 0 13.234375 3.875 
Q 9.28125 7.765625 9.28125 18.015625 
L 9.28125 47.703125 
L 2.6875 47.703125 
L 2.6875 54.6875 
L 9.28125 54.6875 
L 9.28125 70.21875 
z
" id="DejaVuSans-74"/>
     </defs>
     <g transform="translate(722.675 1309.876563)scale(0.1 -0.1)">
      <use xlink:href="#DejaVuSans-59"/>
      <use x="61.083984" xlink:href="#DejaVuSans-20"/>
      <use x="92.871094" xlink:href="#DejaVuSans-54"/>
      <use x="153.689453" xlink:href="#DejaVuSans-65"/>
      <use x="215.212891" xlink:href="#DejaVuSans-73"/>
      <use x="267.3125" xlink:href="#DejaVuSans-74"/>
     </g>
    </g>
   </g>
   <g id="matplotlib.axis_2">
    <g id="ytick_1">
     <g id="line2d_6">
      <defs>
       <path d="M 0 0 
L -3.5 0 
" id="mc8744d8ec5" style="stroke:#000000;stroke-width:0.8;"/>
      </defs>
      <g>
       <use style="stroke:#000000;stroke-width:0.8;" x="180" xlink:href="#mc8744d8ec5" y="1195.851584"/>
      </g>
     </g>
     <g id="text_7">
      <!-- −10 -->
      <g transform="translate(151.895312 1199.650802)scale(0.1 -0.1)">
       <use xlink:href="#DejaVuSans-2212"/>
       <use x="83.789062" xlink:href="#DejaVuSans-31"/>
       <use x="147.412109" xlink:href="#DejaVuSans-30"/>
      </g>
     </g>
    </g>
    <g id="ytick_2">
     <g id="line2d_7">
      <g>
       <use style="stroke:#000000;stroke-width:0.8;" x="180" xlink:href="#mc8744d8ec5" y="967.797285"/>
      </g>
     </g>
     <g id="text_8">
      <!-- −5 -->
      <g transform="translate(158.257812 971.596504)scale(0.1 -0.1)">
       <use xlink:href="#DejaVuSans-2212"/>
       <use x="83.789062" xlink:href="#DejaVuSans-35"/>
      </g>
     </g>
    </g>
    <g id="ytick_3">
     <g id="line2d_8">
      <g>
       <use style="stroke:#000000;stroke-width:0.8;" x="180" xlink:href="#mc8744d8ec5" y="739.742986"/>
      </g>
     </g>
     <g id="text_9">
      <!-- 0 -->
      <g transform="translate(166.6375 743.542205)scale(0.1 -0.1)">
       <use xlink:href="#DejaVuSans-30"/>
      </g>
     </g>
    </g>
    <g id="ytick_4">
     <g id="line2d_9">
      <g>
       <use style="stroke:#000000;stroke-width:0.8;" x="180" xlink:href="#mc8744d8ec5" y="511.688688"/>
      </g>
     </g>
     <g id="text_10">
      <!-- 5 -->
      <g transform="translate(166.6375 515.487907)scale(0.1 -0.1)">
       <use xlink:href="#DejaVuSans-35"/>
      </g>
     </g>
    </g>
    <g id="ytick_5">
     <g id="line2d_10">
      <g>
       <use style="stroke:#000000;stroke-width:0.8;" x="180" xlink:href="#mc8744d8ec5" y="283.634389"/>
      </g>
     </g>
     <g id="text_11">
      <!-- 10 -->
      <g transform="translate(160.275 287.433608)scale(0.1 -0.1)">
       <use xlink:href="#DejaVuSans-31"/>
       <use x="63.623047" xlink:href="#DejaVuSans-30"/>
      </g>
     </g>
    </g>
    <g id="text_12">
     <!-- Y Predicted -->
     <defs>
      <path d="M 19.671875 64.796875 
L 19.671875 37.40625 
L 32.078125 37.40625 
Q 38.96875 37.40625 42.71875 40.96875 
Q 46.484375 44.53125 46.484375 51.125 
Q 46.484375 57.671875 42.71875 61.234375 
Q 38.96875 64.796875 32.078125 64.796875 
z
M 9.8125 72.90625 
L 32.078125 72.90625 
Q 44.34375 72.90625 50.609375 67.359375 
Q 56.890625 61.8125 56.890625 51.125 
Q 56.890625 40.328125 50.609375 34.8125 
Q 44.34375 29.296875 32.078125 29.296875 
L 19.671875 29.296875 
L 19.671875 0 
L 9.8125 0 
z
" id="DejaVuSans-50"/>
      <path d="M 41.109375 46.296875 
Q 39.59375 47.171875 37.8125 47.578125 
Q 36.03125 48 33.890625 48 
Q 26.265625 48 22.1875 43.046875 
Q 18.109375 38.09375 18.109375 28.8125 
L 18.109375 0 
L 9.078125 0 
L 9.078125 54.6875 
L 18.109375 54.6875 
L 18.109375 46.1875 
Q 20.953125 51.171875 25.484375 53.578125 
Q 30.03125 56 36.53125 56 
Q 37.453125 56 38.578125 55.875 
Q 39.703125 55.765625 41.0625 55.515625 
z
" id="DejaVuSans-72"/>
      <path d="M 45.40625 46.390625 
L 45.40625 75.984375 
L 54.390625 75.984375 
L 54.390625 0 
L 45.40625 0 
L 45.40625 8.203125 
Q 42.578125 3.328125 38.25 0.953125 
Q 33.9375 -1.421875 27.875 -1.421875 
Q 17.96875 -1.421875 11.734375 6.484375 
Q 5.515625 14.40625 5.515625 27.296875 
Q 5.515625 40.1875 11.734375 48.09375 
Q 17.96875 56 27.875 56 
Q 33.9375 56 38.25 53.625 
Q 42.578125 51.265625 45.40625 46.390625 
z
M 14.796875 27.296875 
Q 14.796875 17.390625 18.875 11.75 
Q 22.953125 6.109375 30.078125 6.109375 
Q 37.203125 6.109375 41.296875 11.75 
Q 45.40625 17.390625 45.40625 27.296875 
Q 45.40625 37.203125 41.296875 42.84375 
Q 37.203125 48.484375 30.078125 48.484375 
Q 22.953125 48.484375 18.875 42.84375 
Q 14.796875 37.203125 14.796875 27.296875 
z
" id="DejaVuSans-64"/>
      <path d="M 9.421875 54.6875 
L 18.40625 54.6875 
L 18.40625 0 
L 9.421875 0 
z
M 9.421875 75.984375 
L 18.40625 75.984375 
L 18.40625 64.59375 
L 9.421875 64.59375 
z
" id="DejaVuSans-69"/>
      <path d="M 48.78125 52.59375 
L 48.78125 44.1875 
Q 44.96875 46.296875 41.140625 47.34375 
Q 37.3125 48.390625 33.40625 48.390625 
Q 24.65625 48.390625 19.8125 42.84375 
Q 14.984375 37.3125 14.984375 27.296875 
Q 14.984375 17.28125 19.8125 11.734375 
Q 24.65625 6.203125 33.40625 6.203125 
Q 37.3125 6.203125 41.140625 7.25 
Q 44.96875 8.296875 48.78125 10.40625 
L 48.78125 2.09375 
Q 45.015625 0.34375 40.984375 -0.53125 
Q 36.96875 -1.421875 32.421875 -1.421875 
Q 20.0625 -1.421875 12.78125 6.34375 
Q 5.515625 14.109375 5.515625 27.296875 
Q 5.515625 40.671875 12.859375 48.328125 
Q 20.21875 56 33.015625 56 
Q 37.15625 56 41.109375 55.140625 
Q 45.0625 54.296875 48.78125 52.59375 
z
" id="DejaVuSans-63"/>
     </defs>
     <g transform="translate(145.815625 755.510937)rotate(-90)scale(0.1 -0.1)">
      <use xlink:href="#DejaVuSans-59"/>
      <use x="61.083984" xlink:href="#DejaVuSans-20"/>
      <use x="92.871094" xlink:href="#DejaVuSans-50"/>
      <use x="153.158203" xlink:href="#DejaVuSans-72"/>
      <use x="194.240234" xlink:href="#DejaVuSans-65"/>
      <use x="255.763672" xlink:href="#DejaVuSans-64"/>
      <use x="319.240234" xlink:href="#DejaVuSans-69"/>
      <use x="347.023438" xlink:href="#DejaVuSans-63"/>
      <use x="402.003906" xlink:href="#DejaVuSans-74"/>
      <use x="441.212891" xlink:href="#DejaVuSans-65"/>
      <use x="502.736328" xlink:href="#DejaVuSans-64"/>
     </g>
    </g>
   </g>
   <g id="line2d_11">
    <path clip-path="url(#p0668d641a0)" d="M 180 1281.6 
L 1296 172.8 
" style="fill:none;stroke:#1f77b4;stroke-dasharray:5.55,2.4;stroke-dashoffset:0;stroke-width:1.5;"/>
   </g>
   <g id="patch_3">
    <path d="M 180 1281.6 
L 180 172.8 
" style="fill:none;stroke:#000000;stroke-linecap:square;stroke-linejoin:miter;stroke-width:0.8;"/>
   </g>
   <g id="patch_4">
    <path d="M 1296 1281.6 
L 1296 172.8 
" style="fill:none;stroke:#000000;stroke-linecap:square;stroke-linejoin:miter;stroke-width:0.8;"/>
   </g>
   <g id="patch_5">
    <path d="M 180 1281.6 
L 1296 1281.6 
" style="fill:none;stroke:#000000;stroke-linecap:square;stroke-linejoin:miter;stroke-width:0.8;"/>
   </g>
   <g id="patch_6">
    <path d="M 180 172.8 
L 1296 172.8 
" style="fill:none;stroke:#000000;stroke-linecap:square;stroke-linejoin:miter;stroke-width:0.8;"/>
   </g>
  </g>
 </g>
 <defs>
  <clipPath id="p0668d641a0">
   <rect height="1108.8" width="1116" x="180" y="172.8"/>
  </clipPath>
 </defs>
</svg>
