<?xml version="1.0" encoding="utf-8" standalone="no"?>
<!DOCTYPE svg PUBLIC "-//W3C//DTD SVG 1.1//EN"
  "http://www.w3.org/Graphics/SVG/1.1/DTD/svg11.dtd">
<!-- Created with matplotlib (http://matplotlib.org/) -->
<svg height="1440pt" version="1.1" viewBox="0 0 1440 1440" width="1440pt" xmlns="http://www.w3.org/2000/svg" xmlns:xlink="http://www.w3.org/1999/xlink">
 <defs>
  <style type="text/css">
*{stroke-linecap:butt;stroke-linejoin:round;}
  </style>
 </defs>
 <g id="figure_1">
  <g id="patch_1">
   <path d="M 0 1440 
L 1440 1440 
L 1440 0 
L 0 0 
z
" style="fill:#ffffff;"/>
  </g>
  <g id="axes_1">
   <g id="patch_2">
    <path d="M 180 1281.6 
L 1296 1281.6 
L 1296 172.8 
L 180 172.8 
z
" style="fill:#ffffff;"/>
   </g>
   <g id="PathCollection_1">
    <defs>
     <path d="M 0 3 
C 0.795609 3 1.55874 2.683901 2.12132 2.12132 
C 2.683901 1.55874 3 0.795609 3 0 
C 3 -0.795609 2.683901 -1.55874 2.12132 -2.12132 
C 1.55874 -2.683901 0.795609 -3 0 -3 
C -0.795609 -3 -1.55874 -2.683901 -2.12132 -2.12132 
C -2.683901 -1.55874 -3 -0.795609 -3 0 
C -3 0.795609 -2.683901 1.55874 -2.12132 2.12132 
C -1.55874 2.683901 -0.795609 3 0 3 
z
" id="m23fca5b51d" style="stroke:#1f77b4;"/>
    </defs>
    <g clip-path="url(#pdfb5fdc8b9)">
     <use style="fill:#1f77b4;stroke:#1f77b4;" x="247.065811" xlink:href="#m23fca5b51d" y="1216.626003"/>
     <use style="fill:#1f77b4;stroke:#1f77b4;" x="301.994423" xlink:href="#m23fca5b51d" y="1155.731271"/>
     <use style="fill:#1f77b4;stroke:#1f77b4;" x="211.432236" xlink:href="#m23fca5b51d" y="1197.789599"/>
     <use style="fill:#1f77b4;stroke:#1f77b4;" x="231.038483" xlink:href="#m23fca5b51d" y="1176.16376"/>
     <use style="fill:#1f77b4;stroke:#1f77b4;" x="294.525376" xlink:href="#m23fca5b51d" y="1162.324063"/>
     <use style="fill:#1f77b4;stroke:#1f77b4;" x="290.635248" xlink:href="#m23fca5b51d" y="1159.572144"/>
     <use style="fill:#1f77b4;stroke:#1f77b4;" x="272.740658" xlink:href="#m23fca5b51d" y="1118.427227"/>
     <use style="fill:#1f77b4;stroke:#1f77b4;" x="278.498048" xlink:href="#m23fca5b51d" y="1171.845066"/>
     <use style="fill:#1f77b4;stroke:#1f77b4;" x="223.725042" xlink:href="#m23fca5b51d" y="1221.937092"/>
     <use style="fill:#1f77b4;stroke:#1f77b4;" x="310.08589" xlink:href="#m23fca5b51d" y="1164.512711"/>
     <use style="fill:#1f77b4;stroke:#1f77b4;" x="249.399888" xlink:href="#m23fca5b51d" y="1198.681265"/>
     <use style="fill:#1f77b4;stroke:#1f77b4;" x="455.421082" xlink:href="#m23fca5b51d" y="1162.639496"/>
     <use style="fill:#1f77b4;stroke:#1f77b4;" x="278.653653" xlink:href="#m23fca5b51d" y="1170.896702"/>
     <use style="fill:#1f77b4;stroke:#1f77b4;" x="410.295594" xlink:href="#m23fca5b51d" y="1161.506949"/>
     <use style="fill:#1f77b4;stroke:#1f77b4;" x="331.248187" xlink:href="#m23fca5b51d" y="1137.346021"/>
     <use style="fill:#1f77b4;stroke:#1f77b4;" x="301.372002" xlink:href="#m23fca5b51d" y="1152.231103"/>
     <use style="fill:#1f77b4;stroke:#1f77b4;" x="235.862242" xlink:href="#m23fca5b51d" y="1167.974591"/>
     <use style="fill:#1f77b4;stroke:#1f77b4;" x="432.080312" xlink:href="#m23fca5b51d" y="1144.699828"/>
     <use style="fill:#1f77b4;stroke:#1f77b4;" x="696.609035" xlink:href="#m23fca5b51d" y="1138.853282"/>
     <use style="fill:#1f77b4;stroke:#1f77b4;" x="337.161182" xlink:href="#m23fca5b51d" y="1134.08947"/>
     <use style="fill:#1f77b4;stroke:#1f77b4;" x="355.833798" xlink:href="#m23fca5b51d" y="1158.407709"/>
     <use style="fill:#1f77b4;stroke:#1f77b4;" x="239.596765" xlink:href="#m23fca5b51d" y="1165.884775"/>
     <use style="fill:#1f77b4;stroke:#1f77b4;" x="340.273285" xlink:href="#m23fca5b51d" y="1139.210164"/>
     <use style="fill:#1f77b4;stroke:#1f77b4;" x="220.457334" xlink:href="#m23fca5b51d" y="1217.29776"/>
     <use style="fill:#1f77b4;stroke:#1f77b4;" x="265.738427" xlink:href="#m23fca5b51d" y="1184.508407"/>
     <use style="fill:#1f77b4;stroke:#1f77b4;" x="318.021751" xlink:href="#m23fca5b51d" y="1168.184589"/>
     <use style="fill:#1f77b4;stroke:#1f77b4;" x="243.175683" xlink:href="#m23fca5b51d" y="1183.082558"/>
     <use style="fill:#1f77b4;stroke:#1f77b4;" x="256.868935" xlink:href="#m23fca5b51d" y="1180.244527"/>
     <use style="fill:#1f77b4;stroke:#1f77b4;" x="261.692694" xlink:href="#m23fca5b51d" y="1178.497046"/>
     <use style="fill:#1f77b4;stroke:#1f77b4;" x="220.457334" xlink:href="#m23fca5b51d" y="1200.927106"/>
     <use style="fill:#1f77b4;stroke:#1f77b4;" x="213.143893" xlink:href="#m23fca5b51d" y="1132.694866"/>
     <use style="fill:#1f77b4;stroke:#1f77b4;" x="234.773006" xlink:href="#m23fca5b51d" y="1197.339893"/>
     <use style="fill:#1f77b4;stroke:#1f77b4;" x="313.509202" xlink:href="#m23fca5b51d" y="1149.430761"/>
     <use style="fill:#1f77b4;stroke:#1f77b4;" x="334.204685" xlink:href="#m23fca5b51d" y="1165.333962"/>
     <use style="fill:#1f77b4;stroke:#1f77b4;" x="455.421082" xlink:href="#m23fca5b51d" y="1123.16741"/>
     <use style="fill:#1f77b4;stroke:#1f77b4;" x="333.115449" xlink:href="#m23fca5b51d" y="1141.698468"/>
     <use style="fill:#1f77b4;stroke:#1f77b4;" x="244.576129" xlink:href="#m23fca5b51d" y="1204.195159"/>
     <use style="fill:#1f77b4;stroke:#1f77b4;" x="313.353597" xlink:href="#m23fca5b51d" y="1163.552393"/>
     <use style="fill:#1f77b4;stroke:#1f77b4;" x="225.903514" xlink:href="#m23fca5b51d" y="1179.717229"/>
     <use style="fill:#1f77b4;stroke:#1f77b4;" x="266.516453" xlink:href="#m23fca5b51d" y="1174.700013"/>
     <use style="fill:#1f77b4;stroke:#1f77b4;" x="382.28667" xlink:href="#m23fca5b51d" y="1128.064734"/>
     <use style="fill:#1f77b4;stroke:#1f77b4;" x="265.738427" xlink:href="#m23fca5b51d" y="1132.835392"/>
     <use style="fill:#1f77b4;stroke:#1f77b4;" x="380.730619" xlink:href="#m23fca5b51d" y="1155.293318"/>
     <use style="fill:#1f77b4;stroke:#1f77b4;" x="394.735081" xlink:href="#m23fca5b51d" y="1169.379682"/>
     <use style="fill:#1f77b4;stroke:#1f77b4;" x="369.83826" xlink:href="#m23fca5b51d" y="1121.137009"/>
     <use style="fill:#1f77b4;stroke:#1f77b4;" x="355.833798" xlink:href="#m23fca5b51d" y="1144.105153"/>
     <use style="fill:#1f77b4;stroke:#1f77b4;" x="363.614055" xlink:href="#m23fca5b51d" y="1139.064959"/>
     <use style="fill:#1f77b4;stroke:#1f77b4;" x="238.040714" xlink:href="#m23fca5b51d" y="1171.890122"/>
     <use style="fill:#1f77b4;stroke:#1f77b4;" x="216.567206" xlink:href="#m23fca5b51d" y="1220.810696"/>
     <use style="fill:#1f77b4;stroke:#1f77b4;" x="257.491355" xlink:href="#m23fca5b51d" y="1209.455227"/>
     <use style="fill:#1f77b4;stroke:#1f77b4;" x="293.12493" xlink:href="#m23fca5b51d" y="1179.702351"/>
     <use style="fill:#1f77b4;stroke:#1f77b4;" x="278.498048" xlink:href="#m23fca5b51d" y="1166.849525"/>
     <use style="fill:#1f77b4;stroke:#1f77b4;" x="203.807585" xlink:href="#m23fca5b51d" y="1220.9316"/>
     <use style="fill:#1f77b4;stroke:#1f77b4;" x="268.072504" xlink:href="#m23fca5b51d" y="1132.188667"/>
     <use style="fill:#1f77b4;stroke:#1f77b4;" x="297.170664" xlink:href="#m23fca5b51d" y="1177.628133"/>
     <use style="fill:#1f77b4;stroke:#1f77b4;" x="348.053542" xlink:href="#m23fca5b51d" y="1178.245957"/>
     <use style="fill:#1f77b4;stroke:#1f77b4;" x="386.954824" xlink:href="#m23fca5b51d" y="1136.93505"/>
     <use style="fill:#1f77b4;stroke:#1f77b4;" x="230.882878" xlink:href="#m23fca5b51d" y="1188.118595"/>
     <use style="fill:#1f77b4;stroke:#1f77b4;" x="293.12493" xlink:href="#m23fca5b51d" y="1186.30425"/>
     <use style="fill:#1f77b4;stroke:#1f77b4;" x="341.829336" xlink:href="#m23fca5b51d" y="1163.492072"/>
     <use style="fill:#1f77b4;stroke:#1f77b4;" x="307.907418" xlink:href="#m23fca5b51d" y="1133.171954"/>
     <use style="fill:#1f77b4;stroke:#1f77b4;" x="285.500279" xlink:href="#m23fca5b51d" y="1171.203918"/>
     <use style="fill:#1f77b4;stroke:#1f77b4;" x="238.040714" xlink:href="#m23fca5b51d" y="1188.427588"/>
     <use style="fill:#1f77b4;stroke:#1f77b4;" x="297.793084" xlink:href="#m23fca5b51d" y="1172.092"/>
     <use style="fill:#1f77b4;stroke:#1f77b4;" x="257.491355" xlink:href="#m23fca5b51d" y="1154.741827"/>
     <use style="fill:#1f77b4;stroke:#1f77b4;" x="210.187395" xlink:href="#m23fca5b51d" y="1228.558438"/>
     <use style="fill:#1f77b4;stroke:#1f77b4;" x="307.751813" xlink:href="#m23fca5b51d" y="1138.565961"/>
     <use style="fill:#1f77b4;stroke:#1f77b4;" x="287.834356" xlink:href="#m23fca5b51d" y="1166.459237"/>
     <use style="fill:#1f77b4;stroke:#1f77b4;" x="276.008366" xlink:href="#m23fca5b51d" y="1179.617502"/>
     <use style="fill:#1f77b4;stroke:#1f77b4;" x="252.356386" xlink:href="#m23fca5b51d" y="1135.455118"/>
     <use style="fill:#1f77b4;stroke:#1f77b4;" x="307.751813" xlink:href="#m23fca5b51d" y="1144.605336"/>
     <use style="fill:#1f77b4;stroke:#1f77b4;" x="235.706637" xlink:href="#m23fca5b51d" y="1201.045943"/>
     <use style="fill:#1f77b4;stroke:#1f77b4;" x="394.735081" xlink:href="#m23fca5b51d" y="1174.641271"/>
     <use style="fill:#1f77b4;stroke:#1f77b4;" x="249.711099" xlink:href="#m23fca5b51d" y="1156.503431"/>
     <use style="fill:#1f77b4;stroke:#1f77b4;" x="357.389849" xlink:href="#m23fca5b51d" y="1131.851242"/>
     <use style="fill:#1f77b4;stroke:#1f77b4;" x="460.089236" xlink:href="#m23fca5b51d" y="1139.210164"/>
     <use style="fill:#1f77b4;stroke:#1f77b4;" x="766.631344" xlink:href="#m23fca5b51d" y="1139.210164"/>
     <use style="fill:#1f77b4;stroke:#1f77b4;" x="216.722811" xlink:href="#m23fca5b51d" y="1182.014929"/>
     <use style="fill:#1f77b4;stroke:#1f77b4;" x="230.260457" xlink:href="#m23fca5b51d" y="1193.934234"/>
     <use style="fill:#1f77b4;stroke:#1f77b4;" x="228.081985" xlink:href="#m23fca5b51d" y="1227.485953"/>
     <use style="fill:#1f77b4;stroke:#1f77b4;" x="271.962632" xlink:href="#m23fca5b51d" y="1138.561881"/>
     <use style="fill:#1f77b4;stroke:#1f77b4;" x="265.894032" xlink:href="#m23fca5b51d" y="1209.057306"/>
     <use style="fill:#1f77b4;stroke:#1f77b4;" x="280.98773" xlink:href="#m23fca5b51d" y="1138.343965"/>
     <use style="fill:#1f77b4;stroke:#1f77b4;" x="363.614055" xlink:href="#m23fca5b51d" y="1125.126931"/>
     <use style="fill:#1f77b4;stroke:#1f77b4;" x="411.851645" xlink:href="#m23fca5b51d" y="1138.452941"/>
     <use style="fill:#1f77b4;stroke:#1f77b4;" x="240.530396" xlink:href="#m23fca5b51d" y="1187.904445"/>
     <use style="fill:#1f77b4;stroke:#1f77b4;" x="237.418293" xlink:href="#m23fca5b51d" y="1221.245836"/>
     <use style="fill:#1f77b4;stroke:#1f77b4;" x="180" xlink:href="#m23fca5b51d" y="1209.77083"/>
     <use style="fill:#1f77b4;stroke:#1f77b4;" x="293.436141" xlink:href="#m23fca5b51d" y="1158.823643"/>
     <use style="fill:#1f77b4;stroke:#1f77b4;" x="235.239822" xlink:href="#m23fca5b51d" y="1140.592737"/>
     <use style="fill:#1f77b4;stroke:#1f77b4;" x="254.223648" xlink:href="#m23fca5b51d" y="1119.370758"/>
     <use style="fill:#1f77b4;stroke:#1f77b4;" x="222.013385" xlink:href="#m23fca5b51d" y="1202.614885"/>
     <use style="fill:#1f77b4;stroke:#1f77b4;" x="435.192415" xlink:href="#m23fca5b51d" y="1138.746179"/>
     <use style="fill:#1f77b4;stroke:#1f77b4;" x="377.618516" xlink:href="#m23fca5b51d" y="1118.384926"/>
     <use style="fill:#1f77b4;stroke:#1f77b4;" x="368.282209" xlink:href="#m23fca5b51d" y="1167.040605"/>
     <use style="fill:#1f77b4;stroke:#1f77b4;" x="333.737869" xlink:href="#m23fca5b51d" y="1190.269211"/>
     <use style="fill:#1f77b4;stroke:#1f77b4;" x="357.389849" xlink:href="#m23fca5b51d" y="1176.838767"/>
     <use style="fill:#1f77b4;stroke:#1f77b4;" x="294.525376" xlink:href="#m23fca5b51d" y="1159.512174"/>
     <use style="fill:#1f77b4;stroke:#1f77b4;" x="222.947016" xlink:href="#m23fca5b51d" y="1227.077848"/>
     <use style="fill:#1f77b4;stroke:#1f77b4;" x="416.519799" xlink:href="#m23fca5b51d" y="1139.914299"/>
     <use style="fill:#1f77b4;stroke:#1f77b4;" x="363.614055" xlink:href="#m23fca5b51d" y="1161.182503"/>
     <use style="fill:#1f77b4;stroke:#1f77b4;" x="298.2599" xlink:href="#m23fca5b51d" y="1157.674123"/>
     <use style="fill:#1f77b4;stroke:#1f77b4;" x="256.246514" xlink:href="#m23fca5b51d" y="1194.303677"/>
     <use style="fill:#1f77b4;stroke:#1f77b4;" x="250.95594" xlink:href="#m23fca5b51d" y="1188.667945"/>
     <use style="fill:#1f77b4;stroke:#1f77b4;" x="334.36029" xlink:href="#m23fca5b51d" y="1146.613426"/>
     <use style="fill:#1f77b4;stroke:#1f77b4;" x="394.735081" xlink:href="#m23fca5b51d" y="1154.079057"/>
     <use style="fill:#1f77b4;stroke:#1f77b4;" x="190.114334" xlink:href="#m23fca5b51d" y="1205.501949"/>
     <use style="fill:#1f77b4;stroke:#1f77b4;" x="184.979364" xlink:href="#m23fca5b51d" y="1207.496608"/>
     <use style="fill:#1f77b4;stroke:#1f77b4;" x="258.891801" xlink:href="#m23fca5b51d" y="1187.984344"/>
     <use style="fill:#1f77b4;stroke:#1f77b4;" x="238.040714" xlink:href="#m23fca5b51d" y="1195.887653"/>
     <use style="fill:#1f77b4;stroke:#1f77b4;" x="390.066927" xlink:href="#m23fca5b51d" y="1122.547845"/>
     <use style="fill:#1f77b4;stroke:#1f77b4;" x="256.090909" xlink:href="#m23fca5b51d" y="1202.049839"/>
     <use style="fill:#1f77b4;stroke:#1f77b4;" x="334.204685" xlink:href="#m23fca5b51d" y="1139.025238"/>
     <use style="fill:#1f77b4;stroke:#1f77b4;" x="217.967652" xlink:href="#m23fca5b51d" y="1203.566611"/>
     <use style="fill:#1f77b4;stroke:#1f77b4;" x="285.655884" xlink:href="#m23fca5b51d" y="1145.562235"/>
     <use style="fill:#1f77b4;stroke:#1f77b4;" x="391.622978" xlink:href="#m23fca5b51d" y="1121.815963"/>
     <use style="fill:#1f77b4;stroke:#1f77b4;" x="243.798104" xlink:href="#m23fca5b51d" y="1220.289835"/>
     <use style="fill:#1f77b4;stroke:#1f77b4;" x="343.385388" xlink:href="#m23fca5b51d" y="1160.115085"/>
     <use style="fill:#1f77b4;stroke:#1f77b4;" x="311.01952" xlink:href="#m23fca5b51d" y="1194.413822"/>
     <use style="fill:#1f77b4;stroke:#1f77b4;" x="340.273285" xlink:href="#m23fca5b51d" y="1155.129175"/>
     <use style="fill:#1f77b4;stroke:#1f77b4;" x="266.516453" xlink:href="#m23fca5b51d" y="1170.36086"/>
     <use style="fill:#1f77b4;stroke:#1f77b4;" x="199.450641" xlink:href="#m23fca5b51d" y="1217.763138"/>
     <use style="fill:#1f77b4;stroke:#1f77b4;" x="301.060792" xlink:href="#m23fca5b51d" y="1208.343738"/>
     <use style="fill:#1f77b4;stroke:#1f77b4;" x="291.568879" xlink:href="#m23fca5b51d" y="1129.452849"/>
     <use style="fill:#1f77b4;stroke:#1f77b4;" x="216.567206" xlink:href="#m23fca5b51d" y="1220.470383"/>
     <use style="fill:#1f77b4;stroke:#1f77b4;" x="408.739543" xlink:href="#m23fca5b51d" y="1135.072112"/>
     <use style="fill:#1f77b4;stroke:#1f77b4;" x="498.990519" xlink:href="#m23fca5b51d" y="1139.210164"/>
     <use style="fill:#1f77b4;stroke:#1f77b4;" x="198.672616" xlink:href="#m23fca5b51d" y="1137.596017"/>
     <use style="fill:#1f77b4;stroke:#1f77b4;" x="327.513664" xlink:href="#m23fca5b51d" y="1155.468586"/>
     <use style="fill:#1f77b4;stroke:#1f77b4;" x="283.477412" xlink:href="#m23fca5b51d" y="1182.092402"/>
     <use style="fill:#1f77b4;stroke:#1f77b4;" x="184.979364" xlink:href="#m23fca5b51d" y="1215.229756"/>
     <use style="fill:#1f77b4;stroke:#1f77b4;" x="341.829336" xlink:href="#m23fca5b51d" y="1129.331091"/>
     <use style="fill:#1f77b4;stroke:#1f77b4;" x="919.124373" xlink:href="#m23fca5b51d" y="1139.210164"/>
     <use style="fill:#1f77b4;stroke:#1f77b4;" x="255.312883" xlink:href="#m23fca5b51d" y="1205.148867"/>
     <use style="fill:#1f77b4;stroke:#1f77b4;" x="321.756274" xlink:href="#m23fca5b51d" y="1143.569374"/>
     <use style="fill:#1f77b4;stroke:#1f77b4;" x="354.277747" xlink:href="#m23fca5b51d" y="1132.741159"/>
     <use style="fill:#1f77b4;stroke:#1f77b4;" x="246.598996" xlink:href="#m23fca5b51d" y="1187.781378"/>
     <use style="fill:#1f77b4;stroke:#1f77b4;" x="346.49749" xlink:href="#m23fca5b51d" y="1132.367234"/>
     <use style="fill:#1f77b4;stroke:#1f77b4;" x="280.832125" xlink:href="#m23fca5b51d" y="1166.824255"/>
     <use style="fill:#1f77b4;stroke:#1f77b4;" x="315.376464" xlink:href="#m23fca5b51d" y="1162.42286"/>
     <use style="fill:#1f77b4;stroke:#1f77b4;" x="333.271054" xlink:href="#m23fca5b51d" y="1169.547773"/>
     <use style="fill:#1f77b4;stroke:#1f77b4;" x="274.452315" xlink:href="#m23fca5b51d" y="1179.394894"/>
     <use style="fill:#1f77b4;stroke:#1f77b4;" x="297.793084" xlink:href="#m23fca5b51d" y="1148.184013"/>
     <use style="fill:#1f77b4;stroke:#1f77b4;" x="319.733408" xlink:href="#m23fca5b51d" y="1152.212665"/>
     <use style="fill:#1f77b4;stroke:#1f77b4;" x="243.020078" xlink:href="#m23fca5b51d" y="1131.796152"/>
     <use style="fill:#1f77b4;stroke:#1f77b4;" x="225.903514" xlink:href="#m23fca5b51d" y="1193.878737"/>
     <use style="fill:#1f77b4;stroke:#1f77b4;" x="318.955382" xlink:href="#m23fca5b51d" y="1169.390712"/>
     <use style="fill:#1f77b4;stroke:#1f77b4;" x="376.062465" xlink:href="#m23fca5b51d" y="1140.226715"/>
     <use style="fill:#1f77b4;stroke:#1f77b4;" x="229.482432" xlink:href="#m23fca5b51d" y="1142.397514"/>
     <use style="fill:#1f77b4;stroke:#1f77b4;" x="310.3971" xlink:href="#m23fca5b51d" y="1156.628294"/>
     <use style="fill:#1f77b4;stroke:#1f77b4;" x="297.637479" xlink:href="#m23fca5b51d" y="1159.20458"/>
     <use style="fill:#1f77b4;stroke:#1f77b4;" x="217.500837" xlink:href="#m23fca5b51d" y="1171.476395"/>
     <use style="fill:#1f77b4;stroke:#1f77b4;" x="198.672616" xlink:href="#m23fca5b51d" y="1225.744639"/>
     <use style="fill:#1f77b4;stroke:#1f77b4;" x="436.748466" xlink:href="#m23fca5b51d" y="1161.946136"/>
     <use style="fill:#1f77b4;stroke:#1f77b4;" x="302.150028" xlink:href="#m23fca5b51d" y="1165.95496"/>
     <use style="fill:#1f77b4;stroke:#1f77b4;" x="502.102621" xlink:href="#m23fca5b51d" y="1138.538069"/>
     <use style="fill:#1f77b4;stroke:#1f77b4;" x="456.977133" xlink:href="#m23fca5b51d" y="1139.210164"/>
     <use style="fill:#1f77b4;stroke:#1f77b4;" x="320.200223" xlink:href="#m23fca5b51d" y="1170.590597"/>
     <use style="fill:#1f77b4;stroke:#1f77b4;" x="331.559398" xlink:href="#m23fca5b51d" y="1187.888906"/>
     <use style="fill:#1f77b4;stroke:#1f77b4;" x="360.501952" xlink:href="#m23fca5b51d" y="1184.986798"/>
     <use style="fill:#1f77b4;stroke:#1f77b4;" x="410.295594" xlink:href="#m23fca5b51d" y="1132.485126"/>
     <use style="fill:#1f77b4;stroke:#1f77b4;" x="324.401562" xlink:href="#m23fca5b51d" y="1143.51987"/>
     <use style="fill:#1f77b4;stroke:#1f77b4;" x="216.722811" xlink:href="#m23fca5b51d" y="1199.003205"/>
     <use style="fill:#1f77b4;stroke:#1f77b4;" x="252.356386" xlink:href="#m23fca5b51d" y="1161.336035"/>
     <use style="fill:#1f77b4;stroke:#1f77b4;" x="266.049637" xlink:href="#m23fca5b51d" y="1185.56959"/>
     <use style="fill:#1f77b4;stroke:#1f77b4;" x="332.181818" xlink:href="#m23fca5b51d" y="1128.307209"/>
     <use style="fill:#1f77b4;stroke:#1f77b4;" x="244.576129" xlink:href="#m23fca5b51d" y="1190.425728"/>
     <use style="fill:#1f77b4;stroke:#1f77b4;" x="275.852761" xlink:href="#m23fca5b51d" y="1191.890025"/>
     <use style="fill:#1f77b4;stroke:#1f77b4;" x="282.388176" xlink:href="#m23fca5b51d" y="1177.12148"/>
     <use style="fill:#1f77b4;stroke:#1f77b4;" x="280.054099" xlink:href="#m23fca5b51d" y="1140.788102"/>
     <use style="fill:#1f77b4;stroke:#1f77b4;" x="204.430006" xlink:href="#m23fca5b51d" y="1212.0053"/>
     <use style="fill:#1f77b4;stroke:#1f77b4;" x="376.062465" xlink:href="#m23fca5b51d" y="1139.210164"/>
     <use style="fill:#1f77b4;stroke:#1f77b4;" x="374.506414" xlink:href="#m23fca5b51d" y="1132.449363"/>
     <use style="fill:#1f77b4;stroke:#1f77b4;" x="205.052426" xlink:href="#m23fca5b51d" y="1226.829509"/>
     <use style="fill:#1f77b4;stroke:#1f77b4;" x="226.99275" xlink:href="#m23fca5b51d" y="1183.557027"/>
     <use style="fill:#1f77b4;stroke:#1f77b4;" x="306.040156" xlink:href="#m23fca5b51d" y="1138.865659"/>
     <use style="fill:#1f77b4;stroke:#1f77b4;" x="260.292248" xlink:href="#m23fca5b51d" y="1131.689977"/>
     <use style="fill:#1f77b4;stroke:#1f77b4;" x="264.649191" xlink:href="#m23fca5b51d" y="1177.147413"/>
     <use style="fill:#1f77b4;stroke:#1f77b4;" x="198.672616" xlink:href="#m23fca5b51d" y="1206.369843"/>
     <use style="fill:#1f77b4;stroke:#1f77b4;" x="266.827663" xlink:href="#m23fca5b51d" y="1151.842913"/>
     <use style="fill:#1f77b4;stroke:#1f77b4;" x="252.356386" xlink:href="#m23fca5b51d" y="1169.869315"/>
     <use style="fill:#1f77b4;stroke:#1f77b4;" x="253.756832" xlink:href="#m23fca5b51d" y="1173.978824"/>
     <use style="fill:#1f77b4;stroke:#1f77b4;" x="252.356386" xlink:href="#m23fca5b51d" y="1185.889497"/>
     <use style="fill:#1f77b4;stroke:#1f77b4;" x="252.045176" xlink:href="#m23fca5b51d" y="1187.919899"/>
     <use style="fill:#1f77b4;stroke:#1f77b4;" x="272.273843" xlink:href="#m23fca5b51d" y="1172.356299"/>
     <use style="fill:#1f77b4;stroke:#1f77b4;" x="184.979364" xlink:href="#m23fca5b51d" y="1206.829164"/>
     <use style="fill:#1f77b4;stroke:#1f77b4;" x="340.273285" xlink:href="#m23fca5b51d" y="1173.209561"/>
     <use style="fill:#1f77b4;stroke:#1f77b4;" x="278.498048" xlink:href="#m23fca5b51d" y="1162.883429"/>
     <use style="fill:#1f77b4;stroke:#1f77b4;" x="231.972114" xlink:href="#m23fca5b51d" y="1166.487479"/>
     <use style="fill:#1f77b4;stroke:#1f77b4;" x="372.950363" xlink:href="#m23fca5b51d" y="1139.309649"/>
     <use style="fill:#1f77b4;stroke:#1f77b4;" x="252.356386" xlink:href="#m23fca5b51d" y="1175.884643"/>
     <use style="fill:#1f77b4;stroke:#1f77b4;" x="382.28667" xlink:href="#m23fca5b51d" y="1141.083234"/>
     <use style="fill:#1f77b4;stroke:#1f77b4;" x="283.477412" xlink:href="#m23fca5b51d" y="1197.120072"/>
     <use style="fill:#1f77b4;stroke:#1f77b4;" x="394.735081" xlink:href="#m23fca5b51d" y="1147.411626"/>
     <use style="fill:#1f77b4;stroke:#1f77b4;" x="733.954267" xlink:href="#m23fca5b51d" y="1139.210164"/>
     <use style="fill:#1f77b4;stroke:#1f77b4;" x="296.548243" xlink:href="#m23fca5b51d" y="1121.606294"/>
     <use style="fill:#1f77b4;stroke:#1f77b4;" x="305.106525" xlink:href="#m23fca5b51d" y="1166.318676"/>
     <use style="fill:#1f77b4;stroke:#1f77b4;" x="298.88232" xlink:href="#m23fca5b51d" y="1128.474862"/>
     <use style="fill:#1f77b4;stroke:#1f77b4;" x="238.040714" xlink:href="#m23fca5b51d" y="1205.268861"/>
     <use style="fill:#1f77b4;stroke:#1f77b4;" x="320.667038" xlink:href="#m23fca5b51d" y="1154.242793"/>
     <use style="fill:#1f77b4;stroke:#1f77b4;" x="220.457334" xlink:href="#m23fca5b51d" y="1201.548424"/>
     <use style="fill:#1f77b4;stroke:#1f77b4;" x="293.280535" xlink:href="#m23fca5b51d" y="1157.140033"/>
     <use style="fill:#1f77b4;stroke:#1f77b4;" x="233.06135" xlink:href="#m23fca5b51d" y="1142.646859"/>
     <use style="fill:#1f77b4;stroke:#1f77b4;" x="238.196319" xlink:href="#m23fca5b51d" y="1184.514863"/>
     <use style="fill:#1f77b4;stroke:#1f77b4;" x="396.291132" xlink:href="#m23fca5b51d" y="1139.365557"/>
     <use style="fill:#1f77b4;stroke:#1f77b4;" x="315.220859" xlink:href="#m23fca5b51d" y="1148.651361"/>
     <use style="fill:#1f77b4;stroke:#1f77b4;" x="231.505298" xlink:href="#m23fca5b51d" y="1164.270426"/>
     <use style="fill:#1f77b4;stroke:#1f77b4;" x="382.28667" xlink:href="#m23fca5b51d" y="1193.990525"/>
     <use style="fill:#1f77b4;stroke:#1f77b4;" x="363.614055" xlink:href="#m23fca5b51d" y="1139.210164"/>
     <use style="fill:#1f77b4;stroke:#1f77b4;" x="394.735081" xlink:href="#m23fca5b51d" y="1153.501469"/>
     <use style="fill:#1f77b4;stroke:#1f77b4;" x="224.658673" xlink:href="#m23fca5b51d" y="1212.772554"/>
     <use style="fill:#1f77b4;stroke:#1f77b4;" x="262.937535" xlink:href="#m23fca5b51d" y="1132.980561"/>
     <use style="fill:#1f77b4;stroke:#1f77b4;" x="315.065254" xlink:href="#m23fca5b51d" y="1158.326774"/>
     <use style="fill:#1f77b4;stroke:#1f77b4;" x="379.174568" xlink:href="#m23fca5b51d" y="1150.77323"/>
     <use style="fill:#1f77b4;stroke:#1f77b4;" x="243.020078" xlink:href="#m23fca5b51d" y="1136.361716"/>
     <use style="fill:#1f77b4;stroke:#1f77b4;" x="236.795873" xlink:href="#m23fca5b51d" y="1176.6848"/>
     <use style="fill:#1f77b4;stroke:#1f77b4;" x="344.941439" xlink:href="#m23fca5b51d" y="1200.012461"/>
     <use style="fill:#1f77b4;stroke:#1f77b4;" x="241.775237" xlink:href="#m23fca5b51d" y="1185.781585"/>
     <use style="fill:#1f77b4;stroke:#1f77b4;" x="230.260457" xlink:href="#m23fca5b51d" y="1193.934234"/>
     <use style="fill:#1f77b4;stroke:#1f77b4;" x="234.461796" xlink:href="#m23fca5b51d" y="1140.570885"/>
     <use style="fill:#1f77b4;stroke:#1f77b4;" x="323.623536" xlink:href="#m23fca5b51d" y="1165.237095"/>
     <use style="fill:#1f77b4;stroke:#1f77b4;" x="285.967094" xlink:href="#m23fca5b51d" y="1193.735724"/>
     <use style="fill:#1f77b4;stroke:#1f77b4;" x="360.501952" xlink:href="#m23fca5b51d" y="1146.986225"/>
     <use style="fill:#1f77b4;stroke:#1f77b4;" x="508.326827" xlink:href="#m23fca5b51d" y="1120.819122"/>
     <use style="fill:#1f77b4;stroke:#1f77b4;" x="301.838818" xlink:href="#m23fca5b51d" y="1208.855875"/>
     <use style="fill:#1f77b4;stroke:#1f77b4;" x="609.470162" xlink:href="#m23fca5b51d" y="1139.210164"/>
     <use style="fill:#1f77b4;stroke:#1f77b4;" x="483.430006" xlink:href="#m23fca5b51d" y="1139.210164"/>
     <use style="fill:#1f77b4;stroke:#1f77b4;" x="238.040714" xlink:href="#m23fca5b51d" y="1198.97968"/>
     <use style="fill:#1f77b4;stroke:#1f77b4;" x="280.209704" xlink:href="#m23fca5b51d" y="1186.445023"/>
     <use style="fill:#1f77b4;stroke:#1f77b4;" x="390.066927" xlink:href="#m23fca5b51d" y="1139.477489"/>
     <use style="fill:#1f77b4;stroke:#1f77b4;" x="278.498048" xlink:href="#m23fca5b51d" y="1172.625968"/>
     <use style="fill:#1f77b4;stroke:#1f77b4;" x="306.195761" xlink:href="#m23fca5b51d" y="1181.221667"/>
     <use style="fill:#1f77b4;stroke:#1f77b4;" x="180" xlink:href="#m23fca5b51d" y="1138.137498"/>
     <use style="fill:#1f77b4;stroke:#1f77b4;" x="299.349136" xlink:href="#m23fca5b51d" y="1139.507008"/>
     <use style="fill:#1f77b4;stroke:#1f77b4;" x="257.491355" xlink:href="#m23fca5b51d" y="1158.053711"/>
     <use style="fill:#1f77b4;stroke:#1f77b4;" x="270.406581" xlink:href="#m23fca5b51d" y="1188.371379"/>
     <use style="fill:#1f77b4;stroke:#1f77b4;" x="1194.545455" xlink:href="#m23fca5b51d" y="1137.664152"/>
     <use style="fill:#1f77b4;stroke:#1f77b4;" x="341.829336" xlink:href="#m23fca5b51d" y="1186.584543"/>
     <use style="fill:#1f77b4;stroke:#1f77b4;" x="270.562186" xlink:href="#m23fca5b51d" y="1184.811487"/>
    </g>
   </g>
   <g id="matplotlib.axis_1">
    <g id="xtick_1">
     <g id="line2d_1">
      <defs>
       <path d="M 0 0 
L 0 3.5 
" id="m163b9c0dde" style="stroke:#000000;stroke-width:0.8;"/>
      </defs>
      <g>
       <use style="stroke:#000000;stroke-width:0.8;" x="180" xlink:href="#m163b9c0dde" y="1281.6"/>
      </g>
     </g>
     <g id="text_1">
      <!-- 0 -->
      <defs>
       <path d="M 31.78125 66.40625 
Q 24.171875 66.40625 20.328125 58.90625 
Q 16.5 51.421875 16.5 36.375 
Q 16.5 21.390625 20.328125 13.890625 
Q 24.171875 6.390625 31.78125 6.390625 
Q 39.453125 6.390625 43.28125 13.890625 
Q 47.125 21.390625 47.125 36.375 
Q 47.125 51.421875 43.28125 58.90625 
Q 39.453125 66.40625 31.78125 66.40625 
z
M 31.78125 74.21875 
Q 44.046875 74.21875 50.515625 64.515625 
Q 56.984375 54.828125 56.984375 36.375 
Q 56.984375 17.96875 50.515625 8.265625 
Q 44.046875 -1.421875 31.78125 -1.421875 
Q 19.53125 -1.421875 13.0625 8.265625 
Q 6.59375 17.96875 6.59375 36.375 
Q 6.59375 54.828125 13.0625 64.515625 
Q 19.53125 74.21875 31.78125 74.21875 
z
" id="DejaVuSans-30"/>
      </defs>
      <g transform="translate(176.81875 1296.198437)scale(0.1 -0.1)">
       <use xlink:href="#DejaVuSans-30"/>
      </g>
     </g>
    </g>
    <g id="xtick_2">
     <g id="line2d_2">
      <g>
       <use style="stroke:#000000;stroke-width:0.8;" x="335.605131" xlink:href="#m163b9c0dde" y="1281.6"/>
      </g>
     </g>
     <g id="text_2">
      <!-- 100 -->
      <defs>
       <path d="M 12.40625 8.296875 
L 28.515625 8.296875 
L 28.515625 63.921875 
L 10.984375 60.40625 
L 10.984375 69.390625 
L 28.421875 72.90625 
L 38.28125 72.90625 
L 38.28125 8.296875 
L 54.390625 8.296875 
L 54.390625 0 
L 12.40625 0 
z
" id="DejaVuSans-31"/>
      </defs>
      <g transform="translate(326.061381 1296.198437)scale(0.1 -0.1)">
       <use xlink:href="#DejaVuSans-31"/>
       <use x="63.623047" xlink:href="#DejaVuSans-30"/>
       <use x="127.246094" xlink:href="#DejaVuSans-30"/>
      </g>
     </g>
    </g>
    <g id="xtick_3">
     <g id="line2d_3">
      <g>
       <use style="stroke:#000000;stroke-width:0.8;" x="491.210262" xlink:href="#m163b9c0dde" y="1281.6"/>
      </g>
     </g>
     <g id="text_3">
      <!-- 200 -->
      <defs>
       <path d="M 19.1875 8.296875 
L 53.609375 8.296875 
L 53.609375 0 
L 7.328125 0 
L 7.328125 8.296875 
Q 12.9375 14.109375 22.625 23.890625 
Q 32.328125 33.6875 34.8125 36.53125 
Q 39.546875 41.84375 41.421875 45.53125 
Q 43.3125 49.21875 43.3125 52.78125 
Q 43.3125 58.59375 39.234375 62.25 
Q 35.15625 65.921875 28.609375 65.921875 
Q 23.96875 65.921875 18.8125 64.3125 
Q 13.671875 62.703125 7.8125 59.421875 
L 7.8125 69.390625 
Q 13.765625 71.78125 18.9375 73 
Q 24.125 74.21875 28.421875 74.21875 
Q 39.75 74.21875 46.484375 68.546875 
Q 53.21875 62.890625 53.21875 53.421875 
Q 53.21875 48.921875 51.53125 44.890625 
Q 49.859375 40.875 45.40625 35.40625 
Q 44.1875 33.984375 37.640625 27.21875 
Q 31.109375 20.453125 19.1875 8.296875 
z
" id="DejaVuSans-32"/>
      </defs>
      <g transform="translate(481.666512 1296.198437)scale(0.1 -0.1)">
       <use xlink:href="#DejaVuSans-32"/>
       <use x="63.623047" xlink:href="#DejaVuSans-30"/>
       <use x="127.246094" xlink:href="#DejaVuSans-30"/>
      </g>
     </g>
    </g>
    <g id="xtick_4">
     <g id="line2d_4">
      <g>
       <use style="stroke:#000000;stroke-width:0.8;" x="646.815393" xlink:href="#m163b9c0dde" y="1281.6"/>
      </g>
     </g>
     <g id="text_4">
      <!-- 300 -->
      <defs>
       <path d="M 40.578125 39.3125 
Q 47.65625 37.796875 51.625 33 
Q 55.609375 28.21875 55.609375 21.1875 
Q 55.609375 10.40625 48.1875 4.484375 
Q 40.765625 -1.421875 27.09375 -1.421875 
Q 22.515625 -1.421875 17.65625 -0.515625 
Q 12.796875 0.390625 7.625 2.203125 
L 7.625 11.71875 
Q 11.71875 9.328125 16.59375 8.109375 
Q 21.484375 6.890625 26.8125 6.890625 
Q 36.078125 6.890625 40.9375 10.546875 
Q 45.796875 14.203125 45.796875 21.1875 
Q 45.796875 27.640625 41.28125 31.265625 
Q 36.765625 34.90625 28.71875 34.90625 
L 20.21875 34.90625 
L 20.21875 43.015625 
L 29.109375 43.015625 
Q 36.375 43.015625 40.234375 45.921875 
Q 44.09375 48.828125 44.09375 54.296875 
Q 44.09375 59.90625 40.109375 62.90625 
Q 36.140625 65.921875 28.71875 65.921875 
Q 24.65625 65.921875 20.015625 65.03125 
Q 15.375 64.15625 9.8125 62.3125 
L 9.8125 71.09375 
Q 15.4375 72.65625 20.34375 73.4375 
Q 25.25 74.21875 29.59375 74.21875 
Q 40.828125 74.21875 47.359375 69.109375 
Q 53.90625 64.015625 53.90625 55.328125 
Q 53.90625 49.265625 50.4375 45.09375 
Q 46.96875 40.921875 40.578125 39.3125 
z
" id="DejaVuSans-33"/>
      </defs>
      <g transform="translate(637.271643 1296.198437)scale(0.1 -0.1)">
       <use xlink:href="#DejaVuSans-33"/>
       <use x="63.623047" xlink:href="#DejaVuSans-30"/>
       <use x="127.246094" xlink:href="#DejaVuSans-30"/>
      </g>
     </g>
    </g>
    <g id="xtick_5">
     <g id="line2d_5">
      <g>
       <use style="stroke:#000000;stroke-width:0.8;" x="802.420524" xlink:href="#m163b9c0dde" y="1281.6"/>
      </g>
     </g>
     <g id="text_5">
      <!-- 400 -->
      <defs>
       <path d="M 37.796875 64.3125 
L 12.890625 25.390625 
L 37.796875 25.390625 
z
M 35.203125 72.90625 
L 47.609375 72.90625 
L 47.609375 25.390625 
L 58.015625 25.390625 
L 58.015625 17.1875 
L 47.609375 17.1875 
L 47.609375 0 
L 37.796875 0 
L 37.796875 17.1875 
L 4.890625 17.1875 
L 4.890625 26.703125 
z
" id="DejaVuSans-34"/>
      </defs>
      <g transform="translate(792.876774 1296.198437)scale(0.1 -0.1)">
       <use xlink:href="#DejaVuSans-34"/>
       <use x="63.623047" xlink:href="#DejaVuSans-30"/>
       <use x="127.246094" xlink:href="#DejaVuSans-30"/>
      </g>
     </g>
    </g>
    <g id="xtick_6">
     <g id="line2d_6">
      <g>
       <use style="stroke:#000000;stroke-width:0.8;" x="958.025655" xlink:href="#m163b9c0dde" y="1281.6"/>
      </g>
     </g>
     <g id="text_6">
      <!-- 500 -->
      <defs>
       <path d="M 10.796875 72.90625 
L 49.515625 72.90625 
L 49.515625 64.59375 
L 19.828125 64.59375 
L 19.828125 46.734375 
Q 21.96875 47.46875 24.109375 47.828125 
Q 26.265625 48.1875 28.421875 48.1875 
Q 40.625 48.1875 47.75 41.5 
Q 54.890625 34.8125 54.890625 23.390625 
Q 54.890625 11.625 47.5625 5.09375 
Q 40.234375 -1.421875 26.90625 -1.421875 
Q 22.3125 -1.421875 17.546875 -0.640625 
Q 12.796875 0.140625 7.71875 1.703125 
L 7.71875 11.625 
Q 12.109375 9.234375 16.796875 8.0625 
Q 21.484375 6.890625 26.703125 6.890625 
Q 35.15625 6.890625 40.078125 11.328125 
Q 45.015625 15.765625 45.015625 23.390625 
Q 45.015625 31 40.078125 35.4375 
Q 35.15625 39.890625 26.703125 39.890625 
Q 22.75 39.890625 18.8125 39.015625 
Q 14.890625 38.140625 10.796875 36.28125 
z
" id="DejaVuSans-35"/>
      </defs>
      <g transform="translate(948.481905 1296.198437)scale(0.1 -0.1)">
       <use xlink:href="#DejaVuSans-35"/>
       <use x="63.623047" xlink:href="#DejaVuSans-30"/>
       <use x="127.246094" xlink:href="#DejaVuSans-30"/>
      </g>
     </g>
    </g>
    <g id="xtick_7">
     <g id="line2d_7">
      <g>
       <use style="stroke:#000000;stroke-width:0.8;" x="1113.630786" xlink:href="#m163b9c0dde" y="1281.6"/>
      </g>
     </g>
     <g id="text_7">
      <!-- 600 -->
      <defs>
       <path d="M 33.015625 40.375 
Q 26.375 40.375 22.484375 35.828125 
Q 18.609375 31.296875 18.609375 23.390625 
Q 18.609375 15.53125 22.484375 10.953125 
Q 26.375 6.390625 33.015625 6.390625 
Q 39.65625 6.390625 43.53125 10.953125 
Q 47.40625 15.53125 47.40625 23.390625 
Q 47.40625 31.296875 43.53125 35.828125 
Q 39.65625 40.375 33.015625 40.375 
z
M 52.59375 71.296875 
L 52.59375 62.3125 
Q 48.875 64.0625 45.09375 64.984375 
Q 41.3125 65.921875 37.59375 65.921875 
Q 27.828125 65.921875 22.671875 59.328125 
Q 17.53125 52.734375 16.796875 39.40625 
Q 19.671875 43.65625 24.015625 45.921875 
Q 28.375 48.1875 33.59375 48.1875 
Q 44.578125 48.1875 50.953125 41.515625 
Q 57.328125 34.859375 57.328125 23.390625 
Q 57.328125 12.15625 50.6875 5.359375 
Q 44.046875 -1.421875 33.015625 -1.421875 
Q 20.359375 -1.421875 13.671875 8.265625 
Q 6.984375 17.96875 6.984375 36.375 
Q 6.984375 53.65625 15.1875 63.9375 
Q 23.390625 74.21875 37.203125 74.21875 
Q 40.921875 74.21875 44.703125 73.484375 
Q 48.484375 72.75 52.59375 71.296875 
z
" id="DejaVuSans-36"/>
      </defs>
      <g transform="translate(1104.087036 1296.198437)scale(0.1 -0.1)">
       <use xlink:href="#DejaVuSans-36"/>
       <use x="63.623047" xlink:href="#DejaVuSans-30"/>
       <use x="127.246094" xlink:href="#DejaVuSans-30"/>
      </g>
     </g>
    </g>
    <g id="xtick_8">
     <g id="line2d_8">
      <g>
       <use style="stroke:#000000;stroke-width:0.8;" x="1269.235917" xlink:href="#m163b9c0dde" y="1281.6"/>
      </g>
     </g>
     <g id="text_8">
      <!-- 700 -->
      <defs>
       <path d="M 8.203125 72.90625 
L 55.078125 72.90625 
L 55.078125 68.703125 
L 28.609375 0 
L 18.3125 0 
L 43.21875 64.59375 
L 8.203125 64.59375 
z
" id="DejaVuSans-37"/>
      </defs>
      <g transform="translate(1259.692167 1296.198437)scale(0.1 -0.1)">
       <use xlink:href="#DejaVuSans-37"/>
       <use x="63.623047" xlink:href="#DejaVuSans-30"/>
       <use x="127.246094" xlink:href="#DejaVuSans-30"/>
      </g>
     </g>
    </g>
    <g id="text_9">
     <!-- Y Test -->
     <defs>
      <path d="M -0.203125 72.90625 
L 10.40625 72.90625 
L 30.609375 42.921875 
L 50.6875 72.90625 
L 61.28125 72.90625 
L 35.5 34.71875 
L 35.5 0 
L 25.59375 0 
L 25.59375 34.71875 
z
" id="DejaVuSans-59"/>
      <path id="DejaVuSans-20"/>
      <path d="M -0.296875 72.90625 
L 61.375 72.90625 
L 61.375 64.59375 
L 35.5 64.59375 
L 35.5 0 
L 25.59375 0 
L 25.59375 64.59375 
L -0.296875 64.59375 
z
" id="DejaVuSans-54"/>
      <path d="M 56.203125 29.59375 
L 56.203125 25.203125 
L 14.890625 25.203125 
Q 15.484375 15.921875 20.484375 11.0625 
Q 25.484375 6.203125 34.421875 6.203125 
Q 39.59375 6.203125 44.453125 7.46875 
Q 49.3125 8.734375 54.109375 11.28125 
L 54.109375 2.78125 
Q 49.265625 0.734375 44.1875 -0.34375 
Q 39.109375 -1.421875 33.890625 -1.421875 
Q 20.796875 -1.421875 13.15625 6.1875 
Q 5.515625 13.8125 5.515625 26.8125 
Q 5.515625 40.234375 12.765625 48.109375 
Q 20.015625 56 32.328125 56 
Q 43.359375 56 49.78125 48.890625 
Q 56.203125 41.796875 56.203125 29.59375 
z
M 47.21875 32.234375 
Q 47.125 39.59375 43.09375 43.984375 
Q 39.0625 48.390625 32.421875 48.390625 
Q 24.90625 48.390625 20.390625 44.140625 
Q 15.875 39.890625 15.1875 32.171875 
z
" id="DejaVuSans-65"/>
      <path d="M 44.28125 53.078125 
L 44.28125 44.578125 
Q 40.484375 46.53125 36.375 47.5 
Q 32.28125 48.484375 27.875 48.484375 
Q 21.1875 48.484375 17.84375 46.4375 
Q 14.5 44.390625 14.5 40.28125 
Q 14.5 37.15625 16.890625 35.375 
Q 19.28125 33.59375 26.515625 31.984375 
L 29.59375 31.296875 
Q 39.15625 29.25 43.1875 25.515625 
Q 47.21875 21.78125 47.21875 15.09375 
Q 47.21875 7.46875 41.1875 3.015625 
Q 35.15625 -1.421875 24.609375 -1.421875 
Q 20.21875 -1.421875 15.453125 -0.5625 
Q 10.6875 0.296875 5.421875 2 
L 5.421875 11.28125 
Q 10.40625 8.6875 15.234375 7.390625 
Q 20.0625 6.109375 24.8125 6.109375 
Q 31.15625 6.109375 34.5625 8.28125 
Q 37.984375 10.453125 37.984375 14.40625 
Q 37.984375 18.0625 35.515625 20.015625 
Q 33.0625 21.96875 24.703125 23.78125 
L 21.578125 24.515625 
Q 13.234375 26.265625 9.515625 29.90625 
Q 5.8125 33.546875 5.8125 39.890625 
Q 5.8125 47.609375 11.28125 51.796875 
Q 16.75 56 26.8125 56 
Q 31.78125 56 36.171875 55.265625 
Q 40.578125 54.546875 44.28125 53.078125 
z
" id="DejaVuSans-73"/>
      <path d="M 18.3125 70.21875 
L 18.3125 54.6875 
L 36.8125 54.6875 
L 36.8125 47.703125 
L 18.3125 47.703125 
L 18.3125 18.015625 
Q 18.3125 11.328125 20.140625 9.421875 
Q 21.96875 7.515625 27.59375 7.515625 
L 36.8125 7.515625 
L 36.8125 0 
L 27.59375 0 
Q 17.1875 0 13.234375 3.875 
Q 9.28125 7.765625 9.28125 18.015625 
L 9.28125 47.703125 
L 2.6875 47.703125 
L 2.6875 54.6875 
L 9.28125 54.6875 
L 9.28125 70.21875 
z
" id="DejaVuSans-74"/>
     </defs>
     <g transform="translate(722.675 1309.876563)scale(0.1 -0.1)">
      <use xlink:href="#DejaVuSans-59"/>
      <use x="61.083984" xlink:href="#DejaVuSans-20"/>
      <use x="92.871094" xlink:href="#DejaVuSans-54"/>
      <use x="153.689453" xlink:href="#DejaVuSans-65"/>
      <use x="215.212891" xlink:href="#DejaVuSans-73"/>
      <use x="267.3125" xlink:href="#DejaVuSans-74"/>
     </g>
    </g>
   </g>
   <g id="matplotlib.axis_2">
    <g id="ytick_1">
     <g id="line2d_9">
      <defs>
       <path d="M 0 0 
L -3.5 0 
" id="m0f47047d82" style="stroke:#000000;stroke-width:0.8;"/>
      </defs>
      <g>
       <use style="stroke:#000000;stroke-width:0.8;" x="180" xlink:href="#m0f47047d82" y="1281.6"/>
      </g>
     </g>
     <g id="text_10">
      <!-- 0 -->
      <g transform="translate(166.6375 1285.399219)scale(0.1 -0.1)">
       <use xlink:href="#DejaVuSans-30"/>
      </g>
     </g>
    </g>
    <g id="ytick_2">
     <g id="line2d_10">
      <g>
       <use style="stroke:#000000;stroke-width:0.8;" x="180" xlink:href="#m0f47047d82" y="1126.998773"/>
      </g>
     </g>
     <g id="text_11">
      <!-- 100 -->
      <g transform="translate(153.9125 1130.797992)scale(0.1 -0.1)">
       <use xlink:href="#DejaVuSans-31"/>
       <use x="63.623047" xlink:href="#DejaVuSans-30"/>
       <use x="127.246094" xlink:href="#DejaVuSans-30"/>
      </g>
     </g>
    </g>
    <g id="ytick_3">
     <g id="line2d_11">
      <g>
       <use style="stroke:#000000;stroke-width:0.8;" x="180" xlink:href="#m0f47047d82" y="972.397546"/>
      </g>
     </g>
     <g id="text_12">
      <!-- 200 -->
      <g transform="translate(153.9125 976.196765)scale(0.1 -0.1)">
       <use xlink:href="#DejaVuSans-32"/>
       <use x="63.623047" xlink:href="#DejaVuSans-30"/>
       <use x="127.246094" xlink:href="#DejaVuSans-30"/>
      </g>
     </g>
    </g>
    <g id="ytick_4">
     <g id="line2d_12">
      <g>
       <use style="stroke:#000000;stroke-width:0.8;" x="180" xlink:href="#m0f47047d82" y="817.796319"/>
      </g>
     </g>
     <g id="text_13">
      <!-- 300 -->
      <g transform="translate(153.9125 821.595538)scale(0.1 -0.1)">
       <use xlink:href="#DejaVuSans-33"/>
       <use x="63.623047" xlink:href="#DejaVuSans-30"/>
       <use x="127.246094" xlink:href="#DejaVuSans-30"/>
      </g>
     </g>
    </g>
    <g id="ytick_5">
     <g id="line2d_13">
      <g>
       <use style="stroke:#000000;stroke-width:0.8;" x="180" xlink:href="#m0f47047d82" y="663.195092"/>
      </g>
     </g>
     <g id="text_14">
      <!-- 400 -->
      <g transform="translate(153.9125 666.994311)scale(0.1 -0.1)">
       <use xlink:href="#DejaVuSans-34"/>
       <use x="63.623047" xlink:href="#DejaVuSans-30"/>
       <use x="127.246094" xlink:href="#DejaVuSans-30"/>
      </g>
     </g>
    </g>
    <g id="ytick_6">
     <g id="line2d_14">
      <g>
       <use style="stroke:#000000;stroke-width:0.8;" x="180" xlink:href="#m0f47047d82" y="508.593865"/>
      </g>
     </g>
     <g id="text_15">
      <!-- 500 -->
      <g transform="translate(153.9125 512.393084)scale(0.1 -0.1)">
       <use xlink:href="#DejaVuSans-35"/>
       <use x="63.623047" xlink:href="#DejaVuSans-30"/>
       <use x="127.246094" xlink:href="#DejaVuSans-30"/>
      </g>
     </g>
    </g>
    <g id="ytick_7">
     <g id="line2d_15">
      <g>
       <use style="stroke:#000000;stroke-width:0.8;" x="180" xlink:href="#m0f47047d82" y="353.992638"/>
      </g>
     </g>
     <g id="text_16">
      <!-- 600 -->
      <g transform="translate(153.9125 357.791857)scale(0.1 -0.1)">
       <use xlink:href="#DejaVuSans-36"/>
       <use x="63.623047" xlink:href="#DejaVuSans-30"/>
       <use x="127.246094" xlink:href="#DejaVuSans-30"/>
      </g>
     </g>
    </g>
    <g id="ytick_8">
     <g id="line2d_16">
      <g>
       <use style="stroke:#000000;stroke-width:0.8;" x="180" xlink:href="#m0f47047d82" y="199.391411"/>
      </g>
     </g>
     <g id="text_17">
      <!-- 700 -->
      <g transform="translate(153.9125 203.19063)scale(0.1 -0.1)">
       <use xlink:href="#DejaVuSans-37"/>
       <use x="63.623047" xlink:href="#DejaVuSans-30"/>
       <use x="127.246094" xlink:href="#DejaVuSans-30"/>
      </g>
     </g>
    </g>
    <g id="text_18">
     <!-- Y Predicted -->
     <defs>
      <path d="M 19.671875 64.796875 
L 19.671875 37.40625 
L 32.078125 37.40625 
Q 38.96875 37.40625 42.71875 40.96875 
Q 46.484375 44.53125 46.484375 51.125 
Q 46.484375 57.671875 42.71875 61.234375 
Q 38.96875 64.796875 32.078125 64.796875 
z
M 9.8125 72.90625 
L 32.078125 72.90625 
Q 44.34375 72.90625 50.609375 67.359375 
Q 56.890625 61.8125 56.890625 51.125 
Q 56.890625 40.328125 50.609375 34.8125 
Q 44.34375 29.296875 32.078125 29.296875 
L 19.671875 29.296875 
L 19.671875 0 
L 9.8125 0 
z
" id="DejaVuSans-50"/>
      <path d="M 41.109375 46.296875 
Q 39.59375 47.171875 37.8125 47.578125 
Q 36.03125 48 33.890625 48 
Q 26.265625 48 22.1875 43.046875 
Q 18.109375 38.09375 18.109375 28.8125 
L 18.109375 0 
L 9.078125 0 
L 9.078125 54.6875 
L 18.109375 54.6875 
L 18.109375 46.1875 
Q 20.953125 51.171875 25.484375 53.578125 
Q 30.03125 56 36.53125 56 
Q 37.453125 56 38.578125 55.875 
Q 39.703125 55.765625 41.0625 55.515625 
z
" id="DejaVuSans-72"/>
      <path d="M 45.40625 46.390625 
L 45.40625 75.984375 
L 54.390625 75.984375 
L 54.390625 0 
L 45.40625 0 
L 45.40625 8.203125 
Q 42.578125 3.328125 38.25 0.953125 
Q 33.9375 -1.421875 27.875 -1.421875 
Q 17.96875 -1.421875 11.734375 6.484375 
Q 5.515625 14.40625 5.515625 27.296875 
Q 5.515625 40.1875 11.734375 48.09375 
Q 17.96875 56 27.875 56 
Q 33.9375 56 38.25 53.625 
Q 42.578125 51.265625 45.40625 46.390625 
z
M 14.796875 27.296875 
Q 14.796875 17.390625 18.875 11.75 
Q 22.953125 6.109375 30.078125 6.109375 
Q 37.203125 6.109375 41.296875 11.75 
Q 45.40625 17.390625 45.40625 27.296875 
Q 45.40625 37.203125 41.296875 42.84375 
Q 37.203125 48.484375 30.078125 48.484375 
Q 22.953125 48.484375 18.875 42.84375 
Q 14.796875 37.203125 14.796875 27.296875 
z
" id="DejaVuSans-64"/>
      <path d="M 9.421875 54.6875 
L 18.40625 54.6875 
L 18.40625 0 
L 9.421875 0 
z
M 9.421875 75.984375 
L 18.40625 75.984375 
L 18.40625 64.59375 
L 9.421875 64.59375 
z
" id="DejaVuSans-69"/>
      <path d="M 48.78125 52.59375 
L 48.78125 44.1875 
Q 44.96875 46.296875 41.140625 47.34375 
Q 37.3125 48.390625 33.40625 48.390625 
Q 24.65625 48.390625 19.8125 42.84375 
Q 14.984375 37.3125 14.984375 27.296875 
Q 14.984375 17.28125 19.8125 11.734375 
Q 24.65625 6.203125 33.40625 6.203125 
Q 37.3125 6.203125 41.140625 7.25 
Q 44.96875 8.296875 48.78125 10.40625 
L 48.78125 2.09375 
Q 45.015625 0.34375 40.984375 -0.53125 
Q 36.96875 -1.421875 32.421875 -1.421875 
Q 20.0625 -1.421875 12.78125 6.34375 
Q 5.515625 14.109375 5.515625 27.296875 
Q 5.515625 40.671875 12.859375 48.328125 
Q 20.21875 56 33.015625 56 
Q 37.15625 56 41.109375 55.140625 
Q 45.0625 54.296875 48.78125 52.59375 
z
" id="DejaVuSans-63"/>
     </defs>
     <g transform="translate(147.832812 755.510937)rotate(-90)scale(0.1 -0.1)">
      <use xlink:href="#DejaVuSans-59"/>
      <use x="61.083984" xlink:href="#DejaVuSans-20"/>
      <use x="92.871094" xlink:href="#DejaVuSans-50"/>
      <use x="153.158203" xlink:href="#DejaVuSans-72"/>
      <use x="194.240234" xlink:href="#DejaVuSans-65"/>
      <use x="255.763672" xlink:href="#DejaVuSans-64"/>
      <use x="319.240234" xlink:href="#DejaVuSans-69"/>
      <use x="347.023438" xlink:href="#DejaVuSans-63"/>
      <use x="402.003906" xlink:href="#DejaVuSans-74"/>
      <use x="441.212891" xlink:href="#DejaVuSans-65"/>
      <use x="502.736328" xlink:href="#DejaVuSans-64"/>
     </g>
    </g>
   </g>
   <g id="line2d_17">
    <path clip-path="url(#pdfb5fdc8b9)" d="M 180 1281.6 
L 1296 172.8 
" style="fill:none;stroke:#1f77b4;stroke-dasharray:5.55,2.4;stroke-dashoffset:0;stroke-width:1.5;"/>
   </g>
   <g id="patch_3">
    <path d="M 180 1281.6 
L 180 172.8 
" style="fill:none;stroke:#000000;stroke-linecap:square;stroke-linejoin:miter;stroke-width:0.8;"/>
   </g>
   <g id="patch_4">
    <path d="M 1296 1281.6 
L 1296 172.8 
" style="fill:none;stroke:#000000;stroke-linecap:square;stroke-linejoin:miter;stroke-width:0.8;"/>
   </g>
   <g id="patch_5">
    <path d="M 180 1281.6 
L 1296 1281.6 
" style="fill:none;stroke:#000000;stroke-linecap:square;stroke-linejoin:miter;stroke-width:0.8;"/>
   </g>
   <g id="patch_6">
    <path d="M 180 172.8 
L 1296 172.8 
" style="fill:none;stroke:#000000;stroke-linecap:square;stroke-linejoin:miter;stroke-width:0.8;"/>
   </g>
  </g>
 </g>
 <defs>
  <clipPath id="pdfb5fdc8b9">
   <rect height="1108.8" width="1116" x="180" y="172.8"/>
  </clipPath>
 </defs>
</svg>
