<?xml version="1.0" encoding="utf-8" standalone="no"?>
<!DOCTYPE svg PUBLIC "-//W3C//DTD SVG 1.1//EN"
  "http://www.w3.org/Graphics/SVG/1.1/DTD/svg11.dtd">
<!-- Created with matplotlib (http://matplotlib.org/) -->
<svg height="1440pt" version="1.1" viewBox="0 0 1440 1440" width="1440pt" xmlns="http://www.w3.org/2000/svg" xmlns:xlink="http://www.w3.org/1999/xlink">
 <defs>
  <style type="text/css">
*{stroke-linecap:butt;stroke-linejoin:round;}
  </style>
 </defs>
 <g id="figure_1">
  <g id="patch_1">
   <path d="M 0 1440 
L 1440 1440 
L 1440 0 
L 0 0 
z
" style="fill:#ffffff;"/>
  </g>
  <g id="axes_1">
   <g id="patch_2">
    <path d="M 180 1281.6 
L 1296 1281.6 
L 1296 172.8 
L 180 172.8 
z
" style="fill:#ffffff;"/>
   </g>
   <g id="PathCollection_1">
    <defs>
     <path d="M 0 3 
C 0.795609 3 1.55874 2.683901 2.12132 2.12132 
C 2.683901 1.55874 3 0.795609 3 0 
C 3 -0.795609 2.683901 -1.55874 2.12132 -2.12132 
C 1.55874 -2.683901 0.795609 -3 0 -3 
C -0.795609 -3 -1.55874 -2.683901 -2.12132 -2.12132 
C -2.683901 -1.55874 -3 -0.795609 -3 0 
C -3 0.795609 -2.683901 1.55874 -2.12132 2.12132 
C -1.55874 2.683901 -0.795609 3 0 3 
z
" id="m132ad1b1aa" style="stroke:#1f77b4;"/>
    </defs>
    <g clip-path="url(#p7c1e2201d1)">
     <use style="fill:#1f77b4;stroke:#1f77b4;" x="362.90765" xlink:href="#m132ad1b1aa" y="1101.401295"/>
     <use style="fill:#1f77b4;stroke:#1f77b4;" x="299.680853" xlink:href="#m132ad1b1aa" y="1171.180367"/>
     <use style="fill:#1f77b4;stroke:#1f77b4;" x="246.913798" xlink:href="#m132ad1b1aa" y="1205.356832"/>
     <use style="fill:#1f77b4;stroke:#1f77b4;" x="458.450365" xlink:href="#m132ad1b1aa" y="1009.872923"/>
     <use style="fill:#1f77b4;stroke:#1f77b4;" x="354.009063" xlink:href="#m132ad1b1aa" y="1096.304547"/>
     <use style="fill:#1f77b4;stroke:#1f77b4;" x="357.911952" xlink:href="#m132ad1b1aa" y="1101.403457"/>
     <use style="fill:#1f77b4;stroke:#1f77b4;" x="376.645818" xlink:href="#m132ad1b1aa" y="1083.467893"/>
     <use style="fill:#1f77b4;stroke:#1f77b4;" x="336.055775" xlink:href="#m132ad1b1aa" y="1127.150383"/>
     <use style="fill:#1f77b4;stroke:#1f77b4;" x="277.824676" xlink:href="#m132ad1b1aa" y="1185.507012"/>
     <use style="fill:#1f77b4;stroke:#1f77b4;" x="237.546865" xlink:href="#m132ad1b1aa" y="1211.251494"/>
     <use style="fill:#1f77b4;stroke:#1f77b4;" x="324.347109" xlink:href="#m132ad1b1aa" y="1136.169309"/>
     <use style="fill:#1f77b4;stroke:#1f77b4;" x="488.112319" xlink:href="#m132ad1b1aa" y="1028.104131"/>
     <use style="fill:#1f77b4;stroke:#1f77b4;" x="392.881835" xlink:href="#m132ad1b1aa" y="1067.643802"/>
     <use style="fill:#1f77b4;stroke:#1f77b4;" x="503.723874" xlink:href="#m132ad1b1aa" y="960.845884"/>
     <use style="fill:#1f77b4;stroke:#1f77b4;" x="328.718345" xlink:href="#m132ad1b1aa" y="1133.564334"/>
     <use style="fill:#1f77b4;stroke:#1f77b4;" x="295.153502" xlink:href="#m132ad1b1aa" y="1112.21334"/>
     <use style="fill:#1f77b4;stroke:#1f77b4;" x="314.51183" xlink:href="#m132ad1b1aa" y="1147.454533"/>
     <use style="fill:#1f77b4;stroke:#1f77b4;" x="396.004146" xlink:href="#m132ad1b1aa" y="1058.893869"/>
     <use style="fill:#1f77b4;stroke:#1f77b4;" x="288.128302" xlink:href="#m132ad1b1aa" y="1179.32059"/>
     <use style="fill:#1f77b4;stroke:#1f77b4;" x="411.615701" xlink:href="#m132ad1b1aa" y="1028.104131"/>
     <use style="fill:#1f77b4;stroke:#1f77b4;" x="264.086508" xlink:href="#m132ad1b1aa" y="1200.77984"/>
     <use style="fill:#1f77b4;stroke:#1f77b4;" x="366.810538" xlink:href="#m132ad1b1aa" y="1088.30862"/>
     <use style="fill:#1f77b4;stroke:#1f77b4;" x="258.934695" xlink:href="#m132ad1b1aa" y="1179.567083"/>
     <use style="fill:#1f77b4;stroke:#1f77b4;" x="277.824676" xlink:href="#m132ad1b1aa" y="1187.35302"/>
     <use style="fill:#1f77b4;stroke:#1f77b4;" x="321.693145" xlink:href="#m132ad1b1aa" y="1154.61464"/>
     <use style="fill:#1f77b4;stroke:#1f77b4;" x="317.478025" xlink:href="#m132ad1b1aa" y="1028.688116"/>
     <use style="fill:#1f77b4;stroke:#1f77b4;" x="232.395052" xlink:href="#m132ad1b1aa" y="1223.306785"/>
     <use style="fill:#1f77b4;stroke:#1f77b4;" x="246.913798" xlink:href="#m132ad1b1aa" y="1203.975877"/>
     <use style="fill:#1f77b4;stroke:#1f77b4;" x="341.675935" xlink:href="#m132ad1b1aa" y="1116.738029"/>
     <use style="fill:#1f77b4;stroke:#1f77b4;" x="359.941454" xlink:href="#m132ad1b1aa" y="1095.305407"/>
     <use style="fill:#1f77b4;stroke:#1f77b4;" x="327.937767" xlink:href="#m132ad1b1aa" y="1128.40895"/>
     <use style="fill:#1f77b4;stroke:#1f77b4;" x="284.225414" xlink:href="#m132ad1b1aa" y="1191.388757"/>
     <use style="fill:#1f77b4;stroke:#1f77b4;" x="336.680238" xlink:href="#m132ad1b1aa" y="1123.68968"/>
     <use style="fill:#1f77b4;stroke:#1f77b4;" x="442.83881" xlink:href="#m132ad1b1aa" y="1014.360711"/>
     <use style="fill:#1f77b4;stroke:#1f77b4;" x="274.54625" xlink:href="#m132ad1b1aa" y="1189.37107"/>
     <use style="fill:#1f77b4;stroke:#1f77b4;" x="519.335429" xlink:href="#m132ad1b1aa" y="958.406837"/>
     <use style="fill:#1f77b4;stroke:#1f77b4;" x="328.093883" xlink:href="#m132ad1b1aa" y="1125.499076"/>
     <use style="fill:#1f77b4;stroke:#1f77b4;" x="329.030576" xlink:href="#m132ad1b1aa" y="1132.390509"/>
     <use style="fill:#1f77b4;stroke:#1f77b4;" x="460.011521" xlink:href="#m132ad1b1aa" y="992.85526"/>
     <use style="fill:#1f77b4;stroke:#1f77b4;" x="399.126457" xlink:href="#m132ad1b1aa" y="1062.391036"/>
     <use style="fill:#1f77b4;stroke:#1f77b4;" x="458.450365" xlink:href="#m132ad1b1aa" y="997.262381"/>
     <use style="fill:#1f77b4;stroke:#1f77b4;" x="331.840656" xlink:href="#m132ad1b1aa" y="1105.954615"/>
     <use style="fill:#1f77b4;stroke:#1f77b4;" x="273.453441" xlink:href="#m132ad1b1aa" y="1185.056654"/>
     <use style="fill:#1f77b4;stroke:#1f77b4;" x="295.621849" xlink:href="#m132ad1b1aa" y="1160.838984"/>
     <use style="fill:#1f77b4;stroke:#1f77b4;" x="299.524737" xlink:href="#m132ad1b1aa" y="1163.037024"/>
     <use style="fill:#1f77b4;stroke:#1f77b4;" x="357.755837" xlink:href="#m132ad1b1aa" y="1097.818106"/>
     <use style="fill:#1f77b4;stroke:#1f77b4;" x="285.630453" xlink:href="#m132ad1b1aa" y="1174.029999"/>
     <use style="fill:#1f77b4;stroke:#1f77b4;" x="345.734939" xlink:href="#m132ad1b1aa" y="1127.118546"/>
     <use style="fill:#1f77b4;stroke:#1f77b4;" x="334.650736" xlink:href="#m132ad1b1aa" y="1130.730131"/>
     <use style="fill:#1f77b4;stroke:#1f77b4;" x="438.155344" xlink:href="#m132ad1b1aa" y="1019.099679"/>
     <use style="fill:#1f77b4;stroke:#1f77b4;" x="305.144897" xlink:href="#m132ad1b1aa" y="1111.626963"/>
     <use style="fill:#1f77b4;stroke:#1f77b4;" x="252.533957" xlink:href="#m132ad1b1aa" y="1213.010993"/>
     <use style="fill:#1f77b4;stroke:#1f77b4;" x="283.444836" xlink:href="#m132ad1b1aa" y="1175.143881"/>
     <use style="fill:#1f77b4;stroke:#1f77b4;" x="430.349566" xlink:href="#m132ad1b1aa" y="1053.430481"/>
     <use style="fill:#1f77b4;stroke:#1f77b4;" x="269.550552" xlink:href="#m132ad1b1aa" y="1179.233969"/>
     <use style="fill:#1f77b4;stroke:#1f77b4;" x="511.529651" xlink:href="#m132ad1b1aa" y="943.86137"/>
     <use style="fill:#1f77b4;stroke:#1f77b4;" x="232.395052" xlink:href="#m132ad1b1aa" y="1231.2"/>
     <use style="fill:#1f77b4;stroke:#1f77b4;" x="273.453441" xlink:href="#m132ad1b1aa" y="1179.42655"/>
     <use style="fill:#1f77b4;stroke:#1f77b4;" x="363.375996" xlink:href="#m132ad1b1aa" y="1099.477412"/>
     <use style="fill:#1f77b4;stroke:#1f77b4;" x="290.626151" xlink:href="#m132ad1b1aa" y="1168.762358"/>
     <use style="fill:#1f77b4;stroke:#1f77b4;" x="658.278267" xlink:href="#m132ad1b1aa" y="1028.104131"/>
     <use style="fill:#1f77b4;stroke:#1f77b4;" x="299.993084" xlink:href="#m132ad1b1aa" y="1163.552288"/>
     <use style="fill:#1f77b4;stroke:#1f77b4;" x="469.378453" xlink:href="#m132ad1b1aa" y="1034.366586"/>
     <use style="fill:#1f77b4;stroke:#1f77b4;" x="328.249998" xlink:href="#m132ad1b1aa" y="1130.226348"/>
     <use style="fill:#1f77b4;stroke:#1f77b4;" x="337.616931" xlink:href="#m132ad1b1aa" y="1123.339313"/>
     <use style="fill:#1f77b4;stroke:#1f77b4;" x="341.207589" xlink:href="#m132ad1b1aa" y="1121.546878"/>
     <use style="fill:#1f77b4;stroke:#1f77b4;" x="328.718345" xlink:href="#m132ad1b1aa" y="1141.349387"/>
     <use style="fill:#1f77b4;stroke:#1f77b4;" x="318.883065" xlink:href="#m132ad1b1aa" y="1118.612813"/>
     <use style="fill:#1f77b4;stroke:#1f77b4;" x="286.723262" xlink:href="#m132ad1b1aa" y="1177.038207"/>
     <use style="fill:#1f77b4;stroke:#1f77b4;" x="299.680853" xlink:href="#m132ad1b1aa" y="1162.846683"/>
     <use style="fill:#1f77b4;stroke:#1f77b4;" x="278.449138" xlink:href="#m132ad1b1aa" y="1187.543346"/>
     <use style="fill:#1f77b4;stroke:#1f77b4;" x="288.90888" xlink:href="#m132ad1b1aa" y="1149.600777"/>
     <use style="fill:#1f77b4;stroke:#1f77b4;" x="277.824676" xlink:href="#m132ad1b1aa" y="1184.25151"/>
     <use style="fill:#1f77b4;stroke:#1f77b4;" x="375.084662" xlink:href="#m132ad1b1aa" y="1086.59037"/>
     <use style="fill:#1f77b4;stroke:#1f77b4;" x="411.615701" xlink:href="#m132ad1b1aa" y="1061.612304"/>
     <use style="fill:#1f77b4;stroke:#1f77b4;" x="290.626151" xlink:href="#m132ad1b1aa" y="1176.737431"/>
     <use style="fill:#1f77b4;stroke:#1f77b4;" x="305.769359" xlink:href="#m132ad1b1aa" y="1153.091884"/>
     <use style="fill:#1f77b4;stroke:#1f77b4;" x="359.160877" xlink:href="#m132ad1b1aa" y="1099.642277"/>
     <use style="fill:#1f77b4;stroke:#1f77b4;" x="466.256143" xlink:href="#m132ad1b1aa" y="989.007452"/>
     <use style="fill:#1f77b4;stroke:#1f77b4;" x="548.997383" xlink:href="#m132ad1b1aa" y="1030.483994"/>
     <use style="fill:#1f77b4;stroke:#1f77b4;" x="315.760754" xlink:href="#m132ad1b1aa" y="1144.799974"/>
     <use style="fill:#1f77b4;stroke:#1f77b4;" x="246.913798" xlink:href="#m132ad1b1aa" y="1224.251083"/>
     <use style="fill:#1f77b4;stroke:#1f77b4;" x="377.114165" xlink:href="#m132ad1b1aa" y="1084.47177"/>
     <use style="fill:#1f77b4;stroke:#1f77b4;" x="445.961121" xlink:href="#m132ad1b1aa" y="1030.414538"/>
     <use style="fill:#1f77b4;stroke:#1f77b4;" x="336.368007" xlink:href="#m132ad1b1aa" y="1109.888133"/>
     <use style="fill:#1f77b4;stroke:#1f77b4;" x="365.405498" xlink:href="#m132ad1b1aa" y="1092.739023"/>
     <use style="fill:#1f77b4;stroke:#1f77b4;" x="252.533957" xlink:href="#m132ad1b1aa" y="1195.357012"/>
     <use style="fill:#1f77b4;stroke:#1f77b4;" x="277.044098" xlink:href="#m132ad1b1aa" y="1186.025405"/>
     <use style="fill:#1f77b4;stroke:#1f77b4;" x="285.474338" xlink:href="#m132ad1b1aa" y="1158.120401"/>
     <use style="fill:#1f77b4;stroke:#1f77b4;" x="323.878763" xlink:href="#m132ad1b1aa" y="1133.144538"/>
     <use style="fill:#1f77b4;stroke:#1f77b4;" x="397.565301" xlink:href="#m132ad1b1aa" y="1074.793476"/>
     <use style="fill:#1f77b4;stroke:#1f77b4;" x="302.959279" xlink:href="#m132ad1b1aa" y="1167.30494"/>
     <use style="fill:#1f77b4;stroke:#1f77b4;" x="266.272125" xlink:href="#m132ad1b1aa" y="1195.130862"/>
     <use style="fill:#1f77b4;stroke:#1f77b4;" x="408.49339" xlink:href="#m132ad1b1aa" y="1061.606044"/>
     <use style="fill:#1f77b4;stroke:#1f77b4;" x="389.759524" xlink:href="#m132ad1b1aa" y="1065.367793"/>
     <use style="fill:#1f77b4;stroke:#1f77b4;" x="282.820374" xlink:href="#m132ad1b1aa" y="1180.404639"/>
     <use style="fill:#1f77b4;stroke:#1f77b4;" x="262.057006" xlink:href="#m132ad1b1aa" y="1109.151518"/>
     <use style="fill:#1f77b4;stroke:#1f77b4;" x="363.063765" xlink:href="#m132ad1b1aa" y="1099.245386"/>
     <use style="fill:#1f77b4;stroke:#1f77b4;" x="406.932234" xlink:href="#m132ad1b1aa" y="1028.171332"/>
     <use style="fill:#1f77b4;stroke:#1f77b4;" x="358.848645" xlink:href="#m132ad1b1aa" y="1097.435088"/>
     <use style="fill:#1f77b4;stroke:#1f77b4;" x="246.913798" xlink:href="#m132ad1b1aa" y="1214.809702"/>
     <use style="fill:#1f77b4;stroke:#1f77b4;" x="297.183004" xlink:href="#m132ad1b1aa" y="1169.946911"/>
     <use style="fill:#1f77b4;stroke:#1f77b4;" x="375.396894" xlink:href="#m132ad1b1aa" y="1087.612945"/>
     <use style="fill:#1f77b4;stroke:#1f77b4;" x="252.533957" xlink:href="#m132ad1b1aa" y="1195.357012"/>
     <use style="fill:#1f77b4;stroke:#1f77b4;" x="369.464503" xlink:href="#m132ad1b1aa" y="1097.685069"/>
     <use style="fill:#1f77b4;stroke:#1f77b4;" x="566.170093" xlink:href="#m132ad1b1aa" y="932.851646"/>
     <use style="fill:#1f77b4;stroke:#1f77b4;" x="332.933464" xlink:href="#m132ad1b1aa" y="1134.100019"/>
     <use style="fill:#1f77b4;stroke:#1f77b4;" x="313.419021" xlink:href="#m132ad1b1aa" y="1149.58085"/>
     <use style="fill:#1f77b4;stroke:#1f77b4;" x="319.819758" xlink:href="#m132ad1b1aa" y="1140.317568"/>
     <use style="fill:#1f77b4;stroke:#1f77b4;" x="279.854178" xlink:href="#m132ad1b1aa" y="1186.02122"/>
     <use style="fill:#1f77b4;stroke:#1f77b4;" x="264.086508" xlink:href="#m132ad1b1aa" y="1188.521827"/>
     <use style="fill:#1f77b4;stroke:#1f77b4;" x="363.375996" xlink:href="#m132ad1b1aa" y="1076.740204"/>
     <use style="fill:#1f77b4;stroke:#1f77b4;" x="292.187306" xlink:href="#m132ad1b1aa" y="1174.865005"/>
     <use style="fill:#1f77b4;stroke:#1f77b4;" x="293.436231" xlink:href="#m132ad1b1aa" y="1161.4465"/>
     <use style="fill:#1f77b4;stroke:#1f77b4;" x="477.184231" xlink:href="#m132ad1b1aa" y="999.10473"/>
     <use style="fill:#1f77b4;stroke:#1f77b4;" x="267.989397" xlink:href="#m132ad1b1aa" y="1194.856941"/>
     <use style="fill:#1f77b4;stroke:#1f77b4;" x="287.191609" xlink:href="#m132ad1b1aa" y="1174.619545"/>
     <use style="fill:#1f77b4;stroke:#1f77b4;" x="381.641515" xlink:href="#m132ad1b1aa" y="1074.534063"/>
     <use style="fill:#1f77b4;stroke:#1f77b4;" x="424.104945" xlink:href="#m132ad1b1aa" y="1043.632645"/>
     <use style="fill:#1f77b4;stroke:#1f77b4;" x="349.950059" xlink:href="#m132ad1b1aa" y="1111.923453"/>
     <use style="fill:#1f77b4;stroke:#1f77b4;" x="368.996156" xlink:href="#m132ad1b1aa" y="1095.082301"/>
     <use style="fill:#1f77b4;stroke:#1f77b4;" x="320.444221" xlink:href="#m132ad1b1aa" y="1091.655432"/>
     <use style="fill:#1f77b4;stroke:#1f77b4;" x="402.248768" xlink:href="#m132ad1b1aa" y="1028.104131"/>
     <use style="fill:#1f77b4;stroke:#1f77b4;" x="351.042868" xlink:href="#m132ad1b1aa" y="1118.769776"/>
     <use style="fill:#1f77b4;stroke:#1f77b4;" x="400.687612" xlink:href="#m132ad1b1aa" y="1046.04375"/>
     <use style="fill:#1f77b4;stroke:#1f77b4;" x="292.187306" xlink:href="#m132ad1b1aa" y="1169.955025"/>
     <use style="fill:#1f77b4;stroke:#1f77b4;" x="422.543789" xlink:href="#m132ad1b1aa" y="1041.136888"/>
     <use style="fill:#1f77b4;stroke:#1f77b4;" x="389.759524" xlink:href="#m132ad1b1aa" y="1072.195088"/>
     <use style="fill:#1f77b4;stroke:#1f77b4;" x="394.44299" xlink:href="#m132ad1b1aa" y="1036.966559"/>
     <use style="fill:#1f77b4;stroke:#1f77b4;" x="391.320679" xlink:href="#m132ad1b1aa" y="1068.482112"/>
     <use style="fill:#1f77b4;stroke:#1f77b4;" x="424.104945" xlink:href="#m132ad1b1aa" y="1028.104131"/>
     <use style="fill:#1f77b4;stroke:#1f77b4;" x="385.076058" xlink:href="#m132ad1b1aa" y="1071.593215"/>
     <use style="fill:#1f77b4;stroke:#1f77b4;" x="334.338504" xlink:href="#m132ad1b1aa" y="1117.799503"/>
     <use style="fill:#1f77b4;stroke:#1f77b4;" x="237.546865" xlink:href="#m132ad1b1aa" y="1219.294419"/>
     <use style="fill:#1f77b4;stroke:#1f77b4;" x="337.460815" xlink:href="#m132ad1b1aa" y="1109.399353"/>
     <use style="fill:#1f77b4;stroke:#1f77b4;" x="442.83881" xlink:href="#m132ad1b1aa" y="1020.24848"/>
     <use style="fill:#1f77b4;stroke:#1f77b4;" x="619.24938" xlink:href="#m132ad1b1aa" y="909.667392"/>
     <use style="fill:#1f77b4;stroke:#1f77b4;" x="285.630453" xlink:href="#m132ad1b1aa" y="1179.088344"/>
     <use style="fill:#1f77b4;stroke:#1f77b4;" x="756.631062" xlink:href="#m132ad1b1aa" y="1028.104131"/>
     <use style="fill:#1f77b4;stroke:#1f77b4;" x="264.086508" xlink:href="#m132ad1b1aa" y="1065.000277"/>
     <use style="fill:#1f77b4;stroke:#1f77b4;" x="341.207589" xlink:href="#m132ad1b1aa" y="1028.436904"/>
     <use style="fill:#1f77b4;stroke:#1f77b4;" x="305.144897" xlink:href="#m132ad1b1aa" y="1158.580698"/>
     <use style="fill:#1f77b4;stroke:#1f77b4;" x="285.630453" xlink:href="#m132ad1b1aa" y="1169.293352"/>
     <use style="fill:#1f77b4;stroke:#1f77b4;" x="455.328054" xlink:href="#m132ad1b1aa" y="1041.381249"/>
     <use style="fill:#1f77b4;stroke:#1f77b4;" x="258.934695" xlink:href="#m132ad1b1aa" y="1196.675744"/>
     <use style="fill:#1f77b4;stroke:#1f77b4;" x="246.13322" xlink:href="#m132ad1b1aa" y="1219.451754"/>
     <use style="fill:#1f77b4;stroke:#1f77b4;" x="388.198369" xlink:href="#m132ad1b1aa" y="1075.927941"/>
     <use style="fill:#1f77b4;stroke:#1f77b4;" x="344.954362" xlink:href="#m132ad1b1aa" y="1116.454735"/>
     <use style="fill:#1f77b4;stroke:#1f77b4;" x="531.824673" xlink:href="#m132ad1b1aa" y="1028.104131"/>
     <use style="fill:#1f77b4;stroke:#1f77b4;" x="306.549937" xlink:href="#m132ad1b1aa" y="1157.58094"/>
     <use style="fill:#1f77b4;stroke:#1f77b4;" x="264.086508" xlink:href="#m132ad1b1aa" y="1207.67466"/>
     <use style="fill:#1f77b4;stroke:#1f77b4;" x="388.198369" xlink:href="#m132ad1b1aa" y="1067.006076"/>
     <use style="fill:#1f77b4;stroke:#1f77b4;" x="650.472489" xlink:href="#m132ad1b1aa" y="1026.756856"/>
     <use style="fill:#1f77b4;stroke:#1f77b4;" x="484.990008" xlink:href="#m132ad1b1aa" y="1011.15427"/>
     <use style="fill:#1f77b4;stroke:#1f77b4;" x="276.575752" xlink:href="#m132ad1b1aa" y="1185.250458"/>
     <use style="fill:#1f77b4;stroke:#1f77b4;" x="331.216193" xlink:href="#m132ad1b1aa" y="1103.527032"/>
     <use style="fill:#1f77b4;stroke:#1f77b4;" x="343.861553" xlink:href="#m132ad1b1aa" y="1119.300917"/>
     <use style="fill:#1f77b4;stroke:#1f77b4;" x="413.176856" xlink:href="#m132ad1b1aa" y="1046.198773"/>
     <use style="fill:#1f77b4;stroke:#1f77b4;" x="353.696832" xlink:href="#m132ad1b1aa" y="1099.248595"/>
     <use style="fill:#1f77b4;stroke:#1f77b4;" x="319.507527" xlink:href="#m132ad1b1aa" y="1145.080591"/>
     <use style="fill:#1f77b4;stroke:#1f77b4;" x="258.934695" xlink:href="#m132ad1b1aa" y="1205.142235"/>
     <use style="fill:#1f77b4;stroke:#1f77b4;" x="338.241393" xlink:href="#m132ad1b1aa" y="1143.335593"/>
     <use style="fill:#1f77b4;stroke:#1f77b4;" x="505.28503" xlink:href="#m132ad1b1aa" y="1028.104131"/>
     <use style="fill:#1f77b4;stroke:#1f77b4;" x="326.220496" xlink:href="#m132ad1b1aa" y="1126.271865"/>
     <use style="fill:#1f77b4;stroke:#1f77b4;" x="403.809923" xlink:href="#m132ad1b1aa" y="1063.436251"/>
     <use style="fill:#1f77b4;stroke:#1f77b4;" x="362.283188" xlink:href="#m132ad1b1aa" y="1092.835709"/>
     <use style="fill:#1f77b4;stroke:#1f77b4;" x="287.191609" xlink:href="#m132ad1b1aa" y="1174.555161"/>
     <use style="fill:#1f77b4;stroke:#1f77b4;" x="392.881835" xlink:href="#m132ad1b1aa" y="1074.024634"/>
     <use style="fill:#1f77b4;stroke:#1f77b4;" x="318.258603" xlink:href="#m132ad1b1aa" y="1132.173543"/>
     <use style="fill:#1f77b4;stroke:#1f77b4;" x="309.516132" xlink:href="#m132ad1b1aa" y="1149.43329"/>
     <use style="fill:#1f77b4;stroke:#1f77b4;" x="1001.732472" xlink:href="#m132ad1b1aa" y="1028.104131"/>
     <use style="fill:#1f77b4;stroke:#1f77b4;" x="375.396894" xlink:href="#m132ad1b1aa" y="1092.12807"/>
     <use style="fill:#1f77b4;stroke:#1f77b4;" x="563.047782" xlink:href="#m132ad1b1aa" y="1028.104131"/>
     <use style="fill:#1f77b4;stroke:#1f77b4;" x="258.934695" xlink:href="#m132ad1b1aa" y="1204.358855"/>
     <use style="fill:#1f77b4;stroke:#1f77b4;" x="411.615701" xlink:href="#m132ad1b1aa" y="1052.289465"/>
     <use style="fill:#1f77b4;stroke:#1f77b4;" x="297.183004" xlink:href="#m132ad1b1aa" y="1155.071515"/>
     <use style="fill:#1f77b4;stroke:#1f77b4;" x="368.059463" xlink:href="#m132ad1b1aa" y="1096.296167"/>
     <use style="fill:#1f77b4;stroke:#1f77b4;" x="348.388904" xlink:href="#m132ad1b1aa" y="1135.067439"/>
     <use style="fill:#1f77b4;stroke:#1f77b4;" x="372.586814" xlink:href="#m132ad1b1aa" y="1089.401506"/>
     <use style="fill:#1f77b4;stroke:#1f77b4;" x="318.570834" xlink:href="#m132ad1b1aa" y="1147.134697"/>
     <use style="fill:#1f77b4;stroke:#1f77b4;" x="347.920557" xlink:href="#m132ad1b1aa" y="1091.607282"/>
     <use style="fill:#1f77b4;stroke:#1f77b4;" x="304.67655" xlink:href="#m132ad1b1aa" y="1168.317433"/>
     <use style="fill:#1f77b4;stroke:#1f77b4;" x="346.983864" xlink:href="#m132ad1b1aa" y="1110.614573"/>
     <use style="fill:#1f77b4;stroke:#1f77b4;" x="270.643361" xlink:href="#m132ad1b1aa" y="1170.249194"/>
     <use style="fill:#1f77b4;stroke:#1f77b4;" x="297.33912" xlink:href="#m132ad1b1aa" y="1157.190177"/>
     <use style="fill:#1f77b4;stroke:#1f77b4;" x="289.377227" xlink:href="#m132ad1b1aa" y="1168.747135"/>
     <use style="fill:#1f77b4;stroke:#1f77b4;" x="414.738012" xlink:href="#m132ad1b1aa" y="1053.082792"/>
     <use style="fill:#1f77b4;stroke:#1f77b4;" x="303.583741" xlink:href="#m132ad1b1aa" y="1158.283235"/>
     <use style="fill:#1f77b4;stroke:#1f77b4;" x="277.824676" xlink:href="#m132ad1b1aa" y="1187.055394"/>
     <use style="fill:#1f77b4;stroke:#1f77b4;" x="346.203286" xlink:href="#m132ad1b1aa" y="1107.991666"/>
     <use style="fill:#1f77b4;stroke:#1f77b4;" x="381.797631" xlink:href="#m132ad1b1aa" y="1083.62332"/>
     <use style="fill:#1f77b4;stroke:#1f77b4;" x="382.109862" xlink:href="#m132ad1b1aa" y="1052.005963"/>
     <use style="fill:#1f77b4;stroke:#1f77b4;" x="345.422708" xlink:href="#m132ad1b1aa" y="1127.649518"/>
     <use style="fill:#1f77b4;stroke:#1f77b4;" x="483.428853" xlink:href="#m132ad1b1aa" y="985.465345"/>
     <use style="fill:#1f77b4;stroke:#1f77b4;" x="370.713427" xlink:href="#m132ad1b1aa" y="1085.210723"/>
     <use style="fill:#1f77b4;stroke:#1f77b4;" x="1245.272727" xlink:href="#m132ad1b1aa" y="872.99578"/>
     <use style="fill:#1f77b4;stroke:#1f77b4;" x="392.881835" xlink:href="#m132ad1b1aa" y="1080.31172"/>
     <use style="fill:#1f77b4;stroke:#1f77b4;" x="285.786569" xlink:href="#m132ad1b1aa" y="1174.887396"/>
     <use style="fill:#1f77b4;stroke:#1f77b4;" x="375.396894" xlink:href="#m132ad1b1aa" y="1093.403697"/>
     <use style="fill:#1f77b4;stroke:#1f77b4;" x="291.250613" xlink:href="#m132ad1b1aa" y="1182.559726"/>
     <use style="fill:#1f77b4;stroke:#1f77b4;" x="334.806851" xlink:href="#m132ad1b1aa" y="1121.526575"/>
     <use style="fill:#1f77b4;stroke:#1f77b4;" x="405.371079" xlink:href="#m132ad1b1aa" y="1052.129094"/>
     <use style="fill:#1f77b4;stroke:#1f77b4;" x="322.161492" xlink:href="#m132ad1b1aa" y="1139.411077"/>
     <use style="fill:#1f77b4;stroke:#1f77b4;" x="294.060693" xlink:href="#m132ad1b1aa" y="1150.729536"/>
     <use style="fill:#1f77b4;stroke:#1f77b4;" x="258.934695" xlink:href="#m132ad1b1aa" y="1192.423987"/>
     <use style="fill:#1f77b4;stroke:#1f77b4;" x="435.033033" xlink:href="#m132ad1b1aa" y="1049.389572"/>
     <use style="fill:#1f77b4;stroke:#1f77b4;" x="475.623075" xlink:href="#m132ad1b1aa" y="1028.104131"/>
     <use style="fill:#1f77b4;stroke:#1f77b4;" x="299.680853" xlink:href="#m132ad1b1aa" y="1154.958818"/>
     <use style="fill:#1f77b4;stroke:#1f77b4;" x="382.109862" xlink:href="#m132ad1b1aa" y="1071.165706"/>
     <use style="fill:#1f77b4;stroke:#1f77b4;" x="237.546865" xlink:href="#m132ad1b1aa" y="1225.772015"/>
     <use style="fill:#1f77b4;stroke:#1f77b4;" x="302.959279" xlink:href="#m132ad1b1aa" y="1168.406511"/>
     <use style="fill:#1f77b4;stroke:#1f77b4;" x="278.449138" xlink:href="#m132ad1b1aa" y="1168.680122"/>
     <use style="fill:#1f77b4;stroke:#1f77b4;" x="505.28503" xlink:href="#m132ad1b1aa" y="1029.706208"/>
     <use style="fill:#1f77b4;stroke:#1f77b4;" x="343.861553" xlink:href="#m132ad1b1aa" y="1116.39646"/>
     <use style="fill:#1f77b4;stroke:#1f77b4;" x="285.005991" xlink:href="#m132ad1b1aa" y="1179.798607"/>
     <use style="fill:#1f77b4;stroke:#1f77b4;" x="392.881835" xlink:href="#m132ad1b1aa" y="1070.006505"/>
     <use style="fill:#1f77b4;stroke:#1f77b4;" x="282.820374" xlink:href="#m132ad1b1aa" y="1179.641841"/>
     <use style="fill:#1f77b4;stroke:#1f77b4;" x="460.011521" xlink:href="#m132ad1b1aa" y="1016.885256"/>
     <use style="fill:#1f77b4;stroke:#1f77b4;" x="375.396894" xlink:href="#m132ad1b1aa" y="1086.06937"/>
     <use style="fill:#1f77b4;stroke:#1f77b4;" x="547.436228" xlink:href="#m132ad1b1aa" y="1028.104131"/>
     <use style="fill:#1f77b4;stroke:#1f77b4;" x="508.407341" xlink:href="#m132ad1b1aa" y="1028.104131"/>
     <use style="fill:#1f77b4;stroke:#1f77b4;" x="372.274583" xlink:href="#m132ad1b1aa" y="1090.410696"/>
     <use style="fill:#1f77b4;stroke:#1f77b4;" x="330.123385" xlink:href="#m132ad1b1aa" y="1127.041389"/>
     <use style="fill:#1f77b4;stroke:#1f77b4;" x="325.283803" xlink:href="#m132ad1b1aa" y="1136.374569"/>
     <use style="fill:#1f77b4;stroke:#1f77b4;" x="589.587425" xlink:href="#m132ad1b1aa" y="962.157005"/>
     <use style="fill:#1f77b4;stroke:#1f77b4;" x="318.883065" xlink:href="#m132ad1b1aa" y="1145.779712"/>
     <use style="fill:#1f77b4;stroke:#1f77b4;" x="367.278885" xlink:href="#m132ad1b1aa" y="1105.406102"/>
     <use style="fill:#1f77b4;stroke:#1f77b4;" x="312.794559" xlink:href="#m132ad1b1aa" y="1160.804006"/>
     <use style="fill:#1f77b4;stroke:#1f77b4;" x="296.246311" xlink:href="#m132ad1b1aa" y="1160.889082"/>
     <use style="fill:#1f77b4;stroke:#1f77b4;" x="332.309002" xlink:href="#m132ad1b1aa" y="1130.892625"/>
     <use style="fill:#1f77b4;stroke:#1f77b4;" x="420.982634" xlink:href="#m132ad1b1aa" y="1042.488697"/>
     <use style="fill:#1f77b4;stroke:#1f77b4;" x="280.634756" xlink:href="#m132ad1b1aa" y="1183.275002"/>
     <use style="fill:#1f77b4;stroke:#1f77b4;" x="348.85725" xlink:href="#m132ad1b1aa" y="1117.415191"/>
     <use style="fill:#1f77b4;stroke:#1f77b4;" x="321.068683" xlink:href="#m132ad1b1aa" y="1135.873762"/>
     <use style="fill:#1f77b4;stroke:#1f77b4;" x="277.044098" xlink:href="#m132ad1b1aa" y="1188.063474"/>
     <use style="fill:#1f77b4;stroke:#1f77b4;" x="323.722647" xlink:href="#m132ad1b1aa" y="1138.465509"/>
     <use style="fill:#1f77b4;stroke:#1f77b4;" x="280.634756" xlink:href="#m132ad1b1aa" y="1179.428128"/>
     <use style="fill:#1f77b4;stroke:#1f77b4;" x="336.055775" xlink:href="#m132ad1b1aa" y="1131.88538"/>
     <use style="fill:#1f77b4;stroke:#1f77b4;" x="511.529651" xlink:href="#m132ad1b1aa" y="948.885966"/>
    </g>
   </g>
   <g id="matplotlib.axis_1">
    <g id="xtick_1">
     <g id="line2d_1">
      <defs>
       <path d="M 0 0 
L 0 3.5 
" id="m457f433f6e" style="stroke:#000000;stroke-width:0.8;"/>
      </defs>
      <g>
       <use style="stroke:#000000;stroke-width:0.8;" x="227.399354" xlink:href="#m457f433f6e" y="1281.6"/>
      </g>
     </g>
     <g id="text_1">
      <!-- 0 -->
      <defs>
       <path d="M 31.78125 66.40625 
Q 24.171875 66.40625 20.328125 58.90625 
Q 16.5 51.421875 16.5 36.375 
Q 16.5 21.390625 20.328125 13.890625 
Q 24.171875 6.390625 31.78125 6.390625 
Q 39.453125 6.390625 43.28125 13.890625 
Q 47.125 21.390625 47.125 36.375 
Q 47.125 51.421875 43.28125 58.90625 
Q 39.453125 66.40625 31.78125 66.40625 
z
M 31.78125 74.21875 
Q 44.046875 74.21875 50.515625 64.515625 
Q 56.984375 54.828125 56.984375 36.375 
Q 56.984375 17.96875 50.515625 8.265625 
Q 44.046875 -1.421875 31.78125 -1.421875 
Q 19.53125 -1.421875 13.0625 8.265625 
Q 6.59375 17.96875 6.59375 36.375 
Q 6.59375 54.828125 13.0625 64.515625 
Q 19.53125 74.21875 31.78125 74.21875 
z
" id="DejaVuSans-30"/>
      </defs>
      <g transform="translate(217.855604 1311.395313)scale(0.3 -0.3)">
       <use xlink:href="#DejaVuSans-30"/>
      </g>
     </g>
    </g>
    <g id="xtick_2">
     <g id="line2d_2">
      <g>
       <use style="stroke:#000000;stroke-width:0.8;" x="383.514902" xlink:href="#m457f433f6e" y="1281.6"/>
      </g>
     </g>
     <g id="text_2">
      <!-- 100 -->
      <defs>
       <path d="M 12.40625 8.296875 
L 28.515625 8.296875 
L 28.515625 63.921875 
L 10.984375 60.40625 
L 10.984375 69.390625 
L 28.421875 72.90625 
L 38.28125 72.90625 
L 38.28125 8.296875 
L 54.390625 8.296875 
L 54.390625 0 
L 12.40625 0 
z
" id="DejaVuSans-31"/>
      </defs>
      <g transform="translate(354.883652 1311.395313)scale(0.3 -0.3)">
       <use xlink:href="#DejaVuSans-31"/>
       <use x="63.623047" xlink:href="#DejaVuSans-30"/>
       <use x="127.246094" xlink:href="#DejaVuSans-30"/>
      </g>
     </g>
    </g>
    <g id="xtick_3">
     <g id="line2d_3">
      <g>
       <use style="stroke:#000000;stroke-width:0.8;" x="539.63045" xlink:href="#m457f433f6e" y="1281.6"/>
      </g>
     </g>
     <g id="text_3">
      <!-- 200 -->
      <defs>
       <path d="M 19.1875 8.296875 
L 53.609375 8.296875 
L 53.609375 0 
L 7.328125 0 
L 7.328125 8.296875 
Q 12.9375 14.109375 22.625 23.890625 
Q 32.328125 33.6875 34.8125 36.53125 
Q 39.546875 41.84375 41.421875 45.53125 
Q 43.3125 49.21875 43.3125 52.78125 
Q 43.3125 58.59375 39.234375 62.25 
Q 35.15625 65.921875 28.609375 65.921875 
Q 23.96875 65.921875 18.8125 64.3125 
Q 13.671875 62.703125 7.8125 59.421875 
L 7.8125 69.390625 
Q 13.765625 71.78125 18.9375 73 
Q 24.125 74.21875 28.421875 74.21875 
Q 39.75 74.21875 46.484375 68.546875 
Q 53.21875 62.890625 53.21875 53.421875 
Q 53.21875 48.921875 51.53125 44.890625 
Q 49.859375 40.875 45.40625 35.40625 
Q 44.1875 33.984375 37.640625 27.21875 
Q 31.109375 20.453125 19.1875 8.296875 
z
" id="DejaVuSans-32"/>
      </defs>
      <g transform="translate(510.9992 1311.395313)scale(0.3 -0.3)">
       <use xlink:href="#DejaVuSans-32"/>
       <use x="63.623047" xlink:href="#DejaVuSans-30"/>
       <use x="127.246094" xlink:href="#DejaVuSans-30"/>
      </g>
     </g>
    </g>
    <g id="xtick_4">
     <g id="line2d_4">
      <g>
       <use style="stroke:#000000;stroke-width:0.8;" x="695.745998" xlink:href="#m457f433f6e" y="1281.6"/>
      </g>
     </g>
     <g id="text_4">
      <!-- 300 -->
      <defs>
       <path d="M 40.578125 39.3125 
Q 47.65625 37.796875 51.625 33 
Q 55.609375 28.21875 55.609375 21.1875 
Q 55.609375 10.40625 48.1875 4.484375 
Q 40.765625 -1.421875 27.09375 -1.421875 
Q 22.515625 -1.421875 17.65625 -0.515625 
Q 12.796875 0.390625 7.625 2.203125 
L 7.625 11.71875 
Q 11.71875 9.328125 16.59375 8.109375 
Q 21.484375 6.890625 26.8125 6.890625 
Q 36.078125 6.890625 40.9375 10.546875 
Q 45.796875 14.203125 45.796875 21.1875 
Q 45.796875 27.640625 41.28125 31.265625 
Q 36.765625 34.90625 28.71875 34.90625 
L 20.21875 34.90625 
L 20.21875 43.015625 
L 29.109375 43.015625 
Q 36.375 43.015625 40.234375 45.921875 
Q 44.09375 48.828125 44.09375 54.296875 
Q 44.09375 59.90625 40.109375 62.90625 
Q 36.140625 65.921875 28.71875 65.921875 
Q 24.65625 65.921875 20.015625 65.03125 
Q 15.375 64.15625 9.8125 62.3125 
L 9.8125 71.09375 
Q 15.4375 72.65625 20.34375 73.4375 
Q 25.25 74.21875 29.59375 74.21875 
Q 40.828125 74.21875 47.359375 69.109375 
Q 53.90625 64.015625 53.90625 55.328125 
Q 53.90625 49.265625 50.4375 45.09375 
Q 46.96875 40.921875 40.578125 39.3125 
z
" id="DejaVuSans-33"/>
      </defs>
      <g transform="translate(667.114748 1311.395313)scale(0.3 -0.3)">
       <use xlink:href="#DejaVuSans-33"/>
       <use x="63.623047" xlink:href="#DejaVuSans-30"/>
       <use x="127.246094" xlink:href="#DejaVuSans-30"/>
      </g>
     </g>
    </g>
    <g id="xtick_5">
     <g id="line2d_5">
      <g>
       <use style="stroke:#000000;stroke-width:0.8;" x="851.861546" xlink:href="#m457f433f6e" y="1281.6"/>
      </g>
     </g>
     <g id="text_5">
      <!-- 400 -->
      <defs>
       <path d="M 37.796875 64.3125 
L 12.890625 25.390625 
L 37.796875 25.390625 
z
M 35.203125 72.90625 
L 47.609375 72.90625 
L 47.609375 25.390625 
L 58.015625 25.390625 
L 58.015625 17.1875 
L 47.609375 17.1875 
L 47.609375 0 
L 37.796875 0 
L 37.796875 17.1875 
L 4.890625 17.1875 
L 4.890625 26.703125 
z
" id="DejaVuSans-34"/>
      </defs>
      <g transform="translate(823.230296 1311.395313)scale(0.3 -0.3)">
       <use xlink:href="#DejaVuSans-34"/>
       <use x="63.623047" xlink:href="#DejaVuSans-30"/>
       <use x="127.246094" xlink:href="#DejaVuSans-30"/>
      </g>
     </g>
    </g>
    <g id="xtick_6">
     <g id="line2d_6">
      <g>
       <use style="stroke:#000000;stroke-width:0.8;" x="1007.977094" xlink:href="#m457f433f6e" y="1281.6"/>
      </g>
     </g>
     <g id="text_6">
      <!-- 500 -->
      <defs>
       <path d="M 10.796875 72.90625 
L 49.515625 72.90625 
L 49.515625 64.59375 
L 19.828125 64.59375 
L 19.828125 46.734375 
Q 21.96875 47.46875 24.109375 47.828125 
Q 26.265625 48.1875 28.421875 48.1875 
Q 40.625 48.1875 47.75 41.5 
Q 54.890625 34.8125 54.890625 23.390625 
Q 54.890625 11.625 47.5625 5.09375 
Q 40.234375 -1.421875 26.90625 -1.421875 
Q 22.3125 -1.421875 17.546875 -0.640625 
Q 12.796875 0.140625 7.71875 1.703125 
L 7.71875 11.625 
Q 12.109375 9.234375 16.796875 8.0625 
Q 21.484375 6.890625 26.703125 6.890625 
Q 35.15625 6.890625 40.078125 11.328125 
Q 45.015625 15.765625 45.015625 23.390625 
Q 45.015625 31 40.078125 35.4375 
Q 35.15625 39.890625 26.703125 39.890625 
Q 22.75 39.890625 18.8125 39.015625 
Q 14.890625 38.140625 10.796875 36.28125 
z
" id="DejaVuSans-35"/>
      </defs>
      <g transform="translate(979.345844 1311.395313)scale(0.3 -0.3)">
       <use xlink:href="#DejaVuSans-35"/>
       <use x="63.623047" xlink:href="#DejaVuSans-30"/>
       <use x="127.246094" xlink:href="#DejaVuSans-30"/>
      </g>
     </g>
    </g>
    <g id="xtick_7">
     <g id="line2d_7">
      <g>
       <use style="stroke:#000000;stroke-width:0.8;" x="1164.092642" xlink:href="#m457f433f6e" y="1281.6"/>
      </g>
     </g>
     <g id="text_7">
      <!-- 600 -->
      <defs>
       <path d="M 33.015625 40.375 
Q 26.375 40.375 22.484375 35.828125 
Q 18.609375 31.296875 18.609375 23.390625 
Q 18.609375 15.53125 22.484375 10.953125 
Q 26.375 6.390625 33.015625 6.390625 
Q 39.65625 6.390625 43.53125 10.953125 
Q 47.40625 15.53125 47.40625 23.390625 
Q 47.40625 31.296875 43.53125 35.828125 
Q 39.65625 40.375 33.015625 40.375 
z
M 52.59375 71.296875 
L 52.59375 62.3125 
Q 48.875 64.0625 45.09375 64.984375 
Q 41.3125 65.921875 37.59375 65.921875 
Q 27.828125 65.921875 22.671875 59.328125 
Q 17.53125 52.734375 16.796875 39.40625 
Q 19.671875 43.65625 24.015625 45.921875 
Q 28.375 48.1875 33.59375 48.1875 
Q 44.578125 48.1875 50.953125 41.515625 
Q 57.328125 34.859375 57.328125 23.390625 
Q 57.328125 12.15625 50.6875 5.359375 
Q 44.046875 -1.421875 33.015625 -1.421875 
Q 20.359375 -1.421875 13.671875 8.265625 
Q 6.984375 17.96875 6.984375 36.375 
Q 6.984375 53.65625 15.1875 63.9375 
Q 23.390625 74.21875 37.203125 74.21875 
Q 40.921875 74.21875 44.703125 73.484375 
Q 48.484375 72.75 52.59375 71.296875 
z
" id="DejaVuSans-36"/>
      </defs>
      <g transform="translate(1135.461392 1311.395313)scale(0.3 -0.3)">
       <use xlink:href="#DejaVuSans-36"/>
       <use x="63.623047" xlink:href="#DejaVuSans-30"/>
       <use x="127.246094" xlink:href="#DejaVuSans-30"/>
      </g>
     </g>
    </g>
    <g id="text_8">
     <!-- Y Test -->
     <defs>
      <path d="M -0.203125 72.90625 
L 10.40625 72.90625 
L 30.609375 42.921875 
L 50.6875 72.90625 
L 61.28125 72.90625 
L 35.5 34.71875 
L 35.5 0 
L 25.59375 0 
L 25.59375 34.71875 
z
" id="DejaVuSans-59"/>
      <path id="DejaVuSans-20"/>
      <path d="M -0.296875 72.90625 
L 61.375 72.90625 
L 61.375 64.59375 
L 35.5 64.59375 
L 35.5 0 
L 25.59375 0 
L 25.59375 64.59375 
L -0.296875 64.59375 
z
" id="DejaVuSans-54"/>
      <path d="M 56.203125 29.59375 
L 56.203125 25.203125 
L 14.890625 25.203125 
Q 15.484375 15.921875 20.484375 11.0625 
Q 25.484375 6.203125 34.421875 6.203125 
Q 39.59375 6.203125 44.453125 7.46875 
Q 49.3125 8.734375 54.109375 11.28125 
L 54.109375 2.78125 
Q 49.265625 0.734375 44.1875 -0.34375 
Q 39.109375 -1.421875 33.890625 -1.421875 
Q 20.796875 -1.421875 13.15625 6.1875 
Q 5.515625 13.8125 5.515625 26.8125 
Q 5.515625 40.234375 12.765625 48.109375 
Q 20.015625 56 32.328125 56 
Q 43.359375 56 49.78125 48.890625 
Q 56.203125 41.796875 56.203125 29.59375 
z
M 47.21875 32.234375 
Q 47.125 39.59375 43.09375 43.984375 
Q 39.0625 48.390625 32.421875 48.390625 
Q 24.90625 48.390625 20.390625 44.140625 
Q 15.875 39.890625 15.1875 32.171875 
z
" id="DejaVuSans-65"/>
      <path d="M 44.28125 53.078125 
L 44.28125 44.578125 
Q 40.484375 46.53125 36.375 47.5 
Q 32.28125 48.484375 27.875 48.484375 
Q 21.1875 48.484375 17.84375 46.4375 
Q 14.5 44.390625 14.5 40.28125 
Q 14.5 37.15625 16.890625 35.375 
Q 19.28125 33.59375 26.515625 31.984375 
L 29.59375 31.296875 
Q 39.15625 29.25 43.1875 25.515625 
Q 47.21875 21.78125 47.21875 15.09375 
Q 47.21875 7.46875 41.1875 3.015625 
Q 35.15625 -1.421875 24.609375 -1.421875 
Q 20.21875 -1.421875 15.453125 -0.5625 
Q 10.6875 0.296875 5.421875 2 
L 5.421875 11.28125 
Q 10.40625 8.6875 15.234375 7.390625 
Q 20.0625 6.109375 24.8125 6.109375 
Q 31.15625 6.109375 34.5625 8.28125 
Q 37.984375 10.453125 37.984375 14.40625 
Q 37.984375 18.0625 35.515625 20.015625 
Q 33.0625 21.96875 24.703125 23.78125 
L 21.578125 24.515625 
Q 13.234375 26.265625 9.515625 29.90625 
Q 5.8125 33.546875 5.8125 39.890625 
Q 5.8125 47.609375 11.28125 51.796875 
Q 16.75 56 26.8125 56 
Q 31.78125 56 36.171875 55.265625 
Q 40.578125 54.546875 44.28125 53.078125 
z
" id="DejaVuSans-73"/>
      <path d="M 18.3125 70.21875 
L 18.3125 54.6875 
L 36.8125 54.6875 
L 36.8125 47.703125 
L 18.3125 47.703125 
L 18.3125 18.015625 
Q 18.3125 11.328125 20.140625 9.421875 
Q 21.96875 7.515625 27.59375 7.515625 
L 36.8125 7.515625 
L 36.8125 0 
L 27.59375 0 
Q 17.1875 0 13.234375 3.875 
Q 9.28125 7.765625 9.28125 18.015625 
L 9.28125 47.703125 
L 2.6875 47.703125 
L 2.6875 54.6875 
L 9.28125 54.6875 
L 9.28125 70.21875 
z
" id="DejaVuSans-74"/>
     </defs>
     <g transform="translate(692.025 1344.429688)scale(0.3 -0.3)">
      <use xlink:href="#DejaVuSans-59"/>
      <use x="61.083984" xlink:href="#DejaVuSans-20"/>
      <use x="92.871094" xlink:href="#DejaVuSans-54"/>
      <use x="153.689453" xlink:href="#DejaVuSans-65"/>
      <use x="215.212891" xlink:href="#DejaVuSans-73"/>
      <use x="267.3125" xlink:href="#DejaVuSans-74"/>
     </g>
    </g>
   </g>
   <g id="matplotlib.axis_2">
    <g id="ytick_1">
     <g id="line2d_8">
      <defs>
       <path d="M 0 0 
L -3.5 0 
" id="m5639bcfa2e" style="stroke:#000000;stroke-width:0.8;"/>
      </defs>
      <g>
       <use style="stroke:#000000;stroke-width:0.8;" x="180" xlink:href="#m5639bcfa2e" y="1234.506448"/>
      </g>
     </g>
     <g id="text_9">
      <!-- 0 -->
      <g transform="translate(153.9125 1245.904105)scale(0.3 -0.3)">
       <use xlink:href="#DejaVuSans-30"/>
      </g>
     </g>
    </g>
    <g id="ytick_2">
     <g id="line2d_9">
      <g>
       <use style="stroke:#000000;stroke-width:0.8;" x="180" xlink:href="#m5639bcfa2e" y="1079.398097"/>
      </g>
     </g>
     <g id="text_10">
      <!-- 100 -->
      <g transform="translate(115.7375 1090.795754)scale(0.3 -0.3)">
       <use xlink:href="#DejaVuSans-31"/>
       <use x="63.623047" xlink:href="#DejaVuSans-30"/>
       <use x="127.246094" xlink:href="#DejaVuSans-30"/>
      </g>
     </g>
    </g>
    <g id="ytick_3">
     <g id="line2d_10">
      <g>
       <use style="stroke:#000000;stroke-width:0.8;" x="180" xlink:href="#m5639bcfa2e" y="924.289746"/>
      </g>
     </g>
     <g id="text_11">
      <!-- 200 -->
      <g transform="translate(115.7375 935.687403)scale(0.3 -0.3)">
       <use xlink:href="#DejaVuSans-32"/>
       <use x="63.623047" xlink:href="#DejaVuSans-30"/>
       <use x="127.246094" xlink:href="#DejaVuSans-30"/>
      </g>
     </g>
    </g>
    <g id="ytick_4">
     <g id="line2d_11">
      <g>
       <use style="stroke:#000000;stroke-width:0.8;" x="180" xlink:href="#m5639bcfa2e" y="769.181395"/>
      </g>
     </g>
     <g id="text_12">
      <!-- 300 -->
      <g transform="translate(115.7375 780.579052)scale(0.3 -0.3)">
       <use xlink:href="#DejaVuSans-33"/>
       <use x="63.623047" xlink:href="#DejaVuSans-30"/>
       <use x="127.246094" xlink:href="#DejaVuSans-30"/>
      </g>
     </g>
    </g>
    <g id="ytick_5">
     <g id="line2d_12">
      <g>
       <use style="stroke:#000000;stroke-width:0.8;" x="180" xlink:href="#m5639bcfa2e" y="614.073044"/>
      </g>
     </g>
     <g id="text_13">
      <!-- 400 -->
      <g transform="translate(115.7375 625.470701)scale(0.3 -0.3)">
       <use xlink:href="#DejaVuSans-34"/>
       <use x="63.623047" xlink:href="#DejaVuSans-30"/>
       <use x="127.246094" xlink:href="#DejaVuSans-30"/>
      </g>
     </g>
    </g>
    <g id="ytick_6">
     <g id="line2d_13">
      <g>
       <use style="stroke:#000000;stroke-width:0.8;" x="180" xlink:href="#m5639bcfa2e" y="458.964693"/>
      </g>
     </g>
     <g id="text_14">
      <!-- 500 -->
      <g transform="translate(115.7375 470.36235)scale(0.3 -0.3)">
       <use xlink:href="#DejaVuSans-35"/>
       <use x="63.623047" xlink:href="#DejaVuSans-30"/>
       <use x="127.246094" xlink:href="#DejaVuSans-30"/>
      </g>
     </g>
    </g>
    <g id="ytick_7">
     <g id="line2d_14">
      <g>
       <use style="stroke:#000000;stroke-width:0.8;" x="180" xlink:href="#m5639bcfa2e" y="303.856342"/>
      </g>
     </g>
     <g id="text_15">
      <!-- 600 -->
      <g transform="translate(115.7375 315.253999)scale(0.3 -0.3)">
       <use xlink:href="#DejaVuSans-36"/>
       <use x="63.623047" xlink:href="#DejaVuSans-30"/>
       <use x="127.246094" xlink:href="#DejaVuSans-30"/>
      </g>
     </g>
    </g>
    <g id="text_16">
     <!-- Y Predicted -->
     <defs>
      <path d="M 19.671875 64.796875 
L 19.671875 37.40625 
L 32.078125 37.40625 
Q 38.96875 37.40625 42.71875 40.96875 
Q 46.484375 44.53125 46.484375 51.125 
Q 46.484375 57.671875 42.71875 61.234375 
Q 38.96875 64.796875 32.078125 64.796875 
z
M 9.8125 72.90625 
L 32.078125 72.90625 
Q 44.34375 72.90625 50.609375 67.359375 
Q 56.890625 61.8125 56.890625 51.125 
Q 56.890625 40.328125 50.609375 34.8125 
Q 44.34375 29.296875 32.078125 29.296875 
L 19.671875 29.296875 
L 19.671875 0 
L 9.8125 0 
z
" id="DejaVuSans-50"/>
      <path d="M 41.109375 46.296875 
Q 39.59375 47.171875 37.8125 47.578125 
Q 36.03125 48 33.890625 48 
Q 26.265625 48 22.1875 43.046875 
Q 18.109375 38.09375 18.109375 28.8125 
L 18.109375 0 
L 9.078125 0 
L 9.078125 54.6875 
L 18.109375 54.6875 
L 18.109375 46.1875 
Q 20.953125 51.171875 25.484375 53.578125 
Q 30.03125 56 36.53125 56 
Q 37.453125 56 38.578125 55.875 
Q 39.703125 55.765625 41.0625 55.515625 
z
" id="DejaVuSans-72"/>
      <path d="M 45.40625 46.390625 
L 45.40625 75.984375 
L 54.390625 75.984375 
L 54.390625 0 
L 45.40625 0 
L 45.40625 8.203125 
Q 42.578125 3.328125 38.25 0.953125 
Q 33.9375 -1.421875 27.875 -1.421875 
Q 17.96875 -1.421875 11.734375 6.484375 
Q 5.515625 14.40625 5.515625 27.296875 
Q 5.515625 40.1875 11.734375 48.09375 
Q 17.96875 56 27.875 56 
Q 33.9375 56 38.25 53.625 
Q 42.578125 51.265625 45.40625 46.390625 
z
M 14.796875 27.296875 
Q 14.796875 17.390625 18.875 11.75 
Q 22.953125 6.109375 30.078125 6.109375 
Q 37.203125 6.109375 41.296875 11.75 
Q 45.40625 17.390625 45.40625 27.296875 
Q 45.40625 37.203125 41.296875 42.84375 
Q 37.203125 48.484375 30.078125 48.484375 
Q 22.953125 48.484375 18.875 42.84375 
Q 14.796875 37.203125 14.796875 27.296875 
z
" id="DejaVuSans-64"/>
      <path d="M 9.421875 54.6875 
L 18.40625 54.6875 
L 18.40625 0 
L 9.421875 0 
z
M 9.421875 75.984375 
L 18.40625 75.984375 
L 18.40625 64.59375 
L 9.421875 64.59375 
z
" id="DejaVuSans-69"/>
      <path d="M 48.78125 52.59375 
L 48.78125 44.1875 
Q 44.96875 46.296875 41.140625 47.34375 
Q 37.3125 48.390625 33.40625 48.390625 
Q 24.65625 48.390625 19.8125 42.84375 
Q 14.984375 37.3125 14.984375 27.296875 
Q 14.984375 17.28125 19.8125 11.734375 
Q 24.65625 6.203125 33.40625 6.203125 
Q 37.3125 6.203125 41.140625 7.25 
Q 44.96875 8.296875 48.78125 10.40625 
L 48.78125 2.09375 
Q 45.015625 0.34375 40.984375 -0.53125 
Q 36.96875 -1.421875 32.421875 -1.421875 
Q 20.0625 -1.421875 12.78125 6.34375 
Q 5.515625 14.109375 5.515625 27.296875 
Q 5.515625 40.671875 12.859375 48.328125 
Q 20.21875 56 33.015625 56 
Q 37.15625 56 41.109375 55.140625 
Q 45.0625 54.296875 48.78125 52.59375 
z
" id="DejaVuSans-63"/>
     </defs>
     <g transform="translate(105.498437 812.132812)rotate(-90)scale(0.3 -0.3)">
      <use xlink:href="#DejaVuSans-59"/>
      <use x="61.083984" xlink:href="#DejaVuSans-20"/>
      <use x="92.871094" xlink:href="#DejaVuSans-50"/>
      <use x="153.158203" xlink:href="#DejaVuSans-72"/>
      <use x="194.240234" xlink:href="#DejaVuSans-65"/>
      <use x="255.763672" xlink:href="#DejaVuSans-64"/>
      <use x="319.240234" xlink:href="#DejaVuSans-69"/>
      <use x="347.023438" xlink:href="#DejaVuSans-63"/>
      <use x="402.003906" xlink:href="#DejaVuSans-74"/>
      <use x="441.212891" xlink:href="#DejaVuSans-65"/>
      <use x="502.736328" xlink:href="#DejaVuSans-64"/>
     </g>
    </g>
   </g>
   <g id="line2d_15">
    <path clip-path="url(#p7c1e2201d1)" d="M 180 1281.6 
L 1296 172.8 
" style="fill:none;stroke:#1f77b4;stroke-dasharray:5.55,2.4;stroke-dashoffset:0;stroke-width:1.5;"/>
   </g>
   <g id="patch_3">
    <path d="M 180 1281.6 
L 180 172.8 
" style="fill:none;stroke:#000000;stroke-linecap:square;stroke-linejoin:miter;stroke-width:0.8;"/>
   </g>
   <g id="patch_4">
    <path d="M 1296 1281.6 
L 1296 172.8 
" style="fill:none;stroke:#000000;stroke-linecap:square;stroke-linejoin:miter;stroke-width:0.8;"/>
   </g>
   <g id="patch_5">
    <path d="M 180 1281.6 
L 1296 1281.6 
" style="fill:none;stroke:#000000;stroke-linecap:square;stroke-linejoin:miter;stroke-width:0.8;"/>
   </g>
   <g id="patch_6">
    <path d="M 180 172.8 
L 1296 172.8 
" style="fill:none;stroke:#000000;stroke-linecap:square;stroke-linejoin:miter;stroke-width:0.8;"/>
   </g>
   <g id="text_17">
    <!-- SVR_TPSA -->
    <defs>
     <path d="M 53.515625 70.515625 
L 53.515625 60.890625 
Q 47.90625 63.578125 42.921875 64.890625 
Q 37.9375 66.21875 33.296875 66.21875 
Q 25.25 66.21875 20.875 63.09375 
Q 16.5 59.96875 16.5 54.203125 
Q 16.5 49.359375 19.40625 46.890625 
Q 22.3125 44.4375 30.421875 42.921875 
L 36.375 41.703125 
Q 47.40625 39.59375 52.65625 34.296875 
Q 57.90625 29 57.90625 20.125 
Q 57.90625 9.515625 50.796875 4.046875 
Q 43.703125 -1.421875 29.984375 -1.421875 
Q 24.8125 -1.421875 18.96875 -0.25 
Q 13.140625 0.921875 6.890625 3.21875 
L 6.890625 13.375 
Q 12.890625 10.015625 18.65625 8.296875 
Q 24.421875 6.59375 29.984375 6.59375 
Q 38.421875 6.59375 43.015625 9.90625 
Q 47.609375 13.234375 47.609375 19.390625 
Q 47.609375 24.75 44.3125 27.78125 
Q 41.015625 30.8125 33.5 32.328125 
L 27.484375 33.5 
Q 16.453125 35.6875 11.515625 40.375 
Q 6.59375 45.0625 6.59375 53.421875 
Q 6.59375 63.09375 13.40625 68.65625 
Q 20.21875 74.21875 32.171875 74.21875 
Q 37.3125 74.21875 42.625 73.28125 
Q 47.953125 72.359375 53.515625 70.515625 
z
" id="DejaVuSans-53"/>
     <path d="M 28.609375 0 
L 0.78125 72.90625 
L 11.078125 72.90625 
L 34.1875 11.53125 
L 57.328125 72.90625 
L 67.578125 72.90625 
L 39.796875 0 
z
" id="DejaVuSans-56"/>
     <path d="M 44.390625 34.1875 
Q 47.5625 33.109375 50.5625 29.59375 
Q 53.5625 26.078125 56.59375 19.921875 
L 66.609375 0 
L 56 0 
L 46.6875 18.703125 
Q 43.0625 26.03125 39.671875 28.421875 
Q 36.28125 30.8125 30.421875 30.8125 
L 19.671875 30.8125 
L 19.671875 0 
L 9.8125 0 
L 9.8125 72.90625 
L 32.078125 72.90625 
Q 44.578125 72.90625 50.734375 67.671875 
Q 56.890625 62.453125 56.890625 51.90625 
Q 56.890625 45.015625 53.6875 40.46875 
Q 50.484375 35.9375 44.390625 34.1875 
z
M 19.671875 64.796875 
L 19.671875 38.921875 
L 32.078125 38.921875 
Q 39.203125 38.921875 42.84375 42.21875 
Q 46.484375 45.515625 46.484375 51.90625 
Q 46.484375 58.296875 42.84375 61.546875 
Q 39.203125 64.796875 32.078125 64.796875 
z
" id="DejaVuSans-52"/>
     <path d="M 50.984375 -16.609375 
L 50.984375 -23.578125 
L -0.984375 -23.578125 
L -0.984375 -16.609375 
z
" id="DejaVuSans-5f"/>
     <path d="M 34.1875 63.1875 
L 20.796875 26.90625 
L 47.609375 26.90625 
z
M 28.609375 72.90625 
L 39.796875 72.90625 
L 67.578125 0 
L 57.328125 0 
L 50.6875 18.703125 
L 17.828125 18.703125 
L 11.1875 0 
L 0.78125 0 
z
" id="DejaVuSans-41"/>
    </defs>
    <g transform="translate(647.161875 166.8)scale(0.36 -0.36)">
     <use xlink:href="#DejaVuSans-53"/>
     <use x="63.476562" xlink:href="#DejaVuSans-56"/>
     <use x="131.884766" xlink:href="#DejaVuSans-52"/>
     <use x="201.367188" xlink:href="#DejaVuSans-5f"/>
     <use x="251.367188" xlink:href="#DejaVuSans-54"/>
     <use x="312.451172" xlink:href="#DejaVuSans-50"/>
     <use x="372.753906" xlink:href="#DejaVuSans-53"/>
     <use x="436.246094" xlink:href="#DejaVuSans-41"/>
    </g>
   </g>
  </g>
 </g>
 <defs>
  <clipPath id="p7c1e2201d1">
   <rect height="1108.8" width="1116" x="180" y="172.8"/>
  </clipPath>
 </defs>
</svg>
